%TF.GenerationSoftware,KiCad,Pcbnew,9.0.1*%
%TF.CreationDate,2026-02-05T11:07:33+03:00*%
%TF.ProjectId,Flybot_FC,466c7962-6f74-45f4-9643-2e6b69636164,rev?*%
%TF.SameCoordinates,Original*%
%TF.FileFunction,Legend,Bot*%
%TF.FilePolarity,Positive*%
%FSLAX46Y46*%
G04 Gerber Fmt 4.6, Leading zero omitted, Abs format (unit mm)*
G04 Created by KiCad (PCBNEW 9.0.1) date 2026-02-05 11:07:33*
%MOMM*%
%LPD*%
G01*
G04 APERTURE LIST*
%ADD10C,0.150000*%
%ADD11C,0.000000*%
%ADD12C,0.120000*%
%ADD13C,0.100000*%
%ADD14C,0.127000*%
%ADD15C,0.200000*%
G04 APERTURE END LIST*
D10*
X133625601Y-109804295D02*
X133982744Y-109804295D01*
X133982744Y-109804295D02*
X134018458Y-110185247D01*
X134018458Y-110185247D02*
X133982744Y-110147152D01*
X133982744Y-110147152D02*
X133911316Y-110109057D01*
X133911316Y-110109057D02*
X133732744Y-110109057D01*
X133732744Y-110109057D02*
X133661316Y-110147152D01*
X133661316Y-110147152D02*
X133625601Y-110185247D01*
X133625601Y-110185247D02*
X133589887Y-110261438D01*
X133589887Y-110261438D02*
X133589887Y-110451914D01*
X133589887Y-110451914D02*
X133625601Y-110528104D01*
X133625601Y-110528104D02*
X133661316Y-110566200D01*
X133661316Y-110566200D02*
X133732744Y-110604295D01*
X133732744Y-110604295D02*
X133911316Y-110604295D01*
X133911316Y-110604295D02*
X133982744Y-110566200D01*
X133982744Y-110566200D02*
X134018458Y-110528104D01*
X133339887Y-110070961D02*
X133161315Y-110604295D01*
X133161315Y-110604295D02*
X132982744Y-110070961D01*
X147754173Y-81624295D02*
X147289887Y-81624295D01*
X147289887Y-81624295D02*
X147539887Y-81929057D01*
X147539887Y-81929057D02*
X147432744Y-81929057D01*
X147432744Y-81929057D02*
X147361316Y-81967152D01*
X147361316Y-81967152D02*
X147325601Y-82005247D01*
X147325601Y-82005247D02*
X147289887Y-82081438D01*
X147289887Y-82081438D02*
X147289887Y-82271914D01*
X147289887Y-82271914D02*
X147325601Y-82348104D01*
X147325601Y-82348104D02*
X147361316Y-82386200D01*
X147361316Y-82386200D02*
X147432744Y-82424295D01*
X147432744Y-82424295D02*
X147647030Y-82424295D01*
X147647030Y-82424295D02*
X147718458Y-82386200D01*
X147718458Y-82386200D02*
X147754173Y-82348104D01*
X146968458Y-82348104D02*
X146932744Y-82386200D01*
X146932744Y-82386200D02*
X146968458Y-82424295D01*
X146968458Y-82424295D02*
X147004172Y-82386200D01*
X147004172Y-82386200D02*
X146968458Y-82348104D01*
X146968458Y-82348104D02*
X146968458Y-82424295D01*
X146682744Y-81624295D02*
X146218458Y-81624295D01*
X146218458Y-81624295D02*
X146468458Y-81929057D01*
X146468458Y-81929057D02*
X146361315Y-81929057D01*
X146361315Y-81929057D02*
X146289887Y-81967152D01*
X146289887Y-81967152D02*
X146254172Y-82005247D01*
X146254172Y-82005247D02*
X146218458Y-82081438D01*
X146218458Y-82081438D02*
X146218458Y-82271914D01*
X146218458Y-82271914D02*
X146254172Y-82348104D01*
X146254172Y-82348104D02*
X146289887Y-82386200D01*
X146289887Y-82386200D02*
X146361315Y-82424295D01*
X146361315Y-82424295D02*
X146575601Y-82424295D01*
X146575601Y-82424295D02*
X146647029Y-82386200D01*
X146647029Y-82386200D02*
X146682744Y-82348104D01*
X145968458Y-81890961D02*
X145789886Y-82424295D01*
X145789886Y-82424295D02*
X145611315Y-81890961D01*
X143521316Y-80184295D02*
X143521316Y-79384295D01*
X143521316Y-80146200D02*
X143592744Y-80184295D01*
X143592744Y-80184295D02*
X143735601Y-80184295D01*
X143735601Y-80184295D02*
X143807030Y-80146200D01*
X143807030Y-80146200D02*
X143842744Y-80108104D01*
X143842744Y-80108104D02*
X143878458Y-80031914D01*
X143878458Y-80031914D02*
X143878458Y-79803342D01*
X143878458Y-79803342D02*
X143842744Y-79727152D01*
X143842744Y-79727152D02*
X143807030Y-79689057D01*
X143807030Y-79689057D02*
X143735601Y-79650961D01*
X143735601Y-79650961D02*
X143592744Y-79650961D01*
X143592744Y-79650961D02*
X143521316Y-79689057D01*
X143164173Y-80184295D02*
X143164173Y-79650961D01*
X143164173Y-79384295D02*
X143199887Y-79422390D01*
X143199887Y-79422390D02*
X143164173Y-79460485D01*
X143164173Y-79460485D02*
X143128459Y-79422390D01*
X143128459Y-79422390D02*
X143164173Y-79384295D01*
X143164173Y-79384295D02*
X143164173Y-79460485D01*
X142699887Y-80184295D02*
X142771316Y-80146200D01*
X142771316Y-80146200D02*
X142807030Y-80108104D01*
X142807030Y-80108104D02*
X142842744Y-80031914D01*
X142842744Y-80031914D02*
X142842744Y-79803342D01*
X142842744Y-79803342D02*
X142807030Y-79727152D01*
X142807030Y-79727152D02*
X142771316Y-79689057D01*
X142771316Y-79689057D02*
X142699887Y-79650961D01*
X142699887Y-79650961D02*
X142592744Y-79650961D01*
X142592744Y-79650961D02*
X142521316Y-79689057D01*
X142521316Y-79689057D02*
X142485602Y-79727152D01*
X142485602Y-79727152D02*
X142449887Y-79803342D01*
X142449887Y-79803342D02*
X142449887Y-80031914D01*
X142449887Y-80031914D02*
X142485602Y-80108104D01*
X142485602Y-80108104D02*
X142521316Y-80146200D01*
X142521316Y-80146200D02*
X142592744Y-80184295D01*
X142592744Y-80184295D02*
X142699887Y-80184295D01*
X137561316Y-81540961D02*
X137561316Y-82188580D01*
X137561316Y-82188580D02*
X137597030Y-82264771D01*
X137597030Y-82264771D02*
X137632744Y-82302866D01*
X137632744Y-82302866D02*
X137704173Y-82340961D01*
X137704173Y-82340961D02*
X137811316Y-82340961D01*
X137811316Y-82340961D02*
X137882744Y-82302866D01*
X137561316Y-82036200D02*
X137632744Y-82074295D01*
X137632744Y-82074295D02*
X137775601Y-82074295D01*
X137775601Y-82074295D02*
X137847030Y-82036200D01*
X137847030Y-82036200D02*
X137882744Y-81998104D01*
X137882744Y-81998104D02*
X137918458Y-81921914D01*
X137918458Y-81921914D02*
X137918458Y-81693342D01*
X137918458Y-81693342D02*
X137882744Y-81617152D01*
X137882744Y-81617152D02*
X137847030Y-81579057D01*
X137847030Y-81579057D02*
X137775601Y-81540961D01*
X137775601Y-81540961D02*
X137632744Y-81540961D01*
X137632744Y-81540961D02*
X137561316Y-81579057D01*
X137204173Y-81540961D02*
X137204173Y-82074295D01*
X137204173Y-81617152D02*
X137168459Y-81579057D01*
X137168459Y-81579057D02*
X137097030Y-81540961D01*
X137097030Y-81540961D02*
X136989887Y-81540961D01*
X136989887Y-81540961D02*
X136918459Y-81579057D01*
X136918459Y-81579057D02*
X136882745Y-81655247D01*
X136882745Y-81655247D02*
X136882745Y-82074295D01*
X136204174Y-82074295D02*
X136204174Y-81274295D01*
X136204174Y-82036200D02*
X136275602Y-82074295D01*
X136275602Y-82074295D02*
X136418459Y-82074295D01*
X136418459Y-82074295D02*
X136489888Y-82036200D01*
X136489888Y-82036200D02*
X136525602Y-81998104D01*
X136525602Y-81998104D02*
X136561316Y-81921914D01*
X136561316Y-81921914D02*
X136561316Y-81693342D01*
X136561316Y-81693342D02*
X136525602Y-81617152D01*
X136525602Y-81617152D02*
X136489888Y-81579057D01*
X136489888Y-81579057D02*
X136418459Y-81540961D01*
X136418459Y-81540961D02*
X136275602Y-81540961D01*
X136275602Y-81540961D02*
X136204174Y-81579057D01*
X139802744Y-80174295D02*
X139802744Y-79640961D01*
X139802744Y-79793342D02*
X139767030Y-79717152D01*
X139767030Y-79717152D02*
X139731316Y-79679057D01*
X139731316Y-79679057D02*
X139659887Y-79640961D01*
X139659887Y-79640961D02*
X139588458Y-79640961D01*
X139374172Y-80136200D02*
X139302744Y-80174295D01*
X139302744Y-80174295D02*
X139159887Y-80174295D01*
X139159887Y-80174295D02*
X139088458Y-80136200D01*
X139088458Y-80136200D02*
X139052744Y-80060009D01*
X139052744Y-80060009D02*
X139052744Y-80021914D01*
X139052744Y-80021914D02*
X139088458Y-79945723D01*
X139088458Y-79945723D02*
X139159887Y-79907628D01*
X139159887Y-79907628D02*
X139267030Y-79907628D01*
X139267030Y-79907628D02*
X139338458Y-79869533D01*
X139338458Y-79869533D02*
X139374172Y-79793342D01*
X139374172Y-79793342D02*
X139374172Y-79755247D01*
X139374172Y-79755247D02*
X139338458Y-79679057D01*
X139338458Y-79679057D02*
X139267030Y-79640961D01*
X139267030Y-79640961D02*
X139159887Y-79640961D01*
X139159887Y-79640961D02*
X139088458Y-79679057D01*
X138838458Y-79640961D02*
X138552744Y-79640961D01*
X138731315Y-79374295D02*
X138731315Y-80060009D01*
X138731315Y-80060009D02*
X138695601Y-80136200D01*
X138695601Y-80136200D02*
X138624172Y-80174295D01*
X138624172Y-80174295D02*
X138552744Y-80174295D01*
X141411316Y-82326200D02*
X141482744Y-82364295D01*
X141482744Y-82364295D02*
X141625601Y-82364295D01*
X141625601Y-82364295D02*
X141697030Y-82326200D01*
X141697030Y-82326200D02*
X141732744Y-82288104D01*
X141732744Y-82288104D02*
X141768458Y-82211914D01*
X141768458Y-82211914D02*
X141768458Y-81983342D01*
X141768458Y-81983342D02*
X141732744Y-81907152D01*
X141732744Y-81907152D02*
X141697030Y-81869057D01*
X141697030Y-81869057D02*
X141625601Y-81830961D01*
X141625601Y-81830961D02*
X141482744Y-81830961D01*
X141482744Y-81830961D02*
X141411316Y-81869057D01*
X140982744Y-82364295D02*
X141054173Y-82326200D01*
X141054173Y-82326200D02*
X141089887Y-82250009D01*
X141089887Y-82250009D02*
X141089887Y-81564295D01*
X140697030Y-82364295D02*
X140697030Y-81564295D01*
X140625602Y-82059533D02*
X140411316Y-82364295D01*
X140411316Y-81830961D02*
X140697030Y-82135723D01*
X132586428Y-83462295D02*
X132157857Y-83462295D01*
X132372142Y-84262295D02*
X132372142Y-83462295D01*
X131907856Y-84262295D02*
X131907856Y-83462295D01*
X131907856Y-83462295D02*
X131622142Y-83462295D01*
X131622142Y-83462295D02*
X131550713Y-83500390D01*
X131550713Y-83500390D02*
X131514999Y-83538485D01*
X131514999Y-83538485D02*
X131479285Y-83614676D01*
X131479285Y-83614676D02*
X131479285Y-83728961D01*
X131479285Y-83728961D02*
X131514999Y-83805152D01*
X131514999Y-83805152D02*
X131550713Y-83843247D01*
X131550713Y-83843247D02*
X131622142Y-83881342D01*
X131622142Y-83881342D02*
X131907856Y-83881342D01*
X130836428Y-83728961D02*
X130836428Y-84262295D01*
X131014999Y-83424200D02*
X131193570Y-83995628D01*
X131193570Y-83995628D02*
X130729285Y-83995628D01*
X133611428Y-86552295D02*
X133611428Y-87199914D01*
X133611428Y-87199914D02*
X133575714Y-87276104D01*
X133575714Y-87276104D02*
X133540000Y-87314200D01*
X133540000Y-87314200D02*
X133468571Y-87352295D01*
X133468571Y-87352295D02*
X133325714Y-87352295D01*
X133325714Y-87352295D02*
X133254285Y-87314200D01*
X133254285Y-87314200D02*
X133218571Y-87276104D01*
X133218571Y-87276104D02*
X133182857Y-87199914D01*
X133182857Y-87199914D02*
X133182857Y-86552295D01*
X132897143Y-86552295D02*
X132432857Y-86552295D01*
X132432857Y-86552295D02*
X132682857Y-86857057D01*
X132682857Y-86857057D02*
X132575714Y-86857057D01*
X132575714Y-86857057D02*
X132504286Y-86895152D01*
X132504286Y-86895152D02*
X132468571Y-86933247D01*
X132468571Y-86933247D02*
X132432857Y-87009438D01*
X132432857Y-87009438D02*
X132432857Y-87199914D01*
X132432857Y-87199914D02*
X132468571Y-87276104D01*
X132468571Y-87276104D02*
X132504286Y-87314200D01*
X132504286Y-87314200D02*
X132575714Y-87352295D01*
X132575714Y-87352295D02*
X132790000Y-87352295D01*
X132790000Y-87352295D02*
X132861428Y-87314200D01*
X132861428Y-87314200D02*
X132897143Y-87276104D01*
X137661428Y-104858485D02*
X137732857Y-104820390D01*
X137732857Y-104820390D02*
X137804285Y-104744200D01*
X137804285Y-104744200D02*
X137911428Y-104629914D01*
X137911428Y-104629914D02*
X137982857Y-104591819D01*
X137982857Y-104591819D02*
X138054285Y-104591819D01*
X138018571Y-104782295D02*
X138090000Y-104744200D01*
X138090000Y-104744200D02*
X138161428Y-104668009D01*
X138161428Y-104668009D02*
X138197142Y-104515628D01*
X138197142Y-104515628D02*
X138197142Y-104248961D01*
X138197142Y-104248961D02*
X138161428Y-104096580D01*
X138161428Y-104096580D02*
X138090000Y-104020390D01*
X138090000Y-104020390D02*
X138018571Y-103982295D01*
X138018571Y-103982295D02*
X137875714Y-103982295D01*
X137875714Y-103982295D02*
X137804285Y-104020390D01*
X137804285Y-104020390D02*
X137732857Y-104096580D01*
X137732857Y-104096580D02*
X137697142Y-104248961D01*
X137697142Y-104248961D02*
X137697142Y-104515628D01*
X137697142Y-104515628D02*
X137732857Y-104668009D01*
X137732857Y-104668009D02*
X137804285Y-104744200D01*
X137804285Y-104744200D02*
X137875714Y-104782295D01*
X137875714Y-104782295D02*
X138018571Y-104782295D01*
X137054286Y-104248961D02*
X137054286Y-104782295D01*
X137232857Y-103944200D02*
X137411428Y-104515628D01*
X137411428Y-104515628D02*
X136947143Y-104515628D01*
X137178571Y-106442295D02*
X137178571Y-107089914D01*
X137178571Y-107089914D02*
X137142857Y-107166104D01*
X137142857Y-107166104D02*
X137107143Y-107204200D01*
X137107143Y-107204200D02*
X137035714Y-107242295D01*
X137035714Y-107242295D02*
X136892857Y-107242295D01*
X136892857Y-107242295D02*
X136821428Y-107204200D01*
X136821428Y-107204200D02*
X136785714Y-107166104D01*
X136785714Y-107166104D02*
X136750000Y-107089914D01*
X136750000Y-107089914D02*
X136750000Y-106442295D01*
X136000000Y-107242295D02*
X136428571Y-107242295D01*
X136214286Y-107242295D02*
X136214286Y-106442295D01*
X136214286Y-106442295D02*
X136285714Y-106556580D01*
X136285714Y-106556580D02*
X136357143Y-106632771D01*
X136357143Y-106632771D02*
X136428571Y-106670866D01*
X135535714Y-106442295D02*
X135464285Y-106442295D01*
X135464285Y-106442295D02*
X135392857Y-106480390D01*
X135392857Y-106480390D02*
X135357143Y-106518485D01*
X135357143Y-106518485D02*
X135321428Y-106594676D01*
X135321428Y-106594676D02*
X135285714Y-106747057D01*
X135285714Y-106747057D02*
X135285714Y-106937533D01*
X135285714Y-106937533D02*
X135321428Y-107089914D01*
X135321428Y-107089914D02*
X135357143Y-107166104D01*
X135357143Y-107166104D02*
X135392857Y-107204200D01*
X135392857Y-107204200D02*
X135464285Y-107242295D01*
X135464285Y-107242295D02*
X135535714Y-107242295D01*
X135535714Y-107242295D02*
X135607143Y-107204200D01*
X135607143Y-107204200D02*
X135642857Y-107166104D01*
X135642857Y-107166104D02*
X135678571Y-107089914D01*
X135678571Y-107089914D02*
X135714285Y-106937533D01*
X135714285Y-106937533D02*
X135714285Y-106747057D01*
X135714285Y-106747057D02*
X135678571Y-106594676D01*
X135678571Y-106594676D02*
X135642857Y-106518485D01*
X135642857Y-106518485D02*
X135607143Y-106480390D01*
X135607143Y-106480390D02*
X135535714Y-106442295D01*
X144051428Y-108252295D02*
X144051428Y-108899914D01*
X144051428Y-108899914D02*
X144015714Y-108976104D01*
X144015714Y-108976104D02*
X143980000Y-109014200D01*
X143980000Y-109014200D02*
X143908571Y-109052295D01*
X143908571Y-109052295D02*
X143765714Y-109052295D01*
X143765714Y-109052295D02*
X143694285Y-109014200D01*
X143694285Y-109014200D02*
X143658571Y-108976104D01*
X143658571Y-108976104D02*
X143622857Y-108899914D01*
X143622857Y-108899914D02*
X143622857Y-108252295D01*
X143337143Y-108252295D02*
X142837143Y-108252295D01*
X142837143Y-108252295D02*
X143158571Y-109052295D01*
X125242295Y-89483571D02*
X125242295Y-89912143D01*
X126042295Y-89697857D02*
X125242295Y-89697857D01*
X126042295Y-90162143D02*
X125242295Y-90162143D01*
X125242295Y-90162143D02*
X125242295Y-90447857D01*
X125242295Y-90447857D02*
X125280390Y-90519286D01*
X125280390Y-90519286D02*
X125318485Y-90555000D01*
X125318485Y-90555000D02*
X125394676Y-90590714D01*
X125394676Y-90590714D02*
X125508961Y-90590714D01*
X125508961Y-90590714D02*
X125585152Y-90555000D01*
X125585152Y-90555000D02*
X125623247Y-90519286D01*
X125623247Y-90519286D02*
X125661342Y-90447857D01*
X125661342Y-90447857D02*
X125661342Y-90162143D01*
X125242295Y-90840714D02*
X125242295Y-91340714D01*
X125242295Y-91340714D02*
X126042295Y-91019286D01*
X133602295Y-103555714D02*
X133602295Y-103984286D01*
X134402295Y-103770000D02*
X133602295Y-103770000D01*
X134402295Y-104234286D02*
X133602295Y-104234286D01*
X133983247Y-104234286D02*
X133983247Y-104662857D01*
X134402295Y-104662857D02*
X133602295Y-104662857D01*
X134402295Y-105412857D02*
X134402295Y-104984286D01*
X134402295Y-105198571D02*
X133602295Y-105198571D01*
X133602295Y-105198571D02*
X133716580Y-105127143D01*
X133716580Y-105127143D02*
X133792771Y-105055714D01*
X133792771Y-105055714D02*
X133830866Y-104984286D01*
X121386428Y-90122295D02*
X120957857Y-90122295D01*
X121172142Y-90922295D02*
X121172142Y-90122295D01*
X120707856Y-90922295D02*
X120707856Y-90122295D01*
X120707856Y-90122295D02*
X120422142Y-90122295D01*
X120422142Y-90122295D02*
X120350713Y-90160390D01*
X120350713Y-90160390D02*
X120314999Y-90198485D01*
X120314999Y-90198485D02*
X120279285Y-90274676D01*
X120279285Y-90274676D02*
X120279285Y-90388961D01*
X120279285Y-90388961D02*
X120314999Y-90465152D01*
X120314999Y-90465152D02*
X120350713Y-90503247D01*
X120350713Y-90503247D02*
X120422142Y-90541342D01*
X120422142Y-90541342D02*
X120707856Y-90541342D01*
X119636428Y-90122295D02*
X119779285Y-90122295D01*
X119779285Y-90122295D02*
X119850713Y-90160390D01*
X119850713Y-90160390D02*
X119886428Y-90198485D01*
X119886428Y-90198485D02*
X119957856Y-90312771D01*
X119957856Y-90312771D02*
X119993570Y-90465152D01*
X119993570Y-90465152D02*
X119993570Y-90769914D01*
X119993570Y-90769914D02*
X119957856Y-90846104D01*
X119957856Y-90846104D02*
X119922142Y-90884200D01*
X119922142Y-90884200D02*
X119850713Y-90922295D01*
X119850713Y-90922295D02*
X119707856Y-90922295D01*
X119707856Y-90922295D02*
X119636428Y-90884200D01*
X119636428Y-90884200D02*
X119600713Y-90846104D01*
X119600713Y-90846104D02*
X119564999Y-90769914D01*
X119564999Y-90769914D02*
X119564999Y-90579438D01*
X119564999Y-90579438D02*
X119600713Y-90503247D01*
X119600713Y-90503247D02*
X119636428Y-90465152D01*
X119636428Y-90465152D02*
X119707856Y-90427057D01*
X119707856Y-90427057D02*
X119850713Y-90427057D01*
X119850713Y-90427057D02*
X119922142Y-90465152D01*
X119922142Y-90465152D02*
X119957856Y-90503247D01*
X119957856Y-90503247D02*
X119993570Y-90579438D01*
X118924999Y-94753723D02*
X118567857Y-94753723D01*
X118996428Y-94982295D02*
X118746428Y-94182295D01*
X118746428Y-94182295D02*
X118496428Y-94982295D01*
X118246428Y-94563247D02*
X117996428Y-94563247D01*
X117889285Y-94982295D02*
X118246428Y-94982295D01*
X118246428Y-94982295D02*
X118246428Y-94182295D01*
X118246428Y-94182295D02*
X117889285Y-94182295D01*
X117175000Y-94982295D02*
X117603571Y-94982295D01*
X117389286Y-94982295D02*
X117389286Y-94182295D01*
X117389286Y-94182295D02*
X117460714Y-94296580D01*
X117460714Y-94296580D02*
X117532143Y-94372771D01*
X117532143Y-94372771D02*
X117603571Y-94410866D01*
X137622295Y-89226428D02*
X137622295Y-89655000D01*
X138422295Y-89440714D02*
X137622295Y-89440714D01*
X138422295Y-89905000D02*
X137622295Y-89905000D01*
X137622295Y-89905000D02*
X137622295Y-90190714D01*
X137622295Y-90190714D02*
X137660390Y-90262143D01*
X137660390Y-90262143D02*
X137698485Y-90297857D01*
X137698485Y-90297857D02*
X137774676Y-90333571D01*
X137774676Y-90333571D02*
X137888961Y-90333571D01*
X137888961Y-90333571D02*
X137965152Y-90297857D01*
X137965152Y-90297857D02*
X138003247Y-90262143D01*
X138003247Y-90262143D02*
X138041342Y-90190714D01*
X138041342Y-90190714D02*
X138041342Y-89905000D01*
X138422295Y-91047857D02*
X138422295Y-90619286D01*
X138422295Y-90833571D02*
X137622295Y-90833571D01*
X137622295Y-90833571D02*
X137736580Y-90762143D01*
X137736580Y-90762143D02*
X137812771Y-90690714D01*
X137812771Y-90690714D02*
X137850866Y-90619286D01*
X138422295Y-91762143D02*
X138422295Y-91333572D01*
X138422295Y-91547857D02*
X137622295Y-91547857D01*
X137622295Y-91547857D02*
X137736580Y-91476429D01*
X137736580Y-91476429D02*
X137812771Y-91405000D01*
X137812771Y-91405000D02*
X137850866Y-91333572D01*
X147216428Y-82862295D02*
X146787857Y-82862295D01*
X147002142Y-83662295D02*
X147002142Y-82862295D01*
X146537856Y-83662295D02*
X146537856Y-82862295D01*
X146537856Y-82862295D02*
X146252142Y-82862295D01*
X146252142Y-82862295D02*
X146180713Y-82900390D01*
X146180713Y-82900390D02*
X146144999Y-82938485D01*
X146144999Y-82938485D02*
X146109285Y-83014676D01*
X146109285Y-83014676D02*
X146109285Y-83128961D01*
X146109285Y-83128961D02*
X146144999Y-83205152D01*
X146144999Y-83205152D02*
X146180713Y-83243247D01*
X146180713Y-83243247D02*
X146252142Y-83281342D01*
X146252142Y-83281342D02*
X146537856Y-83281342D01*
X145394999Y-83662295D02*
X145823570Y-83662295D01*
X145609285Y-83662295D02*
X145609285Y-82862295D01*
X145609285Y-82862295D02*
X145680713Y-82976580D01*
X145680713Y-82976580D02*
X145752142Y-83052771D01*
X145752142Y-83052771D02*
X145823570Y-83090866D01*
X132452295Y-100623928D02*
X131652295Y-100623928D01*
X131652295Y-100623928D02*
X131652295Y-100802499D01*
X131652295Y-100802499D02*
X131690390Y-100909642D01*
X131690390Y-100909642D02*
X131766580Y-100981071D01*
X131766580Y-100981071D02*
X131842771Y-101016785D01*
X131842771Y-101016785D02*
X131995152Y-101052499D01*
X131995152Y-101052499D02*
X132109438Y-101052499D01*
X132109438Y-101052499D02*
X132261819Y-101016785D01*
X132261819Y-101016785D02*
X132338009Y-100981071D01*
X132338009Y-100981071D02*
X132414200Y-100909642D01*
X132414200Y-100909642D02*
X132452295Y-100802499D01*
X132452295Y-100802499D02*
X132452295Y-100623928D01*
X131652295Y-101731071D02*
X131652295Y-101373928D01*
X131652295Y-101373928D02*
X132033247Y-101338214D01*
X132033247Y-101338214D02*
X131995152Y-101373928D01*
X131995152Y-101373928D02*
X131957057Y-101445357D01*
X131957057Y-101445357D02*
X131957057Y-101623928D01*
X131957057Y-101623928D02*
X131995152Y-101695357D01*
X131995152Y-101695357D02*
X132033247Y-101731071D01*
X132033247Y-101731071D02*
X132109438Y-101766785D01*
X132109438Y-101766785D02*
X132299914Y-101766785D01*
X132299914Y-101766785D02*
X132376104Y-101731071D01*
X132376104Y-101731071D02*
X132414200Y-101695357D01*
X132414200Y-101695357D02*
X132452295Y-101623928D01*
X132452295Y-101623928D02*
X132452295Y-101445357D01*
X132452295Y-101445357D02*
X132414200Y-101373928D01*
X132414200Y-101373928D02*
X132376104Y-101338214D01*
X125142295Y-87363571D02*
X125142295Y-87792143D01*
X125942295Y-87577857D02*
X125142295Y-87577857D01*
X125942295Y-88042143D02*
X125142295Y-88042143D01*
X125142295Y-88042143D02*
X125142295Y-88327857D01*
X125142295Y-88327857D02*
X125180390Y-88399286D01*
X125180390Y-88399286D02*
X125218485Y-88435000D01*
X125218485Y-88435000D02*
X125294676Y-88470714D01*
X125294676Y-88470714D02*
X125408961Y-88470714D01*
X125408961Y-88470714D02*
X125485152Y-88435000D01*
X125485152Y-88435000D02*
X125523247Y-88399286D01*
X125523247Y-88399286D02*
X125561342Y-88327857D01*
X125561342Y-88327857D02*
X125561342Y-88042143D01*
X125942295Y-88827857D02*
X125942295Y-88970714D01*
X125942295Y-88970714D02*
X125904200Y-89042143D01*
X125904200Y-89042143D02*
X125866104Y-89077857D01*
X125866104Y-89077857D02*
X125751819Y-89149286D01*
X125751819Y-89149286D02*
X125599438Y-89185000D01*
X125599438Y-89185000D02*
X125294676Y-89185000D01*
X125294676Y-89185000D02*
X125218485Y-89149286D01*
X125218485Y-89149286D02*
X125180390Y-89113572D01*
X125180390Y-89113572D02*
X125142295Y-89042143D01*
X125142295Y-89042143D02*
X125142295Y-88899286D01*
X125142295Y-88899286D02*
X125180390Y-88827857D01*
X125180390Y-88827857D02*
X125218485Y-88792143D01*
X125218485Y-88792143D02*
X125294676Y-88756429D01*
X125294676Y-88756429D02*
X125485152Y-88756429D01*
X125485152Y-88756429D02*
X125561342Y-88792143D01*
X125561342Y-88792143D02*
X125599438Y-88827857D01*
X125599438Y-88827857D02*
X125637533Y-88899286D01*
X125637533Y-88899286D02*
X125637533Y-89042143D01*
X125637533Y-89042143D02*
X125599438Y-89113572D01*
X125599438Y-89113572D02*
X125561342Y-89149286D01*
X125561342Y-89149286D02*
X125485152Y-89185000D01*
X121443571Y-86492295D02*
X121015000Y-86492295D01*
X121229285Y-87292295D02*
X121229285Y-86492295D01*
X120764999Y-87292295D02*
X120764999Y-86492295D01*
X120764999Y-86492295D02*
X120479285Y-86492295D01*
X120479285Y-86492295D02*
X120407856Y-86530390D01*
X120407856Y-86530390D02*
X120372142Y-86568485D01*
X120372142Y-86568485D02*
X120336428Y-86644676D01*
X120336428Y-86644676D02*
X120336428Y-86758961D01*
X120336428Y-86758961D02*
X120372142Y-86835152D01*
X120372142Y-86835152D02*
X120407856Y-86873247D01*
X120407856Y-86873247D02*
X120479285Y-86911342D01*
X120479285Y-86911342D02*
X120764999Y-86911342D01*
X119622142Y-87292295D02*
X120050713Y-87292295D01*
X119836428Y-87292295D02*
X119836428Y-86492295D01*
X119836428Y-86492295D02*
X119907856Y-86606580D01*
X119907856Y-86606580D02*
X119979285Y-86682771D01*
X119979285Y-86682771D02*
X120050713Y-86720866D01*
X119157856Y-86492295D02*
X119086427Y-86492295D01*
X119086427Y-86492295D02*
X119014999Y-86530390D01*
X119014999Y-86530390D02*
X118979285Y-86568485D01*
X118979285Y-86568485D02*
X118943570Y-86644676D01*
X118943570Y-86644676D02*
X118907856Y-86797057D01*
X118907856Y-86797057D02*
X118907856Y-86987533D01*
X118907856Y-86987533D02*
X118943570Y-87139914D01*
X118943570Y-87139914D02*
X118979285Y-87216104D01*
X118979285Y-87216104D02*
X119014999Y-87254200D01*
X119014999Y-87254200D02*
X119086427Y-87292295D01*
X119086427Y-87292295D02*
X119157856Y-87292295D01*
X119157856Y-87292295D02*
X119229285Y-87254200D01*
X119229285Y-87254200D02*
X119264999Y-87216104D01*
X119264999Y-87216104D02*
X119300713Y-87139914D01*
X119300713Y-87139914D02*
X119336427Y-86987533D01*
X119336427Y-86987533D02*
X119336427Y-86797057D01*
X119336427Y-86797057D02*
X119300713Y-86644676D01*
X119300713Y-86644676D02*
X119264999Y-86568485D01*
X119264999Y-86568485D02*
X119229285Y-86530390D01*
X119229285Y-86530390D02*
X119157856Y-86492295D01*
X149511428Y-93502295D02*
X149511428Y-94149914D01*
X149511428Y-94149914D02*
X149475714Y-94226104D01*
X149475714Y-94226104D02*
X149440000Y-94264200D01*
X149440000Y-94264200D02*
X149368571Y-94302295D01*
X149368571Y-94302295D02*
X149225714Y-94302295D01*
X149225714Y-94302295D02*
X149154285Y-94264200D01*
X149154285Y-94264200D02*
X149118571Y-94226104D01*
X149118571Y-94226104D02*
X149082857Y-94149914D01*
X149082857Y-94149914D02*
X149082857Y-93502295D01*
X148761428Y-93578485D02*
X148725714Y-93540390D01*
X148725714Y-93540390D02*
X148654286Y-93502295D01*
X148654286Y-93502295D02*
X148475714Y-93502295D01*
X148475714Y-93502295D02*
X148404286Y-93540390D01*
X148404286Y-93540390D02*
X148368571Y-93578485D01*
X148368571Y-93578485D02*
X148332857Y-93654676D01*
X148332857Y-93654676D02*
X148332857Y-93730866D01*
X148332857Y-93730866D02*
X148368571Y-93845152D01*
X148368571Y-93845152D02*
X148797143Y-94302295D01*
X148797143Y-94302295D02*
X148332857Y-94302295D01*
X135653571Y-80142295D02*
X135225000Y-80142295D01*
X135439285Y-80942295D02*
X135439285Y-80142295D01*
X134974999Y-80942295D02*
X134974999Y-80142295D01*
X134974999Y-80142295D02*
X134689285Y-80142295D01*
X134689285Y-80142295D02*
X134617856Y-80180390D01*
X134617856Y-80180390D02*
X134582142Y-80218485D01*
X134582142Y-80218485D02*
X134546428Y-80294676D01*
X134546428Y-80294676D02*
X134546428Y-80408961D01*
X134546428Y-80408961D02*
X134582142Y-80485152D01*
X134582142Y-80485152D02*
X134617856Y-80523247D01*
X134617856Y-80523247D02*
X134689285Y-80561342D01*
X134689285Y-80561342D02*
X134974999Y-80561342D01*
X134260713Y-80218485D02*
X134224999Y-80180390D01*
X134224999Y-80180390D02*
X134153571Y-80142295D01*
X134153571Y-80142295D02*
X133974999Y-80142295D01*
X133974999Y-80142295D02*
X133903571Y-80180390D01*
X133903571Y-80180390D02*
X133867856Y-80218485D01*
X133867856Y-80218485D02*
X133832142Y-80294676D01*
X133832142Y-80294676D02*
X133832142Y-80370866D01*
X133832142Y-80370866D02*
X133867856Y-80485152D01*
X133867856Y-80485152D02*
X134296428Y-80942295D01*
X134296428Y-80942295D02*
X133832142Y-80942295D01*
X133546427Y-80218485D02*
X133510713Y-80180390D01*
X133510713Y-80180390D02*
X133439285Y-80142295D01*
X133439285Y-80142295D02*
X133260713Y-80142295D01*
X133260713Y-80142295D02*
X133189285Y-80180390D01*
X133189285Y-80180390D02*
X133153570Y-80218485D01*
X133153570Y-80218485D02*
X133117856Y-80294676D01*
X133117856Y-80294676D02*
X133117856Y-80370866D01*
X133117856Y-80370866D02*
X133153570Y-80485152D01*
X133153570Y-80485152D02*
X133582142Y-80942295D01*
X133582142Y-80942295D02*
X133117856Y-80942295D01*
X121296428Y-88212295D02*
X120867857Y-88212295D01*
X121082142Y-89012295D02*
X121082142Y-88212295D01*
X120617856Y-89012295D02*
X120617856Y-88212295D01*
X120617856Y-88212295D02*
X120332142Y-88212295D01*
X120332142Y-88212295D02*
X120260713Y-88250390D01*
X120260713Y-88250390D02*
X120224999Y-88288485D01*
X120224999Y-88288485D02*
X120189285Y-88364676D01*
X120189285Y-88364676D02*
X120189285Y-88478961D01*
X120189285Y-88478961D02*
X120224999Y-88555152D01*
X120224999Y-88555152D02*
X120260713Y-88593247D01*
X120260713Y-88593247D02*
X120332142Y-88631342D01*
X120332142Y-88631342D02*
X120617856Y-88631342D01*
X119760713Y-88555152D02*
X119832142Y-88517057D01*
X119832142Y-88517057D02*
X119867856Y-88478961D01*
X119867856Y-88478961D02*
X119903570Y-88402771D01*
X119903570Y-88402771D02*
X119903570Y-88364676D01*
X119903570Y-88364676D02*
X119867856Y-88288485D01*
X119867856Y-88288485D02*
X119832142Y-88250390D01*
X119832142Y-88250390D02*
X119760713Y-88212295D01*
X119760713Y-88212295D02*
X119617856Y-88212295D01*
X119617856Y-88212295D02*
X119546428Y-88250390D01*
X119546428Y-88250390D02*
X119510713Y-88288485D01*
X119510713Y-88288485D02*
X119474999Y-88364676D01*
X119474999Y-88364676D02*
X119474999Y-88402771D01*
X119474999Y-88402771D02*
X119510713Y-88478961D01*
X119510713Y-88478961D02*
X119546428Y-88517057D01*
X119546428Y-88517057D02*
X119617856Y-88555152D01*
X119617856Y-88555152D02*
X119760713Y-88555152D01*
X119760713Y-88555152D02*
X119832142Y-88593247D01*
X119832142Y-88593247D02*
X119867856Y-88631342D01*
X119867856Y-88631342D02*
X119903570Y-88707533D01*
X119903570Y-88707533D02*
X119903570Y-88859914D01*
X119903570Y-88859914D02*
X119867856Y-88936104D01*
X119867856Y-88936104D02*
X119832142Y-88974200D01*
X119832142Y-88974200D02*
X119760713Y-89012295D01*
X119760713Y-89012295D02*
X119617856Y-89012295D01*
X119617856Y-89012295D02*
X119546428Y-88974200D01*
X119546428Y-88974200D02*
X119510713Y-88936104D01*
X119510713Y-88936104D02*
X119474999Y-88859914D01*
X119474999Y-88859914D02*
X119474999Y-88707533D01*
X119474999Y-88707533D02*
X119510713Y-88631342D01*
X119510713Y-88631342D02*
X119546428Y-88593247D01*
X119546428Y-88593247D02*
X119617856Y-88555152D01*
X132941428Y-106848485D02*
X133012857Y-106810390D01*
X133012857Y-106810390D02*
X133084285Y-106734200D01*
X133084285Y-106734200D02*
X133191428Y-106619914D01*
X133191428Y-106619914D02*
X133262857Y-106581819D01*
X133262857Y-106581819D02*
X133334285Y-106581819D01*
X133298571Y-106772295D02*
X133370000Y-106734200D01*
X133370000Y-106734200D02*
X133441428Y-106658009D01*
X133441428Y-106658009D02*
X133477142Y-106505628D01*
X133477142Y-106505628D02*
X133477142Y-106238961D01*
X133477142Y-106238961D02*
X133441428Y-106086580D01*
X133441428Y-106086580D02*
X133370000Y-106010390D01*
X133370000Y-106010390D02*
X133298571Y-105972295D01*
X133298571Y-105972295D02*
X133155714Y-105972295D01*
X133155714Y-105972295D02*
X133084285Y-106010390D01*
X133084285Y-106010390D02*
X133012857Y-106086580D01*
X133012857Y-106086580D02*
X132977142Y-106238961D01*
X132977142Y-106238961D02*
X132977142Y-106505628D01*
X132977142Y-106505628D02*
X133012857Y-106658009D01*
X133012857Y-106658009D02*
X133084285Y-106734200D01*
X133084285Y-106734200D02*
X133155714Y-106772295D01*
X133155714Y-106772295D02*
X133298571Y-106772295D01*
X132727143Y-105972295D02*
X132262857Y-105972295D01*
X132262857Y-105972295D02*
X132512857Y-106277057D01*
X132512857Y-106277057D02*
X132405714Y-106277057D01*
X132405714Y-106277057D02*
X132334286Y-106315152D01*
X132334286Y-106315152D02*
X132298571Y-106353247D01*
X132298571Y-106353247D02*
X132262857Y-106429438D01*
X132262857Y-106429438D02*
X132262857Y-106619914D01*
X132262857Y-106619914D02*
X132298571Y-106696104D01*
X132298571Y-106696104D02*
X132334286Y-106734200D01*
X132334286Y-106734200D02*
X132405714Y-106772295D01*
X132405714Y-106772295D02*
X132620000Y-106772295D01*
X132620000Y-106772295D02*
X132691428Y-106734200D01*
X132691428Y-106734200D02*
X132727143Y-106696104D01*
X125013571Y-84852295D02*
X124585000Y-84852295D01*
X124799285Y-85652295D02*
X124799285Y-84852295D01*
X124334999Y-85652295D02*
X124334999Y-84852295D01*
X124334999Y-84852295D02*
X124049285Y-84852295D01*
X124049285Y-84852295D02*
X123977856Y-84890390D01*
X123977856Y-84890390D02*
X123942142Y-84928485D01*
X123942142Y-84928485D02*
X123906428Y-85004676D01*
X123906428Y-85004676D02*
X123906428Y-85118961D01*
X123906428Y-85118961D02*
X123942142Y-85195152D01*
X123942142Y-85195152D02*
X123977856Y-85233247D01*
X123977856Y-85233247D02*
X124049285Y-85271342D01*
X124049285Y-85271342D02*
X124334999Y-85271342D01*
X123192142Y-85652295D02*
X123620713Y-85652295D01*
X123406428Y-85652295D02*
X123406428Y-84852295D01*
X123406428Y-84852295D02*
X123477856Y-84966580D01*
X123477856Y-84966580D02*
X123549285Y-85042771D01*
X123549285Y-85042771D02*
X123620713Y-85080866D01*
X122906427Y-84928485D02*
X122870713Y-84890390D01*
X122870713Y-84890390D02*
X122799285Y-84852295D01*
X122799285Y-84852295D02*
X122620713Y-84852295D01*
X122620713Y-84852295D02*
X122549285Y-84890390D01*
X122549285Y-84890390D02*
X122513570Y-84928485D01*
X122513570Y-84928485D02*
X122477856Y-85004676D01*
X122477856Y-85004676D02*
X122477856Y-85080866D01*
X122477856Y-85080866D02*
X122513570Y-85195152D01*
X122513570Y-85195152D02*
X122942142Y-85652295D01*
X122942142Y-85652295D02*
X122477856Y-85652295D01*
X130153571Y-79752295D02*
X129725000Y-79752295D01*
X129939285Y-80552295D02*
X129939285Y-79752295D01*
X129474999Y-80552295D02*
X129474999Y-79752295D01*
X129474999Y-79752295D02*
X129189285Y-79752295D01*
X129189285Y-79752295D02*
X129117856Y-79790390D01*
X129117856Y-79790390D02*
X129082142Y-79828485D01*
X129082142Y-79828485D02*
X129046428Y-79904676D01*
X129046428Y-79904676D02*
X129046428Y-80018961D01*
X129046428Y-80018961D02*
X129082142Y-80095152D01*
X129082142Y-80095152D02*
X129117856Y-80133247D01*
X129117856Y-80133247D02*
X129189285Y-80171342D01*
X129189285Y-80171342D02*
X129474999Y-80171342D01*
X128760713Y-79828485D02*
X128724999Y-79790390D01*
X128724999Y-79790390D02*
X128653571Y-79752295D01*
X128653571Y-79752295D02*
X128474999Y-79752295D01*
X128474999Y-79752295D02*
X128403571Y-79790390D01*
X128403571Y-79790390D02*
X128367856Y-79828485D01*
X128367856Y-79828485D02*
X128332142Y-79904676D01*
X128332142Y-79904676D02*
X128332142Y-79980866D01*
X128332142Y-79980866D02*
X128367856Y-80095152D01*
X128367856Y-80095152D02*
X128796428Y-80552295D01*
X128796428Y-80552295D02*
X128332142Y-80552295D01*
X127867856Y-79752295D02*
X127796427Y-79752295D01*
X127796427Y-79752295D02*
X127724999Y-79790390D01*
X127724999Y-79790390D02*
X127689285Y-79828485D01*
X127689285Y-79828485D02*
X127653570Y-79904676D01*
X127653570Y-79904676D02*
X127617856Y-80057057D01*
X127617856Y-80057057D02*
X127617856Y-80247533D01*
X127617856Y-80247533D02*
X127653570Y-80399914D01*
X127653570Y-80399914D02*
X127689285Y-80476104D01*
X127689285Y-80476104D02*
X127724999Y-80514200D01*
X127724999Y-80514200D02*
X127796427Y-80552295D01*
X127796427Y-80552295D02*
X127867856Y-80552295D01*
X127867856Y-80552295D02*
X127939285Y-80514200D01*
X127939285Y-80514200D02*
X127974999Y-80476104D01*
X127974999Y-80476104D02*
X128010713Y-80399914D01*
X128010713Y-80399914D02*
X128046427Y-80247533D01*
X128046427Y-80247533D02*
X128046427Y-80057057D01*
X128046427Y-80057057D02*
X128010713Y-79904676D01*
X128010713Y-79904676D02*
X127974999Y-79828485D01*
X127974999Y-79828485D02*
X127939285Y-79790390D01*
X127939285Y-79790390D02*
X127867856Y-79752295D01*
X125851428Y-108252295D02*
X125851428Y-108899914D01*
X125851428Y-108899914D02*
X125815714Y-108976104D01*
X125815714Y-108976104D02*
X125780000Y-109014200D01*
X125780000Y-109014200D02*
X125708571Y-109052295D01*
X125708571Y-109052295D02*
X125565714Y-109052295D01*
X125565714Y-109052295D02*
X125494285Y-109014200D01*
X125494285Y-109014200D02*
X125458571Y-108976104D01*
X125458571Y-108976104D02*
X125422857Y-108899914D01*
X125422857Y-108899914D02*
X125422857Y-108252295D01*
X125030000Y-109052295D02*
X124887143Y-109052295D01*
X124887143Y-109052295D02*
X124815714Y-109014200D01*
X124815714Y-109014200D02*
X124780000Y-108976104D01*
X124780000Y-108976104D02*
X124708571Y-108861819D01*
X124708571Y-108861819D02*
X124672857Y-108709438D01*
X124672857Y-108709438D02*
X124672857Y-108404676D01*
X124672857Y-108404676D02*
X124708571Y-108328485D01*
X124708571Y-108328485D02*
X124744286Y-108290390D01*
X124744286Y-108290390D02*
X124815714Y-108252295D01*
X124815714Y-108252295D02*
X124958571Y-108252295D01*
X124958571Y-108252295D02*
X125030000Y-108290390D01*
X125030000Y-108290390D02*
X125065714Y-108328485D01*
X125065714Y-108328485D02*
X125101428Y-108404676D01*
X125101428Y-108404676D02*
X125101428Y-108595152D01*
X125101428Y-108595152D02*
X125065714Y-108671342D01*
X125065714Y-108671342D02*
X125030000Y-108709438D01*
X125030000Y-108709438D02*
X124958571Y-108747533D01*
X124958571Y-108747533D02*
X124815714Y-108747533D01*
X124815714Y-108747533D02*
X124744286Y-108709438D01*
X124744286Y-108709438D02*
X124708571Y-108671342D01*
X124708571Y-108671342D02*
X124672857Y-108595152D01*
X123663571Y-106442295D02*
X123235000Y-106442295D01*
X123449285Y-107242295D02*
X123449285Y-106442295D01*
X122984999Y-107242295D02*
X122984999Y-106442295D01*
X122984999Y-106442295D02*
X122699285Y-106442295D01*
X122699285Y-106442295D02*
X122627856Y-106480390D01*
X122627856Y-106480390D02*
X122592142Y-106518485D01*
X122592142Y-106518485D02*
X122556428Y-106594676D01*
X122556428Y-106594676D02*
X122556428Y-106708961D01*
X122556428Y-106708961D02*
X122592142Y-106785152D01*
X122592142Y-106785152D02*
X122627856Y-106823247D01*
X122627856Y-106823247D02*
X122699285Y-106861342D01*
X122699285Y-106861342D02*
X122984999Y-106861342D01*
X122270713Y-106518485D02*
X122234999Y-106480390D01*
X122234999Y-106480390D02*
X122163571Y-106442295D01*
X122163571Y-106442295D02*
X121984999Y-106442295D01*
X121984999Y-106442295D02*
X121913571Y-106480390D01*
X121913571Y-106480390D02*
X121877856Y-106518485D01*
X121877856Y-106518485D02*
X121842142Y-106594676D01*
X121842142Y-106594676D02*
X121842142Y-106670866D01*
X121842142Y-106670866D02*
X121877856Y-106785152D01*
X121877856Y-106785152D02*
X122306428Y-107242295D01*
X122306428Y-107242295D02*
X121842142Y-107242295D01*
X121163570Y-106442295D02*
X121520713Y-106442295D01*
X121520713Y-106442295D02*
X121556427Y-106823247D01*
X121556427Y-106823247D02*
X121520713Y-106785152D01*
X121520713Y-106785152D02*
X121449285Y-106747057D01*
X121449285Y-106747057D02*
X121270713Y-106747057D01*
X121270713Y-106747057D02*
X121199285Y-106785152D01*
X121199285Y-106785152D02*
X121163570Y-106823247D01*
X121163570Y-106823247D02*
X121127856Y-106899438D01*
X121127856Y-106899438D02*
X121127856Y-107089914D01*
X121127856Y-107089914D02*
X121163570Y-107166104D01*
X121163570Y-107166104D02*
X121199285Y-107204200D01*
X121199285Y-107204200D02*
X121270713Y-107242295D01*
X121270713Y-107242295D02*
X121449285Y-107242295D01*
X121449285Y-107242295D02*
X121520713Y-107204200D01*
X121520713Y-107204200D02*
X121556427Y-107166104D01*
X141772295Y-112556428D02*
X141772295Y-112985000D01*
X142572295Y-112770714D02*
X141772295Y-112770714D01*
X142572295Y-113235000D02*
X141772295Y-113235000D01*
X141772295Y-113235000D02*
X141772295Y-113520714D01*
X141772295Y-113520714D02*
X141810390Y-113592143D01*
X141810390Y-113592143D02*
X141848485Y-113627857D01*
X141848485Y-113627857D02*
X141924676Y-113663571D01*
X141924676Y-113663571D02*
X142038961Y-113663571D01*
X142038961Y-113663571D02*
X142115152Y-113627857D01*
X142115152Y-113627857D02*
X142153247Y-113592143D01*
X142153247Y-113592143D02*
X142191342Y-113520714D01*
X142191342Y-113520714D02*
X142191342Y-113235000D01*
X142572295Y-114377857D02*
X142572295Y-113949286D01*
X142572295Y-114163571D02*
X141772295Y-114163571D01*
X141772295Y-114163571D02*
X141886580Y-114092143D01*
X141886580Y-114092143D02*
X141962771Y-114020714D01*
X141962771Y-114020714D02*
X142000866Y-113949286D01*
X142038961Y-115020715D02*
X142572295Y-115020715D01*
X141734200Y-114842143D02*
X142305628Y-114663572D01*
X142305628Y-114663572D02*
X142305628Y-115127857D01*
X128043571Y-81670295D02*
X127615000Y-81670295D01*
X127829285Y-82470295D02*
X127829285Y-81670295D01*
X127364999Y-82470295D02*
X127364999Y-81670295D01*
X127364999Y-81670295D02*
X127079285Y-81670295D01*
X127079285Y-81670295D02*
X127007856Y-81708390D01*
X127007856Y-81708390D02*
X126972142Y-81746485D01*
X126972142Y-81746485D02*
X126936428Y-81822676D01*
X126936428Y-81822676D02*
X126936428Y-81936961D01*
X126936428Y-81936961D02*
X126972142Y-82013152D01*
X126972142Y-82013152D02*
X127007856Y-82051247D01*
X127007856Y-82051247D02*
X127079285Y-82089342D01*
X127079285Y-82089342D02*
X127364999Y-82089342D01*
X126650713Y-81746485D02*
X126614999Y-81708390D01*
X126614999Y-81708390D02*
X126543571Y-81670295D01*
X126543571Y-81670295D02*
X126364999Y-81670295D01*
X126364999Y-81670295D02*
X126293571Y-81708390D01*
X126293571Y-81708390D02*
X126257856Y-81746485D01*
X126257856Y-81746485D02*
X126222142Y-81822676D01*
X126222142Y-81822676D02*
X126222142Y-81898866D01*
X126222142Y-81898866D02*
X126257856Y-82013152D01*
X126257856Y-82013152D02*
X126686428Y-82470295D01*
X126686428Y-82470295D02*
X126222142Y-82470295D01*
X125579285Y-81936961D02*
X125579285Y-82470295D01*
X125757856Y-81632200D02*
X125936427Y-82203628D01*
X125936427Y-82203628D02*
X125472142Y-82203628D01*
X123441428Y-99278485D02*
X123512857Y-99240390D01*
X123512857Y-99240390D02*
X123584285Y-99164200D01*
X123584285Y-99164200D02*
X123691428Y-99049914D01*
X123691428Y-99049914D02*
X123762857Y-99011819D01*
X123762857Y-99011819D02*
X123834285Y-99011819D01*
X123798571Y-99202295D02*
X123870000Y-99164200D01*
X123870000Y-99164200D02*
X123941428Y-99088009D01*
X123941428Y-99088009D02*
X123977142Y-98935628D01*
X123977142Y-98935628D02*
X123977142Y-98668961D01*
X123977142Y-98668961D02*
X123941428Y-98516580D01*
X123941428Y-98516580D02*
X123870000Y-98440390D01*
X123870000Y-98440390D02*
X123798571Y-98402295D01*
X123798571Y-98402295D02*
X123655714Y-98402295D01*
X123655714Y-98402295D02*
X123584285Y-98440390D01*
X123584285Y-98440390D02*
X123512857Y-98516580D01*
X123512857Y-98516580D02*
X123477142Y-98668961D01*
X123477142Y-98668961D02*
X123477142Y-98935628D01*
X123477142Y-98935628D02*
X123512857Y-99088009D01*
X123512857Y-99088009D02*
X123584285Y-99164200D01*
X123584285Y-99164200D02*
X123655714Y-99202295D01*
X123655714Y-99202295D02*
X123798571Y-99202295D01*
X122762857Y-99202295D02*
X123191428Y-99202295D01*
X122977143Y-99202295D02*
X122977143Y-98402295D01*
X122977143Y-98402295D02*
X123048571Y-98516580D01*
X123048571Y-98516580D02*
X123120000Y-98592771D01*
X123120000Y-98592771D02*
X123191428Y-98630866D01*
X137906428Y-82552295D02*
X137477857Y-82552295D01*
X137692142Y-83352295D02*
X137692142Y-82552295D01*
X137227856Y-83352295D02*
X137227856Y-82552295D01*
X137227856Y-82552295D02*
X136942142Y-82552295D01*
X136942142Y-82552295D02*
X136870713Y-82590390D01*
X136870713Y-82590390D02*
X136834999Y-82628485D01*
X136834999Y-82628485D02*
X136799285Y-82704676D01*
X136799285Y-82704676D02*
X136799285Y-82818961D01*
X136799285Y-82818961D02*
X136834999Y-82895152D01*
X136834999Y-82895152D02*
X136870713Y-82933247D01*
X136870713Y-82933247D02*
X136942142Y-82971342D01*
X136942142Y-82971342D02*
X137227856Y-82971342D01*
X136549285Y-82552295D02*
X136084999Y-82552295D01*
X136084999Y-82552295D02*
X136334999Y-82857057D01*
X136334999Y-82857057D02*
X136227856Y-82857057D01*
X136227856Y-82857057D02*
X136156428Y-82895152D01*
X136156428Y-82895152D02*
X136120713Y-82933247D01*
X136120713Y-82933247D02*
X136084999Y-83009438D01*
X136084999Y-83009438D02*
X136084999Y-83199914D01*
X136084999Y-83199914D02*
X136120713Y-83276104D01*
X136120713Y-83276104D02*
X136156428Y-83314200D01*
X136156428Y-83314200D02*
X136227856Y-83352295D01*
X136227856Y-83352295D02*
X136442142Y-83352295D01*
X136442142Y-83352295D02*
X136513570Y-83314200D01*
X136513570Y-83314200D02*
X136549285Y-83276104D01*
X149641428Y-103682295D02*
X149641428Y-104329914D01*
X149641428Y-104329914D02*
X149605714Y-104406104D01*
X149605714Y-104406104D02*
X149570000Y-104444200D01*
X149570000Y-104444200D02*
X149498571Y-104482295D01*
X149498571Y-104482295D02*
X149355714Y-104482295D01*
X149355714Y-104482295D02*
X149284285Y-104444200D01*
X149284285Y-104444200D02*
X149248571Y-104406104D01*
X149248571Y-104406104D02*
X149212857Y-104329914D01*
X149212857Y-104329914D02*
X149212857Y-103682295D01*
X148498571Y-103682295D02*
X148855714Y-103682295D01*
X148855714Y-103682295D02*
X148891428Y-104063247D01*
X148891428Y-104063247D02*
X148855714Y-104025152D01*
X148855714Y-104025152D02*
X148784286Y-103987057D01*
X148784286Y-103987057D02*
X148605714Y-103987057D01*
X148605714Y-103987057D02*
X148534286Y-104025152D01*
X148534286Y-104025152D02*
X148498571Y-104063247D01*
X148498571Y-104063247D02*
X148462857Y-104139438D01*
X148462857Y-104139438D02*
X148462857Y-104329914D01*
X148462857Y-104329914D02*
X148498571Y-104406104D01*
X148498571Y-104406104D02*
X148534286Y-104444200D01*
X148534286Y-104444200D02*
X148605714Y-104482295D01*
X148605714Y-104482295D02*
X148784286Y-104482295D01*
X148784286Y-104482295D02*
X148855714Y-104444200D01*
X148855714Y-104444200D02*
X148891428Y-104406104D01*
X137122295Y-100143928D02*
X136322295Y-100143928D01*
X136322295Y-100143928D02*
X136322295Y-100322499D01*
X136322295Y-100322499D02*
X136360390Y-100429642D01*
X136360390Y-100429642D02*
X136436580Y-100501071D01*
X136436580Y-100501071D02*
X136512771Y-100536785D01*
X136512771Y-100536785D02*
X136665152Y-100572499D01*
X136665152Y-100572499D02*
X136779438Y-100572499D01*
X136779438Y-100572499D02*
X136931819Y-100536785D01*
X136931819Y-100536785D02*
X137008009Y-100501071D01*
X137008009Y-100501071D02*
X137084200Y-100429642D01*
X137084200Y-100429642D02*
X137122295Y-100322499D01*
X137122295Y-100322499D02*
X137122295Y-100143928D01*
X136322295Y-101215357D02*
X136322295Y-101072499D01*
X136322295Y-101072499D02*
X136360390Y-101001071D01*
X136360390Y-101001071D02*
X136398485Y-100965357D01*
X136398485Y-100965357D02*
X136512771Y-100893928D01*
X136512771Y-100893928D02*
X136665152Y-100858214D01*
X136665152Y-100858214D02*
X136969914Y-100858214D01*
X136969914Y-100858214D02*
X137046104Y-100893928D01*
X137046104Y-100893928D02*
X137084200Y-100929642D01*
X137084200Y-100929642D02*
X137122295Y-101001071D01*
X137122295Y-101001071D02*
X137122295Y-101143928D01*
X137122295Y-101143928D02*
X137084200Y-101215357D01*
X137084200Y-101215357D02*
X137046104Y-101251071D01*
X137046104Y-101251071D02*
X136969914Y-101286785D01*
X136969914Y-101286785D02*
X136779438Y-101286785D01*
X136779438Y-101286785D02*
X136703247Y-101251071D01*
X136703247Y-101251071D02*
X136665152Y-101215357D01*
X136665152Y-101215357D02*
X136627057Y-101143928D01*
X136627057Y-101143928D02*
X136627057Y-101001071D01*
X136627057Y-101001071D02*
X136665152Y-100929642D01*
X136665152Y-100929642D02*
X136703247Y-100893928D01*
X136703247Y-100893928D02*
X136779438Y-100858214D01*
X132003571Y-81842295D02*
X131575000Y-81842295D01*
X131789285Y-82642295D02*
X131789285Y-81842295D01*
X131324999Y-82642295D02*
X131324999Y-81842295D01*
X131324999Y-81842295D02*
X131039285Y-81842295D01*
X131039285Y-81842295D02*
X130967856Y-81880390D01*
X130967856Y-81880390D02*
X130932142Y-81918485D01*
X130932142Y-81918485D02*
X130896428Y-81994676D01*
X130896428Y-81994676D02*
X130896428Y-82108961D01*
X130896428Y-82108961D02*
X130932142Y-82185152D01*
X130932142Y-82185152D02*
X130967856Y-82223247D01*
X130967856Y-82223247D02*
X131039285Y-82261342D01*
X131039285Y-82261342D02*
X131324999Y-82261342D01*
X130610713Y-81918485D02*
X130574999Y-81880390D01*
X130574999Y-81880390D02*
X130503571Y-81842295D01*
X130503571Y-81842295D02*
X130324999Y-81842295D01*
X130324999Y-81842295D02*
X130253571Y-81880390D01*
X130253571Y-81880390D02*
X130217856Y-81918485D01*
X130217856Y-81918485D02*
X130182142Y-81994676D01*
X130182142Y-81994676D02*
X130182142Y-82070866D01*
X130182142Y-82070866D02*
X130217856Y-82185152D01*
X130217856Y-82185152D02*
X130646428Y-82642295D01*
X130646428Y-82642295D02*
X130182142Y-82642295D01*
X129932142Y-81842295D02*
X129467856Y-81842295D01*
X129467856Y-81842295D02*
X129717856Y-82147057D01*
X129717856Y-82147057D02*
X129610713Y-82147057D01*
X129610713Y-82147057D02*
X129539285Y-82185152D01*
X129539285Y-82185152D02*
X129503570Y-82223247D01*
X129503570Y-82223247D02*
X129467856Y-82299438D01*
X129467856Y-82299438D02*
X129467856Y-82489914D01*
X129467856Y-82489914D02*
X129503570Y-82566104D01*
X129503570Y-82566104D02*
X129539285Y-82604200D01*
X129539285Y-82604200D02*
X129610713Y-82642295D01*
X129610713Y-82642295D02*
X129824999Y-82642295D01*
X129824999Y-82642295D02*
X129896427Y-82604200D01*
X129896427Y-82604200D02*
X129932142Y-82566104D01*
X121521428Y-101692295D02*
X121521428Y-102339914D01*
X121521428Y-102339914D02*
X121485714Y-102416104D01*
X121485714Y-102416104D02*
X121450000Y-102454200D01*
X121450000Y-102454200D02*
X121378571Y-102492295D01*
X121378571Y-102492295D02*
X121235714Y-102492295D01*
X121235714Y-102492295D02*
X121164285Y-102454200D01*
X121164285Y-102454200D02*
X121128571Y-102416104D01*
X121128571Y-102416104D02*
X121092857Y-102339914D01*
X121092857Y-102339914D02*
X121092857Y-101692295D01*
X120628571Y-102035152D02*
X120700000Y-101997057D01*
X120700000Y-101997057D02*
X120735714Y-101958961D01*
X120735714Y-101958961D02*
X120771428Y-101882771D01*
X120771428Y-101882771D02*
X120771428Y-101844676D01*
X120771428Y-101844676D02*
X120735714Y-101768485D01*
X120735714Y-101768485D02*
X120700000Y-101730390D01*
X120700000Y-101730390D02*
X120628571Y-101692295D01*
X120628571Y-101692295D02*
X120485714Y-101692295D01*
X120485714Y-101692295D02*
X120414286Y-101730390D01*
X120414286Y-101730390D02*
X120378571Y-101768485D01*
X120378571Y-101768485D02*
X120342857Y-101844676D01*
X120342857Y-101844676D02*
X120342857Y-101882771D01*
X120342857Y-101882771D02*
X120378571Y-101958961D01*
X120378571Y-101958961D02*
X120414286Y-101997057D01*
X120414286Y-101997057D02*
X120485714Y-102035152D01*
X120485714Y-102035152D02*
X120628571Y-102035152D01*
X120628571Y-102035152D02*
X120700000Y-102073247D01*
X120700000Y-102073247D02*
X120735714Y-102111342D01*
X120735714Y-102111342D02*
X120771428Y-102187533D01*
X120771428Y-102187533D02*
X120771428Y-102339914D01*
X120771428Y-102339914D02*
X120735714Y-102416104D01*
X120735714Y-102416104D02*
X120700000Y-102454200D01*
X120700000Y-102454200D02*
X120628571Y-102492295D01*
X120628571Y-102492295D02*
X120485714Y-102492295D01*
X120485714Y-102492295D02*
X120414286Y-102454200D01*
X120414286Y-102454200D02*
X120378571Y-102416104D01*
X120378571Y-102416104D02*
X120342857Y-102339914D01*
X120342857Y-102339914D02*
X120342857Y-102187533D01*
X120342857Y-102187533D02*
X120378571Y-102111342D01*
X120378571Y-102111342D02*
X120414286Y-102073247D01*
X120414286Y-102073247D02*
X120485714Y-102035152D01*
D11*
%TO.C,G\u002A\u002A\u002A*%
G36*
X147017712Y-100516812D02*
G01*
X147011269Y-100516812D01*
X147017712Y-100508005D01*
X147017712Y-100516812D01*
G37*
G36*
X148079827Y-99616938D02*
G01*
X148062442Y-99619760D01*
X148062442Y-99588261D01*
X148079827Y-99616938D01*
G37*
G36*
X151131337Y-99616390D02*
G01*
X151127589Y-99616032D01*
X151131337Y-99614443D01*
X151131337Y-99616390D01*
G37*
G36*
X138268098Y-99439434D02*
G01*
X138235450Y-99472082D01*
X138202802Y-99439434D01*
X138235450Y-99406787D01*
X138268098Y-99439434D01*
G37*
G36*
X140031080Y-99374139D02*
G01*
X139998432Y-99406787D01*
X139965784Y-99374139D01*
X139998432Y-99341491D01*
X140031080Y-99374139D01*
G37*
G36*
X140161671Y-99439434D02*
G01*
X140129023Y-99472082D01*
X140096375Y-99439434D01*
X140129023Y-99406787D01*
X140161671Y-99439434D01*
G37*
G36*
X141532879Y-99439434D02*
G01*
X141500231Y-99472082D01*
X141467584Y-99439434D01*
X141500231Y-99406787D01*
X141532879Y-99439434D01*
G37*
G36*
X141663471Y-99374139D02*
G01*
X141630823Y-99406787D01*
X141598175Y-99374139D01*
X141630823Y-99341491D01*
X141663471Y-99374139D01*
G37*
G36*
X142838792Y-99374139D02*
G01*
X142806144Y-99406787D01*
X142773496Y-99374139D01*
X142806144Y-99341491D01*
X142838792Y-99374139D01*
G37*
G36*
X142969383Y-99439434D02*
G01*
X142936735Y-99472082D01*
X142904087Y-99439434D01*
X142936735Y-99406787D01*
X142969383Y-99439434D01*
G37*
G36*
X144340591Y-99439434D02*
G01*
X144307944Y-99472082D01*
X144275296Y-99439434D01*
X144307944Y-99406787D01*
X144340591Y-99439434D01*
G37*
G36*
X144471183Y-99374139D02*
G01*
X144438535Y-99406787D01*
X144405887Y-99374139D01*
X144438535Y-99341491D01*
X144471183Y-99374139D01*
G37*
G36*
X149553932Y-97709100D02*
G01*
X149540797Y-97838714D01*
X149534355Y-97836497D01*
X149512374Y-97761163D01*
X149527802Y-97522018D01*
X149532945Y-97519505D01*
X149553932Y-97709100D01*
G37*
G36*
X150875647Y-99592006D02*
G01*
X151127589Y-99616032D01*
X151061888Y-99643888D01*
X150896448Y-99666246D01*
X150740072Y-99658575D01*
X150650966Y-99617796D01*
X150650784Y-99606792D01*
X150723174Y-99587812D01*
X150875647Y-99592006D01*
G37*
G36*
X145316735Y-98753830D02*
G01*
X145328531Y-99131160D01*
X145350828Y-99574194D01*
X145387454Y-99911170D01*
X145447406Y-100156570D01*
X145539680Y-100324877D01*
X145673273Y-100430572D01*
X145857181Y-100488138D01*
X146100402Y-100512057D01*
X146411932Y-100516812D01*
X147011269Y-100516812D01*
X146977344Y-100563180D01*
X146953279Y-100578015D01*
X146775215Y-100628242D01*
X146522360Y-100646565D01*
X146237159Y-100634339D01*
X145962056Y-100592920D01*
X145739494Y-100523661D01*
X145635433Y-100472483D01*
X145505462Y-100385035D01*
X145408888Y-100271999D01*
X145341162Y-100115898D01*
X145297736Y-99899256D01*
X145274060Y-99604596D01*
X145265585Y-99214441D01*
X145267763Y-98711314D01*
X145280796Y-97480565D01*
X145316735Y-98753830D01*
G37*
G36*
X141525047Y-98692527D02*
G01*
X141497262Y-98894407D01*
X141454524Y-99001954D01*
X141452093Y-99004228D01*
X141334823Y-99045423D01*
X141102407Y-99071319D01*
X140768920Y-99080308D01*
X140697222Y-99080583D01*
X140444991Y-99082708D01*
X140285076Y-99069322D01*
X140196590Y-99017522D01*
X140158642Y-98904404D01*
X140150343Y-98707066D01*
X140150651Y-98503409D01*
X140292262Y-98503409D01*
X140298615Y-98660413D01*
X140336197Y-98803794D01*
X140418561Y-98882124D01*
X140490684Y-98907065D01*
X140678370Y-98937738D01*
X140904576Y-98949717D01*
X140952175Y-98949474D01*
X141156878Y-98935864D01*
X141280897Y-98891944D01*
X141365938Y-98804597D01*
X141407461Y-98730865D01*
X141461008Y-98516786D01*
X141446819Y-98300180D01*
X141364976Y-98138186D01*
X141322514Y-98109661D01*
X141156857Y-98061602D01*
X140932190Y-98036862D01*
X140695163Y-98036578D01*
X140492423Y-98061890D01*
X140370617Y-98113933D01*
X140347195Y-98151639D01*
X140307823Y-98302313D01*
X140292262Y-98503409D01*
X140150651Y-98503409D01*
X140150804Y-98402605D01*
X140151890Y-98305525D01*
X140177664Y-98073172D01*
X140236743Y-97962859D01*
X140350824Y-97931332D01*
X140555780Y-97912539D01*
X140806593Y-97907623D01*
X141060504Y-97916228D01*
X141274753Y-97937999D01*
X141406581Y-97972580D01*
X141454617Y-98006099D01*
X141503477Y-98088685D01*
X141526874Y-98236431D01*
X141532879Y-98481886D01*
X141531581Y-98516786D01*
X141525047Y-98692527D01*
G37*
G36*
X142172451Y-98746236D02*
G01*
X142093129Y-99080795D01*
X141956495Y-99358599D01*
X141767861Y-99547045D01*
X141665977Y-99600885D01*
X141544952Y-99636492D01*
X141379215Y-99655163D01*
X141140209Y-99660059D01*
X140799380Y-99654346D01*
X140033233Y-99635321D01*
X139819946Y-99422003D01*
X139769797Y-99371185D01*
X139690866Y-99278262D01*
X139641038Y-99178583D01*
X139612150Y-99041202D01*
X139596040Y-98835173D01*
X139584545Y-98529547D01*
X139583305Y-98491469D01*
X139639306Y-98491469D01*
X139640665Y-98635064D01*
X139660939Y-98950964D01*
X139712103Y-99174298D01*
X139802581Y-99331864D01*
X139940800Y-99450460D01*
X139981959Y-99472624D01*
X140185203Y-99532149D01*
X140466023Y-99572536D01*
X140784840Y-99592281D01*
X141102073Y-99589876D01*
X141378145Y-99563817D01*
X141573473Y-99512595D01*
X141735504Y-99423515D01*
X141863042Y-99297658D01*
X141940754Y-99120577D01*
X141979452Y-98866203D01*
X141989949Y-98508470D01*
X141985923Y-98274223D01*
X141953913Y-97961367D01*
X141875820Y-97737885D01*
X141734963Y-97589290D01*
X141514660Y-97501090D01*
X141198231Y-97458796D01*
X140768993Y-97447918D01*
X140700590Y-97448182D01*
X140306490Y-97467293D01*
X140021620Y-97527674D01*
X139829223Y-97644804D01*
X139712542Y-97834160D01*
X139654822Y-98111222D01*
X139639306Y-98491469D01*
X139583305Y-98491469D01*
X139562431Y-97850408D01*
X139791597Y-97600191D01*
X140020762Y-97349974D01*
X140738757Y-97328017D01*
X140963254Y-97323575D01*
X141326883Y-97335114D01*
X141595270Y-97380590D01*
X141790754Y-97468047D01*
X141935671Y-97605530D01*
X142052358Y-97801081D01*
X142137908Y-98037261D01*
X142189148Y-98387523D01*
X142183518Y-98508470D01*
X142172451Y-98746236D01*
G37*
G36*
X150333656Y-96360724D02*
G01*
X150625875Y-96405885D01*
X150843178Y-96483948D01*
X151004489Y-96599743D01*
X151128735Y-96758103D01*
X151171459Y-96834921D01*
X151206669Y-96928568D01*
X151231405Y-97051606D01*
X151247483Y-97224274D01*
X151256719Y-97466809D01*
X151260928Y-97799450D01*
X151261928Y-98242437D01*
X151259844Y-98663505D01*
X151251545Y-99056500D01*
X151236421Y-99335766D01*
X151213941Y-99510429D01*
X151183573Y-99589614D01*
X151178185Y-99594581D01*
X151131337Y-99614443D01*
X151131337Y-98264521D01*
X151131337Y-96912651D01*
X150937781Y-96731843D01*
X150880078Y-96680678D01*
X150764189Y-96600028D01*
X150626740Y-96542551D01*
X150445938Y-96504454D01*
X150199991Y-96481940D01*
X149867105Y-96471215D01*
X149425489Y-96468483D01*
X148519512Y-96468483D01*
X148519512Y-97696041D01*
X148519227Y-97926588D01*
X148515418Y-98330217D01*
X148504286Y-98627147D01*
X148482225Y-98833636D01*
X148445633Y-98965940D01*
X148390904Y-99040316D01*
X148314435Y-99073020D01*
X148212622Y-99080308D01*
X148202168Y-99080381D01*
X148111294Y-99099639D01*
X148071343Y-99177626D01*
X148062442Y-99350034D01*
X148062442Y-99588261D01*
X148029991Y-99534730D01*
X148009889Y-99361344D01*
X148008088Y-99335371D01*
X148009734Y-99165389D01*
X148059656Y-99066859D01*
X148181539Y-98988309D01*
X148184834Y-98986593D01*
X148330053Y-98886140D01*
X148413656Y-98783553D01*
X148423527Y-98724642D01*
X148435738Y-98547349D01*
X148445463Y-98280915D01*
X148451893Y-97949439D01*
X148454216Y-97577022D01*
X148456137Y-97210028D01*
X148464298Y-96864933D01*
X148479702Y-96627275D01*
X148503247Y-96484327D01*
X148535836Y-96423365D01*
X148549697Y-96417598D01*
X148673932Y-96396671D01*
X148894947Y-96376716D01*
X149186342Y-96359753D01*
X149521720Y-96347808D01*
X149947595Y-96343632D01*
X150333656Y-96360724D01*
G37*
G36*
X150114989Y-96994485D02*
G01*
X150369558Y-97008337D01*
X150518898Y-97033866D01*
X150576359Y-97072468D01*
X150581202Y-97093238D01*
X150594161Y-97224538D01*
X150604996Y-97441694D01*
X150613528Y-97720664D01*
X150619576Y-98037403D01*
X150622962Y-98367867D01*
X150623504Y-98688012D01*
X150621023Y-98973796D01*
X150615340Y-99201173D01*
X150606275Y-99346100D01*
X150593648Y-99384533D01*
X150581239Y-99343399D01*
X150562728Y-99187866D01*
X150549793Y-98953269D01*
X150544676Y-98672211D01*
X150543676Y-98035578D01*
X150102931Y-98034578D01*
X149875970Y-98026037D01*
X149677011Y-98002841D01*
X149564242Y-97970283D01*
X149555511Y-97963963D01*
X149564198Y-97931461D01*
X149690113Y-97912503D01*
X149939692Y-97905987D01*
X150413085Y-97904987D01*
X150413085Y-97676452D01*
X150413085Y-97447918D01*
X149942956Y-97447918D01*
X149872228Y-97447594D01*
X149650578Y-97438581D01*
X149544922Y-97415689D01*
X149543858Y-97376887D01*
X149634600Y-97342605D01*
X149818172Y-97317542D01*
X150051281Y-97309206D01*
X150062983Y-97309286D01*
X150306143Y-97302910D01*
X150434216Y-97278456D01*
X150461262Y-97233322D01*
X150454830Y-97222365D01*
X150359895Y-97183784D01*
X150150907Y-97161349D01*
X149819983Y-97154087D01*
X149205116Y-97154087D01*
X149172468Y-98136530D01*
X149171273Y-98172044D01*
X149154823Y-98567421D01*
X149134733Y-98855601D01*
X149108234Y-99058305D01*
X149072559Y-99197254D01*
X149024938Y-99294169D01*
X148849619Y-99480576D01*
X148575756Y-99620889D01*
X148270726Y-99655353D01*
X148194871Y-99648170D01*
X148079961Y-99617161D01*
X148079827Y-99616938D01*
X148305770Y-99580274D01*
X148549444Y-99509095D01*
X148800461Y-99333187D01*
X148956572Y-99074193D01*
X148956950Y-99073105D01*
X148988456Y-98913871D01*
X149013756Y-98651061D01*
X149030963Y-98311325D01*
X149038191Y-97921311D01*
X149041877Y-96990848D01*
X149794826Y-96990848D01*
X150114989Y-96994485D01*
G37*
G36*
X139419047Y-97474963D02*
G01*
X139443419Y-97701381D01*
X139422580Y-97849212D01*
X139315438Y-97989041D01*
X139116941Y-98035578D01*
X138991411Y-98047705D01*
X138889301Y-98105212D01*
X138828082Y-98229487D01*
X138798290Y-98441604D01*
X138790463Y-98762639D01*
X138789675Y-98853165D01*
X138778021Y-99129679D01*
X138755333Y-99360915D01*
X138725352Y-99504243D01*
X138717831Y-99523523D01*
X138659514Y-99621547D01*
X138562850Y-99658852D01*
X138382550Y-99655409D01*
X138104859Y-99635321D01*
X138086199Y-98920946D01*
X138076124Y-98681686D01*
X138054822Y-98415580D01*
X138027158Y-98218438D01*
X137996585Y-98121074D01*
X137967190Y-98098251D01*
X137823214Y-98053175D01*
X137620205Y-98035578D01*
X137483479Y-98030390D01*
X137288791Y-97982004D01*
X137187275Y-97869428D01*
X137158072Y-97676452D01*
X137158287Y-97656046D01*
X137199728Y-97457821D01*
X137211163Y-97447918D01*
X137223368Y-97447918D01*
X137223368Y-97676452D01*
X137223368Y-97904987D01*
X137680437Y-97904987D01*
X138137506Y-97904987D01*
X138137506Y-98753830D01*
X138137506Y-99602673D01*
X138355159Y-99602673D01*
X138368087Y-99602598D01*
X138526733Y-99589022D01*
X138616341Y-99559143D01*
X138617330Y-99557947D01*
X138633887Y-99472877D01*
X138647410Y-99285435D01*
X138656528Y-99022338D01*
X138659872Y-98710300D01*
X138659872Y-97904987D01*
X138986350Y-97904987D01*
X139312828Y-97904987D01*
X139312828Y-97676452D01*
X139312828Y-97447918D01*
X138986350Y-97447918D01*
X138659872Y-97447918D01*
X138659872Y-97088792D01*
X138659872Y-96729666D01*
X138398689Y-96729666D01*
X138137506Y-96729666D01*
X138137506Y-97088792D01*
X138137506Y-97447918D01*
X137680437Y-97447918D01*
X137223368Y-97447918D01*
X137211163Y-97447918D01*
X137324298Y-97349938D01*
X137548376Y-97317326D01*
X137607349Y-97315437D01*
X137852713Y-97255616D01*
X138014113Y-97122317D01*
X138072211Y-96929845D01*
X138113240Y-96741846D01*
X138247047Y-96630458D01*
X138473559Y-96610943D01*
X138515174Y-96615608D01*
X138635020Y-96650821D01*
X138708490Y-96740398D01*
X138771004Y-96921296D01*
X138804014Y-97026794D01*
X138890976Y-97205275D01*
X139010322Y-97292542D01*
X139191575Y-97316326D01*
X139337875Y-97352767D01*
X139401082Y-97447918D01*
X139419047Y-97474963D01*
G37*
G36*
X147645575Y-97330345D02*
G01*
X147741323Y-97383223D01*
X147805222Y-97494078D01*
X147843345Y-97681008D01*
X147861765Y-97962113D01*
X147866555Y-98355492D01*
X147865644Y-98677002D01*
X147859264Y-98909831D01*
X147841962Y-99067030D01*
X147808281Y-99176612D01*
X147752767Y-99266586D01*
X147669964Y-99364965D01*
X147643512Y-99394564D01*
X147519831Y-99512285D01*
X147382083Y-99594747D01*
X147201154Y-99651796D01*
X146947928Y-99693277D01*
X146593291Y-99729035D01*
X146516402Y-99736035D01*
X146289339Y-99763516D01*
X146189206Y-99792055D01*
X146216822Y-99823877D01*
X146373009Y-99861209D01*
X146658586Y-99906278D01*
X147050360Y-99961799D01*
X147071443Y-100220378D01*
X147074573Y-100268507D01*
X147057456Y-100453683D01*
X147017712Y-100508005D01*
X147017712Y-100290820D01*
X147017712Y-100064827D01*
X146446375Y-100045961D01*
X145875039Y-100027095D01*
X145857334Y-98737506D01*
X145839630Y-97447918D01*
X145575974Y-97447918D01*
X145519738Y-97446731D01*
X145381991Y-97425552D01*
X145352674Y-97382622D01*
X145356615Y-97377395D01*
X145453585Y-97334801D01*
X145615412Y-97317326D01*
X145644193Y-97317758D01*
X145784705Y-97342479D01*
X145879534Y-97419226D01*
X145936987Y-97567488D01*
X145965368Y-97806761D01*
X145972982Y-98156537D01*
X145973744Y-98272936D01*
X145981175Y-98533994D01*
X145994829Y-98737296D01*
X146012616Y-98846433D01*
X146023501Y-98867592D01*
X146095637Y-98916970D01*
X146244881Y-98942468D01*
X146497669Y-98949717D01*
X146738585Y-98944332D01*
X146929194Y-98912944D01*
X147049304Y-98834627D01*
X147115081Y-98688497D01*
X147142692Y-98453672D01*
X147148303Y-98109269D01*
X147148867Y-97980641D01*
X147159878Y-97685819D01*
X147192502Y-97493087D01*
X147217585Y-97449363D01*
X147199285Y-98247789D01*
X147180951Y-99047661D01*
X146612960Y-99066478D01*
X146044969Y-99085295D01*
X146066533Y-99327660D01*
X146088097Y-99570026D01*
X146569229Y-99582484D01*
X146590650Y-99583004D01*
X146837855Y-99583974D01*
X147037569Y-99576264D01*
X147148303Y-99561386D01*
X147365008Y-99469818D01*
X147522514Y-99352018D01*
X147629376Y-99187399D01*
X147694582Y-98955226D01*
X147727116Y-98634763D01*
X147735964Y-98205273D01*
X147735964Y-97447918D01*
X147476791Y-97447918D01*
X147218414Y-97447918D01*
X147256553Y-97381435D01*
X147361845Y-97329852D01*
X147518191Y-97317326D01*
X147645575Y-97330345D01*
G37*
G36*
X144946090Y-96661261D02*
G01*
X144958015Y-96734705D01*
X144973311Y-96942500D01*
X144982944Y-97235754D01*
X144986145Y-97586600D01*
X144982145Y-97967173D01*
X144973743Y-98290037D01*
X144953613Y-98687985D01*
X144920187Y-98986641D01*
X144868390Y-99204875D01*
X144793141Y-99361559D01*
X144689364Y-99475562D01*
X144551981Y-99565756D01*
X144498820Y-99589328D01*
X144314698Y-99631749D01*
X144035433Y-99656457D01*
X143643673Y-99665355D01*
X143474305Y-99665675D01*
X143206060Y-99662207D01*
X143024717Y-99648710D01*
X142900825Y-99619799D01*
X142804933Y-99570089D01*
X142707589Y-99494196D01*
X142636922Y-99431143D01*
X142506240Y-99274470D01*
X142425778Y-99087198D01*
X142384517Y-98836372D01*
X142371808Y-98498963D01*
X142447018Y-98498963D01*
X142447733Y-98583828D01*
X142475645Y-98947478D01*
X142550313Y-99209705D01*
X142680178Y-99390504D01*
X142873679Y-99509874D01*
X142996192Y-99545932D01*
X143258640Y-99582898D01*
X143572637Y-99598075D01*
X143893117Y-99591393D01*
X144175015Y-99562785D01*
X144373264Y-99512179D01*
X144377331Y-99510405D01*
X144501432Y-99451675D01*
X144595982Y-99386267D01*
X144665532Y-99296483D01*
X144714637Y-99164624D01*
X144747849Y-98972990D01*
X144769721Y-98703883D01*
X144784808Y-98339603D01*
X144797661Y-97862451D01*
X144830309Y-96533580D01*
X144585450Y-96533680D01*
X144340591Y-96533779D01*
X144340591Y-97733753D01*
X144339886Y-98016870D01*
X144335624Y-98351066D01*
X144335103Y-98391892D01*
X144324799Y-98662425D01*
X144307808Y-98844724D01*
X144282965Y-98955048D01*
X144249105Y-99009654D01*
X144142181Y-99046891D01*
X143913149Y-99067758D01*
X143579825Y-99066621D01*
X143002031Y-99047661D01*
X142982769Y-98530965D01*
X142982050Y-98510480D01*
X143102490Y-98510480D01*
X143133210Y-98709658D01*
X143202582Y-98847110D01*
X143232789Y-98871587D01*
X143405355Y-98930614D01*
X143690794Y-98949717D01*
X143827227Y-98947926D01*
X143999206Y-98930105D01*
X144103293Y-98882412D01*
X144179862Y-98791812D01*
X144246119Y-98623546D01*
X144262987Y-98351066D01*
X144242648Y-98068226D01*
X143763215Y-98048920D01*
X143543571Y-98046374D01*
X143315047Y-98064628D01*
X143191878Y-98105887D01*
X143160153Y-98144773D01*
X143111209Y-98304032D01*
X143102490Y-98510480D01*
X142982050Y-98510480D01*
X142981547Y-98496149D01*
X142980767Y-98212341D01*
X143002307Y-98039352D01*
X143048064Y-97960628D01*
X143051362Y-97958724D01*
X143162577Y-97932438D01*
X143361010Y-97913532D01*
X143606015Y-97905987D01*
X144079409Y-97904987D01*
X144079409Y-97676452D01*
X144079409Y-97447918D01*
X143518147Y-97447918D01*
X143164028Y-97460691D01*
X142861517Y-97516486D01*
X142655206Y-97631877D01*
X142528449Y-97823198D01*
X142464602Y-98106783D01*
X142447018Y-98498963D01*
X142371808Y-98498963D01*
X142371434Y-98489040D01*
X142386694Y-98139968D01*
X142460038Y-97812022D01*
X142605350Y-97577825D01*
X142835224Y-97425363D01*
X143162253Y-97342617D01*
X143599030Y-97317570D01*
X143766503Y-97317003D01*
X144011930Y-97306702D01*
X144162125Y-97270328D01*
X144240586Y-97191263D01*
X144270811Y-97052891D01*
X144276296Y-96838593D01*
X144286216Y-96644195D01*
X144336377Y-96488327D01*
X144446840Y-96419626D01*
X144637291Y-96414993D01*
X144803902Y-96441608D01*
X144892396Y-96510972D01*
X144900473Y-96533580D01*
X144946090Y-96661261D01*
G37*
D12*
%TO.C,TP4*%
X134390000Y-84100000D02*
G75*
G02*
X132990000Y-84100000I-700000J0D01*
G01*
X132990000Y-84100000D02*
G75*
G02*
X134390000Y-84100000I700000J0D01*
G01*
%TO.C,U3*%
X126495000Y-88270000D02*
X126495000Y-88095000D01*
X126495000Y-93540000D02*
X126495000Y-94015000D01*
X126495000Y-94015000D02*
X126970000Y-94015000D01*
X126970000Y-87795000D02*
X126735000Y-87795000D01*
X132715000Y-87795000D02*
X132240000Y-87795000D01*
X132715000Y-88270000D02*
X132715000Y-87795000D01*
X132715000Y-93540000D02*
X132715000Y-94015000D01*
X132715000Y-94015000D02*
X132240000Y-94015000D01*
X126495000Y-87795000D02*
X126165000Y-88035000D01*
X126165000Y-87555000D01*
X126495000Y-87795000D01*
G36*
X126495000Y-87795000D02*
G01*
X126165000Y-88035000D01*
X126165000Y-87555000D01*
X126495000Y-87795000D01*
G37*
%TO.C,Q4*%
X140072500Y-104210000D02*
X139832500Y-103880000D01*
X140312500Y-103880000D01*
X140072500Y-104210000D01*
G36*
X140072500Y-104210000D02*
G01*
X139832500Y-103880000D01*
X140312500Y-103880000D01*
X140072500Y-104210000D01*
G37*
X138910000Y-103990000D02*
X138260000Y-103990000D01*
X138910000Y-103990000D02*
X139560000Y-103990000D01*
X138910000Y-107110000D02*
X138260000Y-107110000D01*
X138910000Y-107110000D02*
X139560000Y-107110000D01*
%TO.C,U10*%
X137470000Y-107500000D02*
X136670000Y-107500000D01*
X137470000Y-107500000D02*
X138270000Y-107500000D01*
X137470000Y-110620000D02*
X136670000Y-110620000D01*
X137470000Y-110620000D02*
X138270000Y-110620000D01*
X138770000Y-107720000D02*
X138530000Y-107390000D01*
X139010000Y-107390000D01*
X138770000Y-107720000D01*
G36*
X138770000Y-107720000D02*
G01*
X138530000Y-107390000D01*
X139010000Y-107390000D01*
X138770000Y-107720000D01*
G37*
%TO.C,U7*%
X142150000Y-110035000D02*
X142150000Y-109660000D01*
X142150000Y-111905000D02*
X142150000Y-112580000D01*
X142150000Y-112580000D02*
X142325000Y-112580000D01*
X144870000Y-109360000D02*
X144695000Y-109360000D01*
X144870000Y-110035000D02*
X144870000Y-109360000D01*
X144870000Y-111905000D02*
X144870000Y-112580000D01*
X144870000Y-112580000D02*
X144695000Y-112580000D01*
X142150000Y-109360000D02*
X141960000Y-109500000D01*
X141960000Y-109220000D01*
X142150000Y-109360000D01*
G36*
X142150000Y-109360000D02*
G01*
X141960000Y-109500000D01*
X141960000Y-109220000D01*
X142150000Y-109360000D01*
G37*
%TO.C,C63*%
X149797164Y-107247500D02*
X150012836Y-107247500D01*
X149797164Y-107967500D02*
X150012836Y-107967500D01*
%TO.C,TP7*%
X124912500Y-90185000D02*
G75*
G02*
X123512500Y-90185000I-700000J0D01*
G01*
X123512500Y-90185000D02*
G75*
G02*
X124912500Y-90185000I700000J0D01*
G01*
%TO.C,C53*%
X125402500Y-95557164D02*
X125402500Y-95772836D01*
X126122500Y-95557164D02*
X126122500Y-95772836D01*
%TO.C,R12*%
X136053641Y-83640000D02*
X135746359Y-83640000D01*
X136053641Y-84400000D02*
X135746359Y-84400000D01*
%TO.C,R31*%
X122496359Y-101520000D02*
X122803641Y-101520000D01*
X122496359Y-102280000D02*
X122803641Y-102280000D01*
%TO.C,TH1*%
X131729564Y-103542500D02*
X130525436Y-103542500D01*
X131729564Y-105362500D02*
X130525436Y-105362500D01*
%TO.C,R18*%
X134853641Y-90310000D02*
X134546359Y-90310000D01*
X134853641Y-91070000D02*
X134546359Y-91070000D01*
%TO.C,C81*%
X138715336Y-112960000D02*
X138499664Y-112960000D01*
X138715336Y-113680000D02*
X138499664Y-113680000D01*
%TO.C,TP6*%
X122912500Y-90415000D02*
G75*
G02*
X121512500Y-90415000I-700000J0D01*
G01*
X121512500Y-90415000D02*
G75*
G02*
X122912500Y-90415000I700000J0D01*
G01*
D13*
%TO.C,X1*%
X122998000Y-97152000D02*
X122998000Y-97279000D01*
X122998000Y-98041000D02*
X122998000Y-98168000D01*
X122998000Y-98168000D02*
X123125000Y-98168000D01*
X123125000Y-97152000D02*
X122998000Y-97152000D01*
X125030000Y-97152000D02*
X124903000Y-97152000D01*
X125030000Y-97279000D02*
X125030000Y-97152000D01*
X124950000Y-98200000D02*
X124910000Y-98160000D01*
X124910000Y-98150000D01*
X124940000Y-98120000D01*
X124950000Y-98120000D01*
X124950000Y-98200000D01*
G36*
X124950000Y-98200000D02*
G01*
X124910000Y-98160000D01*
X124910000Y-98150000D01*
X124940000Y-98120000D01*
X124950000Y-98120000D01*
X124950000Y-98200000D01*
G37*
D12*
%TO.C,R22*%
X143970000Y-102596359D02*
X143970000Y-102903641D01*
X144730000Y-102596359D02*
X144730000Y-102903641D01*
%TO.C,C37*%
X136062500Y-96067164D02*
X136062500Y-96282836D01*
X136782500Y-96067164D02*
X136782500Y-96282836D01*
%TO.C,R37*%
X124650000Y-113486359D02*
X124650000Y-113793641D01*
X125410000Y-113486359D02*
X125410000Y-113793641D01*
%TO.C,C20*%
X150502164Y-85060000D02*
X150717836Y-85060000D01*
X150502164Y-85780000D02*
X150717836Y-85780000D01*
%TO.C,C52*%
X134932500Y-96067164D02*
X134932500Y-96282836D01*
X135652500Y-96067164D02*
X135652500Y-96282836D01*
%TO.C,C47*%
X136518664Y-93345000D02*
X136734336Y-93345000D01*
X136518664Y-94065000D02*
X136734336Y-94065000D01*
%TO.C,R20*%
X138716141Y-91855000D02*
X138408859Y-91855000D01*
X138716141Y-92615000D02*
X138408859Y-92615000D01*
%TO.C,AE1*%
X116615000Y-96310000D02*
X116615000Y-99010000D01*
X119335000Y-96260000D02*
X119335000Y-96900000D01*
X119335000Y-96900000D02*
X119965000Y-96900000D01*
X119335000Y-99060000D02*
X119335000Y-98420000D01*
%TO.C,R41*%
X134382500Y-109346359D02*
X134382500Y-109653641D01*
X135142500Y-109346359D02*
X135142500Y-109653641D01*
%TO.C,R17*%
X126412500Y-95828641D02*
X126412500Y-95521359D01*
X127172500Y-95828641D02*
X127172500Y-95521359D01*
%TO.C,C41*%
X138702500Y-90872836D02*
X138702500Y-90657164D01*
X139422500Y-90872836D02*
X139422500Y-90657164D01*
%TO.C,R26*%
X125993641Y-102640000D02*
X125686359Y-102640000D01*
X125993641Y-103400000D02*
X125686359Y-103400000D01*
%TO.C,C22*%
X140874836Y-86725000D02*
X140659164Y-86725000D01*
X140874836Y-87445000D02*
X140659164Y-87445000D01*
%TO.C,TP11*%
X138410000Y-88400000D02*
G75*
G02*
X137010000Y-88400000I-700000J0D01*
G01*
X137010000Y-88400000D02*
G75*
G02*
X138410000Y-88400000I700000J0D01*
G01*
%TO.C,TP1*%
X145460000Y-82440000D02*
G75*
G02*
X144060000Y-82440000I-700000J0D01*
G01*
X144060000Y-82440000D02*
G75*
G02*
X145460000Y-82440000I700000J0D01*
G01*
%TO.C,D5*%
X128130000Y-101177500D02*
X128130000Y-100377500D01*
X128130000Y-101177500D02*
X128130000Y-101977500D01*
X131250000Y-101177500D02*
X131250000Y-100377500D01*
X131250000Y-101177500D02*
X131250000Y-101977500D01*
X131530000Y-102717500D02*
X131200000Y-102477500D01*
X131530000Y-102237500D01*
X131530000Y-102717500D01*
G36*
X131530000Y-102717500D02*
G01*
X131200000Y-102477500D01*
X131530000Y-102237500D01*
X131530000Y-102717500D01*
G37*
%TO.C,R33*%
X124813641Y-101480000D02*
X124506359Y-101480000D01*
X124813641Y-102240000D02*
X124506359Y-102240000D01*
%TO.C,R40*%
X134460000Y-107396359D02*
X134460000Y-107703641D01*
X135220000Y-107396359D02*
X135220000Y-107703641D01*
%TO.C,R25*%
X126013641Y-103660000D02*
X125706359Y-103660000D01*
X126013641Y-104420000D02*
X125706359Y-104420000D01*
%TO.C,TP9*%
X124972500Y-88335000D02*
G75*
G02*
X123572500Y-88335000I-700000J0D01*
G01*
X123572500Y-88335000D02*
G75*
G02*
X124972500Y-88335000I700000J0D01*
G01*
%TO.C,C44*%
X134592164Y-88470000D02*
X134807836Y-88470000D01*
X134592164Y-89190000D02*
X134807836Y-89190000D01*
%TO.C,C39*%
X134592164Y-86610000D02*
X134807836Y-86610000D01*
X134592164Y-87330000D02*
X134807836Y-87330000D01*
%TO.C,R8*%
X140543359Y-91055000D02*
X140850641Y-91055000D01*
X140543359Y-91815000D02*
X140850641Y-91815000D01*
%TO.C,R15*%
X126572500Y-85821359D02*
X126572500Y-86128641D01*
X127332500Y-85821359D02*
X127332500Y-86128641D01*
%TO.C,C64*%
X150255000Y-105925336D02*
X150255000Y-105709664D01*
X150975000Y-105925336D02*
X150975000Y-105709664D01*
%TO.C,TP10*%
X122982500Y-86795000D02*
G75*
G02*
X121582500Y-86795000I-700000J0D01*
G01*
X121582500Y-86795000D02*
G75*
G02*
X122982500Y-86795000I700000J0D01*
G01*
%TO.C,R11*%
X140543359Y-90035000D02*
X140850641Y-90035000D01*
X140543359Y-90795000D02*
X140850641Y-90795000D01*
%TO.C,C83*%
X138715336Y-111950000D02*
X138499664Y-111950000D01*
X138715336Y-112670000D02*
X138499664Y-112670000D01*
D14*
%TO.C,U2*%
X147900000Y-83850000D02*
X143400000Y-83850000D01*
X147900000Y-93650000D02*
X143400000Y-93650000D01*
D15*
X149070000Y-83950000D02*
G75*
G02*
X148870000Y-83950000I-100000J0D01*
G01*
X148870000Y-83950000D02*
G75*
G02*
X149070000Y-83950000I100000J0D01*
G01*
D12*
%TO.C,R30*%
X124770000Y-100256359D02*
X124770000Y-100563641D01*
X125530000Y-100256359D02*
X125530000Y-100563641D01*
%TO.C,C34*%
X127642500Y-86082836D02*
X127642500Y-85867164D01*
X128362500Y-86082836D02*
X128362500Y-85867164D01*
%TO.C,C46*%
X124410336Y-91215000D02*
X124194664Y-91215000D01*
X124410336Y-91935000D02*
X124194664Y-91935000D01*
%TO.C,C51*%
X133902500Y-96067164D02*
X133902500Y-96282836D01*
X134622500Y-96067164D02*
X134622500Y-96282836D01*
%TO.C,R9*%
X140543359Y-92095000D02*
X140850641Y-92095000D01*
X140543359Y-92855000D02*
X140850641Y-92855000D01*
%TO.C,TP22*%
X135050000Y-81820000D02*
G75*
G02*
X133650000Y-81820000I-700000J0D01*
G01*
X133650000Y-81820000D02*
G75*
G02*
X135050000Y-81820000I700000J0D01*
G01*
%TO.C,C36*%
X135790000Y-91177836D02*
X135790000Y-90962164D01*
X136510000Y-91177836D02*
X136510000Y-90962164D01*
%TO.C,C27*%
X131292500Y-85452836D02*
X131292500Y-85237164D01*
X132012500Y-85452836D02*
X132012500Y-85237164D01*
%TO.C,TP8*%
X122882500Y-88585000D02*
G75*
G02*
X121482500Y-88585000I-700000J0D01*
G01*
X121482500Y-88585000D02*
G75*
G02*
X122882500Y-88585000I700000J0D01*
G01*
%TO.C,C55*%
X124330336Y-93325000D02*
X124114664Y-93325000D01*
X124330336Y-94045000D02*
X124114664Y-94045000D01*
D13*
%TO.C,C24*%
X139424000Y-86118000D02*
X139424000Y-84340000D01*
X141456000Y-84213000D02*
X141456000Y-86118000D01*
X141456000Y-86118000D02*
X139424000Y-86118000D01*
%TO.C,D4*%
X143775000Y-104250000D02*
G75*
G02*
X143675000Y-104250000I-50000J0D01*
G01*
X143675000Y-104250000D02*
G75*
G02*
X143775000Y-104250000I50000J0D01*
G01*
D12*
%TO.C,R29*%
X119337500Y-105197258D02*
X119337500Y-104722742D01*
X120382500Y-105197258D02*
X120382500Y-104722742D01*
%TO.C,TP26*%
X134990000Y-111440000D02*
G75*
G02*
X133590000Y-111440000I-700000J0D01*
G01*
X133590000Y-111440000D02*
G75*
G02*
X134990000Y-111440000I700000J0D01*
G01*
%TO.C,C31*%
X126135336Y-97305000D02*
X125919664Y-97305000D01*
X126135336Y-98025000D02*
X125919664Y-98025000D01*
%TO.C,R14*%
X125572500Y-85811359D02*
X125572500Y-86118641D01*
X126332500Y-85811359D02*
X126332500Y-86118641D01*
%TO.C,Q3*%
X131530000Y-105792500D02*
X130880000Y-105792500D01*
X131530000Y-105792500D02*
X132180000Y-105792500D01*
X131530000Y-108912500D02*
X130880000Y-108912500D01*
X131530000Y-108912500D02*
X132180000Y-108912500D01*
X130607500Y-109192500D02*
X130127500Y-109192500D01*
X130367500Y-108862500D01*
X130607500Y-109192500D01*
G36*
X130607500Y-109192500D02*
G01*
X130127500Y-109192500D01*
X130367500Y-108862500D01*
X130607500Y-109192500D01*
G37*
%TO.C,TP12*%
X125022500Y-86555000D02*
G75*
G02*
X123622500Y-86555000I-700000J0D01*
G01*
X123622500Y-86555000D02*
G75*
G02*
X125022500Y-86555000I700000J0D01*
G01*
%TO.C,C77*%
X136224664Y-113050000D02*
X136440336Y-113050000D01*
X136224664Y-113770000D02*
X136440336Y-113770000D01*
D13*
%TO.C,C25*%
X137034000Y-86888000D02*
X137034000Y-85110000D01*
X139066000Y-84983000D02*
X139066000Y-86888000D01*
X139066000Y-86888000D02*
X137034000Y-86888000D01*
D12*
%TO.C,C57*%
X134592164Y-92315000D02*
X134807836Y-92315000D01*
X134592164Y-93035000D02*
X134807836Y-93035000D01*
%TO.C,C43*%
X134592164Y-93345000D02*
X134807836Y-93345000D01*
X134592164Y-94065000D02*
X134807836Y-94065000D01*
%TO.C,C48*%
X136518664Y-94365000D02*
X136734336Y-94365000D01*
X136518664Y-95085000D02*
X136734336Y-95085000D01*
%TO.C,C28*%
X124350336Y-94405000D02*
X124134664Y-94405000D01*
X124350336Y-95125000D02*
X124134664Y-95125000D01*
D13*
%TO.C,D12*%
X143242500Y-104240000D02*
G75*
G02*
X143142500Y-104240000I-50000J0D01*
G01*
X143142500Y-104240000D02*
G75*
G02*
X143242500Y-104240000I50000J0D01*
G01*
D12*
%TO.C,R10*%
X149720000Y-92673641D02*
X149720000Y-92366359D01*
X150480000Y-92673641D02*
X150480000Y-92366359D01*
%TO.C,C80*%
X133470000Y-107472164D02*
X133470000Y-107687836D01*
X134190000Y-107472164D02*
X134190000Y-107687836D01*
%TO.C,C38*%
X131802500Y-96067164D02*
X131802500Y-96282836D01*
X132522500Y-96067164D02*
X132522500Y-96282836D01*
%TO.C,R24*%
X121303641Y-99470000D02*
X120996359Y-99470000D01*
X121303641Y-100230000D02*
X120996359Y-100230000D01*
%TO.C,TP20*%
X131550000Y-80620000D02*
G75*
G02*
X130150000Y-80620000I-700000J0D01*
G01*
X130150000Y-80620000D02*
G75*
G02*
X131550000Y-80620000I700000J0D01*
G01*
%TO.C,C75*%
X129077836Y-113930000D02*
X128862164Y-113930000D01*
X129077836Y-114650000D02*
X128862164Y-114650000D01*
%TO.C,R38*%
X130756359Y-109270000D02*
X131063641Y-109270000D01*
X130756359Y-110030000D02*
X131063641Y-110030000D01*
%TO.C,U9*%
X126812500Y-109315000D02*
X126012500Y-109315000D01*
X126812500Y-109315000D02*
X127612500Y-109315000D01*
X126812500Y-112435000D02*
X126012500Y-112435000D01*
X126812500Y-112435000D02*
X127612500Y-112435000D01*
X125752500Y-112690000D02*
X125272500Y-112690000D01*
X125512500Y-112360000D01*
X125752500Y-112690000D01*
G36*
X125752500Y-112690000D02*
G01*
X125272500Y-112690000D01*
X125512500Y-112360000D01*
X125752500Y-112690000D01*
G37*
%TO.C,R19*%
X138418859Y-92995000D02*
X138726141Y-92995000D01*
X138418859Y-93755000D02*
X138726141Y-93755000D01*
%TO.C,C42*%
X136790000Y-91177836D02*
X136790000Y-90962164D01*
X137510000Y-91177836D02*
X137510000Y-90962164D01*
%TO.C,TP5*%
X152280000Y-90060000D02*
G75*
G02*
X150880000Y-90060000I-700000J0D01*
G01*
X150880000Y-90060000D02*
G75*
G02*
X152280000Y-90060000I700000J0D01*
G01*
%TO.C,TP25*%
X125190000Y-107050000D02*
G75*
G02*
X123790000Y-107050000I-700000J0D01*
G01*
X123790000Y-107050000D02*
G75*
G02*
X125190000Y-107050000I700000J0D01*
G01*
%TO.C,R35*%
X140996359Y-102660000D02*
X141303641Y-102660000D01*
X140996359Y-103420000D02*
X141303641Y-103420000D01*
D13*
%TO.C,D9*%
X128987500Y-106457500D02*
G75*
G02*
X128887500Y-106457500I-50000J0D01*
G01*
X128887500Y-106457500D02*
G75*
G02*
X128987500Y-106457500I50000J0D01*
G01*
D12*
%TO.C,L5*%
X139662500Y-109970000D02*
X139662500Y-112490000D01*
X141782500Y-109970000D02*
X141782500Y-112490000D01*
%TO.C,C73*%
X125840000Y-106610580D02*
X125840000Y-106329420D01*
X126860000Y-106610580D02*
X126860000Y-106329420D01*
%TO.C,C54*%
X124337836Y-92390000D02*
X124122164Y-92390000D01*
X124337836Y-93110000D02*
X124122164Y-93110000D01*
%TO.C,C45*%
X130802500Y-96067164D02*
X130802500Y-96282836D01*
X131522500Y-96067164D02*
X131522500Y-96282836D01*
%TO.C,TP14*%
X141440000Y-113880000D02*
G75*
G02*
X140040000Y-113880000I-700000J0D01*
G01*
X140040000Y-113880000D02*
G75*
G02*
X141440000Y-113880000I700000J0D01*
G01*
%TO.C,TP24*%
X127440000Y-80660000D02*
G75*
G02*
X126040000Y-80660000I-700000J0D01*
G01*
X126040000Y-80660000D02*
G75*
G02*
X127440000Y-80660000I700000J0D01*
G01*
%TO.C,Q1*%
X123370000Y-99445000D02*
X122770000Y-99445000D01*
X123370000Y-99445000D02*
X123970000Y-99445000D01*
X123370000Y-101315000D02*
X122770000Y-101315000D01*
X123370000Y-101315000D02*
X123970000Y-101315000D01*
X122540000Y-101330000D02*
X122300000Y-101330000D01*
X122410000Y-101140000D01*
X122540000Y-101330000D01*
G36*
X122540000Y-101330000D02*
G01*
X122300000Y-101330000D01*
X122410000Y-101140000D01*
X122540000Y-101330000D01*
G37*
%TO.C,R13*%
X138737000Y-88148641D02*
X138737000Y-87841359D01*
X139497000Y-88148641D02*
X139497000Y-87841359D01*
%TO.C,C50*%
X129862500Y-96067164D02*
X129862500Y-96282836D01*
X130582500Y-96067164D02*
X130582500Y-96282836D01*
%TO.C,Y3*%
X149850000Y-88700000D02*
X149850000Y-86000000D01*
X152150000Y-88700000D02*
X149850000Y-88700000D01*
%TO.C,C71*%
X119797836Y-102520000D02*
X119582164Y-102520000D01*
X119797836Y-103240000D02*
X119582164Y-103240000D01*
%TO.C,C68*%
X144740000Y-113592164D02*
X144740000Y-113807836D01*
X145460000Y-113592164D02*
X145460000Y-113807836D01*
%TO.C,TP3*%
X139560000Y-82180000D02*
G75*
G02*
X138160000Y-82180000I-700000J0D01*
G01*
X138160000Y-82180000D02*
G75*
G02*
X139560000Y-82180000I700000J0D01*
G01*
%TO.C,U5*%
X147732500Y-104697500D02*
X148157500Y-104697500D01*
X147732500Y-104872500D02*
X147732500Y-104697500D01*
X147732500Y-106742500D02*
X147732500Y-106917500D01*
X147732500Y-106917500D02*
X148157500Y-106917500D01*
X149527500Y-106927500D02*
X149722500Y-106927500D01*
X149952500Y-104697500D02*
X149527500Y-104697500D01*
X149952500Y-104872500D02*
X149952500Y-104697500D01*
X150152500Y-107067500D02*
X149962500Y-106927500D01*
X150152500Y-106787500D01*
X150152500Y-107067500D01*
G36*
X150152500Y-107067500D02*
G01*
X149962500Y-106927500D01*
X150152500Y-106787500D01*
X150152500Y-107067500D01*
G37*
%TO.C,R34*%
X125700000Y-113793641D02*
X125700000Y-113486359D01*
X126460000Y-113793641D02*
X126460000Y-113486359D01*
%TO.C,C40*%
X138454664Y-94035000D02*
X138670336Y-94035000D01*
X138454664Y-94755000D02*
X138670336Y-94755000D01*
%TO.C,R27*%
X120996359Y-98450000D02*
X121303641Y-98450000D01*
X120996359Y-99210000D02*
X121303641Y-99210000D01*
%TO.C,C21*%
X150502164Y-84020000D02*
X150717836Y-84020000D01*
X150502164Y-84740000D02*
X150717836Y-84740000D01*
%TO.C,D6*%
X132800000Y-100697500D02*
X132800000Y-99897500D01*
X132800000Y-100697500D02*
X132800000Y-101497500D01*
X135920000Y-100697500D02*
X135920000Y-99897500D01*
X135920000Y-100697500D02*
X135920000Y-101497500D01*
X136200000Y-102237500D02*
X135870000Y-101997500D01*
X136200000Y-101757500D01*
X136200000Y-102237500D01*
G36*
X136200000Y-102237500D02*
G01*
X135870000Y-101997500D01*
X136200000Y-101757500D01*
X136200000Y-102237500D01*
G37*
%TO.C,C72*%
X129070000Y-111097836D02*
X129070000Y-110882164D01*
X129790000Y-111097836D02*
X129790000Y-110882164D01*
%TO.C,C33*%
X128727164Y-97305000D02*
X128942836Y-97305000D01*
X128727164Y-98025000D02*
X128942836Y-98025000D01*
%TO.C,TP2*%
X143410000Y-82470000D02*
G75*
G02*
X142010000Y-82470000I-700000J0D01*
G01*
X142010000Y-82470000D02*
G75*
G02*
X143410000Y-82470000I700000J0D01*
G01*
%TO.C,C35*%
X134592164Y-87550000D02*
X134807836Y-87550000D01*
X134592164Y-88270000D02*
X134807836Y-88270000D01*
%TO.C,C74*%
X127507836Y-108250000D02*
X127292164Y-108250000D01*
X127507836Y-108970000D02*
X127292164Y-108970000D01*
%TO.C,C49*%
X132862500Y-96067164D02*
X132862500Y-96282836D01*
X133582500Y-96067164D02*
X133582500Y-96282836D01*
%TO.C,C26*%
X140508164Y-88043000D02*
X140723836Y-88043000D01*
X140508164Y-88763000D02*
X140723836Y-88763000D01*
%TO.C,C76*%
X129067836Y-112850000D02*
X128852164Y-112850000D01*
X129067836Y-113570000D02*
X128852164Y-113570000D01*
%TO.C,R28*%
X121303641Y-100430000D02*
X120996359Y-100430000D01*
X121303641Y-101190000D02*
X120996359Y-101190000D01*
%TO.C,R36*%
X139363641Y-102660000D02*
X139056359Y-102660000D01*
X139363641Y-103420000D02*
X139056359Y-103420000D01*
%TO.C,C79*%
X136224664Y-110920000D02*
X136440336Y-110920000D01*
X136224664Y-111640000D02*
X136440336Y-111640000D01*
%TO.C,R21*%
X135780000Y-89303641D02*
X135780000Y-88996359D01*
X136540000Y-89303641D02*
X136540000Y-88996359D01*
%TO.C,D10*%
X127132500Y-103597500D02*
X128602500Y-103597500D01*
X127132500Y-105882500D02*
X127132500Y-103597500D01*
X128602500Y-103597500D02*
X128602500Y-105882500D01*
%TO.C,C56*%
X132302500Y-85452836D02*
X132302500Y-85237164D01*
X133022500Y-85452836D02*
X133022500Y-85237164D01*
%TO.C,C86*%
X130302500Y-85452836D02*
X130302500Y-85237164D01*
X131022500Y-85452836D02*
X131022500Y-85237164D01*
%TO.C,D8*%
X133412000Y-112587500D02*
X134428000Y-112587500D01*
X133412000Y-114365500D02*
X133412000Y-112587500D01*
X134428000Y-112587500D02*
X134428000Y-114365500D01*
%TO.C,C82*%
X138715336Y-110957000D02*
X138499664Y-110957000D01*
X138715336Y-111677000D02*
X138499664Y-111677000D01*
%TO.C,C78*%
X136224664Y-111990000D02*
X136440336Y-111990000D01*
X136224664Y-112710000D02*
X136440336Y-112710000D01*
%TO.C,R23*%
X142250000Y-102556359D02*
X142250000Y-102863641D01*
X143010000Y-102556359D02*
X143010000Y-102863641D01*
%TO.C,R16*%
X128642500Y-85821359D02*
X128642500Y-86128641D01*
X129402500Y-85821359D02*
X129402500Y-86128641D01*
%TO.C,L4*%
X130220000Y-111847936D02*
X130220000Y-113052064D01*
X132940000Y-111847936D02*
X132940000Y-113052064D01*
%TO.C,C69*%
X145210000Y-110742164D02*
X145210000Y-110957836D01*
X145930000Y-110742164D02*
X145930000Y-110957836D01*
%TO.C,C58*%
X134592164Y-89390000D02*
X134807836Y-89390000D01*
X134592164Y-90110000D02*
X134807836Y-90110000D01*
%TO.C,C62*%
X151250000Y-105917836D02*
X151250000Y-105702164D01*
X151970000Y-105917836D02*
X151970000Y-105702164D01*
%TO.C,R39*%
X123810000Y-110503641D02*
X123810000Y-110196359D01*
X124570000Y-110503641D02*
X124570000Y-110196359D01*
%TO.C,TP23*%
X133500000Y-81980000D02*
G75*
G02*
X132100000Y-81980000I-700000J0D01*
G01*
X132100000Y-81980000D02*
G75*
G02*
X133500000Y-81980000I700000J0D01*
G01*
%TO.C,C29*%
X128872500Y-96067164D02*
X128872500Y-96282836D01*
X129592500Y-96067164D02*
X129592500Y-96282836D01*
%TO.C,C23*%
X140764836Y-89005000D02*
X140549164Y-89005000D01*
X140764836Y-89725000D02*
X140549164Y-89725000D01*
%TO.C,U8*%
X122792500Y-102735000D02*
X121992500Y-102735000D01*
X122792500Y-102735000D02*
X123592500Y-102735000D01*
X122792500Y-105855000D02*
X121992500Y-105855000D01*
X122792500Y-105855000D02*
X123592500Y-105855000D01*
X121732500Y-106110000D02*
X121252500Y-106110000D01*
X121492500Y-105780000D01*
X121732500Y-106110000D01*
G36*
X121732500Y-106110000D02*
G01*
X121252500Y-106110000D01*
X121492500Y-105780000D01*
X121732500Y-106110000D01*
G37*
%TO.C,C32*%
X122127836Y-97305000D02*
X121912164Y-97305000D01*
X122127836Y-98025000D02*
X121912164Y-98025000D01*
%TO.C,C70*%
X143750000Y-113592164D02*
X143750000Y-113807836D01*
X144470000Y-113592164D02*
X144470000Y-113807836D01*
%TD*%
M02*
