%TF.GenerationSoftware,KiCad,Pcbnew,9.0.1*%
%TF.CreationDate,2026-02-05T11:07:33+03:00*%
%TF.ProjectId,Flybot_FC,466c7962-6f74-45f4-9643-2e6b69636164,rev?*%
%TF.SameCoordinates,Original*%
%TF.FileFunction,Copper,L4,Bot*%
%TF.FilePolarity,Positive*%
%FSLAX46Y46*%
G04 Gerber Fmt 4.6, Leading zero omitted, Abs format (unit mm)*
G04 Created by KiCad (PCBNEW 9.0.1) date 2026-02-05 11:07:33*
%MOMM*%
%LPD*%
G01*
G04 APERTURE LIST*
G04 Aperture macros list*
%AMRoundRect*
0 Rectangle with rounded corners*
0 $1 Rounding radius*
0 $2 $3 $4 $5 $6 $7 $8 $9 X,Y pos of 4 corners*
0 Add a 4 corners polygon primitive as box body*
4,1,4,$2,$3,$4,$5,$6,$7,$8,$9,$2,$3,0*
0 Add four circle primitives for the rounded corners*
1,1,$1+$1,$2,$3*
1,1,$1+$1,$4,$5*
1,1,$1+$1,$6,$7*
1,1,$1+$1,$8,$9*
0 Add four rect primitives between the rounded corners*
20,1,$1+$1,$2,$3,$4,$5,0*
20,1,$1+$1,$4,$5,$6,$7,0*
20,1,$1+$1,$6,$7,$8,$9,0*
20,1,$1+$1,$8,$9,$2,$3,0*%
G04 Aperture macros list end*
%TA.AperFunction,SMDPad,CuDef*%
%ADD10C,1.000000*%
%TD*%
%TA.AperFunction,SMDPad,CuDef*%
%ADD11R,4.500000X4.500000*%
%TD*%
%TA.AperFunction,SMDPad,CuDef*%
%ADD12RoundRect,0.062500X-0.062500X0.350000X-0.062500X-0.350000X0.062500X-0.350000X0.062500X0.350000X0*%
%TD*%
%TA.AperFunction,SMDPad,CuDef*%
%ADD13RoundRect,0.062500X-0.350000X0.062500X-0.350000X-0.062500X0.350000X-0.062500X0.350000X0.062500X0*%
%TD*%
%TA.AperFunction,SMDPad,CuDef*%
%ADD14RoundRect,0.150000X0.587500X0.150000X-0.587500X0.150000X-0.587500X-0.150000X0.587500X-0.150000X0*%
%TD*%
%TA.AperFunction,SMDPad,CuDef*%
%ADD15RoundRect,0.150000X0.512500X0.150000X-0.512500X0.150000X-0.512500X-0.150000X0.512500X-0.150000X0*%
%TD*%
%TA.AperFunction,ComponentPad*%
%ADD16R,1.350000X1.350000*%
%TD*%
%TA.AperFunction,ComponentPad*%
%ADD17C,1.350000*%
%TD*%
%TA.AperFunction,SMDPad,CuDef*%
%ADD18RoundRect,0.087500X-0.087500X0.225000X-0.087500X-0.225000X0.087500X-0.225000X0.087500X0.225000X0*%
%TD*%
%TA.AperFunction,SMDPad,CuDef*%
%ADD19RoundRect,0.087500X-0.225000X0.087500X-0.225000X-0.087500X0.225000X-0.087500X0.225000X0.087500X0*%
%TD*%
%TA.AperFunction,SMDPad,CuDef*%
%ADD20RoundRect,0.140000X-0.140000X-0.170000X0.140000X-0.170000X0.140000X0.170000X-0.140000X0.170000X0*%
%TD*%
%TA.AperFunction,SMDPad,CuDef*%
%ADD21RoundRect,0.140000X-0.170000X0.140000X-0.170000X-0.140000X0.170000X-0.140000X0.170000X0.140000X0*%
%TD*%
%TA.AperFunction,SMDPad,CuDef*%
%ADD22RoundRect,0.135000X0.135000X0.185000X-0.135000X0.185000X-0.135000X-0.185000X0.135000X-0.185000X0*%
%TD*%
%TA.AperFunction,SMDPad,CuDef*%
%ADD23RoundRect,0.135000X-0.135000X-0.185000X0.135000X-0.185000X0.135000X0.185000X-0.135000X0.185000X0*%
%TD*%
%TA.AperFunction,SMDPad,CuDef*%
%ADD24RoundRect,0.250000X0.375000X0.625000X-0.375000X0.625000X-0.375000X-0.625000X0.375000X-0.625000X0*%
%TD*%
%TA.AperFunction,SMDPad,CuDef*%
%ADD25RoundRect,0.140000X0.140000X0.170000X-0.140000X0.170000X-0.140000X-0.170000X0.140000X-0.170000X0*%
%TD*%
%TA.AperFunction,SMDPad,CuDef*%
%ADD26R,1.600000X0.300000*%
%TD*%
%TA.AperFunction,SMDPad,CuDef*%
%ADD27R,0.250000X0.500000*%
%TD*%
%TA.AperFunction,SMDPad,CuDef*%
%ADD28RoundRect,0.135000X-0.185000X0.135000X-0.185000X-0.135000X0.185000X-0.135000X0.185000X0.135000X0*%
%TD*%
%TA.AperFunction,SMDPad,CuDef*%
%ADD29RoundRect,0.250000X0.275000X0.250000X-0.275000X0.250000X-0.275000X-0.250000X0.275000X-0.250000X0*%
%TD*%
%TA.AperFunction,SMDPad,CuDef*%
%ADD30RoundRect,0.250000X0.850000X0.275000X-0.850000X0.275000X-0.850000X-0.275000X0.850000X-0.275000X0*%
%TD*%
%TA.AperFunction,SMDPad,CuDef*%
%ADD31RoundRect,0.135000X0.185000X-0.135000X0.185000X0.135000X-0.185000X0.135000X-0.185000X-0.135000X0*%
%TD*%
%TA.AperFunction,SMDPad,CuDef*%
%ADD32RoundRect,0.140000X0.170000X-0.140000X0.170000X0.140000X-0.170000X0.140000X-0.170000X-0.140000X0*%
%TD*%
%TA.AperFunction,SMDPad,CuDef*%
%ADD33RoundRect,0.150000X0.150000X-0.512500X0.150000X0.512500X-0.150000X0.512500X-0.150000X-0.512500X0*%
%TD*%
%TA.AperFunction,SMDPad,CuDef*%
%ADD34RoundRect,0.051250X0.688750X0.153750X-0.688750X0.153750X-0.688750X-0.153750X0.688750X-0.153750X0*%
%TD*%
%TA.AperFunction,SMDPad,CuDef*%
%ADD35R,2.850000X6.700000*%
%TD*%
%TA.AperFunction,SMDPad,CuDef*%
%ADD36R,1.600000X1.000000*%
%TD*%
%TA.AperFunction,SMDPad,CuDef*%
%ADD37RoundRect,0.147500X-0.147500X-0.172500X0.147500X-0.172500X0.147500X0.172500X-0.147500X0.172500X0*%
%TD*%
%TA.AperFunction,SMDPad,CuDef*%
%ADD38RoundRect,0.200000X0.275000X-0.200000X0.275000X0.200000X-0.275000X0.200000X-0.275000X-0.200000X0*%
%TD*%
%TA.AperFunction,SMDPad,CuDef*%
%ADD39RoundRect,0.150000X-0.587500X-0.150000X0.587500X-0.150000X0.587500X0.150000X-0.587500X0.150000X0*%
%TD*%
%TA.AperFunction,SMDPad,CuDef*%
%ADD40RoundRect,0.147500X0.147500X0.172500X-0.147500X0.172500X-0.147500X-0.172500X0.147500X-0.172500X0*%
%TD*%
%TA.AperFunction,SMDPad,CuDef*%
%ADD41RoundRect,0.125000X-0.537500X-0.125000X0.537500X-0.125000X0.537500X0.125000X-0.537500X0.125000X0*%
%TD*%
%TA.AperFunction,SMDPad,CuDef*%
%ADD42RoundRect,0.147500X-0.172500X0.147500X-0.172500X-0.147500X0.172500X-0.147500X0.172500X0.147500X0*%
%TD*%
%TA.AperFunction,SMDPad,CuDef*%
%ADD43RoundRect,0.137500X-0.662500X0.137500X-0.662500X-0.137500X0.662500X-0.137500X0.662500X0.137500X0*%
%TD*%
%TA.AperFunction,SMDPad,CuDef*%
%ADD44RoundRect,0.225000X0.250000X-0.225000X0.250000X0.225000X-0.250000X0.225000X-0.250000X-0.225000X0*%
%TD*%
%TA.AperFunction,SMDPad,CuDef*%
%ADD45RoundRect,0.087500X-0.250000X-0.087500X0.250000X-0.087500X0.250000X0.087500X-0.250000X0.087500X0*%
%TD*%
%TA.AperFunction,SMDPad,CuDef*%
%ADD46R,0.800000X0.900000*%
%TD*%
%TA.AperFunction,SMDPad,CuDef*%
%ADD47RoundRect,0.087500X0.087500X-0.125000X0.087500X0.125000X-0.087500X0.125000X-0.087500X-0.125000X0*%
%TD*%
%TA.AperFunction,SMDPad,CuDef*%
%ADD48RoundRect,0.087500X0.125000X-0.087500X0.125000X0.087500X-0.125000X0.087500X-0.125000X-0.087500X0*%
%TD*%
%TA.AperFunction,SMDPad,CuDef*%
%ADD49RoundRect,0.218750X-0.256250X0.218750X-0.256250X-0.218750X0.256250X-0.218750X0.256250X0.218750X0*%
%TD*%
%TA.AperFunction,SMDPad,CuDef*%
%ADD50RoundRect,0.096250X-0.248750X0.096250X-0.248750X-0.096250X0.248750X-0.096250X0.248750X0.096250X0*%
%TD*%
%TA.AperFunction,SMDPad,CuDef*%
%ADD51RoundRect,0.172500X-0.172500X0.345000X-0.172500X-0.345000X0.172500X-0.345000X0.172500X0.345000X0*%
%TD*%
%TA.AperFunction,SMDPad,CuDef*%
%ADD52RoundRect,0.250000X-1.075000X0.375000X-1.075000X-0.375000X1.075000X-0.375000X1.075000X0.375000X0*%
%TD*%
%TA.AperFunction,SMDPad,CuDef*%
%ADD53RoundRect,0.147500X0.172500X-0.147500X0.172500X0.147500X-0.172500X0.147500X-0.172500X-0.147500X0*%
%TD*%
%TA.AperFunction,ViaPad*%
%ADD54C,0.400000*%
%TD*%
%TA.AperFunction,ViaPad*%
%ADD55C,0.600000*%
%TD*%
%TA.AperFunction,Conductor*%
%ADD56C,0.200000*%
%TD*%
%TA.AperFunction,Conductor*%
%ADD57C,0.350000*%
%TD*%
%TA.AperFunction,Conductor*%
%ADD58C,0.254000*%
%TD*%
G04 APERTURE END LIST*
D10*
%TO.P,TP4,1,1*%
%TO.N,/MAX7456_OSD/DATA.OUT*%
X133690000Y-84100000D03*
%TD*%
D11*
%TO.P,U3,41,EPAD*%
%TO.N,GND*%
X129605000Y-90905000D03*
D12*
%TO.P,U3,1,XCEN*%
%TO.N,/ML5805_VTX/VTX.XCEN*%
X127355000Y-87967500D03*
%TO.P,U3,2,RXON*%
%TO.N,Net-(U3-RXON)*%
X127855000Y-87967500D03*
%TO.P,U3,3,SW_CTRL_P*%
%TO.N,unconnected-(U3-SW_CTRL_P-Pad3)*%
X128355000Y-87967500D03*
%TO.P,U3,4,DIN*%
%TO.N,Net-(U3-DIN)*%
X128855000Y-87967500D03*
%TO.P,U3,5,VSSD*%
%TO.N,GND*%
X129355000Y-87967500D03*
%TO.P,U3,6,EN*%
%TO.N,/ML5805_VTX/VTX.CS*%
X129855000Y-87967500D03*
%TO.P,U3,7,DATA*%
%TO.N,/ML5805_VTX/VTX.SDO*%
X130355000Y-87967500D03*
%TO.P,U3,8,CLK*%
%TO.N,/ML5805_VTX/VTX.CLK*%
X130855000Y-87967500D03*
%TO.P,U3,9,VDD*%
%TO.N,+3V3*%
X131355000Y-87967500D03*
%TO.P,U3,10,VREG_1P8*%
%TO.N,Net-(U3-VREG_1P8)*%
X131855000Y-87967500D03*
D13*
%TO.P,U3,11,VBG_1P8*%
%TO.N,Net-(U3-VBG_1P8)*%
X132542500Y-88655000D03*
%TO.P,U3,12,FREF*%
%TO.N,Net-(U3-FREF)*%
X132542500Y-89155000D03*
%TO.P,U3,13,VCCSYN*%
%TO.N,Net-(U3-VCCSYN)*%
X132542500Y-89655000D03*
%TO.P,U3,14,PLL_SW*%
%TO.N,Net-(U3-PLL_SW)*%
X132542500Y-90155000D03*
%TO.P,U3,15,QPO*%
%TO.N,Net-(U3-QPO)*%
X132542500Y-90655000D03*
%TO.P,U3,16,VTUNE*%
%TO.N,Net-(U3-VTUNE)*%
X132542500Y-91155000D03*
%TO.P,U3,17,VREGVCO*%
%TO.N,Net-(U3-VREGVCO)*%
X132542500Y-91655000D03*
%TO.P,U3,18,VREGPLL*%
%TO.N,Net-(U3-VCCSYN)*%
X132542500Y-92155000D03*
%TO.P,U3,19,VCCPLL*%
%TO.N,+3V3*%
X132542500Y-92655000D03*
%TO.P,U3,20,VBG_VCO*%
%TO.N,Net-(U3-VBG_VCO)*%
X132542500Y-93155000D03*
D12*
%TO.P,U3,21,VREGLNA*%
%TO.N,Net-(U3-VREGLNA)*%
X131855000Y-93842500D03*
%TO.P,U3,22,RXIN*%
%TO.N,unconnected-(U3-RXIN-Pad22)*%
X131355000Y-93842500D03*
%TO.P,U3,23,RXIP*%
%TO.N,unconnected-(U3-RXIP-Pad23)*%
X130855000Y-93842500D03*
%TO.P,U3,24,VREGRX*%
%TO.N,Net-(U3-VREGRX)*%
X130355000Y-93842500D03*
%TO.P,U3,25,VBG_RF*%
%TO.N,Net-(U3-VBG_RF)*%
X129855000Y-93842500D03*
%TO.P,U3,26,VREGTX*%
%TO.N,Net-(U3-VREGRX)*%
X129355000Y-93842500D03*
%TO.P,U3,27,VCCA*%
%TO.N,+3V3*%
X128855000Y-93842500D03*
%TO.P,U3,28,TXO*%
%TO.N,Net-(U3-TXO)*%
X128355000Y-93842500D03*
%TO.P,U3,29,ISET*%
%TO.N,Net-(U3-ISET)*%
X127855000Y-93842500D03*
%TO.P,U3,30,VBG_PA*%
%TO.N,Net-(U3-VBG_PA)*%
X127355000Y-93842500D03*
D13*
%TO.P,U3,31,VCC_PA*%
%TO.N,+3V3*%
X126667500Y-93155000D03*
%TO.P,U3,32,VREGPA*%
%TO.N,/ML5805_VTX/VREGPA*%
X126667500Y-92655000D03*
%TO.P,U3,33,VREGIF*%
%TO.N,Net-(U3-VREGIF)*%
X126667500Y-92155000D03*
%TO.P,U3,34,TPI*%
%TO.N,Net-(U3-TPI)*%
X126667500Y-91655000D03*
%TO.P,U3,35,TPQ*%
%TO.N,Net-(U3-TPQ)*%
X126667500Y-91155000D03*
%TO.P,U3,36,RSSI*%
%TO.N,Net-(U3-RSSI)*%
X126667500Y-90655000D03*
%TO.P,U3,37,AOUT*%
%TO.N,Net-(U3-AOUT)*%
X126667500Y-90155000D03*
%TO.P,U3,38,DOUT*%
%TO.N,Net-(U3-DOUT)*%
X126667500Y-89655000D03*
%TO.P,U3,39,DATASEL*%
%TO.N,Net-(U3-DATASEL)*%
X126667500Y-89155000D03*
%TO.P,U3,40,SW_CNTRL__N*%
%TO.N,unconnected-(U3-SW_CNTRL__N-Pad40)*%
X126667500Y-88655000D03*
%TD*%
D14*
%TO.P,Q4,1,G*%
%TO.N,Net-(Q4-G)*%
X139847500Y-104600000D03*
%TO.P,Q4,2,S*%
%TO.N,VBUS*%
X139847500Y-106500000D03*
%TO.P,Q4,3,D*%
%TO.N,+5V*%
X137972500Y-105550000D03*
%TD*%
D15*
%TO.P,U10,1,EN*%
%TO.N,+5V*%
X138607500Y-108110000D03*
%TO.P,U10,2,GND*%
%TO.N,GND*%
X138607500Y-109060000D03*
%TO.P,U10,3,LX*%
%TO.N,Net-(U10-LX)*%
X138607500Y-110010000D03*
%TO.P,U10,4,VIN*%
%TO.N,+5V*%
X136332500Y-110010000D03*
%TO.P,U10,5,FB*%
%TO.N,Net-(U10-FB)*%
X136332500Y-108110000D03*
%TD*%
D16*
%TO.P,J2,1,Pin_1*%
%TO.N,+3V3*%
X146190000Y-80830000D03*
D17*
%TO.P,J2,2,Pin_2*%
%TO.N,/STM32F722VC_MCU/SWDIO*%
X144190000Y-80830000D03*
%TO.P,J2,3,Pin_3*%
%TO.N,/STM32F722VC_MCU/SWDCLK*%
X142190000Y-80830000D03*
%TO.P,J2,4,Pin_4*%
%TO.N,/STM32F722VC_MCU/NRST*%
X140190000Y-80830000D03*
%TO.P,J2,5,Pin_5*%
%TO.N,GND*%
X138190000Y-80830000D03*
%TD*%
D18*
%TO.P,U7,1,AP_SDO*%
%TO.N,/MISO*%
X142760000Y-109807500D03*
%TO.P,U7,2,RESV*%
%TO.N,GND*%
X143260000Y-109807500D03*
%TO.P,U7,3,RESV*%
X143760000Y-109807500D03*
%TO.P,U7,4,INT1*%
%TO.N,/LSM6DSOX_IMU/IMU2_INT*%
X144260000Y-109807500D03*
D19*
%TO.P,U7,5,VDDIO*%
%TO.N,+3V3*%
X144422500Y-110470000D03*
%TO.P,U7,6,GND*%
%TO.N,GND*%
X144422500Y-110970000D03*
%TO.P,U7,7,RESV*%
X144422500Y-111470000D03*
D18*
%TO.P,U7,8,VDD*%
%TO.N,+3V3*%
X144260000Y-112132500D03*
%TO.P,U7,9,INT2*%
%TO.N,unconnected-(U7-INT2-Pad9)*%
X143760000Y-112132500D03*
%TO.P,U7,10,RESV*%
%TO.N,GND*%
X143260000Y-112132500D03*
%TO.P,U7,11,RESV*%
X142760000Y-112132500D03*
D19*
%TO.P,U7,12,AP_CS*%
%TO.N,/LSM6DSOX_IMU/IMU2.CS*%
X142597500Y-111470000D03*
%TO.P,U7,13,AP_SCLK*%
%TO.N,/SCLK*%
X142597500Y-110970000D03*
%TO.P,U7,14,AP_SDI*%
%TO.N,/MOSI*%
X142597500Y-110470000D03*
%TD*%
D20*
%TO.P,C63,1*%
%TO.N,+3V3*%
X149425000Y-107607500D03*
%TO.P,C63,2*%
%TO.N,GND*%
X150385000Y-107607500D03*
%TD*%
D10*
%TO.P,TP7,1,1*%
%TO.N,Net-(U3-TPQ)*%
X124212500Y-90185000D03*
%TD*%
D21*
%TO.P,C53,1*%
%TO.N,Net-(U3-VBG_PA)*%
X125762500Y-95185000D03*
%TO.P,C53,2*%
%TO.N,GND*%
X125762500Y-96145000D03*
%TD*%
D22*
%TO.P,R12,1*%
%TO.N,Net-(C24-Pad2)*%
X136410000Y-84020000D03*
%TO.P,R12,2*%
%TO.N,/MAX7456_OSD/DATA.OUT*%
X135390000Y-84020000D03*
%TD*%
D23*
%TO.P,R31,1*%
%TO.N,Net-(Q1A-G)*%
X122140000Y-101900000D03*
%TO.P,R31,2*%
%TO.N,GND*%
X123160000Y-101900000D03*
%TD*%
D24*
%TO.P,TH1,1*%
%TO.N,Net-(Q3-D)*%
X132527500Y-104452500D03*
%TO.P,TH1,2*%
%TO.N,Batt+*%
X129727500Y-104452500D03*
%TD*%
D22*
%TO.P,R18,1*%
%TO.N,Net-(C36-Pad2)*%
X135210000Y-90690000D03*
%TO.P,R18,2*%
%TO.N,Net-(U3-PLL_SW)*%
X134190000Y-90690000D03*
%TD*%
D25*
%TO.P,C81,1*%
%TO.N,+3V3*%
X139087500Y-113320000D03*
%TO.P,C81,2*%
%TO.N,GND*%
X138127500Y-113320000D03*
%TD*%
D10*
%TO.P,TP6,1,1*%
%TO.N,Net-(U3-TPI)*%
X122212500Y-90415000D03*
%TD*%
D26*
%TO.P,X1,1,GND*%
%TO.N,GND*%
X124030000Y-98135000D03*
D27*
%TO.P,X1,2,IN*%
%TO.N,Net-(X1-IN)*%
X124955000Y-97660000D03*
D26*
%TO.P,X1,3,GND*%
%TO.N,GND*%
X124030000Y-97185000D03*
D27*
%TO.P,X1,4,OUT*%
%TO.N,Net-(X1-OUT)*%
X123105000Y-97660000D03*
%TD*%
D28*
%TO.P,R22,1*%
%TO.N,+3V3*%
X144350000Y-102240000D03*
%TO.P,R22,2*%
%TO.N,/ExposedPeripherals/SDA*%
X144350000Y-103260000D03*
%TD*%
D21*
%TO.P,C37,1*%
%TO.N,Net-(U3-VBG_VCO)*%
X136422500Y-95695000D03*
%TO.P,C37,2*%
%TO.N,GND*%
X136422500Y-96655000D03*
%TD*%
D28*
%TO.P,R37,1*%
%TO.N,Net-(U9-FB)*%
X125030000Y-113130000D03*
%TO.P,R37,2*%
%TO.N,GND*%
X125030000Y-114150000D03*
%TD*%
D20*
%TO.P,C20,1*%
%TO.N,+5V*%
X150130000Y-85420000D03*
%TO.P,C20,2*%
%TO.N,GND*%
X151090000Y-85420000D03*
%TD*%
D21*
%TO.P,C52,1*%
%TO.N,Net-(U3-VREGLNA)*%
X135292500Y-95695000D03*
%TO.P,C52,2*%
%TO.N,GND*%
X135292500Y-96655000D03*
%TD*%
D20*
%TO.P,C47,1*%
%TO.N,+3V3*%
X136146500Y-93705000D03*
%TO.P,C47,2*%
%TO.N,GND*%
X137106500Y-93705000D03*
%TD*%
D22*
%TO.P,R20,1*%
%TO.N,Net-(C41-Pad1)*%
X139072500Y-92235000D03*
%TO.P,R20,2*%
%TO.N,Net-(U3-QPO)*%
X138052500Y-92235000D03*
%TD*%
D29*
%TO.P,AE1,1,A*%
%TO.N,Net-(AE1-A)*%
X119500000Y-97660000D03*
D30*
%TO.P,AE1,2,Shield*%
%TO.N,GND*%
X117975000Y-99135000D03*
X117975000Y-96185000D03*
%TD*%
D28*
%TO.P,R41,1*%
%TO.N,Net-(U10-FB)*%
X134762500Y-108990000D03*
%TO.P,R41,2*%
%TO.N,GND*%
X134762500Y-110010000D03*
%TD*%
D31*
%TO.P,R17,1*%
%TO.N,GND*%
X126792500Y-96185000D03*
%TO.P,R17,2*%
%TO.N,Net-(U3-ISET)*%
X126792500Y-95165000D03*
%TD*%
D32*
%TO.P,C41,1*%
%TO.N,Net-(C41-Pad1)*%
X139062500Y-91245000D03*
%TO.P,C41,2*%
%TO.N,GND*%
X139062500Y-90285000D03*
%TD*%
D22*
%TO.P,R26,1*%
%TO.N,+3V3*%
X126350000Y-103020000D03*
%TO.P,R26,2*%
%TO.N,/Battery_Monitoring/Sense.SCL*%
X125330000Y-103020000D03*
%TD*%
D25*
%TO.P,C22,1*%
%TO.N,+5V*%
X141247000Y-87085000D03*
%TO.P,C22,2*%
%TO.N,GND*%
X140287000Y-87085000D03*
%TD*%
D10*
%TO.P,TP11,1,1*%
%TO.N,Net-(C35-Pad2)*%
X137710000Y-88400000D03*
%TD*%
%TO.P,TP1,1,1*%
%TO.N,/STM32F722VC_MCU/SWDIO*%
X144760000Y-82440000D03*
%TD*%
D33*
%TO.P,D5,1,K*%
%TO.N,/ExposedPeripherals/ELRS.USART2.TX*%
X130640000Y-102315000D03*
%TO.P,D5,2,A*%
%TO.N,GND*%
X129690000Y-102315000D03*
%TO.P,D5,3,K*%
%TO.N,/ExposedPeripherals/ELRS.USART2.RX*%
X128740000Y-102315000D03*
%TO.P,D5,4,K*%
%TO.N,/ExposedPeripherals/CAN1.TX*%
X128740000Y-100040000D03*
%TO.P,D5,5,K*%
%TO.N,/ExposedPeripherals/CAN1.RX*%
X130640000Y-100040000D03*
%TD*%
D22*
%TO.P,R33,1*%
%TO.N,/Battery_Monitoring/V.BAT*%
X125170000Y-101860000D03*
%TO.P,R33,2*%
%TO.N,GND*%
X124150000Y-101860000D03*
%TD*%
D28*
%TO.P,R40,1*%
%TO.N,+3V3*%
X134840000Y-107040000D03*
%TO.P,R40,2*%
%TO.N,Net-(U10-FB)*%
X134840000Y-108060000D03*
%TD*%
D22*
%TO.P,R25,1*%
%TO.N,+3V3*%
X126370000Y-104040000D03*
%TO.P,R25,2*%
%TO.N,/Battery_Monitoring/Sense.SDA*%
X125350000Y-104040000D03*
%TD*%
D10*
%TO.P,TP9,1,1*%
%TO.N,Net-(U3-AOUT)*%
X124272500Y-88335000D03*
%TD*%
D20*
%TO.P,C44,1*%
%TO.N,Net-(U3-VCCSYN)*%
X134220000Y-88830000D03*
%TO.P,C44,2*%
%TO.N,GND*%
X135180000Y-88830000D03*
%TD*%
%TO.P,C39,1*%
%TO.N,Net-(U3-VBG_1P8)*%
X134220000Y-86970000D03*
%TO.P,C39,2*%
%TO.N,GND*%
X135180000Y-86970000D03*
%TD*%
D23*
%TO.P,R8,1*%
%TO.N,+5V*%
X140187000Y-91435000D03*
%TO.P,R8,2*%
%TO.N,/MAX7456_OSD/~{HSYNC}*%
X141207000Y-91435000D03*
%TD*%
D28*
%TO.P,R15,1*%
%TO.N,GND*%
X126952500Y-85465000D03*
%TO.P,R15,2*%
%TO.N,Net-(U3-RXON)*%
X126952500Y-86485000D03*
%TD*%
D32*
%TO.P,C64,1*%
%TO.N,+3V3*%
X150615000Y-106297500D03*
%TO.P,C64,2*%
%TO.N,GND*%
X150615000Y-105337500D03*
%TD*%
D10*
%TO.P,TP10,1,1*%
%TO.N,Net-(U3-DOUT)*%
X122282500Y-86795000D03*
%TD*%
D23*
%TO.P,R11,1*%
%TO.N,+5V*%
X140187000Y-90415000D03*
%TO.P,R11,2*%
%TO.N,/MAX7456_OSD/OSD.~{RESET}*%
X141207000Y-90415000D03*
%TD*%
D25*
%TO.P,C83,1*%
%TO.N,+3V3*%
X139087500Y-112310000D03*
%TO.P,C83,2*%
%TO.N,GND*%
X138127500Y-112310000D03*
%TD*%
D34*
%TO.P,U2,1,NC*%
%TO.N,unconnected-(U2-NC-Pad1)*%
X148525000Y-84525000D03*
%TO.P,U2,2,NC*%
%TO.N,unconnected-(U2-NC-Pad2)*%
X148525000Y-85175000D03*
%TO.P,U2,3,DVDD*%
%TO.N,+5V*%
X148525000Y-85825000D03*
%TO.P,U2,4,DGND*%
%TO.N,GND*%
X148525000Y-86475000D03*
%TO.P,U2,5,CLKIN*%
%TO.N,Net-(U2-CLKIN)*%
X148525000Y-87125000D03*
%TO.P,U2,6,XFB*%
%TO.N,Net-(U2-XFB)*%
X148525000Y-87775000D03*
%TO.P,U2,7,CLKOUT*%
%TO.N,Net-(U2-CLKOUT)*%
X148525000Y-88425000D03*
%TO.P,U2,8,~{CS}*%
%TO.N,/MAX7456_OSD/OSD.~{CS}*%
X148525000Y-89075000D03*
%TO.P,U2,9,SDIN*%
%TO.N,/MAX7456_OSD/OSD.MOSI*%
X148525000Y-89725000D03*
%TO.P,U2,10,SCLK*%
%TO.N,/MAX7456_OSD/0SD.SCLK*%
X148525000Y-90375000D03*
%TO.P,U2,11,SDOUT*%
%TO.N,/MAX7456_OSD/OSD.MISO*%
X148525000Y-91025000D03*
%TO.P,U2,12,LOS*%
%TO.N,/MAX7456_OSD/LOS*%
X148525000Y-91675000D03*
%TO.P,U2,13,NC*%
%TO.N,unconnected-(U2-NC-Pad13)*%
X148525000Y-92325000D03*
%TO.P,U2,14,NC*%
%TO.N,unconnected-(U2-NC-Pad14)*%
X148525000Y-92975000D03*
%TO.P,U2,15,NC*%
%TO.N,unconnected-(U2-NC-Pad15)*%
X142775000Y-92975000D03*
%TO.P,U2,16,NC*%
%TO.N,unconnected-(U2-NC-Pad16)*%
X142775000Y-92325000D03*
%TO.P,U2,17,~{VSYNC}*%
%TO.N,/MAX7456_OSD/~{VSYNC}*%
X142775000Y-91675000D03*
%TO.P,U2,18,~{HSYNC}*%
%TO.N,/MAX7456_OSD/~{HSYNC}*%
X142775000Y-91025000D03*
%TO.P,U2,19,~{RESET}*%
%TO.N,/MAX7456_OSD/OSD.~{RESET}*%
X142775000Y-90375000D03*
%TO.P,U2,20,AGND*%
%TO.N,GND*%
X142775000Y-89725000D03*
%TO.P,U2,21,AVDD*%
%TO.N,+5V*%
X142775000Y-89075000D03*
%TO.P,U2,22,VIN*%
%TO.N,Net-(U2-VIN)*%
X142775000Y-88425000D03*
%TO.P,U2,23,PGND*%
%TO.N,GND*%
X142775000Y-87775000D03*
%TO.P,U2,24,PVDD*%
%TO.N,+5V*%
X142775000Y-87125000D03*
%TO.P,U2,25,SAG*%
%TO.N,Net-(U2-SAG)*%
X142775000Y-86475000D03*
%TO.P,U2,26,VOUT*%
%TO.N,Net-(U2-VOUT)*%
X142775000Y-85825000D03*
%TO.P,U2,27,NC*%
%TO.N,unconnected-(U2-NC-Pad27)*%
X142775000Y-85175000D03*
%TO.P,U2,28,NC*%
%TO.N,unconnected-(U2-NC-Pad28)*%
X142775000Y-84525000D03*
D35*
%TO.P,U2,29,EP*%
%TO.N,GND*%
X145650000Y-88750000D03*
%TD*%
D28*
%TO.P,R30,1*%
%TO.N,Net-(Q1B-S)*%
X125150000Y-99900000D03*
%TO.P,R30,2*%
%TO.N,/Battery_Monitoring/V.BAT*%
X125150000Y-100920000D03*
%TD*%
D32*
%TO.P,C34,1*%
%TO.N,Net-(U3-DIN)*%
X128002500Y-86455000D03*
%TO.P,C34,2*%
%TO.N,GND*%
X128002500Y-85495000D03*
%TD*%
D25*
%TO.P,C46,1*%
%TO.N,Net-(U3-VREGIF)*%
X124782500Y-91575000D03*
%TO.P,C46,2*%
%TO.N,GND*%
X123822500Y-91575000D03*
%TD*%
D21*
%TO.P,C51,1*%
%TO.N,Net-(U3-VREGLNA)*%
X134262500Y-95695000D03*
%TO.P,C51,2*%
%TO.N,GND*%
X134262500Y-96655000D03*
%TD*%
D23*
%TO.P,R9,1*%
%TO.N,+5V*%
X140187000Y-92475000D03*
%TO.P,R9,2*%
%TO.N,/MAX7456_OSD/~{VSYNC}*%
X141207000Y-92475000D03*
%TD*%
D10*
%TO.P,TP22,1,1*%
%TO.N,Net-(U1-PD5)*%
X134350000Y-81820000D03*
%TD*%
D32*
%TO.P,C36,1*%
%TO.N,Net-(U3-QPO)*%
X136150000Y-91550000D03*
%TO.P,C36,2*%
%TO.N,Net-(C36-Pad2)*%
X136150000Y-90590000D03*
%TD*%
%TO.P,C27,1*%
%TO.N,+3V3*%
X131652500Y-85825000D03*
%TO.P,C27,2*%
%TO.N,GND*%
X131652500Y-84865000D03*
%TD*%
D10*
%TO.P,TP8,1,1*%
%TO.N,Net-(U3-RSSI)*%
X122182500Y-88585000D03*
%TD*%
D25*
%TO.P,C55,1*%
%TO.N,/ML5805_VTX/VREGPA*%
X124702500Y-93685000D03*
%TO.P,C55,2*%
%TO.N,GND*%
X123742500Y-93685000D03*
%TD*%
D36*
%TO.P,C24,1*%
%TO.N,Net-(U2-VOUT)*%
X140440000Y-85421000D03*
%TO.P,C24,2*%
%TO.N,Net-(C24-Pad2)*%
X140440000Y-83197000D03*
%TD*%
D37*
%TO.P,D4,1,A1*%
%TO.N,/ExposedPeripherals/SDA*%
X144330000Y-104250000D03*
%TO.P,D4,2,A2*%
%TO.N,GND*%
X145300000Y-104250000D03*
%TD*%
D38*
%TO.P,R29,1*%
%TO.N,Net-(J5-Pin_1)*%
X119860000Y-105785000D03*
%TO.P,R29,2*%
%TO.N,Batt+*%
X119860000Y-104135000D03*
%TD*%
D10*
%TO.P,TP26,1,1*%
%TO.N,+5V*%
X134290000Y-111440000D03*
%TD*%
D25*
%TO.P,C31,1*%
%TO.N,Net-(U3-TXO)*%
X126507500Y-97665000D03*
%TO.P,C31,2*%
%TO.N,Net-(X1-IN)*%
X125547500Y-97665000D03*
%TD*%
D28*
%TO.P,R14,1*%
%TO.N,+3V3*%
X125952500Y-85455000D03*
%TO.P,R14,2*%
%TO.N,/ML5805_VTX/VTX.XCEN*%
X125952500Y-86475000D03*
%TD*%
D39*
%TO.P,Q3,1,G*%
%TO.N,Net-(D9-A)*%
X130592500Y-108302500D03*
%TO.P,Q3,2,S*%
%TO.N,Net-(D9-K)*%
X130592500Y-106402500D03*
%TO.P,Q3,3,D*%
%TO.N,Net-(Q3-D)*%
X132467500Y-107352500D03*
%TD*%
D10*
%TO.P,TP12,1,1*%
%TO.N,Net-(U3-DATASEL)*%
X124322500Y-86555000D03*
%TD*%
D20*
%TO.P,C77,1*%
%TO.N,+5V*%
X135852500Y-113410000D03*
%TO.P,C77,2*%
%TO.N,GND*%
X136812500Y-113410000D03*
%TD*%
D36*
%TO.P,C25,1*%
%TO.N,Net-(U2-SAG)*%
X138050000Y-86191000D03*
%TO.P,C25,2*%
%TO.N,Net-(C24-Pad2)*%
X138050000Y-83967000D03*
%TD*%
D20*
%TO.P,C57,1*%
%TO.N,Net-(U3-VREGVCO)*%
X134220000Y-92675000D03*
%TO.P,C57,2*%
%TO.N,GND*%
X135180000Y-92675000D03*
%TD*%
%TO.P,C43,1*%
%TO.N,Net-(U3-VREGVCO)*%
X134220000Y-93705000D03*
%TO.P,C43,2*%
%TO.N,GND*%
X135180000Y-93705000D03*
%TD*%
%TO.P,C48,1*%
%TO.N,+3V3*%
X136146500Y-94725000D03*
%TO.P,C48,2*%
%TO.N,GND*%
X137106500Y-94725000D03*
%TD*%
D25*
%TO.P,C28,1*%
%TO.N,+3V3*%
X124722500Y-94765000D03*
%TO.P,C28,2*%
%TO.N,GND*%
X123762500Y-94765000D03*
%TD*%
D40*
%TO.P,D12,1,A1*%
%TO.N,/ExposedPeripherals/SCL*%
X142587500Y-104240000D03*
%TO.P,D12,2,A2*%
%TO.N,GND*%
X141617500Y-104240000D03*
%TD*%
D31*
%TO.P,R10,1*%
%TO.N,+5V*%
X150100000Y-93030000D03*
%TO.P,R10,2*%
%TO.N,/MAX7456_OSD/LOS*%
X150100000Y-92010000D03*
%TD*%
D21*
%TO.P,C80,1*%
%TO.N,+3V3*%
X133830000Y-107100000D03*
%TO.P,C80,2*%
%TO.N,Net-(U10-FB)*%
X133830000Y-108060000D03*
%TD*%
%TO.P,C38,1*%
%TO.N,Net-(U3-VBG_RF)*%
X132162500Y-95695000D03*
%TO.P,C38,2*%
%TO.N,GND*%
X132162500Y-96655000D03*
%TD*%
D22*
%TO.P,R24,1*%
%TO.N,Batt+*%
X121660000Y-99850000D03*
%TO.P,R24,2*%
%TO.N,Net-(Q1B-G)*%
X120640000Y-99850000D03*
%TD*%
D10*
%TO.P,TP20,1,1*%
%TO.N,Net-(U1-PD3)*%
X130850000Y-80620000D03*
%TD*%
D25*
%TO.P,C75,1*%
%TO.N,Net-(D8-A)*%
X129450000Y-114290000D03*
%TO.P,C75,2*%
%TO.N,GND*%
X128490000Y-114290000D03*
%TD*%
D23*
%TO.P,R38,1*%
%TO.N,Net-(D9-A)*%
X130400000Y-109650000D03*
%TO.P,R38,2*%
%TO.N,GND*%
X131420000Y-109650000D03*
%TD*%
D41*
%TO.P,U9,1,FB*%
%TO.N,Net-(U9-FB)*%
X125675000Y-111850000D03*
%TO.P,U9,2,FS*%
%TO.N,Net-(U9-FS)*%
X125675000Y-111200000D03*
%TO.P,U9,3,PAD*%
%TO.N,GND*%
X125675000Y-110550000D03*
%TO.P,U9,4,GND*%
X125675000Y-109900000D03*
%TO.P,U9,5,VIN*%
%TO.N,Net-(D9-K)*%
X127950000Y-109900000D03*
%TO.P,U9,6,LX*%
%TO.N,Net-(U9-LX)*%
X127950000Y-110550000D03*
%TO.P,U9,7,BST*%
%TO.N,Net-(U9-BST)*%
X127950000Y-111200000D03*
%TO.P,U9,8,EN*%
%TO.N,Net-(D9-K)*%
X127950000Y-111850000D03*
%TD*%
D23*
%TO.P,R19,1*%
%TO.N,Net-(U3-VTUNE)*%
X138062500Y-93375000D03*
%TO.P,R19,2*%
%TO.N,Net-(C41-Pad1)*%
X139082500Y-93375000D03*
%TD*%
D32*
%TO.P,C42,1*%
%TO.N,Net-(U3-QPO)*%
X137150000Y-91550000D03*
%TO.P,C42,2*%
%TO.N,GND*%
X137150000Y-90590000D03*
%TD*%
D10*
%TO.P,TP5,1,1*%
%TO.N,Net-(U2-CLKOUT)*%
X151580000Y-90060000D03*
%TD*%
%TO.P,TP25,1,1*%
%TO.N,Net-(D9-K)*%
X124490000Y-107050000D03*
%TD*%
D23*
%TO.P,R35,1*%
%TO.N,Net-(D8-A)*%
X140640000Y-103040000D03*
%TO.P,R35,2*%
%TO.N,GND*%
X141660000Y-103040000D03*
%TD*%
D42*
%TO.P,D9,1,K*%
%TO.N,Net-(D9-K)*%
X128937500Y-107062500D03*
%TO.P,D9,2,A*%
%TO.N,Net-(D9-A)*%
X128937500Y-108032500D03*
%TD*%
D43*
%TO.P,L5,1,1*%
%TO.N,Net-(U10-LX)*%
X140722500Y-110505000D03*
%TO.P,L5,2,2*%
%TO.N,+3V3*%
X140722500Y-111955000D03*
%TD*%
D44*
%TO.P,C73,1*%
%TO.N,Net-(D9-K)*%
X126350000Y-107245000D03*
%TO.P,C73,2*%
%TO.N,GND*%
X126350000Y-105695000D03*
%TD*%
D25*
%TO.P,C54,1*%
%TO.N,/ML5805_VTX/VREGPA*%
X124710000Y-92750000D03*
%TO.P,C54,2*%
%TO.N,GND*%
X123750000Y-92750000D03*
%TD*%
D21*
%TO.P,C45,1*%
%TO.N,Net-(U3-VBG_RF)*%
X131162500Y-95695000D03*
%TO.P,C45,2*%
%TO.N,GND*%
X131162500Y-96655000D03*
%TD*%
D10*
%TO.P,TP14,1,1*%
%TO.N,Net-(D8-A)*%
X140740000Y-113880000D03*
%TD*%
%TO.P,TP24,1,1*%
%TO.N,Net-(U1-PD7)*%
X126740000Y-80660000D03*
%TD*%
D45*
%TO.P,Q1,1,S*%
%TO.N,GND*%
X122657500Y-100880000D03*
%TO.P,Q1,2,G*%
%TO.N,Net-(Q1A-G)*%
X122657500Y-100380000D03*
%TO.P,Q1,3,D*%
%TO.N,Batt+*%
X122657500Y-99880000D03*
%TO.P,Q1,4,S*%
%TO.N,Net-(Q1B-S)*%
X124082500Y-99880000D03*
%TO.P,Q1,5,G*%
%TO.N,Net-(Q1B-G)*%
X124082500Y-100380000D03*
%TO.P,Q1,6,D*%
%TO.N,Net-(Q1A-D)*%
X124082500Y-100880000D03*
%TD*%
D31*
%TO.P,R13,1*%
%TO.N,/MAX7456_OSD/VIN*%
X139117000Y-88505000D03*
%TO.P,R13,2*%
%TO.N,GND*%
X139117000Y-87485000D03*
%TD*%
D21*
%TO.P,C50,1*%
%TO.N,Net-(U3-VREGRX)*%
X130222500Y-95695000D03*
%TO.P,C50,2*%
%TO.N,GND*%
X130222500Y-96655000D03*
%TD*%
D46*
%TO.P,Y3,1,1*%
%TO.N,Net-(U2-XFB)*%
X150450000Y-88050000D03*
%TO.P,Y3,2,2*%
%TO.N,GND*%
X150450000Y-86650000D03*
%TO.P,Y3,3,3*%
%TO.N,Net-(U2-CLKIN)*%
X151550000Y-86650000D03*
%TO.P,Y3,4,4*%
%TO.N,GND*%
X151550000Y-88050000D03*
%TD*%
D25*
%TO.P,C71,1*%
%TO.N,+3V3*%
X120170000Y-102880000D03*
%TO.P,C71,2*%
%TO.N,GND*%
X119210000Y-102880000D03*
%TD*%
D21*
%TO.P,C68,1*%
%TO.N,+3V3*%
X145100000Y-113220000D03*
%TO.P,C68,2*%
%TO.N,GND*%
X145100000Y-114180000D03*
%TD*%
D10*
%TO.P,TP3,1,1*%
%TO.N,/STM32F722VC_MCU/NRST*%
X138860000Y-82180000D03*
%TD*%
D47*
%TO.P,U5,1,Vdd_IO*%
%TO.N,+3V3*%
X149092500Y-106570000D03*
%TO.P,U5,2,SCL*%
%TO.N,/SCLK*%
X148592500Y-106570000D03*
D48*
%TO.P,U5,3,GND*%
%TO.N,GND*%
X148080000Y-106307500D03*
%TO.P,U5,4,SDA*%
%TO.N,/MOSI*%
X148080000Y-105807500D03*
%TO.P,U5,5,SA0*%
%TO.N,/MISO*%
X148080000Y-105307500D03*
D47*
%TO.P,U5,6,~{CS}*%
%TO.N,/LPS22HBTR_PressureSensor/MEMS2_CS*%
X148592500Y-105045000D03*
%TO.P,U5,7,INT_DRDY*%
%TO.N,/LPS22HBTR_PressureSensor/MEMS2_INT*%
X149092500Y-105045000D03*
D48*
%TO.P,U5,8,GND*%
%TO.N,GND*%
X149605000Y-105307500D03*
%TO.P,U5,9,GND*%
X149605000Y-105807500D03*
%TO.P,U5,10,VDD*%
%TO.N,+3V3*%
X149605000Y-106307500D03*
%TD*%
D31*
%TO.P,R34,1*%
%TO.N,Net-(D8-A)*%
X126080000Y-114150000D03*
%TO.P,R34,2*%
%TO.N,Net-(U9-FB)*%
X126080000Y-113130000D03*
%TD*%
D20*
%TO.P,C40,1*%
%TO.N,Net-(U3-VTUNE)*%
X138082500Y-94395000D03*
%TO.P,C40,2*%
%TO.N,GND*%
X139042500Y-94395000D03*
%TD*%
D23*
%TO.P,R27,1*%
%TO.N,Net-(Q1B-G)*%
X120640000Y-98830000D03*
%TO.P,R27,2*%
%TO.N,Net-(Q1A-D)*%
X121660000Y-98830000D03*
%TD*%
D20*
%TO.P,C21,1*%
%TO.N,+5V*%
X150130000Y-84380000D03*
%TO.P,C21,2*%
%TO.N,GND*%
X151090000Y-84380000D03*
%TD*%
D33*
%TO.P,D6,1,K*%
%TO.N,/ExposedPeripherals/SPARE.UART8.TX*%
X135310000Y-101835000D03*
%TO.P,D6,2,A*%
%TO.N,GND*%
X134360000Y-101835000D03*
%TO.P,D6,3,K*%
%TO.N,/ExposedPeripherals/SPARE.UART8.RX*%
X133410000Y-101835000D03*
%TO.P,D6,4,K*%
%TO.N,/ExposedPeripherals/GPS.UART5.TX*%
X133410000Y-99560000D03*
%TO.P,D6,5,K*%
%TO.N,/ExposedPeripherals/GPS.UART5.RX*%
X135310000Y-99560000D03*
%TD*%
D32*
%TO.P,C72,1*%
%TO.N,Net-(U9-BST)*%
X129430000Y-111470000D03*
%TO.P,C72,2*%
%TO.N,Net-(U9-LX)*%
X129430000Y-110510000D03*
%TD*%
D20*
%TO.P,C33,1*%
%TO.N,Net-(U3-TXO)*%
X128355000Y-97665000D03*
%TO.P,C33,2*%
%TO.N,GND*%
X129315000Y-97665000D03*
%TD*%
D10*
%TO.P,TP2,1,1*%
%TO.N,/STM32F722VC_MCU/SWDCLK*%
X142710000Y-82470000D03*
%TD*%
D20*
%TO.P,C35,1*%
%TO.N,Net-(U3-FREF)*%
X134220000Y-87910000D03*
%TO.P,C35,2*%
%TO.N,Net-(C35-Pad2)*%
X135180000Y-87910000D03*
%TD*%
D25*
%TO.P,C74,1*%
%TO.N,Net-(D9-K)*%
X127880000Y-108610000D03*
%TO.P,C74,2*%
%TO.N,GND*%
X126920000Y-108610000D03*
%TD*%
D21*
%TO.P,C49,1*%
%TO.N,Net-(U3-VREGRX)*%
X133222500Y-95695000D03*
%TO.P,C49,2*%
%TO.N,GND*%
X133222500Y-96655000D03*
%TD*%
D20*
%TO.P,C26,1*%
%TO.N,/MAX7456_OSD/VIN*%
X140136000Y-88403000D03*
%TO.P,C26,2*%
%TO.N,Net-(U2-VIN)*%
X141096000Y-88403000D03*
%TD*%
D25*
%TO.P,C76,1*%
%TO.N,Net-(D8-A)*%
X129440000Y-113210000D03*
%TO.P,C76,2*%
%TO.N,GND*%
X128480000Y-113210000D03*
%TD*%
D22*
%TO.P,R28,1*%
%TO.N,Net-(Q1A-G)*%
X121660000Y-100810000D03*
%TO.P,R28,2*%
%TO.N,/Battery_Monitoring/V.bat_sense_ctrl*%
X120640000Y-100810000D03*
%TD*%
%TO.P,R36,1*%
%TO.N,Net-(D8-A)*%
X139720000Y-103040000D03*
%TO.P,R36,2*%
%TO.N,Net-(Q4-G)*%
X138700000Y-103040000D03*
%TD*%
D20*
%TO.P,C79,1*%
%TO.N,+5V*%
X135852500Y-111280000D03*
%TO.P,C79,2*%
%TO.N,GND*%
X136812500Y-111280000D03*
%TD*%
D31*
%TO.P,R21,1*%
%TO.N,Net-(C36-Pad2)*%
X136160000Y-89660000D03*
%TO.P,R21,2*%
%TO.N,GND*%
X136160000Y-88640000D03*
%TD*%
D49*
%TO.P,D10,1,A1*%
%TO.N,Batt+*%
X127867500Y-104295000D03*
%TO.P,D10,2,A2*%
%TO.N,GND*%
X127867500Y-105870000D03*
%TD*%
D32*
%TO.P,C56,1*%
%TO.N,Net-(U3-VREG_1P8)*%
X132662500Y-85825000D03*
%TO.P,C56,2*%
%TO.N,GND*%
X132662500Y-84865000D03*
%TD*%
%TO.P,C86,1*%
%TO.N,+3V3*%
X130662500Y-85825000D03*
%TO.P,C86,2*%
%TO.N,GND*%
X130662500Y-84865000D03*
%TD*%
D50*
%TO.P,D8,1,K*%
%TO.N,+5V*%
X133920000Y-112951500D03*
D51*
%TO.P,D8,2,A*%
%TO.N,Net-(D8-A)*%
X133920000Y-113863500D03*
%TD*%
D25*
%TO.P,C82,1*%
%TO.N,+3V3*%
X139087500Y-111317000D03*
%TO.P,C82,2*%
%TO.N,GND*%
X138127500Y-111317000D03*
%TD*%
D20*
%TO.P,C78,1*%
%TO.N,+5V*%
X135852500Y-112350000D03*
%TO.P,C78,2*%
%TO.N,GND*%
X136812500Y-112350000D03*
%TD*%
D28*
%TO.P,R23,1*%
%TO.N,+3V3*%
X142630000Y-102200000D03*
%TO.P,R23,2*%
%TO.N,/ExposedPeripherals/SCL*%
X142630000Y-103220000D03*
%TD*%
%TO.P,R16,1*%
%TO.N,/MAX7456_OSD/DATA.OUT*%
X129022500Y-85465000D03*
%TO.P,R16,2*%
%TO.N,Net-(U3-DIN)*%
X129022500Y-86485000D03*
%TD*%
D52*
%TO.P,L4,1*%
%TO.N,Net-(U9-LX)*%
X131580000Y-111050000D03*
%TO.P,L4,2*%
%TO.N,Net-(D8-A)*%
X131580000Y-113850000D03*
%TD*%
D21*
%TO.P,C69,1*%
%TO.N,+3V3*%
X145570000Y-110370000D03*
%TO.P,C69,2*%
%TO.N,GND*%
X145570000Y-111330000D03*
%TD*%
D20*
%TO.P,C58,1*%
%TO.N,Net-(U3-VCCSYN)*%
X134220000Y-89750000D03*
%TO.P,C58,2*%
%TO.N,GND*%
X135180000Y-89750000D03*
%TD*%
D53*
%TO.P,L3,1*%
%TO.N,Net-(AE1-A)*%
X120650000Y-97665000D03*
%TO.P,L3,2*%
%TO.N,GND*%
X120650000Y-96695000D03*
%TD*%
D32*
%TO.P,C62,1*%
%TO.N,+3V3*%
X151610000Y-106290000D03*
%TO.P,C62,2*%
%TO.N,GND*%
X151610000Y-105330000D03*
%TD*%
D31*
%TO.P,R39,1*%
%TO.N,Net-(U9-FS)*%
X124190000Y-110860000D03*
%TO.P,R39,2*%
%TO.N,GND*%
X124190000Y-109840000D03*
%TD*%
D10*
%TO.P,TP23,1,1*%
%TO.N,Net-(U1-PD6)*%
X132800000Y-81980000D03*
%TD*%
D42*
%TO.P,L2,1*%
%TO.N,Net-(U3-TXO)*%
X127420000Y-97665000D03*
%TO.P,L2,2*%
%TO.N,/ML5805_VTX/VREGPA*%
X127420000Y-98635000D03*
%TD*%
D21*
%TO.P,C29,1*%
%TO.N,+3V3*%
X129232500Y-95695000D03*
%TO.P,C29,2*%
%TO.N,GND*%
X129232500Y-96655000D03*
%TD*%
D25*
%TO.P,C23,1*%
%TO.N,+5V*%
X141137000Y-89365000D03*
%TO.P,C23,2*%
%TO.N,GND*%
X140177000Y-89365000D03*
%TD*%
D41*
%TO.P,U8,1,IN+*%
%TO.N,Net-(J5-Pin_1)*%
X121655000Y-105270000D03*
%TO.P,U8,2,IN-*%
%TO.N,Batt+*%
X121655000Y-104620000D03*
%TO.P,U8,3,GND*%
%TO.N,GND*%
X121655000Y-103970000D03*
%TO.P,U8,4,VS*%
%TO.N,+3V3*%
X121655000Y-103320000D03*
%TO.P,U8,5,SCL*%
%TO.N,/Battery_Monitoring/Sense.SCL*%
X123930000Y-103320000D03*
%TO.P,U8,6,SDA*%
%TO.N,/Battery_Monitoring/Sense.SDA*%
X123930000Y-103970000D03*
%TO.P,U8,7,A0*%
%TO.N,GND*%
X123930000Y-104620000D03*
%TO.P,U8,8,A1*%
X123930000Y-105270000D03*
%TD*%
D25*
%TO.P,C32,1*%
%TO.N,Net-(X1-OUT)*%
X122500000Y-97665000D03*
%TO.P,C32,2*%
%TO.N,Net-(AE1-A)*%
X121540000Y-97665000D03*
%TD*%
D21*
%TO.P,C70,1*%
%TO.N,+3V3*%
X144110000Y-113220000D03*
%TO.P,C70,2*%
%TO.N,GND*%
X144110000Y-114180000D03*
%TD*%
D54*
%TO.N,+3V3*%
X151840000Y-89090000D03*
D55*
%TO.N,GND*%
X145100000Y-94190000D03*
D54*
X122610000Y-87850000D03*
X127720000Y-103450000D03*
X150940000Y-83810000D03*
X132080000Y-81350000D03*
X123280000Y-95130000D03*
X147850000Y-106680000D03*
X143980000Y-98880000D03*
X135150000Y-93190000D03*
X118350000Y-84640000D03*
X129340000Y-88960000D03*
D55*
X123590000Y-105870000D03*
X134152732Y-109911360D03*
D54*
X135560000Y-86970000D03*
X128430000Y-113780000D03*
X127270000Y-96600000D03*
X143330000Y-83960000D03*
X137090000Y-94170000D03*
X122240000Y-93480000D03*
X147380000Y-111050000D03*
X128530000Y-82070000D03*
X130070000Y-103210000D03*
X128950000Y-81570000D03*
X124820000Y-82820000D03*
X145700000Y-107240000D03*
D55*
X125580000Y-106510000D03*
D54*
X119570000Y-90640000D03*
X143980000Y-89050000D03*
X140180000Y-87660000D03*
X145070000Y-84740000D03*
D55*
X122820000Y-96580000D03*
D54*
X150100000Y-105580000D03*
X117770000Y-103250000D03*
D55*
X137440000Y-112280000D03*
D54*
X139070000Y-89810000D03*
X151830000Y-85140000D03*
X117520000Y-99990000D03*
X117390000Y-84610000D03*
X128220000Y-84700000D03*
X143480000Y-109290000D03*
X142970000Y-112570000D03*
X144100000Y-100040000D03*
X125850000Y-83520000D03*
D55*
X123390000Y-111650000D03*
D54*
X139270000Y-103620000D03*
D55*
X119450000Y-108000000D03*
D54*
X150850000Y-104850000D03*
D55*
X137370000Y-111300000D03*
D54*
X143810000Y-87800000D03*
X147770000Y-102770000D03*
D55*
X126990000Y-101490000D03*
D54*
X117930000Y-95450000D03*
D55*
X124750000Y-109810000D03*
D54*
X150670000Y-101710000D03*
X149740000Y-86910000D03*
D55*
X128150000Y-106487500D03*
D54*
X123450000Y-81710000D03*
X119250000Y-96140000D03*
D55*
X124330000Y-114100000D03*
D54*
X139250000Y-102170000D03*
X145620000Y-111790000D03*
D55*
X130670000Y-107110000D03*
X131900000Y-109520000D03*
D54*
X126845000Y-84845000D03*
X146960000Y-93580000D03*
D55*
X137470000Y-113380000D03*
X121560000Y-106570000D03*
D54*
X143607500Y-96782500D03*
D55*
X135880000Y-97400000D03*
D54*
X143860000Y-111130000D03*
X152170000Y-91460000D03*
X127480000Y-92090000D03*
D55*
X126320000Y-108620000D03*
D54*
X139710000Y-89540000D03*
X131570000Y-81840000D03*
X120420000Y-96230000D03*
X141960000Y-103590000D03*
X151550000Y-104750000D03*
X124690000Y-79860000D03*
X150370000Y-108210000D03*
D55*
X125050000Y-96420000D03*
X123680000Y-101810000D03*
D54*
X118300000Y-99940000D03*
D55*
X119580000Y-102190000D03*
D54*
X122360000Y-91290000D03*
D55*
X122841400Y-101516242D03*
X137701165Y-109438970D03*
X136470000Y-97760000D03*
X126860000Y-106440000D03*
D54*
X145650000Y-88750000D03*
X138230000Y-95270000D03*
X130460000Y-83230000D03*
X137140000Y-90080000D03*
X140670000Y-84170000D03*
X144670000Y-114130000D03*
X151377225Y-88676328D03*
X138510000Y-104200000D03*
X135650000Y-89160000D03*
X121290000Y-94010000D03*
X123260000Y-94080000D03*
D55*
X131000000Y-97360000D03*
D54*
X131560000Y-79860000D03*
X145310000Y-103700000D03*
X134070000Y-103240000D03*
X124880000Y-98560000D03*
D55*
X122540349Y-104098977D03*
D54*
X152170000Y-92590000D03*
X149500000Y-86520000D03*
X145150000Y-101000000D03*
D55*
%TO.N,+3V3*%
X133480000Y-110487360D03*
D54*
X143750000Y-107910000D03*
D55*
X139190000Y-111750000D03*
D54*
X136146500Y-94163500D03*
X135710000Y-80150000D03*
D55*
X121960000Y-102704696D03*
D54*
X140200000Y-102120000D03*
X142040000Y-102200000D03*
X129330000Y-80020000D03*
X122210000Y-95060000D03*
X124440000Y-95050000D03*
X119440000Y-94720000D03*
X131485000Y-87005000D03*
X128925000Y-94895000D03*
X127600000Y-83730000D03*
D55*
X126822433Y-102989570D03*
D54*
X150170000Y-106340000D03*
D55*
%TO.N,VBUS*%
X143380000Y-104620000D03*
D54*
%TO.N,/STM32F722VC_MCU/NRST*%
X136860000Y-88640000D03*
X139240000Y-84300000D03*
%TO.N,+5V*%
X150940000Y-89010000D03*
D55*
X149560256Y-84080974D03*
X149950000Y-94040000D03*
X136760000Y-104850000D03*
D54*
X135130000Y-113070000D03*
%TO.N,/MAX7456_OSD/VIN*%
X139670000Y-88040000D03*
%TO.N,Net-(U3-VCCSYN)*%
X133510000Y-89350000D03*
X133490000Y-92650000D03*
%TO.N,Net-(U3-VREGRX)*%
X130780000Y-94640000D03*
X129690000Y-94890000D03*
%TO.N,/ML5805_VTX/VREGPA*%
X126260000Y-100200000D03*
X122070000Y-92160000D03*
%TO.N,Net-(D8-A)*%
X140720000Y-114680000D03*
X140740000Y-109270000D03*
%TO.N,/STM32F722VC_MCU/USB-*%
X145250000Y-97430000D03*
X147060000Y-98450000D03*
%TO.N,/STM32F722VC_MCU/Green LED*%
X136890000Y-83330000D03*
X142600000Y-97410000D03*
%TO.N,/ExposedPeripherals/SCL*%
X142600000Y-103740000D03*
X143045000Y-107965000D03*
X132200000Y-83590000D03*
%TO.N,/ExposedPeripherals/SDA*%
X131600000Y-83560000D03*
X144760000Y-104820000D03*
%TO.N,/ExposedPeripherals/CAN1.RX*%
X131540000Y-98190000D03*
X131900000Y-102380000D03*
X137250000Y-87070000D03*
X133930000Y-109040000D03*
%TO.N,/ExposedPeripherals/CAN1.TX*%
X136700122Y-87058300D03*
X131280000Y-103060000D03*
X130770000Y-98690000D03*
X132780000Y-108700000D03*
%TO.N,/ExposedPeripherals/ELRS.USART2.RX*%
X128850000Y-103320000D03*
X132040000Y-108320000D03*
X127130000Y-99680000D03*
%TO.N,/ExposedPeripherals/ELRS.USART2.TX*%
X127650000Y-99360000D03*
X131290000Y-107660000D03*
%TO.N,/ExposedPeripherals/SPARE.UART8.TX*%
X132936798Y-97760000D03*
X128478288Y-84214418D03*
X134400000Y-106360000D03*
%TO.N,/ExposedPeripherals/GPS.UART5.RX*%
X136110003Y-86970000D03*
X135900000Y-107410000D03*
X135310000Y-98010000D03*
%TO.N,/ExposedPeripherals/GPS.UART5.TX*%
X133486700Y-97749490D03*
X137870000Y-87070000D03*
X135430000Y-106330000D03*
%TO.N,/ExposedPeripherals/SPARE.UART8.RX*%
X132030000Y-97320000D03*
X128980000Y-83920000D03*
X133140000Y-106310000D03*
%TO.N,/STM32F722VC_MCU/SWDIO*%
X139250000Y-89130000D03*
X144140000Y-83840000D03*
%TO.N,/STM32F722VC_MCU/SWDCLK*%
X142340000Y-83690000D03*
D55*
%TO.N,Batt+*%
X123517300Y-99418871D03*
X118800000Y-105630000D03*
X128650000Y-104330000D03*
D54*
%TO.N,/MAX7456_OSD/~{HSYNC}*%
X142510000Y-94390000D03*
%TO.N,/MAX7456_OSD/~{VSYNC}*%
X142540000Y-93770000D03*
%TO.N,/MAX7456_OSD/LOS*%
X142460000Y-94980000D03*
%TO.N,/MAX7456_OSD/OSD.~{RESET}*%
X143870000Y-91550000D03*
%TO.N,/ML5805_VTX/VTX.XCEN*%
X132530000Y-83070000D03*
%TO.N,/Battery_Monitoring/Sense.SDA*%
X125580000Y-104530000D03*
X138220000Y-102140000D03*
%TO.N,/Battery_Monitoring/Sense.SCL*%
X137760000Y-100330000D03*
X124860000Y-103520000D03*
D55*
%TO.N,/Battery_Monitoring/V.bat_sense_ctrl*%
X120040000Y-100700000D03*
D54*
X121430000Y-96770000D03*
D55*
%TO.N,Net-(J5-Pin_1)*%
X119860000Y-104935000D03*
D54*
%TO.N,/Battery_Monitoring/V.BAT*%
X131360000Y-99970000D03*
X127090000Y-100330000D03*
%TO.N,/STM32F722VC_MCU/Flash.~{SS}*%
X117470000Y-94150000D03*
X120630000Y-86270000D03*
%TO.N,Net-(U1-PD3)*%
X135830000Y-84600000D03*
%TO.N,Net-(U1-PD5)*%
X133850000Y-81310000D03*
%TO.N,Net-(U1-PD6)*%
X132710000Y-81960000D03*
%TO.N,Net-(U1-PD7)*%
X132200000Y-82620000D03*
%TO.N,/STM32F722VC_MCU/Flash.MOSI*%
X124780000Y-84870000D03*
X120760000Y-87670000D03*
%TO.N,/LPS22HBTR_PressureSensor/MEMS2_INT*%
X137730000Y-102710000D03*
%TO.N,/MAX7456_OSD/0SD.SCLK*%
X138235665Y-97080000D03*
X143960000Y-95820000D03*
%TO.N,/MOSI*%
X127245000Y-82335000D03*
X145430000Y-106270000D03*
X127320000Y-83250000D03*
X123930000Y-82600000D03*
X143290000Y-110470000D03*
X127900000Y-95420000D03*
%TO.N,/ExposedPeripherals/ESC7*%
X139246035Y-95822777D03*
X140350000Y-101040000D03*
%TO.N,/LSM6DSOX_IMU/IMU2_INT*%
X134240000Y-99920000D03*
X144070000Y-108970000D03*
%TO.N,/ExposedPeripherals/ESC6*%
X140445000Y-100315000D03*
X139770000Y-95990000D03*
%TO.N,/LSM6DSOX_IMU/IMU2.CS*%
X142040000Y-100300000D03*
X143270000Y-111360000D03*
%TO.N,/ML5805_VTX/VTX.SDO*%
X132574959Y-97245687D03*
X130361595Y-87402197D03*
%TO.N,/MAX7456_OSD/OSD.MISO*%
X137480000Y-96820000D03*
X143920000Y-94450000D03*
X149670000Y-91170000D03*
%TO.N,/ExposedPeripherals/ESC5*%
X140281396Y-95787572D03*
X141127962Y-100060799D03*
%TO.N,/ML5805_VTX/VTX.CS*%
X129797500Y-87402500D03*
%TO.N,/MISO*%
X142760000Y-109040000D03*
X128368922Y-83675398D03*
X127609432Y-95886984D03*
X123570000Y-83850000D03*
%TO.N,/LPS22HBTR_PressureSensor/MEMS2_CS*%
X146000000Y-104290000D03*
X137000000Y-98590000D03*
%TO.N,/ML5805_VTX/VTX.CLK*%
X130985892Y-87304108D03*
%TO.N,/SCLK*%
X124000000Y-81480000D03*
X148380000Y-107470000D03*
X142910000Y-98910000D03*
X142010000Y-110990000D03*
X126870000Y-81850000D03*
X148380000Y-99680000D03*
%TO.N,/STM32F722VC_MCU/Flash.MISO*%
X119050000Y-94290000D03*
X120640000Y-86960000D03*
%TO.N,/LSM6DSOX_IMU/IMU1.CS*%
X129770000Y-84610000D03*
X128270000Y-81410000D03*
%TO.N,/ExposedPeripherals/ESC8*%
X137490000Y-103360000D03*
X138749678Y-96059700D03*
%TO.N,/MAX7456_OSD/OSD.~{CS}*%
X142830000Y-98280000D03*
X137310000Y-95420000D03*
%TO.N,/MAX7456_OSD/OSD.MOSI*%
X144970000Y-96500000D03*
X137800000Y-97420000D03*
%TO.N,/LPS22HBTR_PressureSensor/MEMS1_INT*%
X124560000Y-84350000D03*
X124940000Y-95700000D03*
D55*
%TO.N,Net-(Q1A-D)*%
X124217042Y-99305000D03*
X123383492Y-101073370D03*
%TD*%
D56*
%TO.N,/STM32F722VC_MCU/NRST*%
X139180000Y-81860000D02*
X139180000Y-81840000D01*
X138860000Y-82180000D02*
X139180000Y-81860000D01*
X139180000Y-81840000D02*
X140190000Y-80830000D01*
D57*
%TO.N,GND*%
X131830000Y-109590000D02*
X131900000Y-109520000D01*
X131480000Y-109590000D02*
X131830000Y-109590000D01*
%TO.N,Net-(D9-A)*%
X130592500Y-108867500D02*
X130592500Y-108302500D01*
X130340000Y-109120000D02*
X130592500Y-108867500D01*
X130340000Y-109590000D02*
X130340000Y-109120000D01*
%TO.N,GND*%
X131420000Y-109650000D02*
X131480000Y-109590000D01*
%TO.N,Net-(D9-A)*%
X130400000Y-109650000D02*
X130340000Y-109590000D01*
D56*
%TO.N,GND*%
X151513672Y-88676328D02*
X151550000Y-88640000D01*
X151377225Y-88676328D02*
X151513672Y-88676328D01*
X151550000Y-88640000D02*
X151550000Y-88050000D01*
D58*
%TO.N,/MAX7456_OSD/VIN*%
X139670000Y-88353000D02*
X139620000Y-88403000D01*
D57*
X139620000Y-88403000D02*
X139219000Y-88403000D01*
D58*
X139670000Y-88040000D02*
X139670000Y-88353000D01*
D57*
X139219000Y-88403000D02*
X139117000Y-88505000D01*
X140136000Y-88403000D02*
X139620000Y-88403000D01*
D56*
%TO.N,Net-(U2-CLKIN)*%
X151550000Y-87100000D02*
X151550000Y-86650000D01*
X149499999Y-87360000D02*
X151290000Y-87360000D01*
X151290000Y-87360000D02*
X151550000Y-87100000D01*
X149264999Y-87125000D02*
X149499999Y-87360000D01*
X148525000Y-87125000D02*
X149264999Y-87125000D01*
D57*
%TO.N,GND*%
X126855000Y-96185000D02*
X127270000Y-96600000D01*
D58*
X124150000Y-101860000D02*
X123730000Y-101860000D01*
X149755000Y-86925000D02*
X149740000Y-86910000D01*
D57*
X151090000Y-83960000D02*
X150940000Y-83810000D01*
D58*
X139117000Y-87485000D02*
X140005000Y-87485000D01*
D56*
X129900000Y-103210000D02*
X129690000Y-103000000D01*
X144422500Y-110970000D02*
X144020000Y-110970000D01*
D58*
X148525000Y-86475000D02*
X149455000Y-86475000D01*
D57*
X125762500Y-96145000D02*
X125325000Y-96145000D01*
D56*
X129340000Y-88960000D02*
X129340000Y-88670000D01*
X135180000Y-93705000D02*
X135180000Y-93220000D01*
X142767500Y-112132500D02*
X142760000Y-112132500D01*
X135180000Y-89750000D02*
X135180000Y-89630000D01*
D57*
X135880000Y-96655000D02*
X136422500Y-96655000D01*
D58*
X150385000Y-108195000D02*
X150370000Y-108210000D01*
D56*
X139042500Y-94417500D02*
X139042500Y-94395000D01*
D57*
X125675000Y-110550000D02*
X124920000Y-110550000D01*
D58*
X117975000Y-96185000D02*
X117975000Y-95495000D01*
D57*
X119580000Y-102190000D02*
X119460000Y-102190000D01*
X123155000Y-92635000D02*
X123635000Y-92635000D01*
D56*
X141960000Y-103590000D02*
X141690000Y-103590000D01*
D57*
X137440000Y-113410000D02*
X137470000Y-113380000D01*
X137387000Y-111317000D02*
X137370000Y-111300000D01*
D58*
X140287000Y-87553000D02*
X140180000Y-87660000D01*
D56*
X145300000Y-104250000D02*
X145300000Y-103710000D01*
D57*
X129232500Y-96655000D02*
X129232500Y-97582500D01*
D56*
X136160000Y-88650000D02*
X135650000Y-89160000D01*
D57*
X151090000Y-85420000D02*
X151090000Y-84380000D01*
D58*
X124285000Y-97185000D02*
X125050000Y-96420000D01*
D56*
X145620000Y-111380000D02*
X145570000Y-111330000D01*
D58*
X150615000Y-105085000D02*
X150850000Y-104850000D01*
X128490000Y-113840000D02*
X128430000Y-113780000D01*
D56*
X136160000Y-88640000D02*
X136160000Y-88650000D01*
X130070000Y-103210000D02*
X129900000Y-103210000D01*
X143480000Y-109290000D02*
X143480000Y-109527500D01*
X137106500Y-94153500D02*
X137090000Y-94170000D01*
X135180000Y-93160000D02*
X135150000Y-93190000D01*
X129340000Y-88670000D02*
X129355000Y-88655000D01*
X135180000Y-88830000D02*
X135320000Y-88830000D01*
D57*
X122715000Y-91575000D02*
X123822500Y-91575000D01*
D58*
X117975000Y-99135000D02*
X117975000Y-99615000D01*
D57*
X124190000Y-109840000D02*
X124720000Y-109840000D01*
X124750000Y-110380000D02*
X124750000Y-109810000D01*
D56*
X144200000Y-111470000D02*
X143860000Y-111130000D01*
X129355000Y-88655000D02*
X129355000Y-87967500D01*
D58*
X123590000Y-101900000D02*
X123680000Y-101810000D01*
X123685000Y-96840000D02*
X124030000Y-97185000D01*
D57*
X123930000Y-105270000D02*
X123930000Y-105530000D01*
X119210000Y-102440000D02*
X119210000Y-102880000D01*
D58*
X123742500Y-93685000D02*
X123655000Y-93685000D01*
X143985000Y-89725000D02*
X142775000Y-89725000D01*
D56*
X143480000Y-109587500D02*
X143260000Y-109807500D01*
D58*
X150450000Y-86650000D02*
X150175000Y-86925000D01*
X139062500Y-90285000D02*
X139062500Y-89817500D01*
D57*
X122360000Y-91290000D02*
X122430000Y-91290000D01*
D56*
X134360000Y-101835000D02*
X134360000Y-102950000D01*
D58*
X150342500Y-105337500D02*
X150100000Y-105580000D01*
D57*
X131162500Y-97197500D02*
X131000000Y-97360000D01*
D58*
X123645000Y-94765000D02*
X123280000Y-95130000D01*
X117975000Y-95495000D02*
X117930000Y-95450000D01*
X122841400Y-101516242D02*
X123160000Y-101834842D01*
D57*
X122540349Y-104098977D02*
X122540349Y-104120349D01*
D58*
X124030000Y-98135000D02*
X124455000Y-98135000D01*
X140287000Y-87085000D02*
X140287000Y-87553000D01*
X120650000Y-96460000D02*
X120420000Y-96230000D01*
X149827500Y-105307500D02*
X150100000Y-105580000D01*
D56*
X137106500Y-94725000D02*
X137106500Y-94186500D01*
D58*
X125030000Y-114150000D02*
X124380000Y-114150000D01*
X144110000Y-114180000D02*
X144620000Y-114180000D01*
X117975000Y-96185000D02*
X119205000Y-96185000D01*
X149605000Y-105307500D02*
X149827500Y-105307500D01*
X124380000Y-114150000D02*
X124330000Y-114100000D01*
D56*
X142970000Y-112570000D02*
X142970000Y-112422500D01*
D58*
X119205000Y-96185000D02*
X119250000Y-96140000D01*
D57*
X136812500Y-111280000D02*
X137350000Y-111280000D01*
D56*
X135180000Y-89630000D02*
X135650000Y-89160000D01*
D57*
X137370000Y-112350000D02*
X137440000Y-112280000D01*
D56*
X144020000Y-110970000D02*
X143860000Y-111130000D01*
D58*
X150615000Y-105337500D02*
X150615000Y-105085000D01*
D56*
X128002500Y-85495000D02*
X128002500Y-84917500D01*
D57*
X122310000Y-93480000D02*
X123155000Y-92635000D01*
X119460000Y-102190000D02*
X119210000Y-102440000D01*
D58*
X144960000Y-88750000D02*
X143985000Y-89725000D01*
D56*
X145620000Y-111790000D02*
X145620000Y-111380000D01*
D57*
X126350000Y-105695000D02*
X126350000Y-105930000D01*
D58*
X150175000Y-86925000D02*
X149755000Y-86925000D01*
X140005000Y-87485000D02*
X140180000Y-87660000D01*
D56*
X135320000Y-88830000D02*
X135650000Y-89160000D01*
X135180000Y-92675000D02*
X135180000Y-93160000D01*
X142970000Y-112422500D02*
X143260000Y-112132500D01*
D57*
X138607500Y-109060000D02*
X138080135Y-109060000D01*
D58*
X124030000Y-97185000D02*
X124285000Y-97185000D01*
X139710000Y-89540000D02*
X139885000Y-89365000D01*
X123160000Y-101900000D02*
X123590000Y-101900000D01*
X128480000Y-113730000D02*
X128430000Y-113780000D01*
X145650000Y-88750000D02*
X144960000Y-88750000D01*
D57*
X122540349Y-104098977D02*
X122518977Y-104098977D01*
D58*
X123160000Y-101834842D02*
X123160000Y-101900000D01*
D57*
X136812500Y-113410000D02*
X137440000Y-113410000D01*
X138127500Y-111317000D02*
X137387000Y-111317000D01*
X125580000Y-106510000D02*
X125580000Y-106465000D01*
X122390000Y-103970000D02*
X121655000Y-103970000D01*
D58*
X122841400Y-101516242D02*
X122657500Y-101332342D01*
D56*
X138341032Y-95100000D02*
X138360000Y-95100000D01*
D58*
X139885000Y-89365000D02*
X140177000Y-89365000D01*
D57*
X132662500Y-84865000D02*
X130662500Y-84865000D01*
D56*
X141690000Y-103590000D02*
X141617500Y-103662500D01*
D57*
X122430000Y-91290000D02*
X122715000Y-91575000D01*
D56*
X141617500Y-103662500D02*
X141617500Y-104240000D01*
D57*
X124920000Y-110550000D02*
X124750000Y-110380000D01*
X136422500Y-96931500D02*
X136422500Y-96655000D01*
D58*
X134663860Y-109911360D02*
X134762500Y-110010000D01*
D57*
X151610000Y-104810000D02*
X151550000Y-104750000D01*
X137350000Y-111280000D02*
X137370000Y-111300000D01*
X122540349Y-104120349D02*
X123040000Y-104620000D01*
D58*
X123655000Y-93685000D02*
X123260000Y-94080000D01*
D57*
X123635000Y-92635000D02*
X123750000Y-92750000D01*
X136812500Y-112350000D02*
X137370000Y-112350000D01*
X133185000Y-84865000D02*
X135290000Y-86970000D01*
X136470000Y-97760000D02*
X136470000Y-96979000D01*
D56*
X138230000Y-95211032D02*
X138341032Y-95100000D01*
D58*
X144620000Y-114180000D02*
X144670000Y-114130000D01*
D57*
X127867500Y-105870000D02*
X127867500Y-106205000D01*
X137470000Y-112310000D02*
X137440000Y-112280000D01*
D58*
X149455000Y-86475000D02*
X149500000Y-86520000D01*
D56*
X138230000Y-95270000D02*
X138230000Y-95211032D01*
D58*
X120650000Y-96695000D02*
X120650000Y-96460000D01*
D56*
X137150000Y-90090000D02*
X137140000Y-90080000D01*
D58*
X142775000Y-87775000D02*
X143785000Y-87775000D01*
D57*
X125325000Y-96145000D02*
X125050000Y-96420000D01*
D58*
X128480000Y-113210000D02*
X128480000Y-113730000D01*
D57*
X127867500Y-106205000D02*
X128150000Y-106487500D01*
X136470000Y-96979000D02*
X136422500Y-96931500D01*
D58*
X122820000Y-96580000D02*
X123080000Y-96840000D01*
X122657500Y-101332342D02*
X122657500Y-100880000D01*
D56*
X141660000Y-103290000D02*
X141960000Y-103590000D01*
D57*
X151090000Y-84380000D02*
X151090000Y-83960000D01*
D58*
X123730000Y-101860000D02*
X123680000Y-101810000D01*
D56*
X148080000Y-106450000D02*
X147850000Y-106680000D01*
D57*
X125675000Y-109900000D02*
X124840000Y-109900000D01*
D58*
X134152732Y-109911360D02*
X134663860Y-109911360D01*
D57*
X129232500Y-97582500D02*
X129315000Y-97665000D01*
D58*
X139062500Y-89817500D02*
X139070000Y-89810000D01*
X150615000Y-105337500D02*
X150342500Y-105337500D01*
D57*
X135880000Y-96655000D02*
X135880000Y-97400000D01*
D58*
X149605000Y-105807500D02*
X149872500Y-105807500D01*
D57*
X131162500Y-96655000D02*
X131162500Y-97197500D01*
X129232500Y-96655000D02*
X135880000Y-96655000D01*
X138080135Y-109060000D02*
X137701165Y-109438970D01*
X122240000Y-93480000D02*
X122310000Y-93480000D01*
D56*
X137150000Y-90590000D02*
X137150000Y-90090000D01*
D58*
X143785000Y-87775000D02*
X143810000Y-87800000D01*
D57*
X135290000Y-86970000D02*
X135560000Y-86970000D01*
D58*
X149872500Y-105807500D02*
X150100000Y-105580000D01*
D57*
X126752500Y-96145000D02*
X126792500Y-96185000D01*
D58*
X126952500Y-84952500D02*
X126952500Y-85465000D01*
D56*
X143480000Y-109527500D02*
X143760000Y-109807500D01*
D58*
X128490000Y-114290000D02*
X128490000Y-113840000D01*
D57*
X132662500Y-84865000D02*
X133185000Y-84865000D01*
D58*
X123080000Y-96840000D02*
X123685000Y-96840000D01*
D57*
X125762500Y-96145000D02*
X126752500Y-96145000D01*
X137530000Y-113320000D02*
X137470000Y-113380000D01*
X138127500Y-112310000D02*
X137470000Y-112310000D01*
D56*
X142970000Y-112570000D02*
X142970000Y-112335000D01*
D58*
X117975000Y-99615000D02*
X118300000Y-99940000D01*
D56*
X129690000Y-103000000D02*
X129690000Y-102315000D01*
X137106500Y-94186500D02*
X137090000Y-94170000D01*
D58*
X124455000Y-98135000D02*
X124880000Y-98560000D01*
D57*
X126792500Y-96185000D02*
X126855000Y-96185000D01*
X126350000Y-105930000D02*
X126860000Y-106440000D01*
D56*
X135560000Y-86970000D02*
X135180000Y-86970000D01*
D57*
X125580000Y-106465000D02*
X126350000Y-105695000D01*
D56*
X134360000Y-102950000D02*
X134070000Y-103240000D01*
D57*
X124720000Y-109840000D02*
X124750000Y-109810000D01*
X138127500Y-113320000D02*
X137530000Y-113320000D01*
D56*
X142970000Y-112335000D02*
X142767500Y-112132500D01*
D57*
X123930000Y-105530000D02*
X123590000Y-105870000D01*
D56*
X137106500Y-93705000D02*
X137106500Y-94153500D01*
D57*
X151610000Y-105330000D02*
X151610000Y-104810000D01*
D56*
X128002500Y-84917500D02*
X128220000Y-84700000D01*
X144422500Y-111470000D02*
X144200000Y-111470000D01*
X143480000Y-109290000D02*
X143480000Y-109587500D01*
X148080000Y-106307500D02*
X148080000Y-106450000D01*
D58*
X150385000Y-107607500D02*
X150385000Y-108195000D01*
D56*
X138360000Y-95100000D02*
X139042500Y-94417500D01*
D57*
X126330000Y-108610000D02*
X126320000Y-108620000D01*
D58*
X126845000Y-84845000D02*
X126952500Y-84952500D01*
D56*
X141660000Y-103040000D02*
X141660000Y-103290000D01*
D57*
X123040000Y-104620000D02*
X123930000Y-104620000D01*
D58*
X145100000Y-114180000D02*
X144720000Y-114180000D01*
X144720000Y-114180000D02*
X144670000Y-114130000D01*
D57*
X124840000Y-109900000D02*
X124750000Y-109810000D01*
X126920000Y-108610000D02*
X126330000Y-108610000D01*
D56*
X135180000Y-93220000D02*
X135150000Y-93190000D01*
D58*
X123762500Y-94765000D02*
X123645000Y-94765000D01*
D57*
X122518977Y-104098977D02*
X122390000Y-103970000D01*
D56*
X145300000Y-103710000D02*
X145310000Y-103700000D01*
%TO.N,+3V3*%
X128855000Y-93842500D02*
X128855000Y-94825000D01*
D58*
X145100000Y-113220000D02*
X144110000Y-113220000D01*
D56*
X128855000Y-94825000D02*
X128925000Y-94895000D01*
X136146500Y-94163500D02*
X136146500Y-93705000D01*
D58*
X150212500Y-106297500D02*
X150170000Y-106340000D01*
D56*
X133830000Y-107263872D02*
X133319000Y-107774872D01*
D58*
X144260000Y-112660000D02*
X144110000Y-112810000D01*
X124722500Y-94767500D02*
X124722500Y-94765000D01*
X144762500Y-112132500D02*
X144260000Y-112132500D01*
X131652500Y-85825000D02*
X130662500Y-85825000D01*
X144930000Y-110470000D02*
X145030000Y-110370000D01*
D56*
X132830678Y-92655000D02*
X133190000Y-93014322D01*
D58*
X144963000Y-110503000D02*
X144963000Y-111947000D01*
D57*
X121655000Y-103320000D02*
X121655000Y-103009696D01*
D56*
X133319000Y-107774872D02*
X133319000Y-110326360D01*
D58*
X149425000Y-107055000D02*
X149665000Y-107055000D01*
X149665000Y-107055000D02*
X150170000Y-106550000D01*
X144310000Y-102200000D02*
X144350000Y-102240000D01*
D56*
X142040000Y-102200000D02*
X142630000Y-102200000D01*
D58*
X126370000Y-104040000D02*
X126370000Y-103040000D01*
X133830000Y-107100000D02*
X134780000Y-107100000D01*
D56*
X124770000Y-95050000D02*
X125175000Y-94645000D01*
D58*
X149637500Y-106340000D02*
X149605000Y-106307500D01*
X126380430Y-102989570D02*
X126350000Y-103020000D01*
X123882000Y-95608000D02*
X124722500Y-94767500D01*
X144422500Y-110470000D02*
X144930000Y-110470000D01*
D56*
X128925000Y-94895000D02*
X129232500Y-95202500D01*
D57*
X121030000Y-103320000D02*
X120590000Y-102880000D01*
D58*
X150615000Y-106297500D02*
X150212500Y-106297500D01*
D56*
X133590000Y-94290000D02*
X136020000Y-94290000D01*
D58*
X144930000Y-110470000D02*
X144963000Y-110503000D01*
D56*
X133190000Y-93890000D02*
X133590000Y-94290000D01*
D58*
X145570000Y-110370000D02*
X148260000Y-110370000D01*
D56*
X136020000Y-94290000D02*
X136146500Y-94163500D01*
X124440000Y-95050000D02*
X124770000Y-95050000D01*
X133319000Y-110326360D02*
X133480000Y-110487360D01*
X125175000Y-94645000D02*
X125570000Y-94250000D01*
D58*
X144770000Y-112140000D02*
X144762500Y-112132500D01*
X126810000Y-83730000D02*
X125952500Y-84587500D01*
X149425000Y-109205000D02*
X149425000Y-107607500D01*
X150622500Y-106290000D02*
X150615000Y-106297500D01*
D56*
X136146500Y-94725000D02*
X136146500Y-94163500D01*
X133190000Y-93014322D02*
X133190000Y-93890000D01*
D58*
X150170000Y-106340000D02*
X149637500Y-106340000D01*
X131485000Y-87005000D02*
X131652500Y-86837500D01*
X126370000Y-103040000D02*
X126350000Y-103020000D01*
D56*
X125955000Y-93155000D02*
X126667500Y-93155000D01*
X131355000Y-87967500D02*
X131355000Y-87572811D01*
D58*
X144963000Y-111947000D02*
X144770000Y-112140000D01*
X144260000Y-112132500D02*
X144260000Y-112660000D01*
D57*
X121655000Y-103320000D02*
X121030000Y-103320000D01*
D56*
X140200000Y-102120000D02*
X140280000Y-102200000D01*
X125055000Y-94765000D02*
X125175000Y-94645000D01*
D58*
X150170000Y-106550000D02*
X150170000Y-106340000D01*
D56*
X131436892Y-87490919D02*
X131436892Y-87117297D01*
D58*
X151610000Y-106290000D02*
X150622500Y-106290000D01*
D57*
X121655000Y-103009696D02*
X121960000Y-102704696D01*
D58*
X121870000Y-94720000D02*
X122210000Y-95060000D01*
X131652500Y-86837500D02*
X131652500Y-85825000D01*
X142630000Y-102200000D02*
X144310000Y-102200000D01*
X143750000Y-107910000D02*
X144963000Y-109123000D01*
X140722500Y-111955000D02*
X141110000Y-112342500D01*
D56*
X125570000Y-93540000D02*
X125955000Y-93155000D01*
X133830000Y-107100000D02*
X133830000Y-107263872D01*
D58*
X141110000Y-112910000D02*
X141420000Y-113220000D01*
D56*
X131404798Y-87085202D02*
X131485000Y-87005000D01*
D58*
X149425000Y-107055000D02*
X149425000Y-107607500D01*
D56*
X140280000Y-102200000D02*
X142040000Y-102200000D01*
D58*
X125952500Y-84587500D02*
X125952500Y-85455000D01*
X144110000Y-112810000D02*
X144110000Y-113220000D01*
X134780000Y-107100000D02*
X134840000Y-107040000D01*
X145030000Y-110370000D02*
X145570000Y-110370000D01*
X148260000Y-110370000D02*
X149425000Y-109205000D01*
X126822433Y-102989570D02*
X126380430Y-102989570D01*
X127600000Y-83730000D02*
X126810000Y-83730000D01*
D56*
X131355000Y-87572811D02*
X131436892Y-87490919D01*
D58*
X122758000Y-95608000D02*
X123882000Y-95608000D01*
X144963000Y-109123000D02*
X144963000Y-110503000D01*
D56*
X129232500Y-95202500D02*
X129232500Y-95695000D01*
D58*
X122210000Y-95060000D02*
X122758000Y-95608000D01*
D56*
X131436892Y-87117297D02*
X131404798Y-87085202D01*
X132542500Y-92655000D02*
X132830678Y-92655000D01*
D57*
X120590000Y-102880000D02*
X120170000Y-102880000D01*
D58*
X119440000Y-94720000D02*
X121870000Y-94720000D01*
D56*
X124722500Y-94765000D02*
X125055000Y-94765000D01*
D58*
X149092500Y-106570000D02*
X149092500Y-106722500D01*
X141420000Y-113220000D02*
X144110000Y-113220000D01*
D56*
X125570000Y-94250000D02*
X125570000Y-93540000D01*
D58*
X149092500Y-106722500D02*
X149425000Y-107055000D01*
X141110000Y-112342500D02*
X141110000Y-112910000D01*
D57*
%TO.N,VBUS*%
X141890000Y-106470000D02*
X143380000Y-104980000D01*
X139847500Y-106500000D02*
X139877500Y-106470000D01*
X139877500Y-106470000D02*
X141890000Y-106470000D01*
X143380000Y-104980000D02*
X143380000Y-104620000D01*
D58*
%TO.N,+5V*%
X141675000Y-89365000D02*
X141137000Y-89365000D01*
D57*
X149790000Y-84380000D02*
X150130000Y-84380000D01*
D58*
X142775000Y-89075000D02*
X141965000Y-89075000D01*
D57*
X149300000Y-83890000D02*
X149790000Y-84380000D01*
D58*
X141137000Y-89365000D02*
X141137000Y-89465000D01*
D57*
X144890000Y-83890000D02*
X149300000Y-83890000D01*
X137810000Y-108110000D02*
X137210000Y-108710000D01*
D58*
X149030000Y-95480000D02*
X149950000Y-94560000D01*
X143762005Y-95342000D02*
X146212000Y-95342000D01*
X149950000Y-94560000D02*
X149950000Y-94040000D01*
D57*
X143665000Y-87125000D02*
X143910000Y-86880000D01*
X134450000Y-111280000D02*
X134290000Y-111440000D01*
X138607500Y-108110000D02*
X137810000Y-108110000D01*
X143910000Y-86880000D02*
X143910000Y-84870000D01*
D58*
X146350000Y-95480000D02*
X149030000Y-95480000D01*
D57*
X137850000Y-106267500D02*
X137850000Y-108070000D01*
X137202500Y-109140000D02*
X136332500Y-110010000D01*
X140187000Y-92475000D02*
X140187000Y-90415000D01*
D58*
X143614005Y-95490000D02*
X143762005Y-95342000D01*
D57*
X150130000Y-85420000D02*
X150130000Y-84950000D01*
D58*
X146212000Y-95342000D02*
X146350000Y-95480000D01*
D57*
X150100000Y-93480000D02*
X150100000Y-93030000D01*
D58*
X141965000Y-89075000D02*
X141675000Y-89365000D01*
X141287000Y-87125000D02*
X141247000Y-87085000D01*
D57*
X149465000Y-85825000D02*
X149870000Y-85420000D01*
X142775000Y-87125000D02*
X143665000Y-87125000D01*
X150130000Y-84950000D02*
X150130000Y-84380000D01*
X148525000Y-85825000D02*
X149465000Y-85825000D01*
X149950000Y-93630000D02*
X150100000Y-93480000D01*
D58*
X140187000Y-92475000D02*
X140187000Y-94637000D01*
D57*
X137850000Y-108070000D02*
X137810000Y-108110000D01*
D58*
X140187000Y-94637000D02*
X141040000Y-95490000D01*
D57*
X137210000Y-109140000D02*
X137202500Y-109140000D01*
D58*
X141137000Y-89465000D02*
X140187000Y-90415000D01*
D57*
X137850000Y-106267500D02*
X137850000Y-105940000D01*
D58*
X142775000Y-87125000D02*
X141287000Y-87125000D01*
D57*
X137210000Y-108710000D02*
X137210000Y-109140000D01*
X149870000Y-85420000D02*
X150130000Y-85420000D01*
D58*
X141040000Y-95490000D02*
X143614005Y-95490000D01*
D57*
X137850000Y-105940000D02*
X136760000Y-104850000D01*
X149950000Y-94040000D02*
X149950000Y-93630000D01*
X143910000Y-84870000D02*
X144890000Y-83890000D01*
X135852500Y-111280000D02*
X134450000Y-111280000D01*
D58*
%TO.N,Net-(U2-VOUT)*%
X140440000Y-85421000D02*
X141281000Y-85421000D01*
X141281000Y-85421000D02*
X141685000Y-85825000D01*
X141685000Y-85825000D02*
X142775000Y-85825000D01*
%TO.N,Net-(C24-Pad2)*%
X138050000Y-83480000D02*
X138333000Y-83197000D01*
X136410000Y-84020000D02*
X137997000Y-84020000D01*
X138050000Y-83967000D02*
X138050000Y-83480000D01*
X138333000Y-83197000D02*
X140440000Y-83197000D01*
X137997000Y-84020000D02*
X138050000Y-83967000D01*
%TO.N,Net-(U2-SAG)*%
X138050000Y-86191000D02*
X139511000Y-86191000D01*
X139511000Y-86191000D02*
X139795000Y-86475000D01*
X139795000Y-86475000D02*
X142775000Y-86475000D01*
%TO.N,Net-(U2-VIN)*%
X142753000Y-88403000D02*
X142775000Y-88425000D01*
X141096000Y-88403000D02*
X142753000Y-88403000D01*
D57*
%TO.N,/MAX7456_OSD/VIN*%
X139117000Y-88505000D02*
X139205000Y-88505000D01*
D56*
%TO.N,Net-(X1-IN)*%
X125535429Y-97660000D02*
X125547500Y-97665000D01*
X125030000Y-97660000D02*
X125535429Y-97660000D01*
%TO.N,Net-(U3-TXO)*%
X128355000Y-97665000D02*
X126507500Y-97665000D01*
X128355000Y-93842500D02*
X128355000Y-97665000D01*
%TO.N,Net-(AE1-A)*%
X121540000Y-97665000D02*
X119512071Y-97665000D01*
X119512071Y-97665000D02*
X119500000Y-97660000D01*
%TO.N,Net-(X1-OUT)*%
X122512071Y-97660000D02*
X122500000Y-97665000D01*
X123030000Y-97660000D02*
X122512071Y-97660000D01*
%TO.N,Net-(U3-DIN)*%
X128002500Y-86455000D02*
X128992500Y-86455000D01*
X129022500Y-86967500D02*
X129022500Y-86485000D01*
X128855000Y-87967500D02*
X128855000Y-87135000D01*
X128992500Y-86455000D02*
X129022500Y-86485000D01*
X128855000Y-87135000D02*
X129022500Y-86967500D01*
%TO.N,Net-(U3-FREF)*%
X133380000Y-87910000D02*
X134220000Y-87910000D01*
X132542500Y-89155000D02*
X133065000Y-89155000D01*
X133230000Y-88990000D02*
X133230000Y-88060000D01*
X133230000Y-88060000D02*
X133380000Y-87910000D01*
X133065000Y-89155000D02*
X133230000Y-88990000D01*
%TO.N,Net-(C35-Pad2)*%
X137220000Y-87910000D02*
X137710000Y-88400000D01*
X135180000Y-87910000D02*
X137220000Y-87910000D01*
%TO.N,Net-(C36-Pad2)*%
X136150000Y-90590000D02*
X136150000Y-89670000D01*
X135700000Y-90590000D02*
X136150000Y-90590000D01*
X135600000Y-90690000D02*
X135700000Y-90590000D01*
X135210000Y-90690000D02*
X135600000Y-90690000D01*
X136150000Y-89670000D02*
X136160000Y-89660000D01*
%TO.N,Net-(U3-QPO)*%
X137150000Y-91930000D02*
X137455000Y-92235000D01*
X135620000Y-91550000D02*
X136150000Y-91550000D01*
X136150000Y-91550000D02*
X137150000Y-91550000D01*
X132542500Y-90655000D02*
X133225000Y-90655000D01*
X133950000Y-91380000D02*
X135450000Y-91380000D01*
X137455000Y-92235000D02*
X138052500Y-92235000D01*
X135450000Y-91380000D02*
X135620000Y-91550000D01*
X137150000Y-91550000D02*
X137150000Y-91930000D01*
X133225000Y-90655000D02*
X133950000Y-91380000D01*
%TO.N,Net-(U3-VBG_VCO)*%
X132542500Y-93155000D02*
X132542500Y-93182500D01*
X135341372Y-94740000D02*
X136296372Y-95695000D01*
X132542500Y-93932500D02*
X133350000Y-94740000D01*
X132542500Y-93182500D02*
X132550000Y-93190000D01*
X132542500Y-93155000D02*
X132542500Y-93932500D01*
X133350000Y-94740000D02*
X135341372Y-94740000D01*
X136296372Y-95695000D02*
X136422500Y-95695000D01*
%TO.N,Net-(U3-VBG_RF)*%
X131162500Y-95672500D02*
X131162500Y-95695000D01*
X132162500Y-95695000D02*
X131162500Y-95695000D01*
X129855000Y-94365000D02*
X131162500Y-95672500D01*
X129855000Y-93842500D02*
X129855000Y-94365000D01*
%TO.N,Net-(U3-VBG_1P8)*%
X132542500Y-88655000D02*
X132560000Y-88637500D01*
X132920000Y-86970000D02*
X134220000Y-86970000D01*
X132560000Y-87330000D02*
X132920000Y-86970000D01*
X132560000Y-88637500D02*
X132560000Y-87330000D01*
%TO.N,Net-(U3-VTUNE)*%
X132542500Y-91155000D02*
X133015000Y-91155000D01*
X136650000Y-93070000D02*
X137430000Y-93070000D01*
D58*
X138062500Y-93375000D02*
X138062500Y-94375000D01*
D56*
X137735000Y-93375000D02*
X138062500Y-93375000D01*
X133015000Y-91155000D02*
X133541000Y-91681000D01*
D58*
X138062500Y-94375000D02*
X138082500Y-94395000D01*
D56*
X133541000Y-91681000D02*
X135261000Y-91681000D01*
X135261000Y-91681000D02*
X136650000Y-93070000D01*
X137430000Y-93070000D02*
X137735000Y-93375000D01*
D58*
%TO.N,Net-(C41-Pad1)*%
X139062500Y-91245000D02*
X139062500Y-93355000D01*
X139062500Y-93355000D02*
X139082500Y-93375000D01*
D56*
%TO.N,Net-(U3-VREGVCO)*%
X133940000Y-92060000D02*
X134220000Y-92340000D01*
X132542500Y-91655000D02*
X132965000Y-91655000D01*
X133370000Y-92060000D02*
X133940000Y-92060000D01*
X134220000Y-93705000D02*
X134220000Y-92675000D01*
X134220000Y-92340000D02*
X134220000Y-92675000D01*
X132965000Y-91655000D02*
X133370000Y-92060000D01*
%TO.N,Net-(U3-VCCSYN)*%
X133460000Y-92650000D02*
X132965000Y-92155000D01*
X133910000Y-89750000D02*
X133510000Y-89350000D01*
X133490000Y-92650000D02*
X133460000Y-92650000D01*
X134220000Y-89750000D02*
X133910000Y-89750000D01*
X132542500Y-89655000D02*
X133205000Y-89655000D01*
X132965000Y-92155000D02*
X132542500Y-92155000D01*
X133205000Y-89655000D02*
X133510000Y-89350000D01*
X134220000Y-88830000D02*
X134030000Y-88830000D01*
X134030000Y-88830000D02*
X133510000Y-89350000D01*
%TO.N,Net-(U3-VREGIF)*%
X124905000Y-91575000D02*
X124782500Y-91575000D01*
X126667500Y-92155000D02*
X125485000Y-92155000D01*
X125485000Y-92155000D02*
X124905000Y-91575000D01*
%TO.N,Net-(U3-VREGRX)*%
X130355000Y-93842500D02*
X130355000Y-94215000D01*
X130222500Y-95422500D02*
X130222500Y-95695000D01*
X132958628Y-95695000D02*
X131903628Y-94640000D01*
X130355000Y-94215000D02*
X130780000Y-94640000D01*
X129690000Y-94890000D02*
X130222500Y-95422500D01*
X133222500Y-95695000D02*
X132958628Y-95695000D01*
X129355000Y-94555000D02*
X129690000Y-94890000D01*
X129355000Y-93842500D02*
X129355000Y-94555000D01*
X131903628Y-94640000D02*
X130780000Y-94640000D01*
%TO.N,Net-(U3-VREGLNA)*%
X131855000Y-93842500D02*
X131855000Y-94135000D01*
X132830000Y-95110000D02*
X133920000Y-95110000D01*
X131855000Y-94135000D02*
X132830000Y-95110000D01*
X134262500Y-95452500D02*
X134262500Y-95695000D01*
X134262500Y-95695000D02*
X135292500Y-95695000D01*
X133920000Y-95110000D02*
X134262500Y-95452500D01*
%TO.N,Net-(U3-VBG_PA)*%
X125762500Y-94827500D02*
X125762500Y-95185000D01*
X127355000Y-93842500D02*
X127355000Y-94345000D01*
X127355000Y-94345000D02*
X127170000Y-94530000D01*
X127170000Y-94530000D02*
X126060000Y-94530000D01*
X126060000Y-94530000D02*
X125762500Y-94827500D01*
%TO.N,/ML5805_VTX/VREGPA*%
X124702500Y-93685000D02*
X124702500Y-92757500D01*
X124710000Y-92707500D02*
X124710000Y-92750000D01*
X124702500Y-92757500D02*
X124710000Y-92750000D01*
X124120000Y-92160000D02*
X122070000Y-92160000D01*
D58*
X127420000Y-98635000D02*
X126745000Y-98635000D01*
D56*
X126667500Y-92655000D02*
X124762500Y-92655000D01*
X124762500Y-92655000D02*
X124710000Y-92707500D01*
D58*
X126260000Y-99120000D02*
X126260000Y-100200000D01*
X126745000Y-98635000D02*
X126260000Y-99120000D01*
D56*
X124710000Y-92750000D02*
X124120000Y-92160000D01*
%TO.N,Net-(U3-VREG_1P8)*%
X131855000Y-87265000D02*
X132662500Y-86457500D01*
X131855000Y-87967500D02*
X131855000Y-87265000D01*
X132662500Y-86457500D02*
X132662500Y-85825000D01*
D57*
%TO.N,Net-(U9-LX)*%
X127950000Y-110550000D02*
X129390000Y-110550000D01*
X129390000Y-110550000D02*
X129430000Y-110510000D01*
%TO.N,Net-(U9-BST)*%
X127950000Y-111200000D02*
X128800000Y-111200000D01*
X128800000Y-111200000D02*
X129070000Y-111470000D01*
X129070000Y-111470000D02*
X129430000Y-111470000D01*
%TO.N,Net-(D9-K)*%
X127170000Y-111850000D02*
X127950000Y-111850000D01*
X126350000Y-107245000D02*
X124685000Y-107245000D01*
X127880000Y-109830000D02*
X127950000Y-109900000D01*
X130592500Y-106402500D02*
X129737500Y-106402500D01*
X126910000Y-111590000D02*
X127170000Y-111850000D01*
X126910000Y-110170000D02*
X126910000Y-111590000D01*
X128070000Y-107202500D02*
X127880000Y-107392500D01*
X124685000Y-107245000D02*
X124490000Y-107050000D01*
X127880000Y-108610000D02*
X127880000Y-109830000D01*
X127880000Y-108610000D02*
X127880000Y-107392500D01*
X128937500Y-107062500D02*
X128070000Y-107062500D01*
X129077500Y-107062500D02*
X128937500Y-107062500D01*
X129737500Y-106402500D02*
X129077500Y-107062500D01*
X127180000Y-109900000D02*
X126910000Y-110170000D01*
X128070000Y-107062500D02*
X128070000Y-107202500D01*
X127950000Y-109900000D02*
X127180000Y-109900000D01*
X128070000Y-107062500D02*
X127550000Y-107062500D01*
X127550000Y-107062500D02*
X126532500Y-107062500D01*
X127880000Y-107392500D02*
X127550000Y-107062500D01*
X126532500Y-107062500D02*
X126350000Y-107245000D01*
D58*
%TO.N,Net-(D8-A)*%
X140870000Y-103850000D02*
X140640000Y-103620000D01*
X126790000Y-114150000D02*
X127530000Y-114890000D01*
D57*
X140740000Y-113880000D02*
X140740000Y-114660000D01*
D58*
X134356500Y-114300000D02*
X140320000Y-114300000D01*
X140740000Y-107640000D02*
X140580000Y-107480000D01*
X139050000Y-107480000D02*
X138834000Y-107264000D01*
X140580000Y-107480000D02*
X139050000Y-107480000D01*
X138834000Y-106169388D02*
X139323388Y-105680000D01*
D57*
X140740000Y-114660000D02*
X140720000Y-114680000D01*
D58*
X129450000Y-114690000D02*
X129450000Y-114290000D01*
X127530000Y-114890000D02*
X129250000Y-114890000D01*
X140470000Y-105680000D02*
X140870000Y-105280000D01*
X126080000Y-114150000D02*
X126790000Y-114150000D01*
X140640000Y-103620000D02*
X140640000Y-103040000D01*
X138834000Y-107264000D02*
X138834000Y-106169388D01*
X140640000Y-103040000D02*
X139720000Y-103040000D01*
X129250000Y-114890000D02*
X129450000Y-114690000D01*
X139323388Y-105680000D02*
X140470000Y-105680000D01*
X133920000Y-113863500D02*
X134356500Y-114300000D01*
X140320000Y-114300000D02*
X140740000Y-113880000D01*
X140870000Y-105280000D02*
X140870000Y-103850000D01*
X140740000Y-109270000D02*
X140740000Y-107640000D01*
%TO.N,Net-(U10-FB)*%
X134840000Y-108410000D02*
X134840000Y-108060000D01*
X134762500Y-108487500D02*
X134840000Y-108410000D01*
X134762500Y-108990000D02*
X134762500Y-108487500D01*
X133830000Y-108060000D02*
X136282500Y-108060000D01*
X136282500Y-108060000D02*
X136332500Y-108110000D01*
D56*
%TO.N,/STM32F722VC_MCU/USB-*%
X146130000Y-97430000D02*
X145250000Y-97430000D01*
X147060000Y-98360000D02*
X146130000Y-97430000D01*
X147060000Y-98450000D02*
X147060000Y-98360000D01*
%TO.N,/ExposedPeripherals/SCL*%
X142600000Y-103720000D02*
X142630000Y-103690000D01*
X142600000Y-103740000D02*
X142600000Y-103720000D01*
X142600000Y-103740000D02*
X142600000Y-103780000D01*
X142630000Y-103690000D02*
X142630000Y-103220000D01*
X142600000Y-103780000D02*
X142640000Y-103820000D01*
X142640000Y-104187500D02*
X142587500Y-104240000D01*
X142640000Y-103820000D02*
X142640000Y-104187500D01*
%TO.N,/ExposedPeripherals/SDA*%
X144330000Y-103280000D02*
X144350000Y-103260000D01*
X144760000Y-104820000D02*
X144760000Y-104680000D01*
X144760000Y-104680000D02*
X144330000Y-104250000D01*
X144330000Y-104250000D02*
X144330000Y-103280000D01*
%TO.N,/ExposedPeripherals/CAN1.RX*%
X131540000Y-98190000D02*
X131540000Y-98640000D01*
X131900000Y-101300000D02*
X130640000Y-100040000D01*
X131900000Y-102380000D02*
X131900000Y-101300000D01*
X130640000Y-99540000D02*
X130640000Y-100040000D01*
X131540000Y-98640000D02*
X130640000Y-99540000D01*
%TO.N,/ExposedPeripherals/CAN1.TX*%
X130690000Y-100940000D02*
X128870000Y-100940000D01*
X129460000Y-98690000D02*
X128740000Y-99410000D01*
X131280000Y-103060000D02*
X131280000Y-101530000D01*
X128740000Y-100810000D02*
X128740000Y-100040000D01*
X128870000Y-100940000D02*
X128740000Y-100810000D01*
X128740000Y-99410000D02*
X128740000Y-100040000D01*
X131280000Y-101530000D02*
X130690000Y-100940000D01*
X130770000Y-98690000D02*
X129460000Y-98690000D01*
%TO.N,/ExposedPeripherals/ELRS.USART2.RX*%
X128740000Y-102315000D02*
X127925000Y-102315000D01*
X127671000Y-100221000D02*
X127130000Y-99680000D01*
X128740000Y-103210000D02*
X128850000Y-103320000D01*
X127925000Y-102315000D02*
X127671000Y-102061000D01*
X127671000Y-102061000D02*
X127671000Y-100221000D01*
X128740000Y-102315000D02*
X128740000Y-103210000D01*
X132040000Y-108320000D02*
X132000000Y-108280000D01*
%TO.N,/ExposedPeripherals/ELRS.USART2.TX*%
X130410000Y-101350000D02*
X130640000Y-101580000D01*
X130640000Y-101580000D02*
X130640000Y-102315000D01*
X128080000Y-100900000D02*
X128530000Y-101350000D01*
X127650000Y-99360000D02*
X128080000Y-99790000D01*
X131530000Y-107420000D02*
X131530000Y-104210000D01*
X130640000Y-103320000D02*
X130640000Y-102315000D01*
X131530000Y-104210000D02*
X130640000Y-103320000D01*
X128530000Y-101350000D02*
X130410000Y-101350000D01*
X131290000Y-107660000D02*
X131530000Y-107420000D01*
X128080000Y-99790000D02*
X128080000Y-100900000D01*
%TO.N,/ExposedPeripherals/SPARE.UART8.TX*%
X134570000Y-103310000D02*
X135310000Y-102570000D01*
X133330000Y-100900000D02*
X135037499Y-100900000D01*
X135037499Y-100900000D02*
X135310000Y-101172501D01*
X134400000Y-106360000D02*
X134570000Y-106190000D01*
X132700000Y-100270000D02*
X133330000Y-100900000D01*
X132936798Y-97760000D02*
X132700000Y-97996798D01*
X134570000Y-106190000D02*
X134570000Y-103310000D01*
X135310000Y-101172501D02*
X135310000Y-101835000D01*
X132700000Y-97996798D02*
X132700000Y-100270000D01*
X135310000Y-102570000D02*
X135310000Y-101835000D01*
%TO.N,/ExposedPeripherals/GPS.UART5.RX*%
X135980003Y-106469601D02*
X135980003Y-103789997D01*
X135310000Y-98010000D02*
X135310000Y-99560000D01*
X135900000Y-106549604D02*
X135980003Y-106469601D01*
X135900000Y-107410000D02*
X135900000Y-106549604D01*
X136221000Y-103549000D02*
X136221000Y-100471000D01*
X135980003Y-103789997D02*
X136221000Y-103549000D01*
X136221000Y-100471000D02*
X135310000Y-99560000D01*
%TO.N,/ExposedPeripherals/GPS.UART5.TX*%
X135370000Y-103260000D02*
X135920000Y-102710000D01*
X135370000Y-106270000D02*
X135370000Y-103260000D01*
X135430000Y-106330000D02*
X135370000Y-106270000D01*
X135920000Y-102710000D02*
X135920000Y-100980000D01*
X133460000Y-99510000D02*
X133410000Y-99560000D01*
X135920000Y-100980000D02*
X135440000Y-100500000D01*
X133630000Y-100500000D02*
X133410000Y-100280000D01*
X135440000Y-100500000D02*
X133630000Y-100500000D01*
X133410000Y-100280000D02*
X133410000Y-99560000D01*
X133486700Y-97749490D02*
X133460000Y-97776190D01*
X133460000Y-97776190D02*
X133460000Y-99510000D01*
%TO.N,/ExposedPeripherals/SPARE.UART8.RX*%
X132030000Y-97510000D02*
X132030000Y-97320000D01*
X133140000Y-106310000D02*
X133410000Y-106040000D01*
X132150000Y-100575000D02*
X133410000Y-101835000D01*
X132150000Y-97630000D02*
X132030000Y-97510000D01*
X133410000Y-106040000D02*
X133410000Y-101835000D01*
X132150000Y-97630000D02*
X132150000Y-100575000D01*
D57*
%TO.N,Net-(D9-A)*%
X128937500Y-108032500D02*
X129372500Y-108032500D01*
X129372500Y-108032500D02*
X129642500Y-108302500D01*
X129642500Y-108302500D02*
X130592500Y-108302500D01*
D56*
%TO.N,/STM32F722VC_MCU/SWDIO*%
X144140000Y-83840000D02*
X144140000Y-83060000D01*
X144760000Y-82440000D02*
X144760000Y-81400000D01*
X144140000Y-83060000D02*
X144760000Y-82440000D01*
X144760000Y-81400000D02*
X144190000Y-80830000D01*
%TO.N,/STM32F722VC_MCU/SWDCLK*%
X142710000Y-82470000D02*
X142710000Y-83320000D01*
X142710000Y-83320000D02*
X142340000Y-83690000D01*
X142710000Y-82470000D02*
X142710000Y-81350000D01*
X142710000Y-81350000D02*
X142190000Y-80830000D01*
D57*
%TO.N,Batt+*%
X128650000Y-104330000D02*
X128772500Y-104452500D01*
X121690000Y-99880000D02*
X121660000Y-99850000D01*
X121655000Y-104620000D02*
X120830000Y-104620000D01*
X122657500Y-99880000D02*
X121690000Y-99880000D01*
X123441129Y-99418871D02*
X122980000Y-99880000D01*
X127867500Y-104295000D02*
X128615000Y-104295000D01*
X120345000Y-104135000D02*
X119860000Y-104135000D01*
X128615000Y-104295000D02*
X128650000Y-104330000D01*
X119105000Y-104135000D02*
X118800000Y-104440000D01*
X128772500Y-104452500D02*
X129727500Y-104452500D01*
X123517300Y-99418871D02*
X123441129Y-99418871D01*
X119860000Y-104135000D02*
X119105000Y-104135000D01*
X122980000Y-99880000D02*
X122657500Y-99880000D01*
X120830000Y-104620000D02*
X120345000Y-104135000D01*
X118800000Y-104440000D02*
X118800000Y-105630000D01*
%TO.N,Net-(Q3-D)*%
X132527500Y-104452500D02*
X132527500Y-107292500D01*
X132527500Y-107292500D02*
X132467500Y-107352500D01*
D56*
%TO.N,Net-(Q4-G)*%
X138700000Y-103020000D02*
X138700000Y-103687811D01*
X138700000Y-103687811D02*
X139612189Y-104600000D01*
X139612189Y-104600000D02*
X139847500Y-104600000D01*
%TO.N,/MAX7456_OSD/~{HSYNC}*%
X142510000Y-94390000D02*
X142380389Y-94519611D01*
D58*
X141795000Y-91025000D02*
X141385000Y-91435000D01*
D56*
X141069611Y-94519611D02*
X140736000Y-94186000D01*
X142380389Y-94519611D02*
X141069611Y-94519611D01*
D58*
X142775000Y-91025000D02*
X141795000Y-91025000D01*
X141385000Y-91435000D02*
X141107000Y-91435000D01*
D56*
X140736000Y-91906000D02*
X141207000Y-91435000D01*
X140736000Y-94186000D02*
X140736000Y-91906000D01*
D58*
%TO.N,/MAX7456_OSD/~{VSYNC}*%
X141207000Y-92475000D02*
X141265000Y-92475000D01*
X142065000Y-91675000D02*
X142775000Y-91675000D01*
D56*
X142340000Y-93970000D02*
X141460000Y-93970000D01*
X142540000Y-93770000D02*
X142340000Y-93970000D01*
D58*
X141265000Y-92475000D02*
X142065000Y-91675000D01*
D56*
X141207000Y-93717000D02*
X141207000Y-92475000D01*
X141460000Y-93970000D02*
X141207000Y-93717000D01*
%TO.N,/MAX7456_OSD/LOS*%
X146080000Y-94950000D02*
X146440000Y-94590000D01*
X148525000Y-91675000D02*
X149405000Y-91675000D01*
X146440000Y-93150000D02*
X147915000Y-91675000D01*
X149675000Y-91945000D02*
X150107000Y-91945000D01*
X146440000Y-94590000D02*
X146440000Y-93150000D01*
X147915000Y-91675000D02*
X148525000Y-91675000D01*
X149405000Y-91675000D02*
X149675000Y-91945000D01*
X142460000Y-94980000D02*
X142490000Y-94950000D01*
X142490000Y-94950000D02*
X146080000Y-94950000D01*
D58*
%TO.N,/MAX7456_OSD/OSD.~{RESET}*%
X142800000Y-90400000D02*
X142775000Y-90375000D01*
X143870000Y-91550000D02*
X143870000Y-90430000D01*
X141247000Y-90375000D02*
X141207000Y-90415000D01*
X143870000Y-90430000D02*
X143840000Y-90400000D01*
X143840000Y-90400000D02*
X142800000Y-90400000D01*
X142775000Y-90375000D02*
X141247000Y-90375000D01*
%TO.N,/MAX7456_OSD/DATA.OUT*%
X133690000Y-84100000D02*
X135310000Y-84100000D01*
X129520000Y-84100000D02*
X133690000Y-84100000D01*
X135310000Y-84100000D02*
X135390000Y-84020000D01*
X129022500Y-84597500D02*
X129520000Y-84100000D01*
X129022500Y-85465000D02*
X129022500Y-84597500D01*
D56*
%TO.N,/ML5805_VTX/VTX.XCEN*%
X127500000Y-82790000D02*
X126762189Y-82790000D01*
X125240000Y-85762500D02*
X125952500Y-86475000D01*
X130937811Y-83070000D02*
X130647811Y-82780000D01*
X125952500Y-86902500D02*
X125952500Y-86475000D01*
X132530000Y-83070000D02*
X130937811Y-83070000D01*
X127355000Y-87967500D02*
X127355000Y-87515000D01*
X126762189Y-82790000D02*
X126489000Y-83063189D01*
X127100000Y-87260000D02*
X126310000Y-87260000D01*
X126489000Y-83518811D02*
X125240000Y-84767811D01*
X125240000Y-84767811D02*
X125240000Y-85762500D01*
X127510000Y-82780000D02*
X127500000Y-82790000D01*
X126489000Y-83063189D02*
X126489000Y-83518811D01*
X126310000Y-87260000D02*
X125952500Y-86902500D01*
X130647811Y-82780000D02*
X127510000Y-82780000D01*
X127355000Y-87515000D02*
X127100000Y-87260000D01*
%TO.N,Net-(U3-RXON)*%
X126952500Y-86552500D02*
X126952500Y-86485000D01*
X127855000Y-87967500D02*
X127855000Y-87455000D01*
X127855000Y-87455000D02*
X126952500Y-86552500D01*
%TO.N,Net-(U3-ISET)*%
X127405000Y-95165000D02*
X126792500Y-95165000D01*
X127855000Y-93842500D02*
X127855000Y-94715000D01*
X127855000Y-94715000D02*
X127405000Y-95165000D01*
%TO.N,Net-(U3-PLL_SW)*%
X133655000Y-90155000D02*
X134190000Y-90690000D01*
X132542500Y-90155000D02*
X133655000Y-90155000D01*
%TO.N,/Battery_Monitoring/Sense.SDA*%
X125580000Y-104530000D02*
X125510000Y-104530000D01*
X123930000Y-103970000D02*
X125280000Y-103970000D01*
X125350000Y-104370000D02*
X125350000Y-104040000D01*
X125280000Y-103970000D02*
X125350000Y-104040000D01*
X125510000Y-104530000D02*
X125350000Y-104370000D01*
%TO.N,/Battery_Monitoring/Sense.SCL*%
X124755000Y-103225000D02*
X124755000Y-103415000D01*
X124755000Y-103415000D02*
X124860000Y-103520000D01*
X124660000Y-103320000D02*
X124755000Y-103225000D01*
X123930000Y-103320000D02*
X124660000Y-103320000D01*
X124960000Y-103020000D02*
X125330000Y-103020000D01*
X125330000Y-103020000D02*
X125400000Y-103020000D01*
X124755000Y-103225000D02*
X124960000Y-103020000D01*
D58*
%TO.N,/Battery_Monitoring/V.bat_sense_ctrl*%
X120150000Y-100810000D02*
X120040000Y-100700000D01*
X120640000Y-100810000D02*
X120150000Y-100810000D01*
D57*
%TO.N,Net-(J5-Pin_1)*%
X121655000Y-105270000D02*
X120780000Y-105270000D01*
X120265000Y-105785000D02*
X119860000Y-105785000D01*
X119860000Y-104935000D02*
X119860000Y-105785000D01*
X120780000Y-105270000D02*
X120265000Y-105785000D01*
D56*
%TO.N,/Battery_Monitoring/V.BAT*%
X127090000Y-100330000D02*
X127090000Y-100650000D01*
X126820000Y-100920000D02*
X125150000Y-100920000D01*
D58*
X125150000Y-100920000D02*
X125150000Y-101840000D01*
D56*
X127090000Y-100650000D02*
X126820000Y-100920000D01*
D58*
X125150000Y-101840000D02*
X125170000Y-101860000D01*
%TO.N,Net-(U9-FB)*%
X125030000Y-113130000D02*
X125580000Y-113130000D01*
X125675000Y-111850000D02*
X125675000Y-113035000D01*
X125580000Y-113130000D02*
X126080000Y-113130000D01*
X125675000Y-113035000D02*
X125580000Y-113130000D01*
D57*
%TO.N,Net-(U9-FS)*%
X124530000Y-111200000D02*
X124190000Y-110860000D01*
X125675000Y-111200000D02*
X124530000Y-111200000D01*
D56*
%TO.N,/STM32F722VC_MCU/Flash.~{SS}*%
X117960000Y-93660000D02*
X117470000Y-94150000D01*
X118790000Y-86270000D02*
X117960000Y-87100000D01*
X120630000Y-86270000D02*
X118790000Y-86270000D01*
X117960000Y-87100000D02*
X117960000Y-93660000D01*
D58*
%TO.N,Net-(U2-CLKOUT)*%
X148525000Y-88425000D02*
X149565000Y-88425000D01*
X149565000Y-88425000D02*
X151160000Y-90020000D01*
X151540000Y-90020000D02*
X151580000Y-90060000D01*
X151160000Y-90020000D02*
X151540000Y-90020000D01*
D56*
%TO.N,Net-(U3-TPI)*%
X124889628Y-90886000D02*
X122683500Y-90886000D01*
X126667500Y-91655000D02*
X125658628Y-91655000D01*
X122683500Y-90886000D02*
X122212500Y-90415000D01*
X125658628Y-91655000D02*
X124889628Y-90886000D01*
%TO.N,Net-(U3-TPQ)*%
X126667500Y-91155000D02*
X125635000Y-91155000D01*
X124665000Y-90185000D02*
X124212500Y-90185000D01*
X125635000Y-91155000D02*
X124665000Y-90185000D01*
%TO.N,Net-(U3-RSSI)*%
X124280000Y-89260000D02*
X122857500Y-89260000D01*
X122857500Y-89260000D02*
X122182500Y-88585000D01*
X126667500Y-90655000D02*
X125675000Y-90655000D01*
X125675000Y-90655000D02*
X124280000Y-89260000D01*
%TO.N,Net-(U3-AOUT)*%
X125230000Y-89292500D02*
X124272500Y-88335000D01*
X125675000Y-90155000D02*
X125230000Y-89710000D01*
X125230000Y-89710000D02*
X125230000Y-89292500D01*
X126667500Y-90155000D02*
X125675000Y-90155000D01*
%TO.N,Net-(U3-DOUT)*%
X126667500Y-89655000D02*
X125975000Y-89655000D01*
X125975000Y-89655000D02*
X125530000Y-89210000D01*
X125530000Y-87850000D02*
X125250000Y-87570000D01*
X125250000Y-87570000D02*
X123057500Y-87570000D01*
X123057500Y-87570000D02*
X122282500Y-86795000D01*
X125530000Y-89210000D02*
X125530000Y-87850000D01*
%TO.N,Net-(U3-DATASEL)*%
X125930000Y-88900000D02*
X126185000Y-89155000D01*
X124530000Y-87170000D02*
X125510000Y-87170000D01*
X124322500Y-86962500D02*
X124530000Y-87170000D01*
X125510000Y-87170000D02*
X125930000Y-87590000D01*
X125930000Y-87590000D02*
X125930000Y-88900000D01*
X126185000Y-89155000D02*
X126667500Y-89155000D01*
X124322500Y-86555000D02*
X124322500Y-86962500D01*
%TO.N,Net-(U1-PD3)*%
X135861000Y-81141000D02*
X135380000Y-80660000D01*
X135830000Y-84600000D02*
X135861000Y-84569000D01*
X135861000Y-84569000D02*
X135861000Y-81141000D01*
X135380000Y-80660000D02*
X130890000Y-80660000D01*
X130890000Y-80660000D02*
X130850000Y-80620000D01*
%TO.N,Net-(U1-PD5)*%
X133850000Y-81320000D02*
X134350000Y-81820000D01*
X133850000Y-81310000D02*
X133850000Y-81320000D01*
%TO.N,Net-(U1-PD7)*%
X131400000Y-82620000D02*
X129440000Y-80660000D01*
X129440000Y-80660000D02*
X126740000Y-80660000D01*
X132200000Y-82620000D02*
X131400000Y-82620000D01*
%TO.N,/STM32F722VC_MCU/Flash.MOSI*%
X121910000Y-84870000D02*
X124780000Y-84870000D01*
X120760000Y-87670000D02*
X121581500Y-86848500D01*
X121581500Y-86848500D02*
X121581500Y-85198500D01*
X121581500Y-85198500D02*
X121910000Y-84870000D01*
%TO.N,/LPS22HBTR_PressureSensor/MEMS2_INT*%
X145690000Y-102090000D02*
X145690000Y-103120000D01*
X145240000Y-101640000D02*
X145690000Y-102090000D01*
X137980000Y-101640000D02*
X145240000Y-101640000D01*
X146000000Y-103430000D02*
X148270000Y-103430000D01*
X137730000Y-102710000D02*
X137730000Y-101890000D01*
X148270000Y-103430000D02*
X149092500Y-104252500D01*
X149092500Y-104252500D02*
X149092500Y-105045000D01*
X145690000Y-103120000D02*
X146000000Y-103430000D01*
X137730000Y-101890000D02*
X137980000Y-101640000D01*
%TO.N,/MAX7456_OSD/0SD.SCLK*%
X149574044Y-90375000D02*
X150680000Y-91480956D01*
X149820000Y-96050000D02*
X144190000Y-96050000D01*
X148525000Y-90375000D02*
X149574044Y-90375000D01*
X150680000Y-91480956D02*
X150680000Y-95190000D01*
X150680000Y-95190000D02*
X149820000Y-96050000D01*
X144190000Y-96050000D02*
X143960000Y-95820000D01*
%TO.N,/MOSI*%
X145892500Y-105807500D02*
X148080000Y-105807500D01*
X145430000Y-106270000D02*
X145892500Y-105807500D01*
X142597500Y-110470000D02*
X143290000Y-110470000D01*
%TO.N,/ExposedPeripherals/ESC7*%
X139246035Y-95822777D02*
X139300000Y-95876742D01*
X139300000Y-95876742D02*
X139300000Y-99990000D01*
X139300000Y-99990000D02*
X140350000Y-101040000D01*
%TO.N,/LSM6DSOX_IMU/IMU2_INT*%
X144260000Y-109160000D02*
X144260000Y-109807500D01*
X144070000Y-108970000D02*
X144260000Y-109160000D01*
%TO.N,/ExposedPeripherals/ESC6*%
X139770000Y-95990000D02*
X139770000Y-99640000D01*
X139770000Y-99640000D02*
X140445000Y-100315000D01*
%TO.N,/LSM6DSOX_IMU/IMU2.CS*%
X143160000Y-111470000D02*
X143270000Y-111360000D01*
X142597500Y-111470000D02*
X143160000Y-111470000D01*
%TO.N,/ML5805_VTX/VTX.SDO*%
X130355000Y-87408792D02*
X130355000Y-87967500D01*
X130361595Y-87402197D02*
X130355000Y-87408792D01*
%TO.N,/MAX7456_OSD/OSD.MISO*%
X148525000Y-91025000D02*
X149525000Y-91025000D01*
X149525000Y-91025000D02*
X149670000Y-91170000D01*
%TO.N,/ExposedPeripherals/ESC5*%
X141127962Y-100057962D02*
X141127962Y-100060799D01*
X140250000Y-99180000D02*
X141127962Y-100057962D01*
X140281396Y-95787572D02*
X140250000Y-95818968D01*
X140250000Y-95818968D02*
X140250000Y-99180000D01*
%TO.N,/ML5805_VTX/VTX.CS*%
X129797500Y-87402500D02*
X129802500Y-87402500D01*
X129855000Y-87455000D02*
X129855000Y-87967500D01*
X129802500Y-87402500D02*
X129855000Y-87455000D01*
%TO.N,/MISO*%
X142580000Y-108860000D02*
X142580000Y-106600000D01*
X142760000Y-109040000D02*
X142580000Y-108860000D01*
X142580000Y-106600000D02*
X143872500Y-105307500D01*
X143872500Y-105307500D02*
X148080000Y-105307500D01*
X142760000Y-109807500D02*
X142760000Y-109040000D01*
%TO.N,/LPS22HBTR_PressureSensor/MEMS2_CS*%
X148592500Y-104612500D02*
X148592500Y-105045000D01*
X146000000Y-104290000D02*
X148270000Y-104290000D01*
X148270000Y-104290000D02*
X148592500Y-104612500D01*
%TO.N,/ML5805_VTX/VTX.CLK*%
X130985892Y-87304108D02*
X130855000Y-87435000D01*
X130855000Y-87435000D02*
X130855000Y-87967500D01*
%TO.N,/SCLK*%
X142030000Y-110970000D02*
X142010000Y-110990000D01*
X126870000Y-81850000D02*
X126870000Y-81650000D01*
X124061000Y-81419000D02*
X124000000Y-81480000D01*
X148592500Y-107087500D02*
X148592500Y-106570000D01*
X148380000Y-107300000D02*
X148592500Y-107087500D01*
X148380000Y-107470000D02*
X148380000Y-107300000D01*
X126870000Y-81650000D02*
X126639000Y-81419000D01*
X143330000Y-99330000D02*
X142910000Y-98910000D01*
X148030000Y-99330000D02*
X143330000Y-99330000D01*
X142597500Y-110970000D02*
X142030000Y-110970000D01*
X126639000Y-81419000D02*
X124061000Y-81419000D01*
X148380000Y-99680000D02*
X148030000Y-99330000D01*
%TO.N,/STM32F722VC_MCU/Flash.MISO*%
X120460000Y-86780000D02*
X120640000Y-86960000D01*
X119240000Y-86780000D02*
X120460000Y-86780000D01*
X118530000Y-87490000D02*
X119240000Y-86780000D01*
X119050000Y-94290000D02*
X118530000Y-93770000D01*
X118530000Y-93770000D02*
X118530000Y-87490000D01*
%TO.N,/ExposedPeripherals/ESC8*%
X137270000Y-99940000D02*
X137270000Y-103140000D01*
X138770000Y-98440000D02*
X137270000Y-99940000D01*
X138770000Y-96080022D02*
X138770000Y-98440000D01*
X138749678Y-96059700D02*
X138770000Y-96080022D01*
X137270000Y-103140000D02*
X137490000Y-103360000D01*
%TO.N,/MAX7456_OSD/OSD.~{CS}*%
X148525000Y-89075000D02*
X149515000Y-89075000D01*
X151600000Y-91160000D02*
X151600000Y-97870000D01*
X151600000Y-97870000D02*
X150569000Y-98901000D01*
X144638811Y-98901000D02*
X144017811Y-98280000D01*
X150569000Y-98901000D02*
X144638811Y-98901000D01*
X149515000Y-89075000D02*
X151600000Y-91160000D01*
X144017811Y-98280000D02*
X142830000Y-98280000D01*
%TO.N,/MAX7456_OSD/OSD.MOSI*%
X149527189Y-89725000D02*
X148525000Y-89725000D01*
X144970000Y-96500000D02*
X150380000Y-96500000D01*
X151180000Y-91377811D02*
X149527189Y-89725000D01*
X150380000Y-96500000D02*
X151180000Y-95700000D01*
X151180000Y-95700000D02*
X151180000Y-91377811D01*
%TO.N,Net-(U2-XFB)*%
X150450000Y-88050000D02*
X149755000Y-88050000D01*
X149755000Y-88050000D02*
X149480000Y-87775000D01*
X148525000Y-87775000D02*
X149480000Y-87775000D01*
D58*
%TO.N,Net-(Q1B-S)*%
X124082500Y-99880000D02*
X125130000Y-99880000D01*
X125130000Y-99880000D02*
X125150000Y-99900000D01*
D56*
%TO.N,Net-(Q1B-G)*%
X125700000Y-100148918D02*
X125468918Y-100380000D01*
X125700000Y-99460000D02*
X125700000Y-100148918D01*
X124180563Y-98560000D02*
X124880000Y-99259437D01*
X124880000Y-99280000D02*
X125520000Y-99280000D01*
X122940000Y-98282000D02*
X123218000Y-98560000D01*
D58*
X120640000Y-99850000D02*
X120640000Y-98830000D01*
D56*
X120818000Y-98282000D02*
X122940000Y-98282000D01*
X123218000Y-98560000D02*
X124180563Y-98560000D01*
X120640000Y-98830000D02*
X120640000Y-98460000D01*
X120640000Y-98460000D02*
X120818000Y-98282000D01*
X124880000Y-99259437D02*
X124880000Y-99280000D01*
X125468918Y-100380000D02*
X124082500Y-100380000D01*
X125520000Y-99280000D02*
X125700000Y-99460000D01*
D58*
%TO.N,Net-(Q1A-G)*%
X122140000Y-101570000D02*
X121660000Y-101090000D01*
X121660000Y-101090000D02*
X121660000Y-100810000D01*
X122090000Y-100380000D02*
X122657500Y-100380000D01*
X121660000Y-100810000D02*
X122090000Y-100380000D01*
X122140000Y-101900000D02*
X122140000Y-101570000D01*
D56*
%TO.N,Net-(Q1A-D)*%
X124217042Y-99299406D02*
X123797636Y-98880000D01*
D58*
X124082500Y-100880000D02*
X123576862Y-100880000D01*
D56*
X121710000Y-98880000D02*
X121660000Y-98830000D01*
D58*
X123576862Y-100880000D02*
X123383492Y-101073370D01*
D56*
X124217042Y-99305000D02*
X124217042Y-99299406D01*
X123797636Y-98880000D02*
X121710000Y-98880000D01*
%TD*%
%TA.AperFunction,Conductor*%
%TO.N,Net-(U9-LX)*%
G36*
X130009498Y-110128685D02*
G01*
X130030140Y-110145319D01*
X130037897Y-110153076D01*
X130037900Y-110153078D01*
X130148656Y-110207222D01*
X130153482Y-110209582D01*
X130228418Y-110220500D01*
X130228423Y-110220500D01*
X130571577Y-110220500D01*
X130571582Y-110220500D01*
X130646518Y-110209582D01*
X130744828Y-110161521D01*
X130762099Y-110153078D01*
X130762102Y-110153076D01*
X130769860Y-110145319D01*
X130796787Y-110130615D01*
X130822606Y-110114023D01*
X130828806Y-110113131D01*
X130831183Y-110111834D01*
X130857541Y-110109000D01*
X130962459Y-110109000D01*
X131029498Y-110128685D01*
X131050140Y-110145319D01*
X131057897Y-110153076D01*
X131057900Y-110153078D01*
X131168656Y-110207222D01*
X131173482Y-110209582D01*
X131248418Y-110220500D01*
X131248423Y-110220500D01*
X131591577Y-110220500D01*
X131591582Y-110220500D01*
X131666518Y-110209582D01*
X131764828Y-110161521D01*
X131782099Y-110153078D01*
X131782102Y-110153076D01*
X131789860Y-110145319D01*
X131851183Y-110111834D01*
X131877541Y-110109000D01*
X132844500Y-110109000D01*
X132853185Y-110111550D01*
X132862147Y-110110262D01*
X132886187Y-110121240D01*
X132911539Y-110128685D01*
X132917466Y-110135525D01*
X132925703Y-110139287D01*
X132939992Y-110161521D01*
X132957294Y-110181489D01*
X132959581Y-110192003D01*
X132963477Y-110198065D01*
X132968500Y-110233000D01*
X132968500Y-110253011D01*
X132964274Y-110285104D01*
X132929500Y-110414885D01*
X132929500Y-110559835D01*
X132967016Y-110699845D01*
X132967017Y-110699848D01*
X133039488Y-110825371D01*
X133039493Y-110825377D01*
X133059681Y-110845565D01*
X133093166Y-110906888D01*
X133096000Y-110933246D01*
X133096000Y-111890000D01*
X133076315Y-111957039D01*
X133023511Y-112002794D01*
X132972000Y-112014000D01*
X130045000Y-112014000D01*
X130036314Y-112011449D01*
X130027353Y-112012738D01*
X130003312Y-112001759D01*
X129977961Y-111994315D01*
X129972033Y-111987474D01*
X129963797Y-111983713D01*
X129949507Y-111961478D01*
X129932206Y-111941511D01*
X129929918Y-111930996D01*
X129926023Y-111924935D01*
X129921000Y-111890000D01*
X129921000Y-111869921D01*
X129934514Y-111813627D01*
X129976017Y-111732175D01*
X129976017Y-111732173D01*
X129976018Y-111732172D01*
X129976018Y-111732171D01*
X129979901Y-111707650D01*
X129990500Y-111640735D01*
X129990499Y-111299266D01*
X129990499Y-111299260D01*
X129976018Y-111207829D01*
X129976018Y-111207828D01*
X129976017Y-111207826D01*
X129976017Y-111207825D01*
X129919859Y-111097609D01*
X129919857Y-111097607D01*
X129919854Y-111097603D01*
X129832396Y-111010145D01*
X129832393Y-111010143D01*
X129832391Y-111010141D01*
X129722175Y-110953983D01*
X129722174Y-110953982D01*
X129722171Y-110953981D01*
X129630735Y-110939500D01*
X129229262Y-110939500D01*
X129215675Y-110941652D01*
X129146383Y-110932692D01*
X129123428Y-110919515D01*
X129115522Y-110913774D01*
X129061263Y-110859515D01*
X128964237Y-110803497D01*
X128963312Y-110803249D01*
X128956141Y-110798042D01*
X128938598Y-110775304D01*
X128918784Y-110754523D01*
X128917049Y-110747374D01*
X128913461Y-110742723D01*
X128912105Y-110726994D01*
X128905000Y-110697704D01*
X128905000Y-110233000D01*
X128924685Y-110165961D01*
X128977489Y-110120206D01*
X129029000Y-110109000D01*
X129942459Y-110109000D01*
X130009498Y-110128685D01*
G37*
%TD.AperFunction*%
%TD*%
%TA.AperFunction,Conductor*%
%TO.N,+3V3*%
G36*
X139516039Y-111017685D02*
G01*
X139561794Y-111070489D01*
X139573000Y-111122000D01*
X139573000Y-111506000D01*
X141735000Y-111506000D01*
X141802039Y-111525685D01*
X141847794Y-111578489D01*
X141859000Y-111630000D01*
X141859000Y-112525000D01*
X141839315Y-112592039D01*
X141786511Y-112637794D01*
X141735000Y-112649000D01*
X140334999Y-112649000D01*
X139858179Y-113841052D01*
X139815005Y-113895986D01*
X139748984Y-113918858D01*
X139743048Y-113919000D01*
X138687878Y-113919000D01*
X138620839Y-113899315D01*
X138575084Y-113846511D01*
X138565140Y-113777353D01*
X138583748Y-113731503D01*
X138582928Y-113731086D01*
X138587357Y-113722392D01*
X138587359Y-113722391D01*
X138643517Y-113612175D01*
X138643517Y-113612173D01*
X138643518Y-113612172D01*
X138643518Y-113612171D01*
X138647401Y-113587650D01*
X138658000Y-113520735D01*
X138657999Y-113119266D01*
X138657999Y-113119265D01*
X138657999Y-113119260D01*
X138643518Y-113027829D01*
X138643518Y-113027828D01*
X138643517Y-113027826D01*
X138643517Y-113027825D01*
X138587359Y-112917609D01*
X138587357Y-112917607D01*
X138581620Y-112909710D01*
X138584578Y-112907560D01*
X138578615Y-112896640D01*
X138562023Y-112870822D01*
X138561131Y-112864621D01*
X138559834Y-112862245D01*
X138557000Y-112835887D01*
X138557000Y-112794112D01*
X138576685Y-112727073D01*
X138581956Y-112720534D01*
X138581620Y-112720290D01*
X138587351Y-112712398D01*
X138587359Y-112712391D01*
X138643517Y-112602175D01*
X138643517Y-112602173D01*
X138643518Y-112602172D01*
X138643518Y-112602171D01*
X138647401Y-112577650D01*
X138658000Y-112510735D01*
X138657999Y-112109266D01*
X138657999Y-112109265D01*
X138657999Y-112109260D01*
X138643518Y-112017829D01*
X138643518Y-112017828D01*
X138643517Y-112017826D01*
X138643517Y-112017825D01*
X138587359Y-111907609D01*
X138587357Y-111907607D01*
X138581620Y-111899710D01*
X138584578Y-111897560D01*
X138578615Y-111886640D01*
X138562023Y-111860822D01*
X138561131Y-111854621D01*
X138559834Y-111852245D01*
X138557000Y-111825887D01*
X138557000Y-111801112D01*
X138576685Y-111734073D01*
X138581956Y-111727534D01*
X138581620Y-111727290D01*
X138587351Y-111719398D01*
X138587359Y-111719391D01*
X138643517Y-111609175D01*
X138643517Y-111609173D01*
X138643518Y-111609172D01*
X138643518Y-111609171D01*
X138648377Y-111578489D01*
X138658000Y-111517735D01*
X138657999Y-111121999D01*
X138677683Y-111054961D01*
X138730487Y-111009206D01*
X138781999Y-110998000D01*
X139449000Y-110998000D01*
X139516039Y-111017685D01*
G37*
%TD.AperFunction*%
%TD*%
%TA.AperFunction,Conductor*%
%TO.N,+5V*%
G36*
X137112523Y-109493685D02*
G01*
X137158278Y-109546489D01*
X137165255Y-109565898D01*
X137187228Y-109647898D01*
X137188182Y-109651457D01*
X137188182Y-109651458D01*
X137260654Y-109776982D01*
X137261374Y-109777920D01*
X137261735Y-109778854D01*
X137264720Y-109784024D01*
X137263913Y-109784489D01*
X137286570Y-109843089D01*
X137287000Y-109853409D01*
X137287000Y-110636454D01*
X137286985Y-110636504D01*
X137287000Y-110636556D01*
X137277096Y-110670181D01*
X137267315Y-110703493D01*
X137267275Y-110703527D01*
X137267260Y-110703579D01*
X137240268Y-110726929D01*
X137214511Y-110749248D01*
X137214447Y-110749266D01*
X137214419Y-110749291D01*
X137180546Y-110759206D01*
X137175390Y-110759943D01*
X137106240Y-110749943D01*
X137101549Y-110747676D01*
X137074673Y-110733981D01*
X136983235Y-110719500D01*
X136641760Y-110719500D01*
X136641760Y-110719501D01*
X136550329Y-110733981D01*
X136550328Y-110733981D01*
X136440107Y-110790142D01*
X136440103Y-110790145D01*
X136352645Y-110877603D01*
X136352642Y-110877608D01*
X136296481Y-110987827D01*
X136296481Y-110987828D01*
X136282000Y-111079264D01*
X136282000Y-111480739D01*
X136296481Y-111572170D01*
X136296481Y-111572171D01*
X136352642Y-111682392D01*
X136361678Y-111691428D01*
X136376382Y-111718355D01*
X136392977Y-111744177D01*
X136393868Y-111750375D01*
X136395165Y-111752750D01*
X136398000Y-111779112D01*
X136398000Y-111850887D01*
X136378315Y-111917926D01*
X136361681Y-111938568D01*
X136352645Y-111947603D01*
X136352642Y-111947608D01*
X136352641Y-111947609D01*
X136333921Y-111984347D01*
X136296481Y-112057827D01*
X136296481Y-112057828D01*
X136282000Y-112149264D01*
X136282000Y-112550739D01*
X136296481Y-112642170D01*
X136296481Y-112642171D01*
X136352642Y-112752392D01*
X136361678Y-112761428D01*
X136376382Y-112788355D01*
X136392977Y-112814177D01*
X136393868Y-112820375D01*
X136395165Y-112822750D01*
X136398000Y-112849112D01*
X136398000Y-112910887D01*
X136378315Y-112977926D01*
X136361681Y-112998568D01*
X136352645Y-113007603D01*
X136352642Y-113007608D01*
X136296481Y-113117827D01*
X136296481Y-113117828D01*
X136282000Y-113209264D01*
X136282000Y-113610739D01*
X136296481Y-113702170D01*
X136296481Y-113702171D01*
X136296482Y-113702174D01*
X136296483Y-113702175D01*
X136316880Y-113742207D01*
X136329776Y-113810875D01*
X136303499Y-113875615D01*
X136246393Y-113915872D01*
X136206395Y-113922500D01*
X135125000Y-113922500D01*
X135057961Y-113902815D01*
X135012206Y-113850011D01*
X135001000Y-113798500D01*
X135001000Y-113284000D01*
X134507576Y-113284000D01*
X134440537Y-113264315D01*
X134419895Y-113247681D01*
X134344238Y-113172024D01*
X134344235Y-113172022D01*
X134344233Y-113172020D01*
X134237870Y-113117825D01*
X134224841Y-113111186D01*
X134125798Y-113095500D01*
X133714208Y-113095500D01*
X133615155Y-113111188D01*
X133530294Y-113154427D01*
X133461625Y-113167323D01*
X133396885Y-113141046D01*
X133356628Y-113083940D01*
X133350000Y-113043942D01*
X133350000Y-112773000D01*
X133369685Y-112705961D01*
X133422489Y-112660206D01*
X133474000Y-112649000D01*
X135382000Y-112649000D01*
X135382000Y-109598000D01*
X135401685Y-109530961D01*
X135454489Y-109485206D01*
X135506000Y-109474000D01*
X137045484Y-109474000D01*
X137112523Y-109493685D01*
G37*
%TD.AperFunction*%
%TD*%
%TA.AperFunction,Conductor*%
%TO.N,Net-(U10-LX)*%
G36*
X140449903Y-109620685D02*
G01*
X140458351Y-109626624D01*
X140463383Y-109630485D01*
X140463387Y-109630489D01*
X140566114Y-109689799D01*
X140680691Y-109720500D01*
X140680694Y-109720500D01*
X140799306Y-109720500D01*
X140799309Y-109720500D01*
X140913886Y-109689799D01*
X141016613Y-109630489D01*
X141016619Y-109630482D01*
X141021649Y-109626624D01*
X141086819Y-109601430D01*
X141097136Y-109601000D01*
X141608000Y-109601000D01*
X141675039Y-109620685D01*
X141720794Y-109673489D01*
X141732000Y-109725000D01*
X141732000Y-110579536D01*
X141712315Y-110646575D01*
X141695681Y-110667217D01*
X141649513Y-110713384D01*
X141649511Y-110713387D01*
X141615362Y-110772535D01*
X141590201Y-110816114D01*
X141559500Y-110930691D01*
X141559500Y-110930693D01*
X141559500Y-111001000D01*
X141539815Y-111068039D01*
X141487011Y-111113794D01*
X141435500Y-111125000D01*
X139935054Y-111125000D01*
X139868015Y-111105315D01*
X139822260Y-111052511D01*
X139813888Y-111027360D01*
X139811454Y-111016173D01*
X139804219Y-110989802D01*
X139770559Y-110930691D01*
X139754894Y-110903181D01*
X139754890Y-110903176D01*
X139754888Y-110903172D01*
X139709133Y-110850368D01*
X139676359Y-110818743D01*
X139588024Y-110772535D01*
X139588023Y-110772534D01*
X139588022Y-110772534D01*
X139564530Y-110765636D01*
X139505752Y-110727862D01*
X139488556Y-110702113D01*
X139460787Y-110646575D01*
X139446000Y-110617000D01*
X137919000Y-110617000D01*
X137851961Y-110597315D01*
X137806206Y-110544511D01*
X137795000Y-110493000D01*
X137795000Y-110078894D01*
X137814685Y-110011855D01*
X137867489Y-109966100D01*
X137886901Y-109959121D01*
X137913650Y-109951954D01*
X138039180Y-109879479D01*
X138141674Y-109776985D01*
X138202000Y-109672498D01*
X138252568Y-109624283D01*
X138309387Y-109610499D01*
X139151518Y-109610499D01*
X139201862Y-109602526D01*
X139221258Y-109601000D01*
X140382864Y-109601000D01*
X140449903Y-109620685D01*
G37*
%TD.AperFunction*%
%TD*%
%TA.AperFunction,Conductor*%
%TO.N,Net-(D8-A)*%
G36*
X132912039Y-112668685D02*
G01*
X132957794Y-112721489D01*
X132969000Y-112773000D01*
X132969000Y-113284000D01*
X133127014Y-113284000D01*
X133194053Y-113303685D01*
X133210225Y-113317849D01*
X133210874Y-113317117D01*
X133217512Y-113322995D01*
X133300795Y-113377788D01*
X133337106Y-113392526D01*
X133365529Y-113404063D01*
X133365537Y-113404066D01*
X133387316Y-113410715D01*
X133409098Y-113417365D01*
X133508783Y-113418433D01*
X133577452Y-113405537D01*
X133590387Y-113401128D01*
X133630386Y-113394499D01*
X133630611Y-113394499D01*
X133630619Y-113394500D01*
X134154090Y-113394499D01*
X134221129Y-113414184D01*
X134237909Y-113427335D01*
X134237996Y-113427239D01*
X134239224Y-113428342D01*
X134239230Y-113428348D01*
X134253694Y-113441340D01*
X134259591Y-113446637D01*
X134280214Y-113463255D01*
X134280216Y-113463256D01*
X134280221Y-113463260D01*
X134368552Y-113509465D01*
X134435591Y-113529150D01*
X134435595Y-113529150D01*
X134435597Y-113529151D01*
X134447228Y-113530823D01*
X134507576Y-113539500D01*
X134621500Y-113539500D01*
X134688539Y-113559185D01*
X134734294Y-113611989D01*
X134745500Y-113663500D01*
X134745500Y-113798502D01*
X134751338Y-113852812D01*
X134762543Y-113904318D01*
X134762546Y-113904327D01*
X134769779Y-113930692D01*
X134769783Y-113930703D01*
X134819105Y-114017318D01*
X134819111Y-114017327D01*
X134819112Y-114017328D01*
X134843712Y-114045718D01*
X134872738Y-114109273D01*
X134874000Y-114126921D01*
X134874000Y-114907500D01*
X134854315Y-114974539D01*
X134801511Y-115020294D01*
X134750000Y-115031500D01*
X129156000Y-115031500D01*
X129088961Y-115011815D01*
X129043206Y-114959011D01*
X129032000Y-114907500D01*
X129032000Y-112773000D01*
X129051685Y-112705961D01*
X129104489Y-112660206D01*
X129156000Y-112649000D01*
X132845000Y-112649000D01*
X132912039Y-112668685D01*
G37*
%TD.AperFunction*%
%TD*%
M02*
