M48
; DRILL file {KiCad 9.0.1} date 2026-02-05T11:07:36+0300
; FORMAT={-:-/ absolute / metric / decimal}
; #@! TF.CreationDate,2026-02-05T11:07:36+03:00
; #@! TF.GenerationSoftware,Kicad,Pcbnew,9.0.1
; #@! TF.FileFunction,Plated,1,4,PTH
FMAT,2
METRIC
; #@! TA.AperFunction,Plated,PTH,ViaDrill
T1C0.200
; #@! TA.AperFunction,Plated,PTH,ViaDrill
T2C0.300
; #@! TA.AperFunction,Plated,PTH,ComponentDrill
T3C0.800
%
G90
G05
T1
X117.39Y-84.61
X117.47Y-94.15
X117.52Y-99.99
X117.77Y-103.25
X117.93Y-95.45
X118.3Y-99.94
X118.35Y-84.64
X119.05Y-94.29
X119.25Y-96.14
X119.44Y-94.72
X119.57Y-90.64
X120.42Y-96.23
X120.63Y-86.27
X120.64Y-86.96
X120.76Y-87.67
X121.29Y-94.01
X121.43Y-96.77
X122.07Y-92.16
X122.21Y-95.06
X122.24Y-93.48
X122.36Y-91.29
X122.61Y-87.85
X123.26Y-94.08
X123.28Y-95.13
X123.45Y-81.71
X123.57Y-83.85
X123.93Y-82.6
X124.0Y-81.48
X124.44Y-95.05
X124.56Y-84.35
X124.69Y-79.86
X124.78Y-84.87
X124.82Y-82.82
X124.86Y-103.52
X124.88Y-98.56
X124.94Y-95.7
X125.58Y-104.53
X125.85Y-83.52
X126.26Y-100.2
X126.845Y-84.845
X126.87Y-81.85
X127.09Y-100.33
X127.13Y-99.68
X127.245Y-82.335
X127.27Y-96.6
X127.32Y-83.25
X127.48Y-92.09
X127.6Y-83.73
X127.609Y-95.887
X127.65Y-99.36
X127.72Y-103.45
X127.9Y-95.42
X128.22Y-84.7
X128.27Y-81.41
X128.369Y-83.675
X128.43Y-113.78
X128.478Y-84.214
X128.53Y-82.07
X128.85Y-103.32
X128.925Y-94.895
X128.95Y-81.57
X128.98Y-83.92
X129.33Y-80.02
X129.34Y-88.96
X129.69Y-94.89
X129.77Y-84.61
X129.797Y-87.402
X130.07Y-103.21
X130.362Y-87.402
X130.46Y-83.23
X130.77Y-98.69
X130.78Y-94.64
X130.986Y-87.304
X131.28Y-103.06
X131.29Y-107.66
X131.36Y-99.97
X131.485Y-87.005
X131.54Y-98.19
X131.56Y-79.86
X131.57Y-81.84
X131.6Y-83.56
X131.9Y-102.38
X132.03Y-97.32
X132.04Y-108.32
X132.08Y-81.35
X132.2Y-82.62
X132.2Y-83.59
X132.53Y-83.07
X132.575Y-97.246
X132.71Y-81.96
X132.78Y-108.7
X132.937Y-97.76
X133.14Y-106.31
X133.487Y-97.749
X133.49Y-92.65
X133.51Y-89.35
X133.85Y-81.31
X133.93Y-109.04
X134.07Y-103.24
X134.24Y-99.92
X134.4Y-106.36
X135.13Y-113.07
X135.15Y-93.19
X135.31Y-98.01
X135.43Y-106.33
X135.56Y-86.97
X135.65Y-89.16
X135.71Y-80.15
X135.83Y-84.6
X135.9Y-107.41
X136.11Y-86.97
X136.147Y-94.163
X136.7Y-87.058
X136.86Y-88.64
X136.89Y-83.33
X137.0Y-98.59
X137.09Y-94.17
X137.14Y-90.08
X137.25Y-87.07
X137.31Y-95.42
X137.48Y-96.82
X137.49Y-103.36
X137.73Y-102.71
X137.76Y-100.33
X137.8Y-97.42
X137.87Y-87.07
X138.22Y-102.14
X138.23Y-95.27
X138.236Y-97.08
X138.51Y-104.2
X138.75Y-96.06
X139.07Y-89.81
X139.24Y-84.3
X139.246Y-95.823
X139.25Y-89.13
X139.25Y-102.17
X139.27Y-103.62
X139.67Y-88.04
X139.71Y-89.54
X139.77Y-95.99
X140.18Y-87.66
X140.2Y-102.12
X140.281Y-95.788
X140.35Y-101.04
X140.445Y-100.315
X140.67Y-84.17
X140.72Y-114.68
X140.74Y-109.27
X141.128Y-100.061
X141.96Y-103.59
X142.01Y-110.99
X142.04Y-100.3
X142.04Y-102.2
X142.34Y-83.69
X142.46Y-94.98
X142.51Y-94.39
X142.54Y-93.77
X142.6Y-97.41
X142.6Y-103.74
X142.76Y-109.04
X142.83Y-98.28
X142.91Y-98.91
X142.97Y-112.57
X143.045Y-107.965
X143.27Y-111.36
X143.29Y-110.47
X143.33Y-83.96
X143.48Y-109.29
X143.607Y-96.782
X143.75Y-107.91
X143.81Y-87.8
X143.86Y-111.13
X143.87Y-91.55
X143.92Y-94.45
X143.96Y-95.82
X143.98Y-89.05
X143.98Y-98.88
X144.07Y-108.97
X144.1Y-100.04
X144.14Y-83.84
X144.67Y-114.13
X144.76Y-104.82
X144.97Y-96.5
X145.07Y-84.74
X145.15Y-101.0
X145.25Y-97.43
X145.31Y-103.7
X145.43Y-106.27
X145.62Y-111.79
X145.65Y-88.75
X145.7Y-107.24
X146.0Y-104.29
X146.96Y-93.58
X147.06Y-98.45
X147.38Y-111.05
X147.77Y-102.77
X147.85Y-106.68
X148.38Y-99.68
X148.38Y-107.47
X149.5Y-86.52
X149.67Y-91.17
X149.74Y-86.91
X150.1Y-105.58
X150.17Y-106.34
X150.37Y-108.21
X150.67Y-101.71
X150.85Y-104.85
X150.94Y-83.81
X150.94Y-89.01
X151.377Y-88.676
X151.55Y-104.75
X151.83Y-85.14
X151.84Y-89.09
X152.17Y-91.46
X152.17Y-92.59
T2
X118.8Y-105.63
X119.45Y-108.0
X119.58Y-102.19
X119.86Y-104.935
X120.04Y-100.7
X121.56Y-106.57
X121.96Y-102.705
X122.54Y-104.099
X122.82Y-96.58
X122.841Y-101.516
X123.383Y-101.073
X123.39Y-111.65
X123.517Y-99.419
X123.59Y-105.87
X123.68Y-101.81
X124.217Y-99.305
X124.33Y-114.1
X124.75Y-109.81
X125.05Y-96.42
X125.58Y-106.51
X126.32Y-108.62
X126.822Y-102.99
X126.86Y-106.44
X126.99Y-101.49
X128.15Y-106.487
X128.65Y-104.33
X130.67Y-107.11
X131.0Y-97.36
X131.9Y-109.52
X133.48Y-110.487
X134.153Y-109.911
X135.88Y-97.4
X136.47Y-97.76
X136.76Y-104.85
X137.37Y-111.3
X137.44Y-112.28
X137.47Y-113.38
X137.701Y-109.439
X139.19Y-111.75
X143.38Y-104.62
X145.1Y-94.19
X149.56Y-84.081
X149.95Y-94.04
T3
X138.19Y-80.83
X140.19Y-80.83
X142.19Y-80.83
X144.19Y-80.83
X146.19Y-80.83
M30
