%TF.GenerationSoftware,KiCad,Pcbnew,9.0.1*%
%TF.CreationDate,2026-02-05T11:07:33+03:00*%
%TF.ProjectId,Flybot_FC,466c7962-6f74-45f4-9643-2e6b69636164,rev?*%
%TF.SameCoordinates,Original*%
%TF.FileFunction,Soldermask,Bot*%
%TF.FilePolarity,Negative*%
%FSLAX46Y46*%
G04 Gerber Fmt 4.6, Leading zero omitted, Abs format (unit mm)*
G04 Created by KiCad (PCBNEW 9.0.1) date 2026-02-05 11:07:33*
%MOMM*%
%LPD*%
G01*
G04 APERTURE LIST*
G04 Aperture macros list*
%AMRoundRect*
0 Rectangle with rounded corners*
0 $1 Rounding radius*
0 $2 $3 $4 $5 $6 $7 $8 $9 X,Y pos of 4 corners*
0 Add a 4 corners polygon primitive as box body*
4,1,4,$2,$3,$4,$5,$6,$7,$8,$9,$2,$3,0*
0 Add four circle primitives for the rounded corners*
1,1,$1+$1,$2,$3*
1,1,$1+$1,$4,$5*
1,1,$1+$1,$6,$7*
1,1,$1+$1,$8,$9*
0 Add four rect primitives between the rounded corners*
20,1,$1+$1,$2,$3,$4,$5,0*
20,1,$1+$1,$4,$5,$6,$7,0*
20,1,$1+$1,$6,$7,$8,$9,0*
20,1,$1+$1,$8,$9,$2,$3,0*%
G04 Aperture macros list end*
%ADD10C,1.000000*%
%ADD11C,0.650000*%
%ADD12R,4.500000X4.500000*%
%ADD13RoundRect,0.062500X-0.062500X0.350000X-0.062500X-0.350000X0.062500X-0.350000X0.062500X0.350000X0*%
%ADD14RoundRect,0.062500X-0.350000X0.062500X-0.350000X-0.062500X0.350000X-0.062500X0.350000X0.062500X0*%
%ADD15RoundRect,0.150000X0.587500X0.150000X-0.587500X0.150000X-0.587500X-0.150000X0.587500X-0.150000X0*%
%ADD16RoundRect,0.150000X0.512500X0.150000X-0.512500X0.150000X-0.512500X-0.150000X0.512500X-0.150000X0*%
%ADD17C,1.600000*%
%ADD18C,3.000000*%
%ADD19R,1.350000X1.350000*%
%ADD20C,1.350000*%
%ADD21RoundRect,0.087500X-0.087500X0.225000X-0.087500X-0.225000X0.087500X-0.225000X0.087500X0.225000X0*%
%ADD22RoundRect,0.087500X-0.225000X0.087500X-0.225000X-0.087500X0.225000X-0.087500X0.225000X0.087500X0*%
%ADD23RoundRect,0.140000X-0.140000X-0.170000X0.140000X-0.170000X0.140000X0.170000X-0.140000X0.170000X0*%
%ADD24RoundRect,0.140000X-0.170000X0.140000X-0.170000X-0.140000X0.170000X-0.140000X0.170000X0.140000X0*%
%ADD25RoundRect,0.135000X0.135000X0.185000X-0.135000X0.185000X-0.135000X-0.185000X0.135000X-0.185000X0*%
%ADD26RoundRect,0.135000X-0.135000X-0.185000X0.135000X-0.185000X0.135000X0.185000X-0.135000X0.185000X0*%
%ADD27RoundRect,0.250000X0.375000X0.625000X-0.375000X0.625000X-0.375000X-0.625000X0.375000X-0.625000X0*%
%ADD28RoundRect,0.140000X0.140000X0.170000X-0.140000X0.170000X-0.140000X-0.170000X0.140000X-0.170000X0*%
%ADD29R,1.600000X0.300000*%
%ADD30R,0.250000X0.500000*%
%ADD31RoundRect,0.135000X-0.185000X0.135000X-0.185000X-0.135000X0.185000X-0.135000X0.185000X0.135000X0*%
%ADD32RoundRect,0.250000X0.275000X0.250000X-0.275000X0.250000X-0.275000X-0.250000X0.275000X-0.250000X0*%
%ADD33RoundRect,0.250000X0.850000X0.275000X-0.850000X0.275000X-0.850000X-0.275000X0.850000X-0.275000X0*%
%ADD34RoundRect,0.135000X0.185000X-0.135000X0.185000X0.135000X-0.185000X0.135000X-0.185000X-0.135000X0*%
%ADD35RoundRect,0.140000X0.170000X-0.140000X0.170000X0.140000X-0.170000X0.140000X-0.170000X-0.140000X0*%
%ADD36RoundRect,0.150000X0.150000X-0.512500X0.150000X0.512500X-0.150000X0.512500X-0.150000X-0.512500X0*%
%ADD37RoundRect,0.076750X0.765250X0.230250X-0.765250X0.230250X-0.765250X-0.230250X0.765250X-0.230250X0*%
%ADD38RoundRect,0.102000X1.425000X3.350000X-1.425000X3.350000X-1.425000X-3.350000X1.425000X-3.350000X0*%
%ADD39RoundRect,0.102000X0.800000X-0.500000X0.800000X0.500000X-0.800000X0.500000X-0.800000X-0.500000X0*%
%ADD40RoundRect,0.147500X-0.147500X-0.172500X0.147500X-0.172500X0.147500X0.172500X-0.147500X0.172500X0*%
%ADD41RoundRect,0.200000X0.275000X-0.200000X0.275000X0.200000X-0.275000X0.200000X-0.275000X-0.200000X0*%
%ADD42RoundRect,0.150000X-0.587500X-0.150000X0.587500X-0.150000X0.587500X0.150000X-0.587500X0.150000X0*%
%ADD43RoundRect,0.147500X0.147500X0.172500X-0.147500X0.172500X-0.147500X-0.172500X0.147500X-0.172500X0*%
%ADD44RoundRect,0.125000X-0.537500X-0.125000X0.537500X-0.125000X0.537500X0.125000X-0.537500X0.125000X0*%
%ADD45RoundRect,0.147500X-0.172500X0.147500X-0.172500X-0.147500X0.172500X-0.147500X0.172500X0.147500X0*%
%ADD46RoundRect,0.137500X-0.662500X0.137500X-0.662500X-0.137500X0.662500X-0.137500X0.662500X0.137500X0*%
%ADD47RoundRect,0.225000X0.250000X-0.225000X0.250000X0.225000X-0.250000X0.225000X-0.250000X-0.225000X0*%
%ADD48RoundRect,0.087500X-0.250000X-0.087500X0.250000X-0.087500X0.250000X0.087500X-0.250000X0.087500X0*%
%ADD49R,0.800000X0.900000*%
%ADD50RoundRect,0.087500X0.087500X-0.125000X0.087500X0.125000X-0.087500X0.125000X-0.087500X-0.125000X0*%
%ADD51RoundRect,0.087500X0.125000X-0.087500X0.125000X0.087500X-0.125000X0.087500X-0.125000X-0.087500X0*%
%ADD52RoundRect,0.218750X-0.256250X0.218750X-0.256250X-0.218750X0.256250X-0.218750X0.256250X0.218750X0*%
%ADD53RoundRect,0.096250X-0.248750X0.096250X-0.248750X-0.096250X0.248750X-0.096250X0.248750X0.096250X0*%
%ADD54RoundRect,0.172500X-0.172500X0.345000X-0.172500X-0.345000X0.172500X-0.345000X0.172500X0.345000X0*%
%ADD55RoundRect,0.250000X-1.075000X0.375000X-1.075000X-0.375000X1.075000X-0.375000X1.075000X0.375000X0*%
%ADD56RoundRect,0.147500X0.172500X-0.147500X0.172500X0.147500X-0.172500X0.147500X-0.172500X-0.147500X0*%
G04 APERTURE END LIST*
%TO.C,AE1*%
G36*
X118965000Y-96720000D02*
G01*
X116875000Y-96720000D01*
X116875000Y-98600000D01*
X118965000Y-98600000D01*
X118965000Y-96720000D01*
G37*
%TD*%
D10*
%TO.C,TP4*%
X133690000Y-84100000D03*
%TD*%
D11*
%TO.C,J1*%
X147360000Y-100680000D03*
X147360000Y-94680000D03*
%TD*%
D12*
%TO.C,U3*%
X129605000Y-90905000D03*
D13*
X127355000Y-87967500D03*
X127855000Y-87967500D03*
X128355000Y-87967500D03*
X128855000Y-87967500D03*
X129355000Y-87967500D03*
X129855000Y-87967500D03*
X130355000Y-87967500D03*
X130855000Y-87967500D03*
X131355000Y-87967500D03*
X131855000Y-87967500D03*
D14*
X132542500Y-88655000D03*
X132542500Y-89155000D03*
X132542500Y-89655000D03*
X132542500Y-90155000D03*
X132542500Y-90655000D03*
X132542500Y-91155000D03*
X132542500Y-91655000D03*
X132542500Y-92155000D03*
X132542500Y-92655000D03*
X132542500Y-93155000D03*
D13*
X131855000Y-93842500D03*
X131355000Y-93842500D03*
X130855000Y-93842500D03*
X130355000Y-93842500D03*
X129855000Y-93842500D03*
X129355000Y-93842500D03*
X128855000Y-93842500D03*
X128355000Y-93842500D03*
X127855000Y-93842500D03*
X127355000Y-93842500D03*
D14*
X126667500Y-93155000D03*
X126667500Y-92655000D03*
X126667500Y-92155000D03*
X126667500Y-91655000D03*
X126667500Y-91155000D03*
X126667500Y-90655000D03*
X126667500Y-90155000D03*
X126667500Y-89655000D03*
X126667500Y-89155000D03*
X126667500Y-88655000D03*
%TD*%
D15*
%TO.C,Q4*%
X139847500Y-104600000D03*
X139847500Y-106500000D03*
X137972500Y-105550000D03*
%TD*%
D16*
%TO.C,U10*%
X138607500Y-108110000D03*
X138607500Y-109060000D03*
X138607500Y-110010000D03*
X136332500Y-110010000D03*
X136332500Y-108110000D03*
%TD*%
D17*
%TO.C,J4*%
X122780000Y-108835000D03*
X146250000Y-108835000D03*
%TD*%
D18*
%TO.C,H2*%
X119370000Y-112532000D03*
%TD*%
%TO.C,H1*%
X119370000Y-82032000D03*
%TD*%
D19*
%TO.C,J2*%
X146190000Y-80830000D03*
D20*
X144190000Y-80830000D03*
X142190000Y-80830000D03*
X140190000Y-80830000D03*
X138190000Y-80830000D03*
%TD*%
D18*
%TO.C,H3*%
X149870000Y-82032000D03*
%TD*%
%TO.C,H4*%
X149870000Y-112532000D03*
%TD*%
D21*
%TO.C,U7*%
X142760000Y-109807500D03*
X143260000Y-109807500D03*
X143760000Y-109807500D03*
X144260000Y-109807500D03*
D22*
X144422500Y-110470000D03*
X144422500Y-110970000D03*
X144422500Y-111470000D03*
D21*
X144260000Y-112132500D03*
X143760000Y-112132500D03*
X143260000Y-112132500D03*
X142760000Y-112132500D03*
D22*
X142597500Y-111470000D03*
X142597500Y-110970000D03*
X142597500Y-110470000D03*
%TD*%
D23*
%TO.C,C63*%
X149425000Y-107607500D03*
X150385000Y-107607500D03*
%TD*%
D10*
%TO.C,TP7*%
X124212500Y-90185000D03*
%TD*%
D24*
%TO.C,C53*%
X125762500Y-95185000D03*
X125762500Y-96145000D03*
%TD*%
D25*
%TO.C,R12*%
X136410000Y-84020000D03*
X135390000Y-84020000D03*
%TD*%
D26*
%TO.C,R31*%
X122140000Y-101900000D03*
X123160000Y-101900000D03*
%TD*%
D27*
%TO.C,TH1*%
X132527500Y-104452500D03*
X129727500Y-104452500D03*
%TD*%
D25*
%TO.C,R18*%
X135210000Y-90690000D03*
X134190000Y-90690000D03*
%TD*%
D28*
%TO.C,C81*%
X139087500Y-113320000D03*
X138127500Y-113320000D03*
%TD*%
D10*
%TO.C,TP6*%
X122212500Y-90415000D03*
%TD*%
D29*
%TO.C,X1*%
X124030000Y-98135000D03*
D30*
X124955000Y-97660000D03*
D29*
X124030000Y-97185000D03*
D30*
X123105000Y-97660000D03*
%TD*%
D31*
%TO.C,R22*%
X144350000Y-102240000D03*
X144350000Y-103260000D03*
%TD*%
D24*
%TO.C,C37*%
X136422500Y-95695000D03*
X136422500Y-96655000D03*
%TD*%
D31*
%TO.C,R37*%
X125030000Y-113130000D03*
X125030000Y-114150000D03*
%TD*%
D23*
%TO.C,C20*%
X150130000Y-85420000D03*
X151090000Y-85420000D03*
%TD*%
D24*
%TO.C,C52*%
X135292500Y-95695000D03*
X135292500Y-96655000D03*
%TD*%
D23*
%TO.C,C47*%
X136146500Y-93705000D03*
X137106500Y-93705000D03*
%TD*%
D25*
%TO.C,R20*%
X139072500Y-92235000D03*
X138052500Y-92235000D03*
%TD*%
D32*
%TO.C,AE1*%
X119500000Y-97660000D03*
D33*
X117975000Y-99135000D03*
X117975000Y-96185000D03*
%TD*%
D31*
%TO.C,R41*%
X134762500Y-108990000D03*
X134762500Y-110010000D03*
%TD*%
D34*
%TO.C,R17*%
X126792500Y-96185000D03*
X126792500Y-95165000D03*
%TD*%
D35*
%TO.C,C41*%
X139062500Y-91245000D03*
X139062500Y-90285000D03*
%TD*%
D25*
%TO.C,R26*%
X126350000Y-103020000D03*
X125330000Y-103020000D03*
%TD*%
D28*
%TO.C,C22*%
X141247000Y-87085000D03*
X140287000Y-87085000D03*
%TD*%
D10*
%TO.C,TP11*%
X137710000Y-88400000D03*
%TD*%
%TO.C,TP1*%
X144760000Y-82440000D03*
%TD*%
D36*
%TO.C,D5*%
X130640000Y-102315000D03*
X129690000Y-102315000D03*
X128740000Y-102315000D03*
X128740000Y-100040000D03*
X130640000Y-100040000D03*
%TD*%
D25*
%TO.C,R33*%
X125170000Y-101860000D03*
X124150000Y-101860000D03*
%TD*%
D31*
%TO.C,R40*%
X134840000Y-107040000D03*
X134840000Y-108060000D03*
%TD*%
D25*
%TO.C,R25*%
X126370000Y-104040000D03*
X125350000Y-104040000D03*
%TD*%
D10*
%TO.C,TP9*%
X124272500Y-88335000D03*
%TD*%
D23*
%TO.C,C44*%
X134220000Y-88830000D03*
X135180000Y-88830000D03*
%TD*%
%TO.C,C39*%
X134220000Y-86970000D03*
X135180000Y-86970000D03*
%TD*%
D26*
%TO.C,R8*%
X140187000Y-91435000D03*
X141207000Y-91435000D03*
%TD*%
D31*
%TO.C,R15*%
X126952500Y-85465000D03*
X126952500Y-86485000D03*
%TD*%
D35*
%TO.C,C64*%
X150615000Y-106297500D03*
X150615000Y-105337500D03*
%TD*%
D10*
%TO.C,TP10*%
X122282500Y-86795000D03*
%TD*%
D26*
%TO.C,R11*%
X140187000Y-90415000D03*
X141207000Y-90415000D03*
%TD*%
D28*
%TO.C,C83*%
X139087500Y-112310000D03*
X138127500Y-112310000D03*
%TD*%
D37*
%TO.C,U2*%
X148525000Y-84525000D03*
X148525000Y-85175000D03*
X148525000Y-85825000D03*
X148525000Y-86475000D03*
X148525000Y-87125000D03*
X148525000Y-87775000D03*
X148525000Y-88425000D03*
X148525000Y-89075000D03*
X148525000Y-89725000D03*
X148525000Y-90375000D03*
X148525000Y-91025000D03*
X148525000Y-91675000D03*
X148525000Y-92325000D03*
X148525000Y-92975000D03*
X142775000Y-92975000D03*
X142775000Y-92325000D03*
X142775000Y-91675000D03*
X142775000Y-91025000D03*
X142775000Y-90375000D03*
X142775000Y-89725000D03*
X142775000Y-89075000D03*
X142775000Y-88425000D03*
X142775000Y-87775000D03*
X142775000Y-87125000D03*
X142775000Y-86475000D03*
X142775000Y-85825000D03*
X142775000Y-85175000D03*
X142775000Y-84525000D03*
D38*
X145650000Y-88750000D03*
%TD*%
D31*
%TO.C,R30*%
X125150000Y-99900000D03*
X125150000Y-100920000D03*
%TD*%
D35*
%TO.C,C34*%
X128002500Y-86455000D03*
X128002500Y-85495000D03*
%TD*%
D28*
%TO.C,C46*%
X124782500Y-91575000D03*
X123822500Y-91575000D03*
%TD*%
D24*
%TO.C,C51*%
X134262500Y-95695000D03*
X134262500Y-96655000D03*
%TD*%
D26*
%TO.C,R9*%
X140187000Y-92475000D03*
X141207000Y-92475000D03*
%TD*%
D10*
%TO.C,TP22*%
X134350000Y-81820000D03*
%TD*%
D35*
%TO.C,C36*%
X136150000Y-91550000D03*
X136150000Y-90590000D03*
%TD*%
%TO.C,C27*%
X131652500Y-85825000D03*
X131652500Y-84865000D03*
%TD*%
D10*
%TO.C,TP8*%
X122182500Y-88585000D03*
%TD*%
D28*
%TO.C,C55*%
X124702500Y-93685000D03*
X123742500Y-93685000D03*
%TD*%
D39*
%TO.C,C24*%
X140440000Y-85421000D03*
X140440000Y-83197000D03*
%TD*%
D40*
%TO.C,D4*%
X144330000Y-104250000D03*
X145300000Y-104250000D03*
%TD*%
D41*
%TO.C,R29*%
X119860000Y-105785000D03*
X119860000Y-104135000D03*
%TD*%
D10*
%TO.C,TP26*%
X134290000Y-111440000D03*
%TD*%
D28*
%TO.C,C31*%
X126507500Y-97665000D03*
X125547500Y-97665000D03*
%TD*%
D31*
%TO.C,R14*%
X125952500Y-85455000D03*
X125952500Y-86475000D03*
%TD*%
D42*
%TO.C,Q3*%
X130592500Y-108302500D03*
X130592500Y-106402500D03*
X132467500Y-107352500D03*
%TD*%
D10*
%TO.C,TP12*%
X124322500Y-86555000D03*
%TD*%
D23*
%TO.C,C77*%
X135852500Y-113410000D03*
X136812500Y-113410000D03*
%TD*%
D39*
%TO.C,C25*%
X138050000Y-86191000D03*
X138050000Y-83967000D03*
%TD*%
D23*
%TO.C,C57*%
X134220000Y-92675000D03*
X135180000Y-92675000D03*
%TD*%
%TO.C,C43*%
X134220000Y-93705000D03*
X135180000Y-93705000D03*
%TD*%
%TO.C,C48*%
X136146500Y-94725000D03*
X137106500Y-94725000D03*
%TD*%
D28*
%TO.C,C28*%
X124722500Y-94765000D03*
X123762500Y-94765000D03*
%TD*%
D43*
%TO.C,D12*%
X142587500Y-104240000D03*
X141617500Y-104240000D03*
%TD*%
D34*
%TO.C,R10*%
X150100000Y-93030000D03*
X150100000Y-92010000D03*
%TD*%
D24*
%TO.C,C80*%
X133830000Y-107100000D03*
X133830000Y-108060000D03*
%TD*%
%TO.C,C38*%
X132162500Y-95695000D03*
X132162500Y-96655000D03*
%TD*%
D25*
%TO.C,R24*%
X121660000Y-99850000D03*
X120640000Y-99850000D03*
%TD*%
D10*
%TO.C,TP20*%
X130850000Y-80620000D03*
%TD*%
D28*
%TO.C,C75*%
X129450000Y-114290000D03*
X128490000Y-114290000D03*
%TD*%
D26*
%TO.C,R38*%
X130400000Y-109650000D03*
X131420000Y-109650000D03*
%TD*%
D44*
%TO.C,U9*%
X125675000Y-111850000D03*
X125675000Y-111200000D03*
X125675000Y-110550000D03*
X125675000Y-109900000D03*
X127950000Y-109900000D03*
X127950000Y-110550000D03*
X127950000Y-111200000D03*
X127950000Y-111850000D03*
%TD*%
D26*
%TO.C,R19*%
X138062500Y-93375000D03*
X139082500Y-93375000D03*
%TD*%
D35*
%TO.C,C42*%
X137150000Y-91550000D03*
X137150000Y-90590000D03*
%TD*%
D10*
%TO.C,TP5*%
X151580000Y-90060000D03*
%TD*%
%TO.C,TP25*%
X124490000Y-107050000D03*
%TD*%
D26*
%TO.C,R35*%
X140640000Y-103040000D03*
X141660000Y-103040000D03*
%TD*%
D45*
%TO.C,D9*%
X128937500Y-107062500D03*
X128937500Y-108032500D03*
%TD*%
D46*
%TO.C,L5*%
X140722500Y-110505000D03*
X140722500Y-111955000D03*
%TD*%
D47*
%TO.C,C73*%
X126350000Y-107245000D03*
X126350000Y-105695000D03*
%TD*%
D28*
%TO.C,C54*%
X124710000Y-92750000D03*
X123750000Y-92750000D03*
%TD*%
D24*
%TO.C,C45*%
X131162500Y-95695000D03*
X131162500Y-96655000D03*
%TD*%
D10*
%TO.C,TP14*%
X140740000Y-113880000D03*
%TD*%
%TO.C,TP24*%
X126740000Y-80660000D03*
%TD*%
D48*
%TO.C,Q1*%
X122657500Y-100880000D03*
X122657500Y-100380000D03*
X122657500Y-99880000D03*
X124082500Y-99880000D03*
X124082500Y-100380000D03*
X124082500Y-100880000D03*
%TD*%
D34*
%TO.C,R13*%
X139117000Y-88505000D03*
X139117000Y-87485000D03*
%TD*%
D24*
%TO.C,C50*%
X130222500Y-95695000D03*
X130222500Y-96655000D03*
%TD*%
D49*
%TO.C,Y3*%
X150450000Y-88050000D03*
X150450000Y-86650000D03*
X151550000Y-86650000D03*
X151550000Y-88050000D03*
%TD*%
D28*
%TO.C,C71*%
X120170000Y-102880000D03*
X119210000Y-102880000D03*
%TD*%
D24*
%TO.C,C68*%
X145100000Y-113220000D03*
X145100000Y-114180000D03*
%TD*%
D10*
%TO.C,TP3*%
X138860000Y-82180000D03*
%TD*%
D50*
%TO.C,U5*%
X149092500Y-106570000D03*
X148592500Y-106570000D03*
D51*
X148080000Y-106307500D03*
X148080000Y-105807500D03*
X148080000Y-105307500D03*
D50*
X148592500Y-105045000D03*
X149092500Y-105045000D03*
D51*
X149605000Y-105307500D03*
X149605000Y-105807500D03*
X149605000Y-106307500D03*
%TD*%
D34*
%TO.C,R34*%
X126080000Y-114150000D03*
X126080000Y-113130000D03*
%TD*%
D23*
%TO.C,C40*%
X138082500Y-94395000D03*
X139042500Y-94395000D03*
%TD*%
D26*
%TO.C,R27*%
X120640000Y-98830000D03*
X121660000Y-98830000D03*
%TD*%
D23*
%TO.C,C21*%
X150130000Y-84380000D03*
X151090000Y-84380000D03*
%TD*%
D36*
%TO.C,D6*%
X135310000Y-101835000D03*
X134360000Y-101835000D03*
X133410000Y-101835000D03*
X133410000Y-99560000D03*
X135310000Y-99560000D03*
%TD*%
D35*
%TO.C,C72*%
X129430000Y-111470000D03*
X129430000Y-110510000D03*
%TD*%
D23*
%TO.C,C33*%
X128355000Y-97665000D03*
X129315000Y-97665000D03*
%TD*%
D10*
%TO.C,TP2*%
X142710000Y-82470000D03*
%TD*%
D23*
%TO.C,C35*%
X134220000Y-87910000D03*
X135180000Y-87910000D03*
%TD*%
D28*
%TO.C,C74*%
X127880000Y-108610000D03*
X126920000Y-108610000D03*
%TD*%
D24*
%TO.C,C49*%
X133222500Y-95695000D03*
X133222500Y-96655000D03*
%TD*%
D23*
%TO.C,C26*%
X140136000Y-88403000D03*
X141096000Y-88403000D03*
%TD*%
D28*
%TO.C,C76*%
X129440000Y-113210000D03*
X128480000Y-113210000D03*
%TD*%
D25*
%TO.C,R28*%
X121660000Y-100810000D03*
X120640000Y-100810000D03*
%TD*%
%TO.C,R36*%
X139720000Y-103040000D03*
X138700000Y-103040000D03*
%TD*%
D23*
%TO.C,C79*%
X135852500Y-111280000D03*
X136812500Y-111280000D03*
%TD*%
D34*
%TO.C,R21*%
X136160000Y-89660000D03*
X136160000Y-88640000D03*
%TD*%
D52*
%TO.C,D10*%
X127867500Y-104295000D03*
X127867500Y-105870000D03*
%TD*%
D35*
%TO.C,C56*%
X132662500Y-85825000D03*
X132662500Y-84865000D03*
%TD*%
%TO.C,C86*%
X130662500Y-85825000D03*
X130662500Y-84865000D03*
%TD*%
D53*
%TO.C,D8*%
X133920000Y-112951500D03*
D54*
X133920000Y-113863500D03*
%TD*%
D28*
%TO.C,C82*%
X139087500Y-111317000D03*
X138127500Y-111317000D03*
%TD*%
D23*
%TO.C,C78*%
X135852500Y-112350000D03*
X136812500Y-112350000D03*
%TD*%
D31*
%TO.C,R23*%
X142630000Y-102200000D03*
X142630000Y-103220000D03*
%TD*%
%TO.C,R16*%
X129022500Y-85465000D03*
X129022500Y-86485000D03*
%TD*%
D55*
%TO.C,L4*%
X131580000Y-111050000D03*
X131580000Y-113850000D03*
%TD*%
D24*
%TO.C,C69*%
X145570000Y-110370000D03*
X145570000Y-111330000D03*
%TD*%
D23*
%TO.C,C58*%
X134220000Y-89750000D03*
X135180000Y-89750000D03*
%TD*%
D56*
%TO.C,L3*%
X120650000Y-97665000D03*
X120650000Y-96695000D03*
%TD*%
D35*
%TO.C,C62*%
X151610000Y-106290000D03*
X151610000Y-105330000D03*
%TD*%
D34*
%TO.C,R39*%
X124190000Y-110860000D03*
X124190000Y-109840000D03*
%TD*%
D10*
%TO.C,TP23*%
X132800000Y-81980000D03*
%TD*%
D45*
%TO.C,L2*%
X127420000Y-97665000D03*
X127420000Y-98635000D03*
%TD*%
D24*
%TO.C,C29*%
X129232500Y-95695000D03*
X129232500Y-96655000D03*
%TD*%
D28*
%TO.C,C23*%
X141137000Y-89365000D03*
X140177000Y-89365000D03*
%TD*%
D44*
%TO.C,U8*%
X121655000Y-105270000D03*
X121655000Y-104620000D03*
X121655000Y-103970000D03*
X121655000Y-103320000D03*
X123930000Y-103320000D03*
X123930000Y-103970000D03*
X123930000Y-104620000D03*
X123930000Y-105270000D03*
%TD*%
D28*
%TO.C,C32*%
X122500000Y-97665000D03*
X121540000Y-97665000D03*
%TD*%
D24*
%TO.C,C70*%
X144110000Y-113220000D03*
X144110000Y-114180000D03*
%TD*%
M02*
