%TF.GenerationSoftware,KiCad,Pcbnew,9.0.1*%
%TF.CreationDate,2026-02-05T11:07:33+03:00*%
%TF.ProjectId,Flybot_FC,466c7962-6f74-45f4-9643-2e6b69636164,rev?*%
%TF.SameCoordinates,Original*%
%TF.FileFunction,Copper,L1,Top*%
%TF.FilePolarity,Positive*%
%FSLAX46Y46*%
G04 Gerber Fmt 4.6, Leading zero omitted, Abs format (unit mm)*
G04 Created by KiCad (PCBNEW 9.0.1) date 2026-02-05 11:07:33*
%MOMM*%
%LPD*%
G01*
G04 APERTURE LIST*
G04 Aperture macros list*
%AMRoundRect*
0 Rectangle with rounded corners*
0 $1 Rounding radius*
0 $2 $3 $4 $5 $6 $7 $8 $9 X,Y pos of 4 corners*
0 Add a 4 corners polygon primitive as box body*
4,1,4,$2,$3,$4,$5,$6,$7,$8,$9,$2,$3,0*
0 Add four circle primitives for the rounded corners*
1,1,$1+$1,$2,$3*
1,1,$1+$1,$4,$5*
1,1,$1+$1,$6,$7*
1,1,$1+$1,$8,$9*
0 Add four rect primitives between the rounded corners*
20,1,$1+$1,$2,$3,$4,$5,0*
20,1,$1+$1,$4,$5,$6,$7,0*
20,1,$1+$1,$6,$7,$8,$9,0*
20,1,$1+$1,$8,$9,$2,$3,0*%
G04 Aperture macros list end*
%TA.AperFunction,SMDPad,CuDef*%
%ADD10R,1.150000X0.600000*%
%TD*%
%TA.AperFunction,SMDPad,CuDef*%
%ADD11R,1.150000X0.300000*%
%TD*%
%TA.AperFunction,SMDPad,CuDef*%
%ADD12R,1.250000X1.550000*%
%TD*%
%TA.AperFunction,SMDPad,CuDef*%
%ADD13R,1.500000X1.550000*%
%TD*%
%TA.AperFunction,SMDPad,CuDef*%
%ADD14R,1.700000X0.812800*%
%TD*%
%TA.AperFunction,SMDPad,CuDef*%
%ADD15R,1.701800X0.990600*%
%TD*%
%TA.AperFunction,SMDPad,CuDef*%
%ADD16R,1.200000X2.750000*%
%TD*%
%TA.AperFunction,SMDPad,CuDef*%
%ADD17R,0.800000X0.800000*%
%TD*%
%TA.AperFunction,SMDPad,CuDef*%
%ADD18RoundRect,0.147500X0.172500X-0.147500X0.172500X0.147500X-0.172500X0.147500X-0.172500X-0.147500X0*%
%TD*%
%TA.AperFunction,SMDPad,CuDef*%
%ADD19R,1.550000X0.600000*%
%TD*%
%TA.AperFunction,SMDPad,CuDef*%
%ADD20R,1.800000X1.200000*%
%TD*%
%TA.AperFunction,SMDPad,CuDef*%
%ADD21RoundRect,0.135000X0.185000X-0.135000X0.185000X0.135000X-0.185000X0.135000X-0.185000X-0.135000X0*%
%TD*%
%TA.AperFunction,SMDPad,CuDef*%
%ADD22RoundRect,0.140000X-0.140000X-0.170000X0.140000X-0.170000X0.140000X0.170000X-0.140000X0.170000X0*%
%TD*%
%TA.AperFunction,ComponentPad*%
%ADD23R,1.350000X1.350000*%
%TD*%
%TA.AperFunction,ComponentPad*%
%ADD24C,1.350000*%
%TD*%
%TA.AperFunction,SMDPad,CuDef*%
%ADD25RoundRect,0.140000X0.170000X-0.140000X0.170000X0.140000X-0.170000X0.140000X-0.170000X-0.140000X0*%
%TD*%
%TA.AperFunction,SMDPad,CuDef*%
%ADD26RoundRect,0.147500X0.147500X0.172500X-0.147500X0.172500X-0.147500X-0.172500X0.147500X-0.172500X0*%
%TD*%
%TA.AperFunction,SMDPad,CuDef*%
%ADD27RoundRect,0.140000X0.140000X0.170000X-0.140000X0.170000X-0.140000X-0.170000X0.140000X-0.170000X0*%
%TD*%
%TA.AperFunction,SMDPad,CuDef*%
%ADD28RoundRect,0.135000X-0.185000X0.135000X-0.185000X-0.135000X0.185000X-0.135000X0.185000X0.135000X0*%
%TD*%
%TA.AperFunction,SMDPad,CuDef*%
%ADD29C,1.000000*%
%TD*%
%TA.AperFunction,SMDPad,CuDef*%
%ADD30R,1.050000X0.650000*%
%TD*%
%TA.AperFunction,SMDPad,CuDef*%
%ADD31RoundRect,0.135000X-0.135000X-0.185000X0.135000X-0.185000X0.135000X0.185000X-0.135000X0.185000X0*%
%TD*%
%TA.AperFunction,SMDPad,CuDef*%
%ADD32RoundRect,0.087500X-0.087500X0.125000X-0.087500X-0.125000X0.087500X-0.125000X0.087500X0.125000X0*%
%TD*%
%TA.AperFunction,SMDPad,CuDef*%
%ADD33RoundRect,0.087500X-0.125000X0.087500X-0.125000X-0.087500X0.125000X-0.087500X0.125000X0.087500X0*%
%TD*%
%TA.AperFunction,SMDPad,CuDef*%
%ADD34RoundRect,0.135000X0.135000X0.185000X-0.135000X0.185000X-0.135000X-0.185000X0.135000X-0.185000X0*%
%TD*%
%TA.AperFunction,SMDPad,CuDef*%
%ADD35RoundRect,0.140000X-0.170000X0.140000X-0.170000X-0.140000X0.170000X-0.140000X0.170000X0.140000X0*%
%TD*%
%TA.AperFunction,SMDPad,CuDef*%
%ADD36RoundRect,0.087500X0.087500X-0.225000X0.087500X0.225000X-0.087500X0.225000X-0.087500X-0.225000X0*%
%TD*%
%TA.AperFunction,SMDPad,CuDef*%
%ADD37RoundRect,0.087500X0.225000X-0.087500X0.225000X0.087500X-0.225000X0.087500X-0.225000X-0.087500X0*%
%TD*%
%TA.AperFunction,SMDPad,CuDef*%
%ADD38RoundRect,0.075000X-0.725000X-0.075000X0.725000X-0.075000X0.725000X0.075000X-0.725000X0.075000X0*%
%TD*%
%TA.AperFunction,SMDPad,CuDef*%
%ADD39RoundRect,0.075000X-0.075000X-0.725000X0.075000X-0.725000X0.075000X0.725000X-0.075000X0.725000X0*%
%TD*%
%TA.AperFunction,SMDPad,CuDef*%
%ADD40R,0.500000X1.100000*%
%TD*%
%TA.AperFunction,SMDPad,CuDef*%
%ADD41R,4.000000X4.000000*%
%TD*%
%TA.AperFunction,SMDPad,CuDef*%
%ADD42R,1.800000X1.000000*%
%TD*%
%TA.AperFunction,SMDPad,CuDef*%
%ADD43RoundRect,0.147500X-0.172500X0.147500X-0.172500X-0.147500X0.172500X-0.147500X0.172500X0.147500X0*%
%TD*%
%TA.AperFunction,ViaPad*%
%ADD44C,0.400000*%
%TD*%
%TA.AperFunction,ViaPad*%
%ADD45C,0.600000*%
%TD*%
%TA.AperFunction,Conductor*%
%ADD46C,0.254000*%
%TD*%
%TA.AperFunction,Conductor*%
%ADD47C,0.350000*%
%TD*%
%TA.AperFunction,Conductor*%
%ADD48C,0.200000*%
%TD*%
G04 APERTURE END LIST*
D10*
%TO.P,J1,A1,GND*%
%TO.N,GND*%
X146085000Y-100880000D03*
%TO.P,J1,A4,VBUS*%
%TO.N,Net-(C10-Pad1)*%
X146085000Y-100080000D03*
D11*
%TO.P,J1,A5,CC1*%
%TO.N,Net-(J1-CC1)*%
X146085000Y-98930000D03*
%TO.P,J1,A6,D+*%
%TO.N,/STM32F722VC_MCU/USB+*%
X146085000Y-97930000D03*
%TO.P,J1,A7,D-*%
%TO.N,/STM32F722VC_MCU/USB-*%
X146085000Y-97430000D03*
%TO.P,J1,A8,SBU1*%
%TO.N,unconnected-(J1-SBU1-PadA8)*%
X146085000Y-96430000D03*
D10*
%TO.P,J1,B1,GND*%
%TO.N,GND*%
X146085000Y-94480000D03*
%TO.P,J1,B4,VBUS*%
%TO.N,Net-(C10-Pad1)*%
X146085000Y-95280000D03*
D11*
%TO.P,J1,B5,CC2*%
%TO.N,Net-(J1-CC2)*%
X146085000Y-95930000D03*
%TO.P,J1,B6,D+*%
%TO.N,/STM32F722VC_MCU/USB+*%
X146085000Y-96930000D03*
%TO.P,J1,B7,D-*%
%TO.N,/STM32F722VC_MCU/USB-*%
X146085000Y-98430000D03*
%TO.P,J1,B8,SBU2*%
%TO.N,unconnected-(J1-SBU2-PadB8)*%
X146085000Y-99430000D03*
D12*
%TO.P,J1,S1,SHIELD*%
%TO.N,GND*%
X146735000Y-102775000D03*
D13*
X150660000Y-102775000D03*
D12*
X146735000Y-92585000D03*
D13*
X150660000Y-92585000D03*
%TD*%
D14*
%TO.P,J5,MP,MountPin*%
%TO.N,GND*%
X117760000Y-103690000D03*
X117760000Y-99289998D03*
D15*
%TO.P,J5,2,Pin_2*%
X122266400Y-103599998D03*
%TO.P,J5,1,Pin_1*%
%TO.N,Net-(J5-Pin_1)*%
X122266400Y-99400002D03*
%TD*%
D16*
%TO.P,J4,MP,MP*%
%TO.N,GND*%
X122480000Y-106410000D03*
X122480000Y-111260000D03*
X146550000Y-106410000D03*
X146550000Y-111260000D03*
D17*
%TO.P,J4,a1,Pin_a1*%
%TO.N,/ExposedPeripherals/SDA*%
X144040000Y-106835000D03*
%TO.P,J4,a2,Pin_a2*%
%TO.N,/ExposedPeripherals/SCL*%
X142770000Y-106835000D03*
%TO.P,J4,a3,Pin_a3*%
%TO.N,/ExposedPeripherals/CAN1.RX*%
X141500000Y-106835000D03*
%TO.P,J4,a4,Pin_a4*%
%TO.N,/ExposedPeripherals/CAN1.TX*%
X140230000Y-106835000D03*
%TO.P,J4,a5,Pin_a5*%
%TO.N,/ExposedPeripherals/ELRS.USART2.RX*%
X138960000Y-106835000D03*
%TO.P,J4,a6,Pin_a6*%
%TO.N,/ExposedPeripherals/ELRS.USART2.TX*%
X137690000Y-106835000D03*
%TO.P,J4,a7,Pin_a7*%
%TO.N,/ExposedPeripherals/GPS.UART5.RX*%
X136420000Y-106835000D03*
%TO.P,J4,a8,Pin_a8*%
%TO.N,/ExposedPeripherals/GPS.UART5.TX*%
X135150000Y-106835000D03*
%TO.P,J4,a9,Pin_a9*%
%TO.N,/ExposedPeripherals/SPARE.UART8.TX*%
X133880000Y-106835000D03*
%TO.P,J4,a10,Pin_a10*%
%TO.N,/ExposedPeripherals/SPARE.UART8.RX*%
X132610000Y-106835000D03*
%TO.P,J4,a11,Pin_a11*%
%TO.N,GND*%
X131340000Y-106835000D03*
%TO.P,J4,a12,Pin_a12*%
X130070000Y-106835000D03*
%TO.P,J4,a13,Pin_a13*%
X128800000Y-106835000D03*
%TO.P,J4,a14,Pin_a14*%
X127530000Y-106835000D03*
%TO.P,J4,a15,Pin_a15*%
X126260000Y-106835000D03*
%TO.P,J4,a16,Pin_a16*%
X124990000Y-106835000D03*
%TO.P,J4,b1,Pin_b1*%
%TO.N,+3V3*%
X144040000Y-105565000D03*
%TO.P,J4,b2,Pin_b2*%
X142770000Y-105565000D03*
%TO.P,J4,b3,Pin_b3*%
%TO.N,/ExposedPeripherals/ESC5*%
X141500000Y-105565000D03*
%TO.P,J4,b4,Pin_b4*%
%TO.N,/ExposedPeripherals/ESC6*%
X140230000Y-105565000D03*
%TO.P,J4,b5,Pin_b5*%
%TO.N,/ExposedPeripherals/ESC7*%
X138960000Y-105565000D03*
%TO.P,J4,b6,Pin_b6*%
%TO.N,/ExposedPeripherals/ESC8*%
X137690000Y-105565000D03*
%TO.P,J4,b7,Pin_b7*%
%TO.N,+5V*%
X136420000Y-105565000D03*
%TO.P,J4,b8,Pin_b8*%
X135150000Y-105565000D03*
%TO.P,J4,b9,Pin_b9*%
%TO.N,/ExposedPeripherals/ESC4*%
X133880000Y-105565000D03*
%TO.P,J4,b10,Pin_b10*%
%TO.N,/ExposedPeripherals/ESC3*%
X132610000Y-105565000D03*
%TO.P,J4,b11,Pin_b11*%
%TO.N,/ExposedPeripherals/ESC2*%
X131340000Y-105565000D03*
%TO.P,J4,b12,Pin_b12*%
%TO.N,/ExposedPeripherals/ESC1*%
X130070000Y-105565000D03*
%TO.P,J4,b13,Pin_b13*%
%TO.N,+3V3*%
X128800000Y-105565000D03*
%TO.P,J4,b14,Pin_b14*%
X127530000Y-105565000D03*
%TO.P,J4,b15,Pin_b15*%
X126260000Y-105565000D03*
%TO.P,J4,b16,Pin_b16*%
X124990000Y-105565000D03*
%TD*%
D18*
%TO.P,D2,1,K*%
%TO.N,/STM32F722VC_MCU/Blue LED*%
X135120000Y-83202500D03*
%TO.P,D2,2,A*%
%TO.N,Net-(D2-A)*%
X135120000Y-82232500D03*
%TD*%
D19*
%TO.P,J3,1,Pin_1*%
%TO.N,+5V*%
X147590000Y-89410000D03*
%TO.P,J3,2,Pin_2*%
%TO.N,/MAX7456_OSD/VIN*%
X147590000Y-88410000D03*
%TO.P,J3,3,Pin_3*%
%TO.N,GND*%
X147590000Y-87410000D03*
D20*
%TO.P,J3,MP,MountPin*%
X151465000Y-90710000D03*
X151465000Y-86110000D03*
%TD*%
D21*
%TO.P,R2,1*%
%TO.N,Net-(U1-BOOT0)*%
X130930000Y-84270000D03*
%TO.P,R2,2*%
%TO.N,GND*%
X130930000Y-83250000D03*
%TD*%
D22*
%TO.P,C67,1*%
%TO.N,+3V3*%
X130597500Y-82377500D03*
%TO.P,C67,2*%
%TO.N,GND*%
X131557500Y-82377500D03*
%TD*%
D23*
%TO.P,J2,1,Pin_1*%
%TO.N,+3V3*%
X146190000Y-80830000D03*
D24*
%TO.P,J2,2,Pin_2*%
%TO.N,/STM32F722VC_MCU/SWDIO*%
X144190000Y-80830000D03*
%TO.P,J2,3,Pin_3*%
%TO.N,/STM32F722VC_MCU/SWDCLK*%
X142190000Y-80830000D03*
%TO.P,J2,4,Pin_4*%
%TO.N,/STM32F722VC_MCU/NRST*%
X140190000Y-80830000D03*
%TO.P,J2,5,Pin_5*%
%TO.N,GND*%
X138190000Y-80830000D03*
%TD*%
D22*
%TO.P,C10,1*%
%TO.N,Net-(C10-Pad1)*%
X143700000Y-101140000D03*
%TO.P,C10,2*%
%TO.N,GND*%
X144660000Y-101140000D03*
%TD*%
D25*
%TO.P,C84,1*%
%TO.N,+3V3*%
X118450000Y-86170000D03*
%TO.P,C84,2*%
%TO.N,GND*%
X118450000Y-85210000D03*
%TD*%
D18*
%TO.P,D3,1,K*%
%TO.N,/STM32F722VC_MCU/Green LED*%
X136350000Y-83265000D03*
%TO.P,D3,2,A*%
%TO.N,Net-(D3-A)*%
X136350000Y-82295000D03*
%TD*%
D26*
%TO.P,D1,1,A1*%
%TO.N,/STM32F722VC_MCU/USB-*%
X144577500Y-97210000D03*
%TO.P,D1,2,A2*%
%TO.N,GND*%
X143607500Y-97210000D03*
%TD*%
D27*
%TO.P,C15,1*%
%TO.N,/STM32F722VC_MCU/OSC32_IN*%
X123640452Y-88429675D03*
%TO.P,C15,2*%
%TO.N,GND*%
X122680452Y-88429675D03*
%TD*%
D28*
%TO.P,R6,1*%
%TO.N,+3V3*%
X135120000Y-80215000D03*
%TO.P,R6,2*%
%TO.N,Net-(D2-A)*%
X135120000Y-81235000D03*
%TD*%
D27*
%TO.P,C6,1*%
%TO.N,+3V3*%
X123610452Y-87449675D03*
%TO.P,C6,2*%
%TO.N,GND*%
X122650452Y-87449675D03*
%TD*%
D29*
%TO.P,TP15,1,1*%
%TO.N,GND*%
X120220000Y-107990000D03*
%TD*%
D22*
%TO.P,C65,1*%
%TO.N,+3V3*%
X130597500Y-80327500D03*
%TO.P,C65,2*%
%TO.N,GND*%
X131557500Y-80327500D03*
%TD*%
D29*
%TO.P,TP17,1,1*%
%TO.N,+3V3*%
X151290000Y-106630000D03*
%TD*%
D30*
%TO.P,SW1,1,1*%
%TO.N,GND*%
X145625000Y-85345000D03*
X141475000Y-85345000D03*
%TO.P,SW1,2,2*%
%TO.N,/STM32F722VC_MCU/NRST*%
X145625000Y-83195000D03*
X141475000Y-83195000D03*
%TD*%
D31*
%TO.P,R1,1*%
%TO.N,+3V3*%
X138230000Y-83230000D03*
%TO.P,R1,2*%
%TO.N,/STM32F722VC_MCU/NRST*%
X139250000Y-83230000D03*
%TD*%
D32*
%TO.P,U4,1,Vdd_IO*%
%TO.N,+3V3*%
X124602500Y-81860000D03*
%TO.P,U4,2,SPC*%
%TO.N,/SCLK*%
X124102500Y-81860000D03*
D33*
%TO.P,U4,3,GND*%
%TO.N,GND*%
X123590000Y-82122500D03*
%TO.P,U4,4,SDI*%
%TO.N,/MOSI*%
X123590000Y-82622500D03*
%TO.P,U4,5,SDO*%
%TO.N,/MISO*%
X123590000Y-83122500D03*
D32*
%TO.P,U4,6,~{CS}*%
%TO.N,/LPS22HBTR_PressureSensor/MEMS1_CS*%
X124102500Y-83385000D03*
%TO.P,U4,7,INT_DRDY*%
%TO.N,/LPS22HBTR_PressureSensor/MEMS1_INT*%
X124602500Y-83385000D03*
D33*
%TO.P,U4,8,GND*%
%TO.N,GND*%
X125115000Y-83122500D03*
%TO.P,U4,9,GND*%
X125115000Y-82622500D03*
%TO.P,U4,10,VDD*%
%TO.N,+3V3*%
X125115000Y-82122500D03*
%TD*%
D29*
%TO.P,TP13,1,1*%
%TO.N,Batt+*%
X118800000Y-105630000D03*
%TD*%
D27*
%TO.P,C1,1*%
%TO.N,+3V3*%
X124300000Y-97580000D03*
%TO.P,C1,2*%
%TO.N,GND*%
X123340000Y-97580000D03*
%TD*%
D29*
%TO.P,TP27,1,1*%
%TO.N,GND*%
X145440000Y-90100000D03*
%TD*%
D34*
%TO.P,R42,1*%
%TO.N,+3V3*%
X118490000Y-94780000D03*
%TO.P,R42,2*%
%TO.N,/STM32F722VC_MCU/Flash.~{SS}*%
X117470000Y-94780000D03*
%TD*%
D31*
%TO.P,R32,1*%
%TO.N,Net-(J5-Pin_1)*%
X124230000Y-102480000D03*
%TO.P,R32,2*%
%TO.N,Net-(D7-A)*%
X125250000Y-102480000D03*
%TD*%
D25*
%TO.P,C60,1*%
%TO.N,+3V3*%
X124222500Y-80849157D03*
%TO.P,C60,2*%
%TO.N,GND*%
X124222500Y-79889157D03*
%TD*%
D35*
%TO.P,C61,1*%
%TO.N,+3V3*%
X126122500Y-82069500D03*
%TO.P,C61,2*%
%TO.N,GND*%
X126122500Y-83029500D03*
%TD*%
D22*
%TO.P,C4,1*%
%TO.N,+3V3*%
X143090000Y-87330000D03*
%TO.P,C4,2*%
%TO.N,GND*%
X144050000Y-87330000D03*
%TD*%
D29*
%TO.P,TP21,1,1*%
%TO.N,Net-(U1-PD4)*%
X133460000Y-80270000D03*
%TD*%
D35*
%TO.P,C2,1*%
%TO.N,+3V3*%
X128210000Y-102720000D03*
%TO.P,C2,2*%
%TO.N,GND*%
X128210000Y-103680000D03*
%TD*%
D27*
%TO.P,C7,1*%
%TO.N,+3V3*%
X124240000Y-94630000D03*
%TO.P,C7,2*%
%TO.N,GND*%
X123280000Y-94630000D03*
%TD*%
D22*
%TO.P,C9,1*%
%TO.N,VBUS*%
X143720000Y-104090000D03*
%TO.P,C9,2*%
%TO.N,GND*%
X144680000Y-104090000D03*
%TD*%
D36*
%TO.P,U6,1,SDO/SA0*%
%TO.N,/MISO*%
X127860000Y-82952500D03*
%TO.P,U6,2,SDX*%
%TO.N,GND*%
X128360000Y-82952500D03*
%TO.P,U6,3,SCX*%
X128860000Y-82952500D03*
%TO.P,U6,4,INT1*%
%TO.N,/LSM6DSOX_IMU/IMU1_INT*%
X129360000Y-82952500D03*
D37*
%TO.P,U6,5,VDDIO*%
%TO.N,+3V3*%
X129522500Y-82290000D03*
%TO.P,U6,6,GND*%
%TO.N,GND*%
X129522500Y-81790000D03*
%TO.P,U6,7,GND*%
X129522500Y-81290000D03*
D36*
%TO.P,U6,8,VDD*%
%TO.N,+3V3*%
X129360000Y-80627500D03*
%TO.P,U6,9,INT2*%
%TO.N,unconnected-(U6-INT2-Pad9)*%
X128860000Y-80627500D03*
%TO.P,U6,10,NC*%
%TO.N,unconnected-(U6-NC-Pad10)*%
X128360000Y-80627500D03*
%TO.P,U6,11,NC*%
%TO.N,unconnected-(U6-NC-Pad11)*%
X127860000Y-80627500D03*
D37*
%TO.P,U6,12,CS*%
%TO.N,/LSM6DSOX_IMU/IMU1.CS*%
X127697500Y-81290000D03*
%TO.P,U6,13,SCL*%
%TO.N,/SCLK*%
X127697500Y-81790000D03*
%TO.P,U6,14,SDA*%
%TO.N,/MOSI*%
X127697500Y-82290000D03*
%TD*%
D25*
%TO.P,C85,1*%
%TO.N,+3V3*%
X117350000Y-86170000D03*
%TO.P,C85,2*%
%TO.N,GND*%
X117350000Y-85210000D03*
%TD*%
D18*
%TO.P,L1,1,1*%
%TO.N,VBUS*%
X143740000Y-103110000D03*
%TO.P,L1,2,2*%
%TO.N,Net-(C10-Pad1)*%
X143740000Y-102140000D03*
%TD*%
D34*
%TO.P,R3,1*%
%TO.N,Net-(J1-CC1)*%
X144720000Y-99560000D03*
%TO.P,R3,2*%
%TO.N,GND*%
X143700000Y-99560000D03*
%TD*%
D35*
%TO.P,C11,1*%
%TO.N,/STM32F722VC_MCU/NRST*%
X140150000Y-83200000D03*
%TO.P,C11,2*%
%TO.N,GND*%
X140150000Y-84160000D03*
%TD*%
D22*
%TO.P,C18,1*%
%TO.N,Net-(U1-VCAP_1)*%
X143000000Y-88560000D03*
%TO.P,C18,2*%
%TO.N,GND*%
X143960000Y-88560000D03*
%TD*%
%TO.P,C66,1*%
%TO.N,+3V3*%
X130597500Y-81337500D03*
%TO.P,C66,2*%
%TO.N,GND*%
X131557500Y-81337500D03*
%TD*%
D27*
%TO.P,C13,1*%
%TO.N,Net-(U1-VREF+)*%
X124250000Y-96650000D03*
%TO.P,C13,2*%
%TO.N,GND*%
X123290000Y-96650000D03*
%TD*%
D26*
%TO.P,D11,1,A1*%
%TO.N,/STM32F722VC_MCU/USB+*%
X144577500Y-98460000D03*
%TO.P,D11,2,A2*%
%TO.N,GND*%
X143607500Y-98460000D03*
%TD*%
D38*
%TO.P,U1,1,PE2*%
%TO.N,/STM32F722VC_MCU/Flash.CLK*%
X126085000Y-87475000D03*
%TO.P,U1,2,PE3*%
%TO.N,/LPS22HBTR_PressureSensor/MEMS1_CS*%
X126085000Y-87975000D03*
%TO.P,U1,3,PE4*%
%TO.N,/STM32F722VC_MCU/Flash.~{SS}*%
X126085000Y-88475000D03*
%TO.P,U1,4,PE5*%
%TO.N,/STM32F722VC_MCU/Flash.MISO*%
X126085000Y-88975000D03*
%TO.P,U1,5,PE6*%
%TO.N,/STM32F722VC_MCU/Flash.MOSI*%
X126085000Y-89475000D03*
%TO.P,U1,6,VBAT*%
%TO.N,+3V3*%
X126085000Y-89975000D03*
%TO.P,U1,7,PC13*%
%TO.N,unconnected-(U1-PC13-Pad7)*%
X126085000Y-90475000D03*
%TO.P,U1,8,PC14*%
%TO.N,/STM32F722VC_MCU/OSC32_IN*%
X126085000Y-90975000D03*
%TO.P,U1,9,PC15*%
%TO.N,/STM32F722VC_MCU/OSC32_OUT*%
X126085000Y-91475000D03*
%TO.P,U1,10,VSS*%
%TO.N,GND*%
X126085000Y-91975000D03*
%TO.P,U1,11,VDD*%
%TO.N,+3V3*%
X126085000Y-92475000D03*
%TO.P,U1,12,PH0*%
%TO.N,unconnected-(U1-PH0-Pad12)*%
X126085000Y-92975000D03*
%TO.P,U1,13,PH1*%
%TO.N,unconnected-(U1-PH1-Pad13)*%
X126085000Y-93475000D03*
%TO.P,U1,14,NRST*%
%TO.N,/STM32F722VC_MCU/NRST*%
X126085000Y-93975000D03*
%TO.P,U1,15,PC0*%
%TO.N,/LPS22HBTR_PressureSensor/MEMS1_INT*%
X126085000Y-94475000D03*
%TO.P,U1,16,PC1*%
%TO.N,/MOSI*%
X126085000Y-94975000D03*
%TO.P,U1,17,PC2*%
%TO.N,/MISO*%
X126085000Y-95475000D03*
%TO.P,U1,18,PC3*%
%TO.N,unconnected-(U1-PC3-Pad18)*%
X126085000Y-95975000D03*
%TO.P,U1,19,VSSA*%
%TO.N,GND*%
X126085000Y-96475000D03*
%TO.P,U1,20,VREF+*%
%TO.N,Net-(U1-VREF+)*%
X126085000Y-96975000D03*
%TO.P,U1,21,VDDA*%
%TO.N,+3V3*%
X126085000Y-97475000D03*
%TO.P,U1,22,PA0*%
%TO.N,/Battery_Monitoring/V.bat_sense_ctrl*%
X126085000Y-97975000D03*
%TO.P,U1,23,PA1*%
%TO.N,unconnected-(U1-PA1-Pad23)*%
X126085000Y-98475000D03*
%TO.P,U1,24,PA2*%
%TO.N,/ExposedPeripherals/ELRS.USART2.TX*%
X126085000Y-98975000D03*
%TO.P,U1,25,PA3*%
%TO.N,/ExposedPeripherals/ELRS.USART2.RX*%
X126085000Y-99475000D03*
D39*
%TO.P,U1,26,VSS*%
%TO.N,GND*%
X127760000Y-101150000D03*
%TO.P,U1,27,VDD*%
%TO.N,+3V3*%
X128260000Y-101150000D03*
%TO.P,U1,28,PA4*%
%TO.N,/MAX7456_OSD/OSD.~{CS}*%
X128760000Y-101150000D03*
%TO.P,U1,29,PA5*%
%TO.N,/MAX7456_OSD/0SD.SCLK*%
X129260000Y-101150000D03*
%TO.P,U1,30,PA6*%
%TO.N,/MAX7456_OSD/OSD.MISO*%
X129760000Y-101150000D03*
%TO.P,U1,31,PA7*%
%TO.N,/MAX7456_OSD/OSD.MOSI*%
X130260000Y-101150000D03*
%TO.P,U1,32,PC4*%
%TO.N,unconnected-(U1-PC4-Pad32)*%
X130760000Y-101150000D03*
%TO.P,U1,33,PC5*%
%TO.N,unconnected-(U1-PC5-Pad33)*%
X131260000Y-101150000D03*
%TO.P,U1,34,PB0*%
%TO.N,/Battery_Monitoring/V.BAT*%
X131760000Y-101150000D03*
%TO.P,U1,35,PB1*%
%TO.N,unconnected-(U1-PB1-Pad35)*%
X132260000Y-101150000D03*
%TO.P,U1,36,PB2*%
%TO.N,/ML5805_VTX/VTX.SDO*%
X132760000Y-101150000D03*
%TO.P,U1,37,PE7*%
%TO.N,unconnected-(U1-PE7-Pad37)*%
X133260000Y-101150000D03*
%TO.P,U1,38,PE8*%
%TO.N,/LSM6DSOX_IMU/IMU2_INT*%
X133760000Y-101150000D03*
%TO.P,U1,39,PE9*%
%TO.N,/ExposedPeripherals/ESC1*%
X134260000Y-101150000D03*
%TO.P,U1,40,PE10*%
%TO.N,/LPS22HBTR_PressureSensor/MEMS2_CS*%
X134760000Y-101150000D03*
%TO.P,U1,41,PE11*%
%TO.N,/ExposedPeripherals/ESC2*%
X135260000Y-101150000D03*
%TO.P,U1,42,PE12*%
%TO.N,unconnected-(U1-PE12-Pad42)*%
X135760000Y-101150000D03*
%TO.P,U1,43,PE13*%
%TO.N,/ExposedPeripherals/ESC3*%
X136260000Y-101150000D03*
%TO.P,U1,44,PE14*%
%TO.N,/ExposedPeripherals/ESC4*%
X136760000Y-101150000D03*
%TO.P,U1,45,PE15*%
%TO.N,/LPS22HBTR_PressureSensor/MEMS2_INT*%
X137260000Y-101150000D03*
%TO.P,U1,46,PB10*%
%TO.N,/Battery_Monitoring/Sense.SCL*%
X137760000Y-101150000D03*
%TO.P,U1,47,PB11*%
%TO.N,/Battery_Monitoring/Sense.SDA*%
X138260000Y-101150000D03*
%TO.P,U1,48,VCAP_1*%
%TO.N,Net-(U1-VCAP_1)*%
X138760000Y-101150000D03*
%TO.P,U1,49,VSS*%
%TO.N,GND*%
X139260000Y-101150000D03*
%TO.P,U1,50,VDD*%
%TO.N,+3V3*%
X139760000Y-101150000D03*
D38*
%TO.P,U1,51,PB12*%
%TO.N,/LSM6DSOX_IMU/IMU2.CS*%
X141435000Y-99475000D03*
%TO.P,U1,52,PB13*%
%TO.N,/SCLK*%
X141435000Y-98975000D03*
%TO.P,U1,53,PB14*%
%TO.N,unconnected-(U1-PB14-Pad53)*%
X141435000Y-98475000D03*
%TO.P,U1,54,PB15*%
%TO.N,/STM32F722VC_MCU/Green LED*%
X141435000Y-97975000D03*
%TO.P,U1,55,PD8*%
%TO.N,unconnected-(U1-PD8-Pad55)*%
X141435000Y-97475000D03*
%TO.P,U1,56,PD9*%
%TO.N,unconnected-(U1-PD9-Pad56)*%
X141435000Y-96975000D03*
%TO.P,U1,57,PD10*%
%TO.N,unconnected-(U1-PD10-Pad57)*%
X141435000Y-96475000D03*
%TO.P,U1,58,PD11*%
%TO.N,unconnected-(U1-PD11-Pad58)*%
X141435000Y-95975000D03*
%TO.P,U1,59,PD12*%
%TO.N,unconnected-(U1-PD12-Pad59)*%
X141435000Y-95475000D03*
%TO.P,U1,60,PD13*%
%TO.N,/MAX7456_OSD/LOS*%
X141435000Y-94975000D03*
%TO.P,U1,61,PD14*%
%TO.N,/MAX7456_OSD/~{HSYNC}*%
X141435000Y-94475000D03*
%TO.P,U1,62,PD15*%
%TO.N,/MAX7456_OSD/~{VSYNC}*%
X141435000Y-93975000D03*
%TO.P,U1,63,PC6*%
%TO.N,/ExposedPeripherals/ESC5*%
X141435000Y-93475000D03*
%TO.P,U1,64,PC7*%
%TO.N,/ExposedPeripherals/ESC6*%
X141435000Y-92975000D03*
%TO.P,U1,65,PC8*%
%TO.N,/ExposedPeripherals/ESC7*%
X141435000Y-92475000D03*
%TO.P,U1,66,PC9*%
%TO.N,/ExposedPeripherals/ESC8*%
X141435000Y-91975000D03*
%TO.P,U1,67,PA8*%
%TO.N,/MAX7456_OSD/OSD.~{RESET}*%
X141435000Y-91475000D03*
%TO.P,U1,68,PA9*%
%TO.N,unconnected-(U1-PA9-Pad68)*%
X141435000Y-90975000D03*
%TO.P,U1,69,PA10*%
%TO.N,unconnected-(U1-PA10-Pad69)*%
X141435000Y-90475000D03*
%TO.P,U1,70,PA11*%
%TO.N,/STM32F722VC_MCU/USB+*%
X141435000Y-89975000D03*
%TO.P,U1,71,PA12*%
%TO.N,/STM32F722VC_MCU/USB-*%
X141435000Y-89475000D03*
%TO.P,U1,72,PA13*%
%TO.N,/STM32F722VC_MCU/SWDIO*%
X141435000Y-88975000D03*
%TO.P,U1,73,VCAP_2*%
%TO.N,Net-(U1-VCAP_1)*%
X141435000Y-88475000D03*
%TO.P,U1,74,VSS*%
%TO.N,GND*%
X141435000Y-87975000D03*
%TO.P,U1,75,VDD*%
%TO.N,+3V3*%
X141435000Y-87475000D03*
D39*
%TO.P,U1,76,PA14*%
%TO.N,/STM32F722VC_MCU/SWDCLK*%
X139760000Y-85800000D03*
%TO.P,U1,77,PA15*%
%TO.N,/ML5805_VTX/VTX.CS*%
X139260000Y-85800000D03*
%TO.P,U1,78,PC10*%
%TO.N,/ML5805_VTX/VTX.CLK*%
X138760000Y-85800000D03*
%TO.P,U1,79,PC11*%
%TO.N,/STM32F722VC_MCU/Blue LED*%
X138260000Y-85800000D03*
%TO.P,U1,80,PC12*%
%TO.N,/ExposedPeripherals/GPS.UART5.TX*%
X137760000Y-85800000D03*
%TO.P,U1,81,PD0*%
%TO.N,/ExposedPeripherals/CAN1.RX*%
X137260000Y-85800000D03*
%TO.P,U1,82,PD1*%
%TO.N,/ExposedPeripherals/CAN1.TX*%
X136760000Y-85800000D03*
%TO.P,U1,83,PD2*%
%TO.N,/ExposedPeripherals/GPS.UART5.RX*%
X136260000Y-85800000D03*
%TO.P,U1,84,PD3*%
%TO.N,Net-(U1-PD3)*%
X135760000Y-85800000D03*
%TO.P,U1,85,PD4*%
%TO.N,Net-(U1-PD4)*%
X135260000Y-85800000D03*
%TO.P,U1,86,PD5*%
%TO.N,Net-(U1-PD5)*%
X134760000Y-85800000D03*
%TO.P,U1,87,PD6*%
%TO.N,Net-(U1-PD6)*%
X134260000Y-85800000D03*
%TO.P,U1,88,PD7*%
%TO.N,Net-(U1-PD7)*%
X133760000Y-85800000D03*
%TO.P,U1,89,PB3*%
%TO.N,unconnected-(U1-PB3-Pad89)*%
X133260000Y-85800000D03*
%TO.P,U1,90,PB4*%
%TO.N,unconnected-(U1-PB4-Pad90)*%
X132760000Y-85800000D03*
%TO.P,U1,91,PB5*%
%TO.N,/ML5805_VTX/VTX.XCEN*%
X132260000Y-85800000D03*
%TO.P,U1,92,PB6*%
%TO.N,/ExposedPeripherals/SCL*%
X131760000Y-85800000D03*
%TO.P,U1,93,PB7*%
%TO.N,/ExposedPeripherals/SDA*%
X131260000Y-85800000D03*
%TO.P,U1,94,BOOT0*%
%TO.N,Net-(U1-BOOT0)*%
X130760000Y-85800000D03*
%TO.P,U1,95,PB8*%
%TO.N,/LSM6DSOX_IMU/IMU1_INT*%
X130260000Y-85800000D03*
%TO.P,U1,96,PB9*%
%TO.N,/LSM6DSOX_IMU/IMU1.CS*%
X129760000Y-85800000D03*
%TO.P,U1,97,PE0*%
%TO.N,/ExposedPeripherals/SPARE.UART8.RX*%
X129260000Y-85800000D03*
%TO.P,U1,98,PE1*%
%TO.N,/ExposedPeripherals/SPARE.UART8.TX*%
X128760000Y-85800000D03*
%TO.P,U1,99,VSS*%
%TO.N,GND*%
X128260000Y-85800000D03*
%TO.P,U1,100,VDD*%
%TO.N,+3V3*%
X127760000Y-85800000D03*
%TD*%
D40*
%TO.P,U11,1,~{CS}*%
%TO.N,/STM32F722VC_MCU/Flash.~{SS}*%
X117495000Y-93330000D03*
%TO.P,U11,2,DO/IO_{1}*%
%TO.N,/STM32F722VC_MCU/Flash.MISO*%
X118765000Y-93330000D03*
%TO.P,U11,3,~{WP}/IO_{2}*%
%TO.N,Net-(U11-~{WP}{slash}IO_{2})*%
X120035000Y-93330000D03*
%TO.P,U11,4,GND*%
%TO.N,GND*%
X121305000Y-93330000D03*
%TO.P,U11,5,DI/IO_{0}*%
%TO.N,/STM32F722VC_MCU/Flash.MOSI*%
X121305000Y-87530000D03*
%TO.P,U11,6,CLK*%
%TO.N,/STM32F722VC_MCU/Flash.CLK*%
X120035000Y-87530000D03*
%TO.P,U11,7,~{HOLD}/~{RESET}/IO_{3}*%
%TO.N,Net-(U11-~{HOLD}{slash}~{RESET}{slash}IO_{3})*%
X118765000Y-87530000D03*
%TO.P,U11,8,VCC*%
%TO.N,+3V3*%
X117495000Y-87530000D03*
D41*
%TO.P,U11,9,EP*%
%TO.N,GND*%
X119400000Y-90430000D03*
%TD*%
D27*
%TO.P,C14,1*%
%TO.N,/STM32F722VC_MCU/OSC32_OUT*%
X124000000Y-93540000D03*
%TO.P,C14,2*%
%TO.N,GND*%
X123040000Y-93540000D03*
%TD*%
D35*
%TO.P,C19,1*%
%TO.N,Net-(U1-VCAP_1)*%
X138640000Y-102730000D03*
%TO.P,C19,2*%
%TO.N,GND*%
X138640000Y-103690000D03*
%TD*%
D25*
%TO.P,C59,1*%
%TO.N,+3V3*%
X125227000Y-80849157D03*
%TO.P,C59,2*%
%TO.N,GND*%
X125227000Y-79889157D03*
%TD*%
D27*
%TO.P,C12,1*%
%TO.N,Net-(U1-VREF+)*%
X124260000Y-95710000D03*
%TO.P,C12,2*%
%TO.N,GND*%
X123300000Y-95710000D03*
%TD*%
D35*
%TO.P,C8,1*%
%TO.N,+3V3*%
X127220000Y-102700000D03*
%TO.P,C8,2*%
%TO.N,GND*%
X127220000Y-103660000D03*
%TD*%
D27*
%TO.P,C5,1*%
%TO.N,+3V3*%
X127560000Y-84250000D03*
%TO.P,C5,2*%
%TO.N,GND*%
X126600000Y-84250000D03*
%TD*%
D42*
%TO.P,Y1,1,1*%
%TO.N,/STM32F722VC_MCU/OSC32_OUT*%
X123350000Y-92230000D03*
%TO.P,Y1,2,2*%
%TO.N,/STM32F722VC_MCU/OSC32_IN*%
X123350000Y-89730000D03*
%TD*%
D28*
%TO.P,R7,1*%
%TO.N,+3V3*%
X136350000Y-80255000D03*
%TO.P,R7,2*%
%TO.N,Net-(D3-A)*%
X136350000Y-81275000D03*
%TD*%
D29*
%TO.P,TP18,1,1*%
%TO.N,Net-(U11-~{WP}{slash}IO_{2})*%
X121140000Y-95440000D03*
%TD*%
D43*
%TO.P,D7,1,K*%
%TO.N,GND*%
X126210000Y-101545000D03*
%TO.P,D7,2,A*%
%TO.N,Net-(D7-A)*%
X126210000Y-102515000D03*
%TD*%
D21*
%TO.P,R4,1*%
%TO.N,Net-(J1-CC2)*%
X144710000Y-95750000D03*
%TO.P,R4,2*%
%TO.N,GND*%
X144710000Y-94730000D03*
%TD*%
D35*
%TO.P,C3,1*%
%TO.N,+3V3*%
X139780000Y-102690000D03*
%TO.P,C3,2*%
%TO.N,GND*%
X139780000Y-103650000D03*
%TD*%
D29*
%TO.P,TP19,1,1*%
%TO.N,Net-(U11-~{HOLD}{slash}~{RESET}{slash}IO_{3})*%
X119910000Y-85190000D03*
%TD*%
D44*
%TO.N,+3V3*%
X151840000Y-89090000D03*
D45*
%TO.N,GND*%
X145100000Y-94190000D03*
D44*
X122610000Y-87850000D03*
X127720000Y-103450000D03*
X150940000Y-83810000D03*
X132080000Y-81350000D03*
X123280000Y-95130000D03*
X147850000Y-106680000D03*
X143980000Y-98880000D03*
X135150000Y-93190000D03*
X118350000Y-84640000D03*
X129340000Y-88960000D03*
D45*
X123590000Y-105870000D03*
X134152732Y-109911360D03*
D44*
X135560000Y-86970000D03*
X128430000Y-113780000D03*
X127270000Y-96600000D03*
X143330000Y-83960000D03*
X137090000Y-94170000D03*
X122240000Y-93480000D03*
X147380000Y-111050000D03*
X128530000Y-82070000D03*
X130070000Y-103210000D03*
X128950000Y-81570000D03*
X124820000Y-82820000D03*
X145700000Y-107240000D03*
D45*
X125580000Y-106510000D03*
D44*
X119570000Y-90640000D03*
X143980000Y-89050000D03*
X140180000Y-87660000D03*
X145070000Y-84740000D03*
D45*
X122820000Y-96580000D03*
D44*
X150100000Y-105580000D03*
X117770000Y-103250000D03*
D45*
X137440000Y-112280000D03*
D44*
X139070000Y-89810000D03*
X151830000Y-85140000D03*
X117520000Y-99990000D03*
X117390000Y-84610000D03*
X128220000Y-84700000D03*
X143480000Y-109290000D03*
X142970000Y-112570000D03*
X144100000Y-100040000D03*
X125850000Y-83520000D03*
D45*
X123390000Y-111650000D03*
D44*
X139270000Y-103620000D03*
D45*
X119450000Y-108000000D03*
D44*
X150850000Y-104850000D03*
D45*
X137370000Y-111300000D03*
D44*
X143810000Y-87800000D03*
X147770000Y-102770000D03*
D45*
X126990000Y-101490000D03*
D44*
X117930000Y-95450000D03*
D45*
X124750000Y-109810000D03*
D44*
X150670000Y-101710000D03*
X149740000Y-86910000D03*
D45*
X128150000Y-106487500D03*
D44*
X123450000Y-81710000D03*
X119250000Y-96140000D03*
D45*
X124330000Y-114100000D03*
D44*
X139250000Y-102170000D03*
X145620000Y-111790000D03*
D45*
X130670000Y-107110000D03*
X131900000Y-109520000D03*
D44*
X126845000Y-84845000D03*
X146960000Y-93580000D03*
D45*
X137470000Y-113380000D03*
X121560000Y-106570000D03*
D44*
X143607500Y-96782500D03*
D45*
X135880000Y-97400000D03*
D44*
X143860000Y-111130000D03*
X152170000Y-91460000D03*
X127480000Y-92090000D03*
D45*
X126320000Y-108620000D03*
D44*
X139710000Y-89540000D03*
X131570000Y-81840000D03*
X120420000Y-96230000D03*
X141960000Y-103590000D03*
X151550000Y-104750000D03*
X124690000Y-79860000D03*
X150370000Y-108210000D03*
D45*
X125050000Y-96420000D03*
X123680000Y-101810000D03*
D44*
X118300000Y-99940000D03*
D45*
X119580000Y-102190000D03*
D44*
X122360000Y-91290000D03*
D45*
X122841400Y-101516242D03*
X137701165Y-109438970D03*
X136470000Y-97760000D03*
X126860000Y-106440000D03*
D44*
X145650000Y-88750000D03*
X138230000Y-95270000D03*
X130460000Y-83230000D03*
X137140000Y-90080000D03*
X140670000Y-84170000D03*
X144670000Y-114130000D03*
X151377225Y-88676328D03*
X138510000Y-104200000D03*
X135650000Y-89160000D03*
X121290000Y-94010000D03*
X123260000Y-94080000D03*
D45*
X131000000Y-97360000D03*
D44*
X131560000Y-79860000D03*
X145310000Y-103700000D03*
X134070000Y-103240000D03*
X124880000Y-98560000D03*
D45*
X122540349Y-104098977D03*
D44*
X152170000Y-92590000D03*
X149500000Y-86520000D03*
X145150000Y-101000000D03*
D45*
%TO.N,+3V3*%
X133480000Y-110487360D03*
D44*
X143750000Y-107910000D03*
D45*
X139190000Y-111750000D03*
D44*
X136146500Y-94163500D03*
X135710000Y-80150000D03*
D45*
X121960000Y-102704696D03*
D44*
X140200000Y-102120000D03*
X142040000Y-102200000D03*
X129330000Y-80020000D03*
X122210000Y-95060000D03*
X124440000Y-95050000D03*
X119440000Y-94720000D03*
X131485000Y-87005000D03*
X128925000Y-94895000D03*
X127600000Y-83730000D03*
D45*
X126822433Y-102989570D03*
D44*
X150170000Y-106340000D03*
D45*
%TO.N,VBUS*%
X143380000Y-104620000D03*
D44*
%TO.N,/STM32F722VC_MCU/NRST*%
X136860000Y-88640000D03*
X139240000Y-84300000D03*
%TO.N,+5V*%
X150940000Y-89010000D03*
D45*
X149560256Y-84080974D03*
X149950000Y-94040000D03*
X136760000Y-104850000D03*
D44*
X135130000Y-113070000D03*
%TO.N,/MAX7456_OSD/VIN*%
X139670000Y-88040000D03*
%TO.N,Net-(U3-VCCSYN)*%
X133510000Y-89350000D03*
X133490000Y-92650000D03*
%TO.N,Net-(U3-VREGRX)*%
X130780000Y-94640000D03*
X129690000Y-94890000D03*
%TO.N,/ML5805_VTX/VREGPA*%
X126260000Y-100200000D03*
X122070000Y-92160000D03*
%TO.N,Net-(D8-A)*%
X140720000Y-114680000D03*
X140740000Y-109270000D03*
%TO.N,/STM32F722VC_MCU/USB-*%
X145250000Y-97430000D03*
X147060000Y-98450000D03*
%TO.N,/STM32F722VC_MCU/Green LED*%
X136890000Y-83330000D03*
X142600000Y-97410000D03*
%TO.N,/ExposedPeripherals/SCL*%
X142600000Y-103740000D03*
X143045000Y-107965000D03*
X132200000Y-83590000D03*
%TO.N,/ExposedPeripherals/SDA*%
X131600000Y-83560000D03*
X144760000Y-104820000D03*
%TO.N,/ExposedPeripherals/CAN1.RX*%
X131540000Y-98190000D03*
X131900000Y-102380000D03*
X137250000Y-87070000D03*
X133930000Y-109040000D03*
%TO.N,/ExposedPeripherals/CAN1.TX*%
X136700122Y-87058300D03*
X131280000Y-103060000D03*
X130770000Y-98690000D03*
X132780000Y-108700000D03*
%TO.N,/ExposedPeripherals/ELRS.USART2.RX*%
X128850000Y-103320000D03*
X132040000Y-108320000D03*
X127130000Y-99680000D03*
%TO.N,/ExposedPeripherals/ELRS.USART2.TX*%
X127650000Y-99360000D03*
X131290000Y-107660000D03*
%TO.N,/ExposedPeripherals/SPARE.UART8.TX*%
X132936798Y-97760000D03*
X128478288Y-84214418D03*
X134400000Y-106360000D03*
%TO.N,/ExposedPeripherals/GPS.UART5.RX*%
X136110003Y-86970000D03*
X135900000Y-107410000D03*
X135310000Y-98010000D03*
%TO.N,/ExposedPeripherals/GPS.UART5.TX*%
X133486700Y-97749490D03*
X137870000Y-87070000D03*
X135430000Y-106330000D03*
%TO.N,/ExposedPeripherals/SPARE.UART8.RX*%
X132030000Y-97320000D03*
X128980000Y-83920000D03*
X133140000Y-106310000D03*
%TO.N,/STM32F722VC_MCU/SWDIO*%
X139250000Y-89130000D03*
X144140000Y-83840000D03*
%TO.N,/STM32F722VC_MCU/SWDCLK*%
X142340000Y-83690000D03*
D45*
%TO.N,Batt+*%
X123517300Y-99418871D03*
X118800000Y-105630000D03*
X128650000Y-104330000D03*
D44*
%TO.N,/MAX7456_OSD/~{HSYNC}*%
X142510000Y-94390000D03*
%TO.N,/MAX7456_OSD/~{VSYNC}*%
X142540000Y-93770000D03*
%TO.N,/MAX7456_OSD/LOS*%
X142460000Y-94980000D03*
%TO.N,/MAX7456_OSD/OSD.~{RESET}*%
X143870000Y-91550000D03*
%TO.N,/ML5805_VTX/VTX.XCEN*%
X132530000Y-83070000D03*
%TO.N,/Battery_Monitoring/Sense.SDA*%
X125580000Y-104530000D03*
X138220000Y-102140000D03*
%TO.N,/Battery_Monitoring/Sense.SCL*%
X137760000Y-100330000D03*
X124860000Y-103520000D03*
D45*
%TO.N,/Battery_Monitoring/V.bat_sense_ctrl*%
X120040000Y-100700000D03*
D44*
X121430000Y-96770000D03*
D45*
%TO.N,Net-(J5-Pin_1)*%
X119860000Y-104935000D03*
D44*
%TO.N,/Battery_Monitoring/V.BAT*%
X131360000Y-99970000D03*
X127090000Y-100330000D03*
%TO.N,/STM32F722VC_MCU/Flash.~{SS}*%
X117470000Y-94150000D03*
X120630000Y-86270000D03*
%TO.N,Net-(U1-PD3)*%
X135830000Y-84600000D03*
%TO.N,Net-(U1-PD5)*%
X133850000Y-81310000D03*
%TO.N,Net-(U1-PD6)*%
X132710000Y-81960000D03*
%TO.N,Net-(U1-PD7)*%
X132200000Y-82620000D03*
%TO.N,/STM32F722VC_MCU/Flash.MOSI*%
X124780000Y-84870000D03*
X120760000Y-87670000D03*
%TO.N,/LPS22HBTR_PressureSensor/MEMS2_INT*%
X137730000Y-102710000D03*
%TO.N,/MAX7456_OSD/0SD.SCLK*%
X138235665Y-97080000D03*
X143960000Y-95820000D03*
%TO.N,/MOSI*%
X127245000Y-82335000D03*
X145430000Y-106270000D03*
X127320000Y-83250000D03*
X123930000Y-82600000D03*
X143290000Y-110470000D03*
X127900000Y-95420000D03*
%TO.N,/ExposedPeripherals/ESC7*%
X139246035Y-95822777D03*
X140350000Y-101040000D03*
%TO.N,/LSM6DSOX_IMU/IMU2_INT*%
X134240000Y-99920000D03*
X144070000Y-108970000D03*
%TO.N,/ExposedPeripherals/ESC6*%
X140445000Y-100315000D03*
X139770000Y-95990000D03*
%TO.N,/LSM6DSOX_IMU/IMU2.CS*%
X142040000Y-100300000D03*
X143270000Y-111360000D03*
%TO.N,/ML5805_VTX/VTX.SDO*%
X132574959Y-97245687D03*
X130361595Y-87402197D03*
%TO.N,/MAX7456_OSD/OSD.MISO*%
X137480000Y-96820000D03*
X143920000Y-94450000D03*
X149670000Y-91170000D03*
%TO.N,/ExposedPeripherals/ESC5*%
X140281396Y-95787572D03*
X141127962Y-100060799D03*
%TO.N,/ML5805_VTX/VTX.CS*%
X129797500Y-87402500D03*
%TO.N,/MISO*%
X142760000Y-109040000D03*
X128368922Y-83675398D03*
X127609432Y-95886984D03*
X123570000Y-83850000D03*
%TO.N,/LPS22HBTR_PressureSensor/MEMS2_CS*%
X146000000Y-104290000D03*
X137000000Y-98590000D03*
%TO.N,/ML5805_VTX/VTX.CLK*%
X130985892Y-87304108D03*
%TO.N,/SCLK*%
X124000000Y-81480000D03*
X148380000Y-107470000D03*
X142910000Y-98910000D03*
X142010000Y-110990000D03*
X126870000Y-81850000D03*
X148380000Y-99680000D03*
%TO.N,/STM32F722VC_MCU/Flash.MISO*%
X119050000Y-94290000D03*
X120640000Y-86960000D03*
%TO.N,/LSM6DSOX_IMU/IMU1.CS*%
X129770000Y-84610000D03*
X128270000Y-81410000D03*
%TO.N,/ExposedPeripherals/ESC8*%
X137490000Y-103360000D03*
X138749678Y-96059700D03*
%TO.N,/MAX7456_OSD/OSD.~{CS}*%
X142830000Y-98280000D03*
X137310000Y-95420000D03*
%TO.N,/MAX7456_OSD/OSD.MOSI*%
X144970000Y-96500000D03*
X137800000Y-97420000D03*
%TO.N,/LPS22HBTR_PressureSensor/MEMS1_INT*%
X124560000Y-84350000D03*
X124940000Y-95700000D03*
D45*
%TO.N,Net-(Q1A-D)*%
X124217042Y-99305000D03*
X123383492Y-101073370D03*
%TD*%
D46*
%TO.N,+3V3*%
X151840000Y-89360000D02*
X151840000Y-89090000D01*
X150000000Y-89560000D02*
X151640000Y-89560000D01*
X146470000Y-90270000D02*
X149290000Y-90270000D01*
X146260000Y-90060000D02*
X146470000Y-90270000D01*
X151640000Y-89560000D02*
X151840000Y-89360000D01*
X146260000Y-88120000D02*
X146260000Y-90060000D01*
X144910000Y-86770000D02*
X146260000Y-88120000D01*
X149290000Y-90270000D02*
X150000000Y-89560000D01*
X143090000Y-86910000D02*
X143230000Y-86770000D01*
X143230000Y-86770000D02*
X144910000Y-86770000D01*
X143090000Y-87330000D02*
X143090000Y-86910000D01*
D47*
%TO.N,GND*%
X151630000Y-85340000D02*
X151830000Y-85140000D01*
X151630000Y-85945000D02*
X151630000Y-85340000D01*
X151465000Y-86110000D02*
X151630000Y-85945000D01*
X151630000Y-90875000D02*
X151465000Y-90710000D01*
X152170000Y-91460000D02*
X151630000Y-90920000D01*
X151630000Y-90920000D02*
X151630000Y-90875000D01*
X149230000Y-87420000D02*
X149740000Y-86910000D01*
X147600000Y-87420000D02*
X149230000Y-87420000D01*
D46*
%TO.N,/MAX7456_OSD/VIN*%
X147580000Y-88420000D02*
X147590000Y-88410000D01*
X147190000Y-88420000D02*
X147580000Y-88420000D01*
X145050000Y-86280000D02*
X147190000Y-88420000D01*
X140880000Y-86280000D02*
X145050000Y-86280000D01*
X139670000Y-87490000D02*
X140880000Y-86280000D01*
X139670000Y-88040000D02*
X139670000Y-87490000D01*
D47*
%TO.N,+5V*%
X149550000Y-89420000D02*
X150454000Y-88516000D01*
X147600000Y-89420000D02*
X149550000Y-89420000D01*
%TO.N,GND*%
X147590000Y-87410000D02*
X147600000Y-87420000D01*
%TO.N,+5V*%
X147590000Y-89410000D02*
X147600000Y-89420000D01*
X150280000Y-84800718D02*
X149560256Y-84080974D01*
X150280000Y-88342000D02*
X150280000Y-84800718D01*
X150454000Y-88516000D02*
X150280000Y-88342000D01*
%TO.N,GND*%
X145390000Y-94480000D02*
X145100000Y-94190000D01*
X146085000Y-94480000D02*
X145390000Y-94480000D01*
X144710000Y-94580000D02*
X145100000Y-94190000D01*
X144710000Y-94730000D02*
X144710000Y-94580000D01*
D46*
%TO.N,+3V3*%
X143410000Y-105625000D02*
X143470000Y-105565000D01*
X143410000Y-107570000D02*
X143410000Y-105625000D01*
X143750000Y-107910000D02*
X143410000Y-107570000D01*
D48*
%TO.N,/ExposedPeripherals/SCL*%
X142140000Y-106205000D02*
X142770000Y-106835000D01*
X142140000Y-104200000D02*
X142140000Y-106205000D01*
X142600000Y-103740000D02*
X142140000Y-104200000D01*
D46*
%TO.N,GND*%
X118450000Y-84740000D02*
X118350000Y-84640000D01*
D47*
X151685000Y-92585000D02*
X150660000Y-92585000D01*
D46*
X140495000Y-87975000D02*
X141435000Y-87975000D01*
D47*
X146735000Y-93355000D02*
X146960000Y-93580000D01*
D46*
X117350000Y-85210000D02*
X117350000Y-84650000D01*
D48*
X128260000Y-84740000D02*
X128220000Y-84700000D01*
X143607500Y-98507500D02*
X143980000Y-98880000D01*
D46*
X146550000Y-106410000D02*
X146530000Y-106410000D01*
D48*
X139270000Y-103620000D02*
X139300000Y-103650000D01*
D46*
X125115000Y-83115000D02*
X125115000Y-83122500D01*
D48*
X127510000Y-103660000D02*
X127720000Y-103450000D01*
X123590000Y-82122500D02*
X123590000Y-81850000D01*
D46*
X124719157Y-79889157D02*
X124690000Y-79860000D01*
D47*
X146735000Y-92585000D02*
X146735000Y-93355000D01*
D48*
X139300000Y-103650000D02*
X139780000Y-103650000D01*
X139260000Y-102160000D02*
X139250000Y-102170000D01*
D47*
X126260000Y-106835000D02*
X125905000Y-106835000D01*
D48*
X140160000Y-84170000D02*
X140150000Y-84160000D01*
D46*
X140180000Y-87660000D02*
X140495000Y-87975000D01*
D47*
X131000000Y-107110000D02*
X131275000Y-106835000D01*
D46*
X117350000Y-84650000D02*
X117390000Y-84610000D01*
D47*
X141945000Y-85345000D02*
X143330000Y-83960000D01*
X145010000Y-101140000D02*
X145150000Y-101000000D01*
D46*
X119400000Y-90430000D02*
X119400000Y-90470000D01*
X127760000Y-101150000D02*
X127330000Y-101150000D01*
X128860000Y-82952500D02*
X128860000Y-82400000D01*
X131557500Y-81337500D02*
X132067500Y-81337500D01*
X123300000Y-95710000D02*
X123350000Y-95660000D01*
D48*
X123590000Y-81850000D02*
X123450000Y-81710000D01*
D47*
X130300000Y-107110000D02*
X130070000Y-106880000D01*
X120220000Y-107990000D02*
X119460000Y-107990000D01*
D46*
X147250000Y-111050000D02*
X147040000Y-111260000D01*
D47*
X146085000Y-100880000D02*
X145270000Y-100880000D01*
D46*
X144050000Y-87330000D02*
X144050000Y-87560000D01*
D47*
X128800000Y-106835000D02*
X128497500Y-106835000D01*
D46*
X118450000Y-85210000D02*
X118450000Y-84740000D01*
D47*
X127255000Y-106835000D02*
X126860000Y-106440000D01*
X119460000Y-107990000D02*
X119450000Y-108000000D01*
D46*
X122480000Y-111260000D02*
X123000000Y-111260000D01*
D48*
X121290000Y-94010000D02*
X121290000Y-93345000D01*
D46*
X125017500Y-82622500D02*
X125115000Y-82622500D01*
X126085000Y-96475000D02*
X127145000Y-96475000D01*
X119400000Y-90470000D02*
X119570000Y-90640000D01*
X143960000Y-88560000D02*
X143960000Y-89030000D01*
D48*
X128210000Y-103680000D02*
X127950000Y-103680000D01*
D46*
X147380000Y-111050000D02*
X147250000Y-111050000D01*
X144050000Y-87560000D02*
X143810000Y-87800000D01*
D47*
X128497500Y-106835000D02*
X128150000Y-106487500D01*
D48*
X144920000Y-104090000D02*
X145310000Y-103700000D01*
D47*
X130070000Y-106880000D02*
X130070000Y-106835000D01*
D48*
X138640000Y-103690000D02*
X138640000Y-104070000D01*
D47*
X122480000Y-106410000D02*
X121720000Y-106410000D01*
X126465000Y-106835000D02*
X126860000Y-106440000D01*
D48*
X143700000Y-99560000D02*
X143700000Y-99640000D01*
D46*
X123280000Y-94630000D02*
X123280000Y-94100000D01*
X128360000Y-82952500D02*
X128360000Y-82240000D01*
X122890000Y-96650000D02*
X122820000Y-96580000D01*
D47*
X121720000Y-106410000D02*
X121560000Y-106570000D01*
X145625000Y-85345000D02*
X145625000Y-85295000D01*
D48*
X143700000Y-99640000D02*
X144100000Y-100040000D01*
D47*
X151690000Y-92590000D02*
X151685000Y-92585000D01*
X130670000Y-107110000D02*
X131000000Y-107110000D01*
D48*
X139260000Y-101150000D02*
X139260000Y-102160000D01*
D47*
X141475000Y-85345000D02*
X141945000Y-85345000D01*
D46*
X123000000Y-111260000D02*
X123390000Y-111650000D01*
X147040000Y-111260000D02*
X146550000Y-111260000D01*
X126935000Y-101545000D02*
X126990000Y-101490000D01*
X122650452Y-87809548D02*
X122610000Y-87850000D01*
X146530000Y-106410000D02*
X145700000Y-107240000D01*
D47*
X145270000Y-100880000D02*
X145150000Y-101000000D01*
D48*
X143607500Y-96782500D02*
X143607500Y-97210000D01*
D47*
X130670000Y-107110000D02*
X130300000Y-107110000D01*
D46*
X128360000Y-82240000D02*
X128530000Y-82070000D01*
X129170000Y-81790000D02*
X128950000Y-81570000D01*
D48*
X126085000Y-91975000D02*
X127365000Y-91975000D01*
D47*
X150660000Y-101720000D02*
X150670000Y-101710000D01*
D46*
X129230000Y-81290000D02*
X128950000Y-81570000D01*
D47*
X131275000Y-106835000D02*
X131340000Y-106835000D01*
D48*
X127220000Y-103660000D02*
X127510000Y-103660000D01*
D47*
X152170000Y-92590000D02*
X151690000Y-92590000D01*
D48*
X128260000Y-85800000D02*
X128260000Y-84740000D01*
D46*
X126600000Y-84600000D02*
X126600000Y-84250000D01*
X124660843Y-79889157D02*
X124690000Y-79860000D01*
D48*
X140670000Y-84170000D02*
X140160000Y-84170000D01*
D46*
X131560000Y-79860000D02*
X131560000Y-80325000D01*
X122820000Y-97330000D02*
X122820000Y-96580000D01*
D47*
X145650000Y-88750000D02*
X145440000Y-88960000D01*
X146735000Y-102775000D02*
X147765000Y-102775000D01*
D46*
X126085000Y-96475000D02*
X125105000Y-96475000D01*
X129522500Y-81290000D02*
X129230000Y-81290000D01*
D47*
X147765000Y-102775000D02*
X147770000Y-102770000D01*
D48*
X121290000Y-93345000D02*
X121305000Y-93330000D01*
D47*
X126260000Y-106835000D02*
X126465000Y-106835000D01*
X125255000Y-106835000D02*
X125580000Y-106510000D01*
D46*
X130930000Y-83250000D02*
X130480000Y-83250000D01*
D48*
X122570000Y-93480000D02*
X122630000Y-93540000D01*
D46*
X131570000Y-82365000D02*
X131557500Y-82377500D01*
X131570000Y-81840000D02*
X131570000Y-82365000D01*
X143960000Y-89030000D02*
X143980000Y-89050000D01*
D47*
X127530000Y-106835000D02*
X127802500Y-106835000D01*
X150660000Y-102775000D02*
X150660000Y-101720000D01*
X145440000Y-88960000D02*
X145440000Y-90100000D01*
D46*
X123290000Y-96650000D02*
X122890000Y-96650000D01*
D48*
X144680000Y-104090000D02*
X144920000Y-104090000D01*
D46*
X122680452Y-88429675D02*
X122680452Y-87920452D01*
X126122500Y-83247500D02*
X126122500Y-83029500D01*
X123280000Y-94100000D02*
X123260000Y-94080000D01*
D48*
X122240000Y-93480000D02*
X122570000Y-93480000D01*
X122630000Y-93540000D02*
X123040000Y-93540000D01*
D46*
X125227000Y-79889157D02*
X124719157Y-79889157D01*
X127145000Y-96475000D02*
X127270000Y-96600000D01*
D48*
X143607500Y-98460000D02*
X143607500Y-98507500D01*
D47*
X144660000Y-101140000D02*
X145010000Y-101140000D01*
D46*
X131560000Y-80325000D02*
X131557500Y-80327500D01*
X126210000Y-101545000D02*
X126935000Y-101545000D01*
X124820000Y-82820000D02*
X125017500Y-82622500D01*
X123070000Y-97580000D02*
X122820000Y-97330000D01*
X130480000Y-83250000D02*
X130460000Y-83230000D01*
X125850000Y-83520000D02*
X126122500Y-83247500D01*
X123340000Y-97580000D02*
X123070000Y-97580000D01*
X123350000Y-95200000D02*
X123280000Y-95130000D01*
D47*
X127530000Y-106835000D02*
X127255000Y-106835000D01*
D46*
X122650452Y-87449675D02*
X122650452Y-87809548D01*
D47*
X124990000Y-106835000D02*
X125255000Y-106835000D01*
D46*
X125105000Y-96475000D02*
X125050000Y-96420000D01*
D47*
X125905000Y-106835000D02*
X125580000Y-106510000D01*
D46*
X123350000Y-95660000D02*
X123350000Y-95200000D01*
D47*
X127802500Y-106835000D02*
X128150000Y-106487500D01*
D46*
X129522500Y-81790000D02*
X129170000Y-81790000D01*
D48*
X138640000Y-104070000D02*
X138510000Y-104200000D01*
D46*
X122680452Y-87920452D02*
X122610000Y-87850000D01*
D48*
X127365000Y-91975000D02*
X127480000Y-92090000D01*
D46*
X126845000Y-84845000D02*
X126600000Y-84600000D01*
D48*
X127950000Y-103680000D02*
X127720000Y-103450000D01*
D46*
X132067500Y-81337500D02*
X132080000Y-81350000D01*
X124222500Y-79889157D02*
X124660843Y-79889157D01*
D47*
X145625000Y-85295000D02*
X145070000Y-84740000D01*
D46*
X128860000Y-82400000D02*
X128530000Y-82070000D01*
X127330000Y-101150000D02*
X126990000Y-101490000D01*
X124820000Y-82820000D02*
X125115000Y-83115000D01*
%TO.N,+3V3*%
X124602500Y-81229157D02*
X124222500Y-80849157D01*
X127605000Y-97475000D02*
X128378000Y-96702000D01*
D48*
X127049999Y-92640000D02*
X127690000Y-92640000D01*
X126085000Y-92475000D02*
X126884999Y-92475000D01*
D46*
X124440000Y-95050000D02*
X124440000Y-94430000D01*
D47*
X128800000Y-105565000D02*
X129410000Y-104955000D01*
D46*
X119020000Y-85870000D02*
X119010000Y-85860000D01*
X129360000Y-80627500D02*
X129872500Y-80627500D01*
X129522500Y-82290000D02*
X130510000Y-82290000D01*
D48*
X141435000Y-87475000D02*
X142415000Y-87475000D01*
X127931000Y-92399000D02*
X127931000Y-90311000D01*
D46*
X123120500Y-80909500D02*
X124162157Y-80909500D01*
D48*
X124945000Y-89975000D02*
X126085000Y-89975000D01*
D46*
X122058304Y-102803000D02*
X123715900Y-102803000D01*
D48*
X142560000Y-87330000D02*
X143090000Y-87330000D01*
D46*
X151290000Y-106630000D02*
X150460000Y-106630000D01*
X124300000Y-97640000D02*
X124300000Y-97580000D01*
X122280000Y-81750000D02*
X123120500Y-80909500D01*
X125980843Y-80849157D02*
X127010000Y-79820000D01*
X125115000Y-82122500D02*
X125340000Y-82122500D01*
D47*
X135185000Y-80150000D02*
X135120000Y-80215000D01*
D46*
X121930000Y-84140000D02*
X122280000Y-83790000D01*
D48*
X124169000Y-87759000D02*
X124169000Y-88709000D01*
D46*
X117350000Y-86480000D02*
X117495000Y-86625000D01*
D47*
X129170000Y-102720000D02*
X128210000Y-102720000D01*
D46*
X128260000Y-98130000D02*
X127605000Y-97475000D01*
D47*
X136097000Y-94114000D02*
X136146500Y-94163500D01*
X135710000Y-80150000D02*
X135981000Y-79879000D01*
D48*
X127931000Y-90311000D02*
X127595000Y-89975000D01*
X124670000Y-89210000D02*
X124670000Y-89700000D01*
D46*
X125227000Y-80849157D02*
X125980843Y-80849157D01*
X128260000Y-102670000D02*
X128210000Y-102720000D01*
D48*
X126884999Y-92475000D02*
X127049999Y-92640000D01*
D47*
X124725000Y-105565000D02*
X124240000Y-106050000D01*
D48*
X124440000Y-95050000D02*
X124440000Y-94830000D01*
D46*
X143078000Y-103937995D02*
X143078000Y-103238000D01*
D47*
X135981000Y-79879000D02*
X136290000Y-79879000D01*
D46*
X125115000Y-82122500D02*
X125115000Y-81630000D01*
D47*
X124240000Y-108110000D02*
X126617360Y-110487360D01*
D46*
X142770000Y-105565000D02*
X142770000Y-104245995D01*
D48*
X138230000Y-83230000D02*
X137610000Y-83230000D01*
X139780000Y-102540000D02*
X140200000Y-102120000D01*
D46*
X126085000Y-97475000D02*
X125135000Y-97475000D01*
X126767000Y-83372995D02*
X126767000Y-82437000D01*
X127600000Y-83730000D02*
X127600000Y-84210000D01*
X119010000Y-84330000D02*
X119200000Y-84140000D01*
D48*
X139780000Y-102690000D02*
X139780000Y-101170000D01*
X127690000Y-92640000D02*
X127931000Y-92399000D01*
D46*
X129872500Y-80627500D02*
X130172500Y-80327500D01*
X125340000Y-82122500D02*
X126069500Y-82122500D01*
D48*
X139780000Y-102690000D02*
X139780000Y-102540000D01*
X131333108Y-86853108D02*
X127923108Y-86853108D01*
D47*
X124990000Y-105565000D02*
X128800000Y-105565000D01*
D46*
X127124005Y-83730000D02*
X126767000Y-83372995D01*
X128378000Y-95472000D02*
X128925000Y-94925000D01*
X124602500Y-81860000D02*
X124602500Y-81482500D01*
X124920000Y-92710000D02*
X125155000Y-92475000D01*
D48*
X136350000Y-80255000D02*
X136350000Y-79939000D01*
X127760000Y-85800000D02*
X127760000Y-84870000D01*
D46*
X129360000Y-80050000D02*
X129360000Y-80627500D01*
D47*
X145879000Y-79879000D02*
X146190000Y-80190000D01*
D46*
X117350000Y-86170000D02*
X117350000Y-86480000D01*
D47*
X129410000Y-102960000D02*
X129170000Y-102720000D01*
D46*
X130597500Y-81337500D02*
X130597500Y-82377500D01*
D47*
X124990000Y-105565000D02*
X124725000Y-105565000D01*
D46*
X118450000Y-86170000D02*
X117350000Y-86170000D01*
D48*
X127791000Y-89779000D02*
X127791000Y-86721000D01*
D46*
X126399500Y-82069500D02*
X126122500Y-82069500D01*
X119380000Y-94780000D02*
X119440000Y-94720000D01*
X127010000Y-79820000D02*
X129130000Y-79820000D01*
D48*
X131485000Y-87005000D02*
X131333108Y-86853108D01*
D46*
X128190000Y-102700000D02*
X128210000Y-102720000D01*
X124162157Y-80909500D02*
X124222500Y-80849157D01*
D48*
X123859675Y-87449675D02*
X124169000Y-87759000D01*
D47*
X129396000Y-94114000D02*
X136097000Y-94114000D01*
D46*
X129330000Y-80020000D02*
X129360000Y-80050000D01*
X130510000Y-82290000D02*
X130597500Y-82377500D01*
X118720000Y-86170000D02*
X119020000Y-85870000D01*
D47*
X126617360Y-110487360D02*
X133480000Y-110487360D01*
D48*
X124169000Y-88709000D02*
X124670000Y-89210000D01*
D47*
X146190000Y-80190000D02*
X146190000Y-80830000D01*
D46*
X119200000Y-84140000D02*
X121930000Y-84140000D01*
X123954900Y-103042000D02*
X126770003Y-103042000D01*
X150460000Y-106630000D02*
X150170000Y-106340000D01*
D47*
X124240000Y-106050000D02*
X124240000Y-108110000D01*
D46*
X128260000Y-101150000D02*
X128260000Y-102670000D01*
X124602500Y-81482500D02*
X124602500Y-81229157D01*
D48*
X124670000Y-89700000D02*
X124945000Y-89975000D01*
D46*
X127220000Y-102700000D02*
X127112003Y-102700000D01*
D48*
X127760000Y-84870000D02*
X127560000Y-84670000D01*
D47*
X135710000Y-80150000D02*
X135185000Y-80150000D01*
D46*
X127600000Y-84210000D02*
X127560000Y-84250000D01*
X124967500Y-81482500D02*
X125227000Y-81223000D01*
X128260000Y-101150000D02*
X128260000Y-98130000D01*
X130172500Y-80327500D02*
X130597500Y-80327500D01*
X142770000Y-104245995D02*
X143078000Y-103937995D01*
X125115000Y-81630000D02*
X124967500Y-81482500D01*
X127600000Y-83730000D02*
X127124005Y-83730000D01*
D48*
X137130000Y-82750000D02*
X137130000Y-79879000D01*
D46*
X142770000Y-105565000D02*
X143470000Y-105565000D01*
X124350000Y-97690000D02*
X124300000Y-97640000D01*
X119010000Y-85860000D02*
X119010000Y-84330000D01*
D48*
X139780000Y-101170000D02*
X139760000Y-101150000D01*
D46*
X124920000Y-97690000D02*
X124350000Y-97690000D01*
D48*
X137610000Y-83230000D02*
X137130000Y-82750000D01*
D46*
X121960000Y-102704696D02*
X122058304Y-102803000D01*
D48*
X127595000Y-89975000D02*
X127791000Y-89779000D01*
D47*
X136290000Y-79879000D02*
X137130000Y-79879000D01*
D46*
X124440000Y-94430000D02*
X124920000Y-93950000D01*
D47*
X129410000Y-104955000D02*
X129410000Y-102960000D01*
D46*
X128378000Y-96702000D02*
X128378000Y-95472000D01*
X126069500Y-82122500D02*
X126122500Y-82069500D01*
X125135000Y-97475000D02*
X124920000Y-97690000D01*
D47*
X133480000Y-110487360D02*
X138427360Y-110487360D01*
D46*
X124920000Y-93950000D02*
X124920000Y-92710000D01*
D48*
X136350000Y-79939000D02*
X136290000Y-79879000D01*
D46*
X117495000Y-86625000D02*
X117495000Y-87530000D01*
X127605000Y-97475000D02*
X126085000Y-97475000D01*
D47*
X128925000Y-94895000D02*
X128925000Y-94585000D01*
D46*
X118490000Y-94780000D02*
X119380000Y-94780000D01*
D47*
X139190000Y-111250000D02*
X139190000Y-111750000D01*
D46*
X143078000Y-103238000D02*
X142040000Y-102200000D01*
D48*
X127760000Y-86690000D02*
X127760000Y-85800000D01*
X127923108Y-86853108D02*
X127791000Y-86721000D01*
D47*
X137130000Y-79879000D02*
X145879000Y-79879000D01*
X128925000Y-94585000D02*
X129396000Y-94114000D01*
D48*
X123610452Y-87449675D02*
X123859675Y-87449675D01*
D47*
X138427360Y-110487360D02*
X139190000Y-111250000D01*
D46*
X125155000Y-92475000D02*
X126085000Y-92475000D01*
X125227000Y-81223000D02*
X125227000Y-80849157D01*
D48*
X142415000Y-87475000D02*
X142560000Y-87330000D01*
D46*
X143470000Y-105565000D02*
X144040000Y-105565000D01*
X126767000Y-82437000D02*
X126399500Y-82069500D01*
X124602500Y-81482500D02*
X124967500Y-81482500D01*
X123715900Y-102803000D02*
X123954900Y-103042000D01*
D48*
X127560000Y-84670000D02*
X127560000Y-84250000D01*
D46*
X127112003Y-102700000D02*
X126822433Y-102989570D01*
X118450000Y-86170000D02*
X118720000Y-86170000D01*
X127220000Y-102700000D02*
X128190000Y-102700000D01*
X122280000Y-83790000D02*
X122280000Y-81750000D01*
X126770003Y-103042000D02*
X126822433Y-102989570D01*
D48*
X127791000Y-86721000D02*
X127760000Y-86690000D01*
X127595000Y-89975000D02*
X126085000Y-89975000D01*
X124440000Y-94830000D02*
X124240000Y-94630000D01*
D46*
X128925000Y-94925000D02*
X128925000Y-94895000D01*
X130597500Y-80327500D02*
X130597500Y-81337500D01*
X129130000Y-79820000D02*
X129330000Y-80020000D01*
D47*
%TO.N,VBUS*%
X143740000Y-103110000D02*
X143740000Y-104070000D01*
X143740000Y-104070000D02*
X143720000Y-104090000D01*
X143720000Y-104090000D02*
X143720000Y-104280000D01*
X143720000Y-104280000D02*
X143380000Y-104620000D01*
%TO.N,Net-(C10-Pad1)*%
X146790000Y-100080000D02*
X147720000Y-99150000D01*
X143700000Y-102100000D02*
X143740000Y-102140000D01*
X146085000Y-100080000D02*
X145130000Y-100080000D01*
X147720000Y-99150000D02*
X147720000Y-96150000D01*
X144820000Y-100390000D02*
X144493877Y-100390000D01*
X143743877Y-101140000D02*
X143700000Y-101140000D01*
X146850000Y-95280000D02*
X146085000Y-95280000D01*
X144493877Y-100390000D02*
X143743877Y-101140000D01*
X146085000Y-100080000D02*
X146790000Y-100080000D01*
X147720000Y-96150000D02*
X146850000Y-95280000D01*
X145130000Y-100080000D02*
X144820000Y-100390000D01*
X143700000Y-101140000D02*
X143700000Y-102100000D01*
D48*
%TO.N,/STM32F722VC_MCU/NRST*%
X139240000Y-84300000D02*
X139240000Y-83240000D01*
X139250000Y-82260000D02*
X140190000Y-81320000D01*
X139250000Y-83230000D02*
X145590000Y-83230000D01*
X128310000Y-93520000D02*
X127855000Y-93975000D01*
X139240000Y-83240000D02*
X139250000Y-83230000D01*
X140190000Y-81320000D02*
X140190000Y-80830000D01*
X139250000Y-83230000D02*
X139250000Y-82260000D01*
X127855000Y-93975000D02*
X126085000Y-93975000D01*
X136430000Y-88640000D02*
X136200000Y-88410000D01*
X136200000Y-88410000D02*
X128850000Y-88410000D01*
X145590000Y-83230000D02*
X145625000Y-83195000D01*
X136860000Y-88640000D02*
X136430000Y-88640000D01*
X128310000Y-88950000D02*
X128310000Y-93520000D01*
X128850000Y-88410000D02*
X128310000Y-88950000D01*
%TO.N,Net-(U1-VREF+)*%
X124300000Y-96600000D02*
X124300000Y-95740000D01*
X124250000Y-96650000D02*
X124300000Y-96600000D01*
X124270000Y-95710000D02*
X124260000Y-95710000D01*
X124250000Y-96680000D02*
X124250000Y-96650000D01*
X124300000Y-95740000D02*
X124270000Y-95710000D01*
X126085000Y-96975000D02*
X124545000Y-96975000D01*
X124545000Y-96975000D02*
X124250000Y-96680000D01*
%TO.N,/STM32F722VC_MCU/OSC32_OUT*%
X123350000Y-92230000D02*
X123350000Y-91740000D01*
X124000000Y-93540000D02*
X124000000Y-93150000D01*
X123350000Y-92230000D02*
X123350000Y-92500000D01*
X123615000Y-91475000D02*
X126085000Y-91475000D01*
X123350000Y-92500000D02*
X124000000Y-93150000D01*
X123350000Y-91740000D02*
X123615000Y-91475000D01*
%TO.N,/STM32F722VC_MCU/OSC32_IN*%
X123483000Y-90153000D02*
X123483000Y-89863000D01*
X123483000Y-89863000D02*
X123350000Y-89730000D01*
X123640452Y-88799548D02*
X123640452Y-88429675D01*
X126085000Y-90975000D02*
X124305000Y-90975000D01*
X124305000Y-90975000D02*
X123483000Y-90153000D01*
X123350000Y-89730000D02*
X123350000Y-89090000D01*
X123350000Y-89090000D02*
X123640452Y-88799548D01*
%TO.N,Net-(U1-VCAP_1)*%
X137780000Y-95800000D02*
X138760000Y-96780000D01*
X137780000Y-89180000D02*
X137780000Y-95800000D01*
X141435000Y-88475000D02*
X142915000Y-88475000D01*
X142915000Y-88475000D02*
X143000000Y-88560000D01*
X138760000Y-96780000D02*
X138760000Y-101150000D01*
X138760000Y-101150000D02*
X138760000Y-102610000D01*
X138760000Y-102610000D02*
X138640000Y-102730000D01*
X138460000Y-88500000D02*
X137780000Y-89180000D01*
X141410000Y-88500000D02*
X138460000Y-88500000D01*
X141435000Y-88475000D02*
X141410000Y-88500000D01*
D47*
%TO.N,+5V*%
X136420000Y-105565000D02*
X136420000Y-105190000D01*
X135430000Y-104850000D02*
X135150000Y-105130000D01*
X150940000Y-89002000D02*
X150454000Y-88516000D01*
X136420000Y-105190000D02*
X136760000Y-104850000D01*
X135150000Y-105130000D02*
X135150000Y-105565000D01*
X150940000Y-89010000D02*
X150940000Y-89002000D01*
X136760000Y-104850000D02*
X135430000Y-104850000D01*
D48*
%TO.N,Net-(U3-VCCSYN)*%
X133490000Y-89370000D02*
X133510000Y-89350000D01*
X133490000Y-92650000D02*
X133490000Y-89370000D01*
%TO.N,Net-(U3-VREGRX)*%
X129690000Y-94890000D02*
X130530000Y-94890000D01*
X130530000Y-94890000D02*
X130780000Y-94640000D01*
%TO.N,/ML5805_VTX/VREGPA*%
X122070000Y-92160000D02*
X122249000Y-92160000D01*
X122249000Y-92160000D02*
X122249000Y-92190000D01*
D46*
%TO.N,Net-(D8-A)*%
X140740000Y-114660000D02*
X140720000Y-114680000D01*
X140740000Y-109270000D02*
X140740000Y-114660000D01*
D48*
%TO.N,/STM32F722VC_MCU/USB-*%
X146085000Y-97430000D02*
X145250000Y-97430000D01*
X143728198Y-89500000D02*
X144865000Y-90636802D01*
X145250000Y-97430000D02*
X144797500Y-97430000D01*
X144797500Y-97430000D02*
X144577500Y-97210000D01*
X144865000Y-90636802D02*
X144865000Y-92843198D01*
X141435000Y-89475000D02*
X142635001Y-89475000D01*
X144577500Y-97077500D02*
X144577500Y-97210000D01*
X144865000Y-92843198D02*
X143470000Y-94238198D01*
X147040000Y-98430000D02*
X147060000Y-98450000D01*
X142635001Y-89475000D02*
X142660001Y-89500000D01*
X146085000Y-98430000D02*
X147040000Y-98430000D01*
X143470000Y-94238198D02*
X143470000Y-95970000D01*
X142660001Y-89500000D02*
X143728198Y-89500000D01*
X143470000Y-95970000D02*
X144577500Y-97077500D01*
%TO.N,/STM32F722VC_MCU/USB+*%
X146860000Y-97930000D02*
X146085000Y-97930000D01*
X142635001Y-89975000D02*
X142660001Y-89950000D01*
X146860000Y-96930000D02*
X146950000Y-97020000D01*
X142660001Y-89950000D02*
X143541802Y-89950000D01*
X145290000Y-97930000D02*
X146085000Y-97930000D01*
X146950000Y-97020000D02*
X146950000Y-97840000D01*
X143080000Y-93991802D02*
X143080000Y-97640000D01*
X144577500Y-98460000D02*
X144577500Y-97961500D01*
X146950000Y-97840000D02*
X146860000Y-97930000D01*
X143379000Y-97939000D02*
X145281000Y-97939000D01*
X144577500Y-97961500D02*
X144609000Y-97930000D01*
X143080000Y-97640000D02*
X143379000Y-97939000D01*
X144609000Y-97930000D02*
X145290000Y-97930000D01*
X145281000Y-97939000D02*
X145290000Y-97930000D01*
X144415000Y-90823198D02*
X144415000Y-92656802D01*
X143541802Y-89950000D02*
X144415000Y-90823198D01*
X141435000Y-89975000D02*
X142635001Y-89975000D01*
X146085000Y-96930000D02*
X146860000Y-96930000D01*
X144415000Y-92656802D02*
X143080000Y-93991802D01*
%TO.N,Net-(D2-A)*%
X135120000Y-82232500D02*
X135120000Y-81235000D01*
%TO.N,/STM32F722VC_MCU/Blue LED*%
X137490000Y-84120000D02*
X135420000Y-84120000D01*
X138260000Y-85800000D02*
X138260000Y-84890000D01*
X135420000Y-84120000D02*
X135120000Y-83820000D01*
X135120000Y-83820000D02*
X135120000Y-83202500D01*
X138260000Y-84890000D02*
X137490000Y-84120000D01*
%TO.N,Net-(D3-A)*%
X136350000Y-81275000D02*
X136350000Y-82295000D01*
%TO.N,/STM32F722VC_MCU/Green LED*%
X141435000Y-97975000D02*
X142234999Y-97975000D01*
X142234999Y-97975000D02*
X142600000Y-97609999D01*
X136825000Y-83265000D02*
X136890000Y-83330000D01*
X136350000Y-83265000D02*
X136825000Y-83265000D01*
X142600000Y-97609999D02*
X142600000Y-97410000D01*
%TO.N,/ExposedPeripherals/SCL*%
X142770000Y-107690000D02*
X142770000Y-106835000D01*
X143045000Y-107965000D02*
X142770000Y-107690000D01*
X132200000Y-84450000D02*
X131760000Y-84890000D01*
X131760000Y-84890000D02*
X131760000Y-85800000D01*
X132200000Y-83590000D02*
X132200000Y-84450000D01*
%TO.N,/ExposedPeripherals/SDA*%
X131600000Y-83560000D02*
X131520000Y-83640000D01*
X144760000Y-106370000D02*
X144760000Y-104820000D01*
X131260000Y-84830000D02*
X131260000Y-85800000D01*
X144040000Y-106835000D02*
X144295000Y-106835000D01*
X131520000Y-83640000D02*
X131520000Y-84570000D01*
X144295000Y-106835000D02*
X144660000Y-106470000D01*
X144660000Y-106470000D02*
X144760000Y-106370000D01*
X131520000Y-84570000D02*
X131260000Y-84830000D01*
%TO.N,/ExposedPeripherals/CAN1.RX*%
X141500000Y-107550000D02*
X141500000Y-106835000D01*
X134070000Y-108900000D02*
X140150000Y-108900000D01*
X133930000Y-109040000D02*
X134070000Y-108900000D01*
X137260000Y-85800000D02*
X137260000Y-87060000D01*
X137260000Y-87060000D02*
X137250000Y-87070000D01*
X140150000Y-108900000D02*
X141500000Y-107550000D01*
%TO.N,/ExposedPeripherals/CAN1.TX*%
X136760000Y-85800000D02*
X136760000Y-86998422D01*
X136760000Y-86998422D02*
X136700122Y-87058300D01*
X140230000Y-106835000D02*
X140230000Y-108010000D01*
X139730000Y-108510000D02*
X132970000Y-108510000D01*
X140230000Y-108010000D02*
X139730000Y-108510000D01*
X132970000Y-108510000D02*
X132780000Y-108700000D01*
%TO.N,/ExposedPeripherals/ELRS.USART2.RX*%
X137633000Y-108162000D02*
X132198000Y-108162000D01*
X132198000Y-108162000D02*
X132040000Y-108320000D01*
X126085000Y-99475000D02*
X126925000Y-99475000D01*
X126925000Y-99475000D02*
X127130000Y-99680000D01*
X138960000Y-106835000D02*
X137633000Y-108162000D01*
%TO.N,/ExposedPeripherals/ELRS.USART2.TX*%
X137690000Y-106835000D02*
X137690000Y-107440000D01*
X137460000Y-107670000D02*
X137269000Y-107861000D01*
X137269000Y-107861000D02*
X131781000Y-107861000D01*
X131781000Y-107861000D02*
X131491000Y-107861000D01*
X126085000Y-98975000D02*
X127265000Y-98975000D01*
X127265000Y-98975000D02*
X127650000Y-99360000D01*
X137690000Y-107440000D02*
X137460000Y-107670000D01*
X131491000Y-107861000D02*
X131290000Y-107660000D01*
%TO.N,/ExposedPeripherals/SPARE.UART8.TX*%
X128740117Y-84476247D02*
X128740117Y-85780117D01*
X133880000Y-106835000D02*
X133925000Y-106835000D01*
X133925000Y-106835000D02*
X134400000Y-106360000D01*
X128478288Y-84214418D02*
X128740117Y-84476247D01*
X128740117Y-85780117D02*
X128760000Y-85800000D01*
%TO.N,/ExposedPeripherals/GPS.UART5.RX*%
X136260000Y-85800000D02*
X136260000Y-86820003D01*
X136260000Y-86820003D02*
X136110003Y-86970000D01*
X135900000Y-107410000D02*
X135900000Y-107229794D01*
X135900000Y-107229794D02*
X136294794Y-106835000D01*
X136294794Y-106835000D02*
X136420000Y-106835000D01*
%TO.N,/ExposedPeripherals/GPS.UART5.TX*%
X135430000Y-106555000D02*
X135150000Y-106835000D01*
X135430000Y-106330000D02*
X135430000Y-106555000D01*
X137760000Y-85800000D02*
X137760000Y-86960000D01*
X137760000Y-86960000D02*
X137870000Y-87070000D01*
%TO.N,/ExposedPeripherals/SPARE.UART8.RX*%
X132615000Y-106835000D02*
X133140000Y-106310000D01*
X129290000Y-85770000D02*
X129260000Y-85800000D01*
X132610000Y-106835000D02*
X132615000Y-106835000D01*
X129290000Y-84230000D02*
X129290000Y-85770000D01*
X128980000Y-83920000D02*
X129290000Y-84230000D01*
D47*
%TO.N,Net-(D7-A)*%
X126175000Y-102480000D02*
X126210000Y-102515000D01*
X125250000Y-102480000D02*
X126175000Y-102480000D01*
D48*
%TO.N,/STM32F722VC_MCU/SWDIO*%
X141435000Y-88975000D02*
X139405000Y-88975000D01*
X139405000Y-88975000D02*
X139250000Y-89130000D01*
%TO.N,/STM32F722VC_MCU/SWDCLK*%
X139760000Y-84870000D02*
X139989000Y-84641000D01*
X139760000Y-85800000D02*
X139760000Y-84870000D01*
X141389000Y-84641000D02*
X142340000Y-83690000D01*
X139989000Y-84641000D02*
X141389000Y-84641000D01*
D47*
%TO.N,Batt+*%
X124445023Y-104674977D02*
X125126000Y-103994000D01*
X123280000Y-98520000D02*
X119300000Y-98520000D01*
X126952806Y-104295000D02*
X128615000Y-104295000D01*
X120733000Y-105630000D02*
X121688023Y-104674977D01*
X119034000Y-98786000D02*
X118894899Y-98925101D01*
X118894899Y-98925101D02*
X118894899Y-105535101D01*
X123590000Y-98830000D02*
X123280000Y-98520000D01*
X119141000Y-98679000D02*
X119141000Y-98682902D01*
X119141000Y-98682902D02*
X119037902Y-98786000D01*
X121688023Y-104674977D02*
X124445023Y-104674977D01*
X123590000Y-99346171D02*
X123590000Y-98830000D01*
X119300000Y-98520000D02*
X119141000Y-98679000D01*
X126651806Y-103994000D02*
X126952806Y-104295000D01*
X119037902Y-98786000D02*
X119034000Y-98786000D01*
X118800000Y-105630000D02*
X120733000Y-105630000D01*
X125126000Y-103994000D02*
X126651806Y-103994000D01*
X118894899Y-105535101D02*
X118800000Y-105630000D01*
X123517300Y-99418871D02*
X123590000Y-99346171D01*
D48*
%TO.N,Net-(U1-BOOT0)*%
X130760000Y-84810000D02*
X130930000Y-84640000D01*
X130930000Y-84640000D02*
X130930000Y-84270000D01*
X130760000Y-85800000D02*
X130760000Y-84810000D01*
%TO.N,Net-(J1-CC1)*%
X145350000Y-98930000D02*
X146085000Y-98930000D01*
X144720000Y-99560000D02*
X145350000Y-98930000D01*
D46*
%TO.N,Net-(J1-CC2)*%
X144890000Y-95930000D02*
X144710000Y-95750000D01*
X146085000Y-95930000D02*
X144890000Y-95930000D01*
D48*
%TO.N,/MAX7456_OSD/~{HSYNC}*%
X141479611Y-94519611D02*
X141435000Y-94475000D01*
X142380389Y-94519611D02*
X141479611Y-94519611D01*
X142510000Y-94390000D02*
X142380389Y-94519611D01*
%TO.N,/MAX7456_OSD/~{VSYNC}*%
X141440000Y-93970000D02*
X141435000Y-93975000D01*
X142340000Y-93970000D02*
X141440000Y-93970000D01*
X142540000Y-93770000D02*
X142340000Y-93970000D01*
%TO.N,/MAX7456_OSD/LOS*%
X142460000Y-94980000D02*
X142376651Y-94980000D01*
X142376651Y-94980000D02*
X142371651Y-94975000D01*
X142371651Y-94975000D02*
X141435000Y-94975000D01*
D46*
%TO.N,/MAX7456_OSD/OSD.~{RESET}*%
X143545000Y-91475000D02*
X141435000Y-91475000D01*
X143545000Y-91475000D02*
X143795000Y-91475000D01*
X143795000Y-91475000D02*
X143870000Y-91550000D01*
D48*
%TO.N,/ML5805_VTX/VTX.XCEN*%
X132530000Y-83070000D02*
X132742519Y-83282519D01*
X132742519Y-83282519D02*
X132742519Y-84333159D01*
X132742519Y-84333159D02*
X132260000Y-84815678D01*
X132260000Y-84815678D02*
X132260000Y-85800000D01*
%TO.N,/Battery_Monitoring/Sense.SDA*%
X138260000Y-102100000D02*
X138260000Y-101150000D01*
X138220000Y-102140000D02*
X138260000Y-102100000D01*
%TO.N,/Battery_Monitoring/Sense.SCL*%
X137760000Y-100330000D02*
X137760000Y-101150000D01*
%TO.N,/Battery_Monitoring/V.bat_sense_ctrl*%
X121730000Y-97680000D02*
X122160000Y-98110000D01*
X122160000Y-98110000D02*
X125070000Y-98110000D01*
X125070000Y-98110000D02*
X125205000Y-97975000D01*
X125205000Y-97975000D02*
X126085000Y-97975000D01*
X121730000Y-97070000D02*
X121730000Y-97680000D01*
X121430000Y-96770000D02*
X121730000Y-97070000D01*
D47*
%TO.N,Net-(J5-Pin_1)*%
X124150000Y-102400000D02*
X124230000Y-102480000D01*
X120963600Y-101806400D02*
X122266400Y-101806400D01*
X122900000Y-102400000D02*
X124150000Y-102400000D01*
X122306400Y-101806400D02*
X122900000Y-102400000D01*
X119860000Y-104935000D02*
X119860000Y-102910000D01*
X122266400Y-101806400D02*
X122306400Y-101806400D01*
X119860000Y-102910000D02*
X120963600Y-101806400D01*
D48*
%TO.N,/Battery_Monitoring/V.BAT*%
X131760000Y-100370000D02*
X131360000Y-99970000D01*
X131760000Y-101150000D02*
X131760000Y-100370000D01*
%TO.N,/STM32F722VC_MCU/Flash.~{SS}*%
X125005000Y-88475000D02*
X126085000Y-88475000D01*
X117470000Y-93355000D02*
X117495000Y-93330000D01*
X124770000Y-86560000D02*
X124770000Y-88240000D01*
X124770000Y-88240000D02*
X125005000Y-88475000D01*
X117470000Y-94780000D02*
X117470000Y-94150000D01*
X124480000Y-86270000D02*
X124770000Y-86560000D01*
X120630000Y-86270000D02*
X124480000Y-86270000D01*
X117470000Y-94150000D02*
X117470000Y-93355000D01*
%TO.N,Net-(U11-~{WP}{slash}IO_{2})*%
X120690000Y-95440000D02*
X121140000Y-95440000D01*
X120035000Y-94785000D02*
X120690000Y-95440000D01*
X120035000Y-93330000D02*
X120035000Y-94785000D01*
%TO.N,Net-(U11-~{HOLD}{slash}~{RESET}{slash}IO_{3})*%
X118765000Y-87055000D02*
X119910000Y-85910000D01*
X118765000Y-87530000D02*
X118765000Y-87055000D01*
X119910000Y-85910000D02*
X119910000Y-85190000D01*
%TO.N,Net-(U1-PD3)*%
X135760000Y-85800000D02*
X135760000Y-84670000D01*
X135760000Y-84670000D02*
X135830000Y-84600000D01*
%TO.N,Net-(U1-PD4)*%
X134361000Y-80821000D02*
X133810000Y-80270000D01*
X135260000Y-85800000D02*
X135260000Y-84680000D01*
X135260000Y-84680000D02*
X134361000Y-83781000D01*
X133810000Y-80270000D02*
X133460000Y-80270000D01*
X134361000Y-83781000D02*
X134361000Y-80821000D01*
%TO.N,Net-(U1-PD5)*%
X134760000Y-85800000D02*
X134760000Y-84730000D01*
X134760000Y-84730000D02*
X133960000Y-83930000D01*
X133960000Y-81420000D02*
X133850000Y-81310000D01*
X133960000Y-83930000D02*
X133960000Y-81420000D01*
%TO.N,Net-(U1-PD6)*%
X133400000Y-81960000D02*
X132710000Y-81960000D01*
X133560000Y-84020000D02*
X133560000Y-82120000D01*
X134260000Y-85800000D02*
X134260000Y-84720000D01*
X133560000Y-82120000D02*
X133400000Y-81960000D01*
X134260000Y-84720000D02*
X133560000Y-84020000D01*
X132710000Y-82070000D02*
X132800000Y-81980000D01*
%TO.N,Net-(U1-PD7)*%
X133760000Y-84980000D02*
X133220000Y-84440000D01*
X133220000Y-84440000D02*
X133220000Y-83000000D01*
X133220000Y-83000000D02*
X132840000Y-82620000D01*
X132840000Y-82620000D02*
X132200000Y-82620000D01*
X133760000Y-85800000D02*
X133760000Y-84980000D01*
%TO.N,/STM32F722VC_MCU/Flash.MOSI*%
X127115000Y-89475000D02*
X127490000Y-89100000D01*
X125480000Y-84870000D02*
X124780000Y-84870000D01*
X127490000Y-89100000D02*
X127490000Y-87430000D01*
X127490000Y-87430000D02*
X127490000Y-86880000D01*
X121305000Y-87530000D02*
X120900000Y-87530000D01*
X126970000Y-86360000D02*
X125480000Y-84870000D01*
X127490000Y-86880000D02*
X126970000Y-86360000D01*
X127115000Y-89475000D02*
X126085000Y-89475000D01*
X120900000Y-87530000D02*
X120760000Y-87670000D01*
%TO.N,/ExposedPeripherals/ESC3*%
X132610000Y-104940000D02*
X132820000Y-104730000D01*
X132610000Y-105565000D02*
X132610000Y-104940000D01*
X134050000Y-104730000D02*
X136260000Y-102520000D01*
X136260000Y-102520000D02*
X136260000Y-101150000D01*
X132820000Y-104730000D02*
X134050000Y-104730000D01*
%TO.N,/LPS22HBTR_PressureSensor/MEMS2_INT*%
X137260000Y-102240000D02*
X137730000Y-102710000D01*
X137260000Y-101150000D02*
X137260000Y-102240000D01*
%TO.N,/ExposedPeripherals/ESC1*%
X130070000Y-105565000D02*
X130070000Y-104560000D01*
X130070000Y-104560000D02*
X131080000Y-103550000D01*
X134260000Y-102270000D02*
X134260000Y-101150000D01*
X132980000Y-103550000D02*
X134260000Y-102270000D01*
X131080000Y-103550000D02*
X132980000Y-103550000D01*
%TO.N,/MAX7456_OSD/0SD.SCLK*%
X129260000Y-96760000D02*
X129260000Y-101150000D01*
X138240000Y-96922115D02*
X138240000Y-96840000D01*
X130120000Y-95900000D02*
X129260000Y-96760000D01*
X137300000Y-95900000D02*
X130120000Y-95900000D01*
X138235665Y-96926450D02*
X138240000Y-96922115D01*
X138240000Y-96840000D02*
X137300000Y-95900000D01*
X138235665Y-97080000D02*
X138235665Y-96926450D01*
%TO.N,/MOSI*%
X127455000Y-94975000D02*
X127900000Y-95420000D01*
X145350000Y-106860000D02*
X145350000Y-106350000D01*
X123930000Y-82600000D02*
X123612500Y-82600000D01*
X127245000Y-82335000D02*
X127245000Y-83175000D01*
X127290000Y-82290000D02*
X127245000Y-82335000D01*
X144720000Y-108140000D02*
X144720000Y-107490000D01*
X127697500Y-82290000D02*
X127290000Y-82290000D01*
X144720000Y-109040000D02*
X144720000Y-108140000D01*
X123612500Y-82600000D02*
X123590000Y-82622500D01*
X127245000Y-83175000D02*
X127320000Y-83250000D01*
X143290000Y-110470000D02*
X144720000Y-109040000D01*
X144720000Y-107490000D02*
X145350000Y-106860000D01*
X126085000Y-94975000D02*
X127455000Y-94975000D01*
X145350000Y-106350000D02*
X145430000Y-106270000D01*
%TO.N,/ExposedPeripherals/ESC7*%
X139300000Y-92980000D02*
X139805000Y-92475000D01*
X140350000Y-101040000D02*
X140690000Y-101380000D01*
X139805000Y-92475000D02*
X141435000Y-92475000D01*
X140230000Y-104360000D02*
X139280000Y-104360000D01*
X140690000Y-101380000D02*
X140690000Y-103900000D01*
X139246035Y-95822777D02*
X139300000Y-95768812D01*
X140690000Y-103900000D02*
X140230000Y-104360000D01*
X138960000Y-104680000D02*
X138960000Y-105565000D01*
X139280000Y-104360000D02*
X138960000Y-104680000D01*
X139300000Y-95768812D02*
X139300000Y-92980000D01*
%TO.N,/LSM6DSOX_IMU/IMU1_INT*%
X129360000Y-83330000D02*
X129360000Y-82952500D01*
X130260000Y-85800000D02*
X130260000Y-84230000D01*
X130260000Y-84230000D02*
X129360000Y-83330000D01*
%TO.N,/LSM6DSOX_IMU/IMU2_INT*%
X134240000Y-99920000D02*
X134060000Y-99920000D01*
X134060000Y-99920000D02*
X133760000Y-100220000D01*
X133760000Y-100220000D02*
X133760000Y-101150000D01*
%TO.N,/ExposedPeripherals/ESC6*%
X140230000Y-105040000D02*
X140230000Y-105565000D01*
X139770000Y-95990000D02*
X139770000Y-93470000D01*
X140445000Y-100315000D02*
X141120000Y-100990000D01*
X141120000Y-100990000D02*
X141120000Y-104150000D01*
X141120000Y-104150000D02*
X140230000Y-105040000D01*
X139770000Y-93470000D02*
X140265000Y-92975000D01*
X140265000Y-92975000D02*
X141435000Y-92975000D01*
%TO.N,/LSM6DSOX_IMU/IMU2.CS*%
X142040000Y-100300000D02*
X142040000Y-100050000D01*
X142040000Y-100050000D02*
X141465000Y-99475000D01*
X141465000Y-99475000D02*
X141435000Y-99475000D01*
%TO.N,/ML5805_VTX/VTX.SDO*%
X132760000Y-99920000D02*
X132481000Y-99641000D01*
X132481000Y-97339646D02*
X132574959Y-97245687D01*
X132481000Y-99641000D02*
X132481000Y-97339646D01*
X132760000Y-99920000D02*
X132760000Y-101150000D01*
%TO.N,/MAX7456_OSD/OSD.MISO*%
X130360000Y-96320000D02*
X136980000Y-96320000D01*
X136980000Y-96320000D02*
X137480000Y-96820000D01*
X145580000Y-92860000D02*
X145580000Y-91320000D01*
X145870000Y-91030000D02*
X149530000Y-91030000D01*
X129760000Y-96920000D02*
X130360000Y-96320000D01*
X149530000Y-91030000D02*
X149670000Y-91170000D01*
X145580000Y-91320000D02*
X145870000Y-91030000D01*
X143920000Y-94450000D02*
X143990000Y-94450000D01*
X129760000Y-101150000D02*
X129760000Y-96920000D01*
X143990000Y-94450000D02*
X145580000Y-92860000D01*
%TO.N,/ExposedPeripherals/ESC2*%
X131790000Y-104050000D02*
X134130000Y-104050000D01*
X135260000Y-102920000D02*
X135260000Y-101150000D01*
X134130000Y-104050000D02*
X135260000Y-102920000D01*
X131340000Y-105565000D02*
X131340000Y-104500000D01*
X131340000Y-104500000D02*
X131790000Y-104050000D01*
%TO.N,/ExposedPeripherals/ESC5*%
X140635001Y-93475000D02*
X141435000Y-93475000D01*
X141500000Y-100432837D02*
X141500000Y-105565000D01*
X140250000Y-93860001D02*
X140635001Y-93475000D01*
X141127962Y-100060799D02*
X141500000Y-100432837D01*
X140281396Y-95787572D02*
X140250000Y-95756176D01*
X140250000Y-95756176D02*
X140250000Y-93860001D01*
%TO.N,/ML5805_VTX/VTX.CS*%
X129850000Y-87455000D02*
X129850000Y-87850000D01*
X139260000Y-87660000D02*
X139260000Y-85800000D01*
X139010000Y-87910000D02*
X139260000Y-87660000D01*
X129850000Y-87850000D02*
X129910000Y-87910000D01*
X129910000Y-87910000D02*
X139010000Y-87910000D01*
X129797500Y-87402500D02*
X129850000Y-87455000D01*
%TO.N,/STM32F722VC_MCU/Flash.CLK*%
X120211000Y-86034678D02*
X120035000Y-86210678D01*
X125080000Y-86050000D02*
X124810000Y-85780000D01*
X120211000Y-85999000D02*
X120211000Y-86034678D01*
X120430000Y-85780000D02*
X120211000Y-85999000D01*
X124810000Y-85780000D02*
X120430000Y-85780000D01*
X125265000Y-87475000D02*
X125080000Y-87290000D01*
X125080000Y-87290000D02*
X125080000Y-86050000D01*
X126085000Y-87475000D02*
X125265000Y-87475000D01*
X120035000Y-86210678D02*
X120035000Y-87530000D01*
%TO.N,/MISO*%
X127860000Y-83264999D02*
X127860000Y-82952500D01*
X128368922Y-83675398D02*
X128247127Y-83553603D01*
X126085000Y-95475000D02*
X127197448Y-95475000D01*
X123590000Y-83830000D02*
X123570000Y-83850000D01*
X128148604Y-83553603D02*
X127860000Y-83264999D01*
X123590000Y-83122500D02*
X123590000Y-83830000D01*
X128247127Y-83553603D02*
X128148604Y-83553603D01*
X127197448Y-95475000D02*
X127609432Y-95886984D01*
%TO.N,/LPS22HBTR_PressureSensor/MEMS2_CS*%
X134760000Y-99550000D02*
X134760000Y-101150000D01*
X135720000Y-98590000D02*
X134760000Y-99550000D01*
X137000000Y-98590000D02*
X135720000Y-98590000D01*
%TO.N,/ML5805_VTX/VTX.CLK*%
X138760000Y-87130000D02*
X138760000Y-85800000D01*
X138369000Y-87521000D02*
X138760000Y-87130000D01*
X130985892Y-87304108D02*
X131202784Y-87521000D01*
X131202784Y-87521000D02*
X138369000Y-87521000D01*
%TO.N,/SCLK*%
X146917000Y-113270000D02*
X147880000Y-112307000D01*
X147880000Y-109290000D02*
X147880000Y-107970000D01*
X124030000Y-81510000D02*
X124030000Y-81560000D01*
X142595000Y-98975000D02*
X141435000Y-98975000D01*
X124030000Y-81560000D02*
X124102500Y-81632500D01*
X141910000Y-111090000D02*
X141910000Y-112690000D01*
X142845000Y-98975000D02*
X142910000Y-98910000D01*
X127637500Y-81850000D02*
X127697500Y-81790000D01*
X126870000Y-81850000D02*
X127637500Y-81850000D01*
X147880000Y-107970000D02*
X148380000Y-107470000D01*
X147880000Y-112307000D02*
X147880000Y-109290000D01*
X141910000Y-112690000D02*
X141910000Y-112750000D01*
X142595000Y-98975000D02*
X142845000Y-98975000D01*
X142430000Y-113270000D02*
X146917000Y-113270000D01*
X142010000Y-110990000D02*
X141910000Y-111090000D01*
X124102500Y-81632500D02*
X124102500Y-81860000D01*
X141910000Y-112750000D02*
X142430000Y-113270000D01*
X124000000Y-81480000D02*
X124030000Y-81510000D01*
%TO.N,/STM32F722VC_MCU/Flash.MISO*%
X124470000Y-86940000D02*
X124470000Y-88400000D01*
X118765000Y-93330000D02*
X118765000Y-94005000D01*
X125045000Y-88975000D02*
X126085000Y-88975000D01*
X124250000Y-86720000D02*
X124470000Y-86940000D01*
X120740678Y-86859322D02*
X120740678Y-86839322D01*
X124470000Y-88400000D02*
X125045000Y-88975000D01*
X120640000Y-86960000D02*
X120740678Y-86859322D01*
X120740678Y-86839322D02*
X120860000Y-86720000D01*
X120860000Y-86720000D02*
X124250000Y-86720000D01*
X118765000Y-94005000D02*
X119050000Y-94290000D01*
%TO.N,/LSM6DSOX_IMU/IMU1.CS*%
X129760000Y-85800000D02*
X129760000Y-84620000D01*
X128150000Y-81290000D02*
X128270000Y-81410000D01*
X127697500Y-81290000D02*
X128150000Y-81290000D01*
X129760000Y-84620000D02*
X129770000Y-84610000D01*
%TO.N,/ExposedPeripherals/ESC8*%
X138770000Y-96039378D02*
X138770000Y-92630000D01*
X137690000Y-103560000D02*
X137690000Y-105565000D01*
X138770000Y-92630000D02*
X139425000Y-91975000D01*
X139425000Y-91975000D02*
X141435000Y-91975000D01*
X137490000Y-103360000D02*
X137690000Y-103560000D01*
X138749678Y-96059700D02*
X138770000Y-96039378D01*
%TO.N,/ExposedPeripherals/ESC4*%
X136760000Y-102580000D02*
X136760000Y-101150000D01*
X133880000Y-105565000D02*
X133880000Y-105460000D01*
X133880000Y-105460000D02*
X136760000Y-102580000D01*
%TO.N,/MAX7456_OSD/OSD.~{CS}*%
X129770000Y-95350000D02*
X128760000Y-96360000D01*
X128760000Y-96360000D02*
X128760000Y-101150000D01*
X137310000Y-95400000D02*
X137260000Y-95350000D01*
X137260000Y-95350000D02*
X129770000Y-95350000D01*
X137310000Y-95420000D02*
X137310000Y-95400000D01*
%TO.N,/MAX7456_OSD/OSD.MOSI*%
X130169000Y-97361000D02*
X130169000Y-99769000D01*
X137800000Y-97420000D02*
X137140000Y-97420000D01*
X130780000Y-96750000D02*
X130169000Y-97361000D01*
X136470000Y-96750000D02*
X130780000Y-96750000D01*
X130169000Y-99769000D02*
X130260000Y-99860000D01*
X130260000Y-99860000D02*
X130260000Y-101150000D01*
X137140000Y-97420000D02*
X136470000Y-96750000D01*
%TO.N,/LPS22HBTR_PressureSensor/MEMS1_CS*%
X124470000Y-85400000D02*
X124102500Y-85032500D01*
X124102500Y-85032500D02*
X124102500Y-83385000D01*
X127080000Y-87672402D02*
X127086000Y-87666402D01*
X127080000Y-87760000D02*
X127080000Y-87672402D01*
X127080000Y-87277598D02*
X127080000Y-87000000D01*
X125650000Y-86700000D02*
X125510000Y-86560000D01*
X127086000Y-87283598D02*
X127080000Y-87277598D01*
X126865000Y-87975000D02*
X127080000Y-87760000D01*
X127086000Y-87666402D02*
X127086000Y-87283598D01*
X126085000Y-87975000D02*
X126865000Y-87975000D01*
X125510000Y-86560000D02*
X125510000Y-85610000D01*
X126780000Y-86700000D02*
X125650000Y-86700000D01*
X125300000Y-85400000D02*
X124470000Y-85400000D01*
X125510000Y-85610000D02*
X125300000Y-85400000D01*
X127080000Y-87000000D02*
X126780000Y-86700000D01*
%TO.N,/LPS22HBTR_PressureSensor/MEMS1_INT*%
X124940000Y-94814189D02*
X124940000Y-95700000D01*
X124560000Y-84350000D02*
X124560000Y-83427500D01*
X126085000Y-94475000D02*
X125279189Y-94475000D01*
X124560000Y-83427500D02*
X124602500Y-83385000D01*
X125279189Y-94475000D02*
X124940000Y-94814189D01*
D46*
%TO.N,Net-(Q1A-D)*%
X124190000Y-99332042D02*
X124190000Y-100900000D01*
X124016630Y-101073370D02*
X123383492Y-101073370D01*
X124190000Y-100900000D02*
X124016630Y-101073370D01*
X124217042Y-99305000D02*
X124190000Y-99332042D01*
D48*
%TO.N,GND*%
X117666399Y-103353601D02*
X117770000Y-103250000D01*
X117666399Y-103700001D02*
X117666399Y-103353601D01*
D46*
X117666399Y-99299999D02*
X117666399Y-99843601D01*
D47*
X122540349Y-104098977D02*
X122518977Y-104098977D01*
D46*
X117666399Y-99843601D02*
X117520000Y-99990000D01*
D47*
X122266400Y-103846400D02*
X122266400Y-103599998D01*
%TO.N,Net-(J5-Pin_1)*%
X122266400Y-99400002D02*
X122266400Y-101806400D01*
%TO.N,GND*%
X122518977Y-104098977D02*
X122266400Y-103846400D01*
%TD*%
M02*
